<?xml version="1.0" encoding="utf-8" standalone="no"?>
<!DOCTYPE svg PUBLIC "-//W3C//DTD SVG 1.1//EN"
  "http://www.w3.org/Graphics/SVG/1.1/DTD/svg11.dtd">
<svg xmlns:xlink="http://www.w3.org/1999/xlink" width="609.700312pt" height="311.615312pt" viewBox="0 0 609.700312 311.615312" xmlns="http://www.w3.org/2000/svg" version="1.1">
 <metadata>
  <rdf:RDF xmlns:dc="http://purl.org/dc/elements/1.1/" xmlns:cc="http://creativecommons.org/ns#" xmlns:rdf="http://www.w3.org/1999/02/22-rdf-syntax-ns#">
   <cc:Work>
    <dc:type rdf:resource="http://purl.org/dc/dcmitype/StillImage"/>
    <dc:date>2026-04-16T21:06:17.616811</dc:date>
    <dc:format>image/svg+xml</dc:format>
    <dc:creator>
     <cc:Agent>
      <dc:title>Matplotlib v3.10.8, https://matplotlib.org/</dc:title>
     </cc:Agent>
    </dc:creator>
   </cc:Work>
  </rdf:RDF>
 </metadata>
 <defs>
  <style type="text/css">*{stroke-linejoin: round; stroke-linecap: butt}</style>
 </defs>
 <g id="figure_1">
  <g id="patch_1">
   <path d="M 0 311.615312 
L 609.700312 311.615312 
L 609.700312 0 
L 0 0 
z
" style="fill: #ffffff"/>
  </g>
  <g id="axes_1">
   <g id="patch_2">
    <path d="M 41.25125 273.415469 
L 590.26625 273.415469 
L 590.26625 22.671719 
L 41.25125 22.671719 
z
" style="fill: #ffffff"/>
   </g>
   <g id="matplotlib.axis_1">
    <g id="xtick_1">
     <g id="line2d_1">
      <path d="M 41.25125 273.415469 
L 41.25125 22.671719 
" clip-path="url(#pe2fe55acb1)" style="fill: none; stroke: #cccccc; stroke-width: 0.8; stroke-linecap: round"/>
     </g>
     <g id="line2d_2"/>
     <g id="text_1">
      <!-- 400 -->
      <g style="fill: #262626" transform="translate(32.075703 284.789062) scale(0.11 -0.11)">
       <defs>
        <path id="ArialMT-34" d="M 2069 0 
L 2069 1097 
L 81 1097 
L 81 1613 
L 2172 4581 
L 2631 4581 
L 2631 1613 
L 3250 1613 
L 3250 1097 
L 2631 1097 
L 2631 0 
L 2069 0 
z
M 2069 1613 
L 2069 3678 
L 634 1613 
L 2069 1613 
z
" transform="scale(0.015625)"/>
        <path id="ArialMT-30" d="M 266 2259 
Q 266 3072 433 3567 
Q 600 4063 929 4331 
Q 1259 4600 1759 4600 
Q 2128 4600 2406 4451 
Q 2684 4303 2865 4023 
Q 3047 3744 3150 3342 
Q 3253 2941 3253 2259 
Q 3253 1453 3087 958 
Q 2922 463 2592 192 
Q 2263 -78 1759 -78 
Q 1097 -78 719 397 
Q 266 969 266 2259 
z
M 844 2259 
Q 844 1131 1108 757 
Q 1372 384 1759 384 
Q 2147 384 2411 759 
Q 2675 1134 2675 2259 
Q 2675 3391 2411 3762 
Q 2147 4134 1753 4134 
Q 1366 4134 1134 3806 
Q 844 3388 844 2259 
z
" transform="scale(0.015625)"/>
       </defs>
       <use xlink:href="#ArialMT-34"/>
       <use xlink:href="#ArialMT-30" transform="translate(55.615234 0)"/>
       <use xlink:href="#ArialMT-30" transform="translate(111.230469 0)"/>
      </g>
     </g>
    </g>
    <g id="xtick_2">
     <g id="line2d_3">
      <path d="M 119.681964 273.415469 
L 119.681964 22.671719 
" clip-path="url(#pe2fe55acb1)" style="fill: none; stroke: #cccccc; stroke-width: 0.8; stroke-linecap: round"/>
     </g>
     <g id="line2d_4"/>
     <g id="text_2">
      <!-- 600 -->
      <g style="fill: #262626" transform="translate(110.506417 284.789062) scale(0.11 -0.11)">
       <defs>
        <path id="ArialMT-36" d="M 3184 3459 
L 2625 3416 
Q 2550 3747 2413 3897 
Q 2184 4138 1850 4138 
Q 1581 4138 1378 3988 
Q 1113 3794 959 3422 
Q 806 3050 800 2363 
Q 1003 2672 1297 2822 
Q 1591 2972 1913 2972 
Q 2475 2972 2870 2558 
Q 3266 2144 3266 1488 
Q 3266 1056 3080 686 
Q 2894 316 2569 119 
Q 2244 -78 1831 -78 
Q 1128 -78 684 439 
Q 241 956 241 2144 
Q 241 3472 731 4075 
Q 1159 4600 1884 4600 
Q 2425 4600 2770 4297 
Q 3116 3994 3184 3459 
z
M 888 1484 
Q 888 1194 1011 928 
Q 1134 663 1356 523 
Q 1578 384 1822 384 
Q 2178 384 2434 671 
Q 2691 959 2691 1453 
Q 2691 1928 2437 2201 
Q 2184 2475 1800 2475 
Q 1419 2475 1153 2201 
Q 888 1928 888 1484 
z
" transform="scale(0.015625)"/>
       </defs>
       <use xlink:href="#ArialMT-36"/>
       <use xlink:href="#ArialMT-30" transform="translate(55.615234 0)"/>
       <use xlink:href="#ArialMT-30" transform="translate(111.230469 0)"/>
      </g>
     </g>
    </g>
    <g id="xtick_3">
     <g id="line2d_5">
      <path d="M 198.112679 273.415469 
L 198.112679 22.671719 
" clip-path="url(#pe2fe55acb1)" style="fill: none; stroke: #cccccc; stroke-width: 0.8; stroke-linecap: round"/>
     </g>
     <g id="line2d_6"/>
     <g id="text_3">
      <!-- 800 -->
      <g style="fill: #262626" transform="translate(188.937132 284.789062) scale(0.11 -0.11)">
       <defs>
        <path id="ArialMT-38" d="M 1131 2484 
Q 781 2613 612 2850 
Q 444 3088 444 3419 
Q 444 3919 803 4259 
Q 1163 4600 1759 4600 
Q 2359 4600 2725 4251 
Q 3091 3903 3091 3403 
Q 3091 3084 2923 2848 
Q 2756 2613 2416 2484 
Q 2838 2347 3058 2040 
Q 3278 1734 3278 1309 
Q 3278 722 2862 322 
Q 2447 -78 1769 -78 
Q 1091 -78 675 323 
Q 259 725 259 1325 
Q 259 1772 486 2073 
Q 713 2375 1131 2484 
z
M 1019 3438 
Q 1019 3113 1228 2906 
Q 1438 2700 1772 2700 
Q 2097 2700 2305 2904 
Q 2513 3109 2513 3406 
Q 2513 3716 2298 3927 
Q 2084 4138 1766 4138 
Q 1444 4138 1231 3931 
Q 1019 3725 1019 3438 
z
M 838 1322 
Q 838 1081 952 856 
Q 1066 631 1291 507 
Q 1516 384 1775 384 
Q 2178 384 2440 643 
Q 2703 903 2703 1303 
Q 2703 1709 2433 1975 
Q 2163 2241 1756 2241 
Q 1359 2241 1098 1978 
Q 838 1716 838 1322 
z
" transform="scale(0.015625)"/>
       </defs>
       <use xlink:href="#ArialMT-38"/>
       <use xlink:href="#ArialMT-30" transform="translate(55.615234 0)"/>
       <use xlink:href="#ArialMT-30" transform="translate(111.230469 0)"/>
      </g>
     </g>
    </g>
    <g id="xtick_4">
     <g id="line2d_7">
      <path d="M 276.543393 273.415469 
L 276.543393 22.671719 
" clip-path="url(#pe2fe55acb1)" style="fill: none; stroke: #cccccc; stroke-width: 0.8; stroke-linecap: round"/>
     </g>
     <g id="line2d_8"/>
     <g id="text_4">
      <!-- 1000 -->
      <g style="fill: #262626" transform="translate(264.30933 284.789062) scale(0.11 -0.11)">
       <defs>
        <path id="ArialMT-31" d="M 2384 0 
L 1822 0 
L 1822 3584 
Q 1619 3391 1289 3197 
Q 959 3003 697 2906 
L 697 3450 
Q 1169 3672 1522 3987 
Q 1875 4303 2022 4600 
L 2384 4600 
L 2384 0 
z
" transform="scale(0.015625)"/>
       </defs>
       <use xlink:href="#ArialMT-31"/>
       <use xlink:href="#ArialMT-30" transform="translate(55.615234 0)"/>
       <use xlink:href="#ArialMT-30" transform="translate(111.230469 0)"/>
       <use xlink:href="#ArialMT-30" transform="translate(166.845703 0)"/>
      </g>
     </g>
    </g>
    <g id="xtick_5">
     <g id="line2d_9">
      <path d="M 354.974107 273.415469 
L 354.974107 22.671719 
" clip-path="url(#pe2fe55acb1)" style="fill: none; stroke: #cccccc; stroke-width: 0.8; stroke-linecap: round"/>
     </g>
     <g id="line2d_10"/>
     <g id="text_5">
      <!-- 1200 -->
      <g style="fill: #262626" transform="translate(342.740045 284.789062) scale(0.11 -0.11)">
       <defs>
        <path id="ArialMT-32" d="M 3222 541 
L 3222 0 
L 194 0 
Q 188 203 259 391 
Q 375 700 629 1000 
Q 884 1300 1366 1694 
Q 2113 2306 2375 2664 
Q 2638 3022 2638 3341 
Q 2638 3675 2398 3904 
Q 2159 4134 1775 4134 
Q 1369 4134 1125 3890 
Q 881 3647 878 3216 
L 300 3275 
Q 359 3922 746 4261 
Q 1134 4600 1788 4600 
Q 2447 4600 2831 4234 
Q 3216 3869 3216 3328 
Q 3216 3053 3103 2787 
Q 2991 2522 2730 2228 
Q 2469 1934 1863 1422 
Q 1356 997 1212 845 
Q 1069 694 975 541 
L 3222 541 
z
" transform="scale(0.015625)"/>
       </defs>
       <use xlink:href="#ArialMT-31"/>
       <use xlink:href="#ArialMT-32" transform="translate(55.615234 0)"/>
       <use xlink:href="#ArialMT-30" transform="translate(111.230469 0)"/>
       <use xlink:href="#ArialMT-30" transform="translate(166.845703 0)"/>
      </g>
     </g>
    </g>
    <g id="xtick_6">
     <g id="line2d_11">
      <path d="M 433.404821 273.415469 
L 433.404821 22.671719 
" clip-path="url(#pe2fe55acb1)" style="fill: none; stroke: #cccccc; stroke-width: 0.8; stroke-linecap: round"/>
     </g>
     <g id="line2d_12"/>
     <g id="text_6">
      <!-- 1400 -->
      <g style="fill: #262626" transform="translate(421.170759 284.789062) scale(0.11 -0.11)">
       <use xlink:href="#ArialMT-31"/>
       <use xlink:href="#ArialMT-34" transform="translate(55.615234 0)"/>
       <use xlink:href="#ArialMT-30" transform="translate(111.230469 0)"/>
       <use xlink:href="#ArialMT-30" transform="translate(166.845703 0)"/>
      </g>
     </g>
    </g>
    <g id="xtick_7">
     <g id="line2d_13">
      <path d="M 511.835536 273.415469 
L 511.835536 22.671719 
" clip-path="url(#pe2fe55acb1)" style="fill: none; stroke: #cccccc; stroke-width: 0.8; stroke-linecap: round"/>
     </g>
     <g id="line2d_14"/>
     <g id="text_7">
      <!-- 1600 -->
      <g style="fill: #262626" transform="translate(499.601473 284.789062) scale(0.11 -0.11)">
       <use xlink:href="#ArialMT-31"/>
       <use xlink:href="#ArialMT-36" transform="translate(55.615234 0)"/>
       <use xlink:href="#ArialMT-30" transform="translate(111.230469 0)"/>
       <use xlink:href="#ArialMT-30" transform="translate(166.845703 0)"/>
      </g>
     </g>
    </g>
    <g id="xtick_8">
     <g id="line2d_15">
      <path d="M 590.26625 273.415469 
L 590.26625 22.671719 
" clip-path="url(#pe2fe55acb1)" style="fill: none; stroke: #cccccc; stroke-width: 0.8; stroke-linecap: round"/>
     </g>
     <g id="line2d_16"/>
     <g id="text_8">
      <!-- 1800 -->
      <g style="fill: #262626" transform="translate(578.032187 284.789062) scale(0.11 -0.11)">
       <use xlink:href="#ArialMT-31"/>
       <use xlink:href="#ArialMT-38" transform="translate(55.615234 0)"/>
       <use xlink:href="#ArialMT-30" transform="translate(111.230469 0)"/>
       <use xlink:href="#ArialMT-30" transform="translate(166.845703 0)"/>
      </g>
     </g>
    </g>
    <g id="text_9">
     <!-- Raman Shift (cm$^{-1}$) -->
     <g style="fill: #262626" transform="translate(262.65875 301.775312) scale(0.12 -0.12)">
      <defs>
       <path id="ArialMT-52" d="M 503 0 
L 503 4581 
L 2534 4581 
Q 3147 4581 3465 4457 
Q 3784 4334 3975 4021 
Q 4166 3709 4166 3331 
Q 4166 2844 3850 2509 
Q 3534 2175 2875 2084 
Q 3116 1969 3241 1856 
Q 3506 1613 3744 1247 
L 4541 0 
L 3778 0 
L 3172 953 
Q 2906 1366 2734 1584 
Q 2563 1803 2427 1890 
Q 2291 1978 2150 2013 
Q 2047 2034 1813 2034 
L 1109 2034 
L 1109 0 
L 503 0 
z
M 1109 2559 
L 2413 2559 
Q 2828 2559 3062 2645 
Q 3297 2731 3419 2920 
Q 3541 3109 3541 3331 
Q 3541 3656 3305 3865 
Q 3069 4075 2559 4075 
L 1109 4075 
L 1109 2559 
z
" transform="scale(0.015625)"/>
       <path id="ArialMT-61" d="M 2588 409 
Q 2275 144 1986 34 
Q 1697 -75 1366 -75 
Q 819 -75 525 192 
Q 231 459 231 875 
Q 231 1119 342 1320 
Q 453 1522 633 1644 
Q 813 1766 1038 1828 
Q 1203 1872 1538 1913 
Q 2219 1994 2541 2106 
Q 2544 2222 2544 2253 
Q 2544 2597 2384 2738 
Q 2169 2928 1744 2928 
Q 1347 2928 1158 2789 
Q 969 2650 878 2297 
L 328 2372 
Q 403 2725 575 2942 
Q 747 3159 1072 3276 
Q 1397 3394 1825 3394 
Q 2250 3394 2515 3294 
Q 2781 3194 2906 3042 
Q 3031 2891 3081 2659 
Q 3109 2516 3109 2141 
L 3109 1391 
Q 3109 606 3145 398 
Q 3181 191 3288 0 
L 2700 0 
Q 2613 175 2588 409 
z
M 2541 1666 
Q 2234 1541 1622 1453 
Q 1275 1403 1131 1340 
Q 988 1278 909 1158 
Q 831 1038 831 891 
Q 831 666 1001 516 
Q 1172 366 1500 366 
Q 1825 366 2078 508 
Q 2331 650 2450 897 
Q 2541 1088 2541 1459 
L 2541 1666 
z
" transform="scale(0.015625)"/>
       <path id="ArialMT-6d" d="M 422 0 
L 422 3319 
L 925 3319 
L 925 2853 
Q 1081 3097 1340 3245 
Q 1600 3394 1931 3394 
Q 2300 3394 2536 3241 
Q 2772 3088 2869 2813 
Q 3263 3394 3894 3394 
Q 4388 3394 4653 3120 
Q 4919 2847 4919 2278 
L 4919 0 
L 4359 0 
L 4359 2091 
Q 4359 2428 4304 2576 
Q 4250 2725 4106 2815 
Q 3963 2906 3769 2906 
Q 3419 2906 3187 2673 
Q 2956 2441 2956 1928 
L 2956 0 
L 2394 0 
L 2394 2156 
Q 2394 2531 2256 2718 
Q 2119 2906 1806 2906 
Q 1569 2906 1367 2781 
Q 1166 2656 1075 2415 
Q 984 2175 984 1722 
L 984 0 
L 422 0 
z
" transform="scale(0.015625)"/>
       <path id="ArialMT-6e" d="M 422 0 
L 422 3319 
L 928 3319 
L 928 2847 
Q 1294 3394 1984 3394 
Q 2284 3394 2536 3286 
Q 2788 3178 2913 3003 
Q 3038 2828 3088 2588 
Q 3119 2431 3119 2041 
L 3119 0 
L 2556 0 
L 2556 2019 
Q 2556 2363 2490 2533 
Q 2425 2703 2258 2804 
Q 2091 2906 1866 2906 
Q 1506 2906 1245 2678 
Q 984 2450 984 1813 
L 984 0 
L 422 0 
z
" transform="scale(0.015625)"/>
       <path id="ArialMT-20" transform="scale(0.015625)"/>
       <path id="ArialMT-53" d="M 288 1472 
L 859 1522 
Q 900 1178 1048 958 
Q 1197 738 1509 602 
Q 1822 466 2213 466 
Q 2559 466 2825 569 
Q 3091 672 3220 851 
Q 3350 1031 3350 1244 
Q 3350 1459 3225 1620 
Q 3100 1781 2813 1891 
Q 2628 1963 1997 2114 
Q 1366 2266 1113 2400 
Q 784 2572 623 2826 
Q 463 3081 463 3397 
Q 463 3744 659 4045 
Q 856 4347 1234 4503 
Q 1613 4659 2075 4659 
Q 2584 4659 2973 4495 
Q 3363 4331 3572 4012 
Q 3781 3694 3797 3291 
L 3216 3247 
Q 3169 3681 2898 3903 
Q 2628 4125 2100 4125 
Q 1550 4125 1298 3923 
Q 1047 3722 1047 3438 
Q 1047 3191 1225 3031 
Q 1400 2872 2139 2705 
Q 2878 2538 3153 2413 
Q 3553 2228 3743 1945 
Q 3934 1663 3934 1294 
Q 3934 928 3725 604 
Q 3516 281 3123 101 
Q 2731 -78 2241 -78 
Q 1619 -78 1198 103 
Q 778 284 539 648 
Q 300 1013 288 1472 
z
" transform="scale(0.015625)"/>
       <path id="ArialMT-68" d="M 422 0 
L 422 4581 
L 984 4581 
L 984 2938 
Q 1378 3394 1978 3394 
Q 2347 3394 2619 3248 
Q 2891 3103 3008 2847 
Q 3125 2591 3125 2103 
L 3125 0 
L 2563 0 
L 2563 2103 
Q 2563 2525 2380 2717 
Q 2197 2909 1863 2909 
Q 1613 2909 1392 2779 
Q 1172 2650 1078 2428 
Q 984 2206 984 1816 
L 984 0 
L 422 0 
z
" transform="scale(0.015625)"/>
       <path id="ArialMT-69" d="M 425 3934 
L 425 4581 
L 988 4581 
L 988 3934 
L 425 3934 
z
M 425 0 
L 425 3319 
L 988 3319 
L 988 0 
L 425 0 
z
" transform="scale(0.015625)"/>
       <path id="ArialMT-66" d="M 556 0 
L 556 2881 
L 59 2881 
L 59 3319 
L 556 3319 
L 556 3672 
Q 556 4006 616 4169 
Q 697 4388 901 4523 
Q 1106 4659 1475 4659 
Q 1713 4659 2000 4603 
L 1916 4113 
Q 1741 4144 1584 4144 
Q 1328 4144 1222 4034 
Q 1116 3925 1116 3625 
L 1116 3319 
L 1763 3319 
L 1763 2881 
L 1116 2881 
L 1116 0 
L 556 0 
z
" transform="scale(0.015625)"/>
       <path id="ArialMT-74" d="M 1650 503 
L 1731 6 
Q 1494 -44 1306 -44 
Q 1000 -44 831 53 
Q 663 150 594 308 
Q 525 466 525 972 
L 525 2881 
L 113 2881 
L 113 3319 
L 525 3319 
L 525 4141 
L 1084 4478 
L 1084 3319 
L 1650 3319 
L 1650 2881 
L 1084 2881 
L 1084 941 
Q 1084 700 1114 631 
Q 1144 563 1211 522 
Q 1278 481 1403 481 
Q 1497 481 1650 503 
z
" transform="scale(0.015625)"/>
       <path id="ArialMT-28" d="M 1497 -1347 
Q 1031 -759 709 28 
Q 388 816 388 1659 
Q 388 2403 628 3084 
Q 909 3875 1497 4659 
L 1900 4659 
Q 1522 4009 1400 3731 
Q 1209 3300 1100 2831 
Q 966 2247 966 1656 
Q 966 153 1900 -1347 
L 1497 -1347 
z
" transform="scale(0.015625)"/>
       <path id="ArialMT-63" d="M 2588 1216 
L 3141 1144 
Q 3050 572 2676 248 
Q 2303 -75 1759 -75 
Q 1078 -75 664 370 
Q 250 816 250 1647 
Q 250 2184 428 2587 
Q 606 2991 970 3192 
Q 1334 3394 1763 3394 
Q 2303 3394 2647 3120 
Q 2991 2847 3088 2344 
L 2541 2259 
Q 2463 2594 2264 2762 
Q 2066 2931 1784 2931 
Q 1359 2931 1093 2626 
Q 828 2322 828 1663 
Q 828 994 1084 691 
Q 1341 388 1753 388 
Q 2084 388 2306 591 
Q 2528 794 2588 1216 
z
" transform="scale(0.015625)"/>
       <path id="DejaVuSans-2212" d="M 678 2272 
L 4684 2272 
L 4684 1741 
L 678 1741 
L 678 2272 
z
" transform="scale(0.015625)"/>
       <path id="DejaVuSans-31" d="M 794 531 
L 1825 531 
L 1825 4091 
L 703 3866 
L 703 4441 
L 1819 4666 
L 2450 4666 
L 2450 531 
L 3481 531 
L 3481 0 
L 794 0 
L 794 531 
z
" transform="scale(0.015625)"/>
       <path id="ArialMT-29" d="M 791 -1347 
L 388 -1347 
Q 1322 153 1322 1656 
Q 1322 2244 1188 2822 
Q 1081 3291 891 3722 
Q 769 4003 388 4659 
L 791 4659 
Q 1378 3875 1659 3084 
Q 1900 2403 1900 1659 
Q 1900 816 1576 28 
Q 1253 -759 791 -1347 
z
" transform="scale(0.015625)"/>
      </defs>
      <use xlink:href="#ArialMT-52" transform="translate(0 0.684375)"/>
      <use xlink:href="#ArialMT-61" transform="translate(72.216797 0.684375)"/>
      <use xlink:href="#ArialMT-6d" transform="translate(127.832031 0.684375)"/>
      <use xlink:href="#ArialMT-61" transform="translate(211.132812 0.684375)"/>
      <use xlink:href="#ArialMT-6e" transform="translate(266.748047 0.684375)"/>
      <use xlink:href="#ArialMT-20" transform="translate(322.363281 0.684375)"/>
      <use xlink:href="#ArialMT-53" transform="translate(350.146484 0.684375)"/>
      <use xlink:href="#ArialMT-68" transform="translate(416.845703 0.684375)"/>
      <use xlink:href="#ArialMT-69" transform="translate(472.460938 0.684375)"/>
      <use xlink:href="#ArialMT-66" transform="translate(494.677734 0.684375)"/>
      <use xlink:href="#ArialMT-74" transform="translate(522.460938 0.684375)"/>
      <use xlink:href="#ArialMT-20" transform="translate(550.244141 0.684375)"/>
      <use xlink:href="#ArialMT-28" transform="translate(578.027344 0.684375)"/>
      <use xlink:href="#ArialMT-63" transform="translate(611.328125 0.684375)"/>
      <use xlink:href="#ArialMT-6d" transform="translate(661.328125 0.684375)"/>
      <use xlink:href="#DejaVuSans-2212" transform="translate(745.585938 38.965625) scale(0.7)"/>
      <use xlink:href="#DejaVuSans-31" transform="translate(804.238281 38.965625) scale(0.7)"/>
      <use xlink:href="#ArialMT-29" transform="translate(851.508789 0.684375)"/>
     </g>
    </g>
   </g>
   <g id="matplotlib.axis_2">
    <g id="ytick_1">
     <g id="line2d_17">
      <path d="M 41.25125 273.415469 
L 590.26625 273.415469 
" clip-path="url(#pe2fe55acb1)" style="fill: none; stroke: #cccccc; stroke-width: 0.8; stroke-linecap: round"/>
     </g>
     <g id="line2d_18"/>
     <g id="text_10">
      <!-- 0.0 -->
      <g style="fill: #262626" transform="translate(22.46125 277.352266) scale(0.11 -0.11)">
       <defs>
        <path id="ArialMT-2e" d="M 581 0 
L 581 641 
L 1222 641 
L 1222 0 
L 581 0 
z
" transform="scale(0.015625)"/>
       </defs>
       <use xlink:href="#ArialMT-30"/>
       <use xlink:href="#ArialMT-2e" transform="translate(55.615234 0)"/>
       <use xlink:href="#ArialMT-30" transform="translate(83.398438 0)"/>
      </g>
     </g>
    </g>
    <g id="ytick_2">
     <g id="line2d_19">
      <path d="M 41.25125 225.654754 
L 590.26625 225.654754 
" clip-path="url(#pe2fe55acb1)" style="fill: none; stroke: #cccccc; stroke-width: 0.8; stroke-linecap: round"/>
     </g>
     <g id="line2d_20"/>
     <g id="text_11">
      <!-- 0.2 -->
      <g style="fill: #262626" transform="translate(22.46125 229.591551) scale(0.11 -0.11)">
       <use xlink:href="#ArialMT-30"/>
       <use xlink:href="#ArialMT-2e" transform="translate(55.615234 0)"/>
       <use xlink:href="#ArialMT-32" transform="translate(83.398438 0)"/>
      </g>
     </g>
    </g>
    <g id="ytick_3">
     <g id="line2d_21">
      <path d="M 41.25125 177.89404 
L 590.26625 177.89404 
" clip-path="url(#pe2fe55acb1)" style="fill: none; stroke: #cccccc; stroke-width: 0.8; stroke-linecap: round"/>
     </g>
     <g id="line2d_22"/>
     <g id="text_12">
      <!-- 0.4 -->
      <g style="fill: #262626" transform="translate(22.46125 181.830837) scale(0.11 -0.11)">
       <use xlink:href="#ArialMT-30"/>
       <use xlink:href="#ArialMT-2e" transform="translate(55.615234 0)"/>
       <use xlink:href="#ArialMT-34" transform="translate(83.398438 0)"/>
      </g>
     </g>
    </g>
    <g id="ytick_4">
     <g id="line2d_23">
      <path d="M 41.25125 130.133326 
L 590.26625 130.133326 
" clip-path="url(#pe2fe55acb1)" style="fill: none; stroke: #cccccc; stroke-width: 0.8; stroke-linecap: round"/>
     </g>
     <g id="line2d_24"/>
     <g id="text_13">
      <!-- 0.6 -->
      <g style="fill: #262626" transform="translate(22.46125 134.070123) scale(0.11 -0.11)">
       <use xlink:href="#ArialMT-30"/>
       <use xlink:href="#ArialMT-2e" transform="translate(55.615234 0)"/>
       <use xlink:href="#ArialMT-36" transform="translate(83.398438 0)"/>
      </g>
     </g>
    </g>
    <g id="ytick_5">
     <g id="line2d_25">
      <path d="M 41.25125 82.372612 
L 590.26625 82.372612 
" clip-path="url(#pe2fe55acb1)" style="fill: none; stroke: #cccccc; stroke-width: 0.8; stroke-linecap: round"/>
     </g>
     <g id="line2d_26"/>
     <g id="text_14">
      <!-- 0.8 -->
      <g style="fill: #262626" transform="translate(22.46125 86.309408) scale(0.11 -0.11)">
       <use xlink:href="#ArialMT-30"/>
       <use xlink:href="#ArialMT-2e" transform="translate(55.615234 0)"/>
       <use xlink:href="#ArialMT-38" transform="translate(83.398438 0)"/>
      </g>
     </g>
    </g>
    <g id="ytick_6">
     <g id="line2d_27">
      <path d="M 41.25125 34.611897 
L 590.26625 34.611897 
" clip-path="url(#pe2fe55acb1)" style="fill: none; stroke: #cccccc; stroke-width: 0.8; stroke-linecap: round"/>
     </g>
     <g id="line2d_28"/>
     <g id="text_15">
      <!-- 1.0 -->
      <g style="fill: #262626" transform="translate(22.46125 38.548694) scale(0.11 -0.11)">
       <use xlink:href="#ArialMT-31"/>
       <use xlink:href="#ArialMT-2e" transform="translate(55.615234 0)"/>
       <use xlink:href="#ArialMT-30" transform="translate(83.398438 0)"/>
      </g>
     </g>
    </g>
    <g id="text_16">
     <!-- Relative Intensity (a.u.) -->
     <g style="fill: #262626" transform="translate(15.935625 209.399219) rotate(-90) scale(0.12 -0.12)">
      <defs>
       <path id="ArialMT-65" d="M 2694 1069 
L 3275 997 
Q 3138 488 2766 206 
Q 2394 -75 1816 -75 
Q 1088 -75 661 373 
Q 234 822 234 1631 
Q 234 2469 665 2931 
Q 1097 3394 1784 3394 
Q 2450 3394 2872 2941 
Q 3294 2488 3294 1666 
Q 3294 1616 3291 1516 
L 816 1516 
Q 847 969 1125 678 
Q 1403 388 1819 388 
Q 2128 388 2347 550 
Q 2566 713 2694 1069 
z
M 847 1978 
L 2700 1978 
Q 2663 2397 2488 2606 
Q 2219 2931 1791 2931 
Q 1403 2931 1139 2672 
Q 875 2413 847 1978 
z
" transform="scale(0.015625)"/>
       <path id="ArialMT-6c" d="M 409 0 
L 409 4581 
L 972 4581 
L 972 0 
L 409 0 
z
" transform="scale(0.015625)"/>
       <path id="ArialMT-76" d="M 1344 0 
L 81 3319 
L 675 3319 
L 1388 1331 
Q 1503 1009 1600 663 
Q 1675 925 1809 1294 
L 2547 3319 
L 3125 3319 
L 1869 0 
L 1344 0 
z
" transform="scale(0.015625)"/>
       <path id="ArialMT-49" d="M 597 0 
L 597 4581 
L 1203 4581 
L 1203 0 
L 597 0 
z
" transform="scale(0.015625)"/>
       <path id="ArialMT-73" d="M 197 991 
L 753 1078 
Q 800 744 1014 566 
Q 1228 388 1613 388 
Q 2000 388 2187 545 
Q 2375 703 2375 916 
Q 2375 1106 2209 1216 
Q 2094 1291 1634 1406 
Q 1016 1563 777 1677 
Q 538 1791 414 1992 
Q 291 2194 291 2438 
Q 291 2659 392 2848 
Q 494 3038 669 3163 
Q 800 3259 1026 3326 
Q 1253 3394 1513 3394 
Q 1903 3394 2198 3281 
Q 2494 3169 2634 2976 
Q 2775 2784 2828 2463 
L 2278 2388 
Q 2241 2644 2061 2787 
Q 1881 2931 1553 2931 
Q 1166 2931 1000 2803 
Q 834 2675 834 2503 
Q 834 2394 903 2306 
Q 972 2216 1119 2156 
Q 1203 2125 1616 2013 
Q 2213 1853 2448 1751 
Q 2684 1650 2818 1456 
Q 2953 1263 2953 975 
Q 2953 694 2789 445 
Q 2625 197 2315 61 
Q 2006 -75 1616 -75 
Q 969 -75 630 194 
Q 291 463 197 991 
z
" transform="scale(0.015625)"/>
       <path id="ArialMT-79" d="M 397 -1278 
L 334 -750 
Q 519 -800 656 -800 
Q 844 -800 956 -737 
Q 1069 -675 1141 -563 
Q 1194 -478 1313 -144 
Q 1328 -97 1363 -6 
L 103 3319 
L 709 3319 
L 1400 1397 
Q 1534 1031 1641 628 
Q 1738 1016 1872 1384 
L 2581 3319 
L 3144 3319 
L 1881 -56 
Q 1678 -603 1566 -809 
Q 1416 -1088 1222 -1217 
Q 1028 -1347 759 -1347 
Q 597 -1347 397 -1278 
z
" transform="scale(0.015625)"/>
       <path id="ArialMT-75" d="M 2597 0 
L 2597 488 
Q 2209 -75 1544 -75 
Q 1250 -75 995 37 
Q 741 150 617 320 
Q 494 491 444 738 
Q 409 903 409 1263 
L 409 3319 
L 972 3319 
L 972 1478 
Q 972 1038 1006 884 
Q 1059 663 1231 536 
Q 1403 409 1656 409 
Q 1909 409 2131 539 
Q 2353 669 2445 892 
Q 2538 1116 2538 1541 
L 2538 3319 
L 3100 3319 
L 3100 0 
L 2597 0 
z
" transform="scale(0.015625)"/>
      </defs>
      <use xlink:href="#ArialMT-52"/>
      <use xlink:href="#ArialMT-65" transform="translate(72.216797 0)"/>
      <use xlink:href="#ArialMT-6c" transform="translate(127.832031 0)"/>
      <use xlink:href="#ArialMT-61" transform="translate(150.048828 0)"/>
      <use xlink:href="#ArialMT-74" transform="translate(205.664062 0)"/>
      <use xlink:href="#ArialMT-69" transform="translate(233.447266 0)"/>
      <use xlink:href="#ArialMT-76" transform="translate(255.664062 0)"/>
      <use xlink:href="#ArialMT-65" transform="translate(305.664062 0)"/>
      <use xlink:href="#ArialMT-20" transform="translate(361.279297 0)"/>
      <use xlink:href="#ArialMT-49" transform="translate(389.0625 0)"/>
      <use xlink:href="#ArialMT-6e" transform="translate(416.845703 0)"/>
      <use xlink:href="#ArialMT-74" transform="translate(472.460938 0)"/>
      <use xlink:href="#ArialMT-65" transform="translate(500.244141 0)"/>
      <use xlink:href="#ArialMT-6e" transform="translate(555.859375 0)"/>
      <use xlink:href="#ArialMT-73" transform="translate(611.474609 0)"/>
      <use xlink:href="#ArialMT-69" transform="translate(661.474609 0)"/>
      <use xlink:href="#ArialMT-74" transform="translate(683.691406 0)"/>
      <use xlink:href="#ArialMT-79" transform="translate(711.474609 0)"/>
      <use xlink:href="#ArialMT-20" transform="translate(761.474609 0)"/>
      <use xlink:href="#ArialMT-28" transform="translate(789.257812 0)"/>
      <use xlink:href="#ArialMT-61" transform="translate(822.558594 0)"/>
      <use xlink:href="#ArialMT-2e" transform="translate(878.173828 0)"/>
      <use xlink:href="#ArialMT-75" transform="translate(905.957031 0)"/>
      <use xlink:href="#ArialMT-2e" transform="translate(961.572266 0)"/>
      <use xlink:href="#ArialMT-29" transform="translate(989.355469 0)"/>
     </g>
    </g>
   </g>
   <g id="line2d_29">
    <path d="M 41.25125 273.155616 
L 41.643404 272.476748 
L 42.035557 271.017576 
L 42.427711 269.084267 
L 42.819864 267.883595 
L 43.212018 268.419431 
L 43.996325 271.967719 
L 44.388479 272.909479 
L 44.780632 273.09972 
L 45.172786 272.70832 
L 45.957093 270.821905 
L 46.349246 270.427095 
L 46.7414 270.980442 
L 47.525707 272.829919 
L 47.917861 273.168274 
L 48.310014 273.038629 
L 48.702168 272.401196 
L 49.486475 270.329814 
L 49.878629 270.207657 
L 50.270782 271.056476 
L 50.662936 272.179191 
L 51.055089 272.885313 
L 51.447243 272.875705 
L 51.839396 271.808216 
L 52.23155 269.206078 
L 52.623704 265.524513 
L 53.015857 262.949337 
L 53.408011 263.599186 
L 54.192318 270.34178 
L 54.584471 272.262043 
L 54.976625 272.502652 
L 55.368779 271.089944 
L 56.545239 262.335077 
L 56.937393 264.039599 
L 57.7217 271.028893 
L 58.113854 272.624758 
L 58.506007 272.916818 
L 58.898161 272.328972 
L 59.682468 269.907559 
L 60.074621 269.628483 
L 60.466775 270.524203 
L 61.251082 272.791766 
L 61.643236 273.100142 
L 62.035389 272.782615 
L 62.427543 271.752407 
L 63.21185 268.964076 
L 63.604004 269.07968 
L 64.780464 272.772047 
L 65.172618 272.584467 
L 65.564771 270.902163 
L 66.741232 259.886389 
L 67.133386 261.525876 
L 67.917693 270.034781 
L 68.309846 271.550339 
L 68.702 269.351544 
L 69.094154 261.196255 
L 69.878461 230.093679 
L 70.270614 224.844806 
L 70.662768 234.908544 
L 71.447075 264.772704 
L 71.839229 270.523241 
L 72.231382 270.941691 
L 72.623536 267.63138 
L 73.407843 256.869378 
L 73.799996 256.679394 
L 74.976457 271.128043 
L 75.368611 272.23608 
L 75.760764 271.01094 
L 76.152918 267.449382 
L 76.545071 262.548063 
L 76.937225 259.391749 
L 77.329379 260.617746 
L 78.113686 269.619053 
L 78.505839 272.012435 
L 78.897993 272.26565 
L 79.290146 270.497499 
L 80.074454 262.397961 
L 80.466607 260.587902 
L 80.858761 262.854336 
L 81.643068 270.869561 
L 82.035221 272.589802 
L 82.427375 272.890065 
L 82.819529 272.282892 
L 83.603836 269.949427 
L 83.995989 269.774733 
L 84.388143 270.710978 
L 84.780296 271.992389 
L 85.17245 272.867086 
L 85.564604 273.164945 
L 85.956757 272.965184 
L 86.348911 272.274055 
L 87.133218 270.524488 
L 87.525371 270.675633 
L 88.309679 272.534918 
L 88.701832 273.051637 
L 89.093986 272.996547 
L 89.486139 272.207376 
L 90.6626 267.432498 
L 91.054754 268.299185 
L 91.839061 271.998594 
L 92.231214 272.431053 
L 92.623368 270.778437 
L 93.015521 265.529606 
L 93.799829 246.915658 
L 94.191982 244.507288 
L 94.584136 251.116121 
L 95.368443 268.690246 
L 95.760596 271.945754 
L 96.15275 272.419318 
L 96.544904 271.295621 
L 97.329211 267.699738 
L 97.721364 267.790304 
L 98.897825 272.700665 
L 99.289979 273.027014 
L 99.682132 272.59287 
L 100.074286 271.418114 
L 100.466439 269.874451 
L 100.858593 268.969332 
L 101.250746 269.467259 
L 102.035054 272.26425 
L 102.427207 272.7444 
L 102.819361 271.863221 
L 103.211514 268.675308 
L 103.995821 256.25191 
L 104.387975 253.971242 
L 104.780129 257.83896 
L 105.564436 269.848825 
L 105.956589 272.225369 
L 106.348743 272.441435 
L 106.740896 271.15074 
L 107.525204 266.807595 
L 107.917357 266.661911 
L 109.093818 272.496326 
L 109.485971 273.092295 
L 109.878125 273.031332 
L 110.270279 272.516813 
L 110.662432 271.767486 
L 111.054586 271.267011 
L 111.446739 271.434374 
L 112.231046 272.817005 
L 112.6232 273.201883 
L 113.015354 273.27927 
L 113.407507 273.103889 
L 114.583968 272.013942 
L 114.976121 272.249479 
L 115.760429 273.124969 
L 116.152582 273.300264 
L 116.544736 273.265151 
L 116.936889 273.014017 
L 117.721196 272.144377 
L 118.11335 272.066312 
L 119.681964 273.286953 
L 120.074118 273.118139 
L 120.466271 272.636013 
L 121.250579 271.397254 
L 121.642732 271.482758 
L 122.427039 272.779125 
L 122.819193 273.135852 
L 123.211346 273.034901 
L 123.6035 272.267226 
L 124.779961 267.536359 
L 125.172114 268.335481 
L 125.956421 271.982162 
L 126.348575 272.426296 
L 126.740729 270.770743 
L 127.132882 265.432083 
L 127.917189 246.02572 
L 128.309343 243.224199 
L 128.701496 249.883025 
L 129.485804 268.330273 
L 129.877957 271.849719 
L 130.270111 272.456351 
L 130.662264 271.443703 
L 131.446571 268.004336 
L 131.838725 268.034465 
L 133.015186 272.719879 
L 133.407339 273.078102 
L 133.799493 272.766052 
L 134.191646 271.837245 
L 134.5838 270.589641 
L 134.975954 269.830339 
L 135.368107 270.198675 
L 136.152414 272.470674 
L 136.544568 272.934896 
L 136.936721 272.479463 
L 137.328875 270.58545 
L 138.113182 262.964616 
L 138.505336 261.452199 
L 138.897489 263.731473 
L 139.681796 271.129277 
L 140.07395 272.522149 
L 140.466104 272.247154 
L 140.858257 270.363608 
L 141.642564 264.264679 
L 142.034718 263.965047 
L 142.426871 266.51387 
L 142.819025 269.848969 
L 143.211179 272.093354 
L 143.603332 272.969422 
L 143.995486 272.943854 
L 144.387639 272.326318 
L 144.779793 271.39989 
L 145.171946 270.760485 
L 145.5641 270.941719 
L 146.348407 272.651465 
L 146.740561 273.133488 
L 147.132714 273.205691 
L 147.524868 272.89641 
L 148.701329 270.99454 
L 149.093482 271.380183 
L 149.877789 272.880217 
L 150.269943 273.101486 
L 150.662096 272.684925 
L 151.05425 271.290944 
L 151.838557 266.518606 
L 152.230711 266.018463 
L 152.622864 267.805019 
L 153.015018 270.399359 
L 153.407171 272.214038 
L 153.799325 272.777246 
L 154.191479 272.071077 
L 154.583632 269.887043 
L 155.367939 264.092106 
L 155.760093 264.39409 
L 156.936554 272.363366 
L 157.328707 273.017751 
L 157.720861 272.847364 
L 158.897321 270.616895 
L 159.289475 270.972344 
L 160.073782 272.747568 
L 160.465936 273.151413 
L 160.858089 273.099817 
L 161.250243 272.5539 
L 162.03455 270.416299 
L 162.426704 270.074987 
L 162.818857 270.783861 
L 163.603164 272.770244 
L 163.995318 272.866752 
L 164.387471 271.82404 
L 164.779625 268.977837 
L 165.563932 260.754098 
L 165.956086 260.692426 
L 167.132546 271.667283 
L 167.5247 272.320308 
L 167.916854 270.842114 
L 168.309007 266.992515 
L 168.701161 261.785274 
L 169.093314 258.505463 
L 169.485468 259.898399 
L 170.269775 269.480224 
L 170.661929 272.107507 
L 171.054082 272.903304 
L 171.446236 272.627628 
L 172.230543 270.606724 
L 172.622696 270.167079 
L 173.01485 270.75855 
L 173.799157 272.779591 
L 174.191311 273.189504 
L 174.583464 273.193586 
L 174.975618 272.864855 
L 175.759925 271.736002 
L 176.152079 271.662891 
L 177.328539 273.154992 
L 177.720693 273.289167 
L 178.112846 273.172439 
L 178.505 272.798648 
L 179.289307 271.872966 
L 179.681461 271.96322 
L 180.465768 272.956953 
L 180.857921 273.24079 
L 181.250075 273.268377 
L 181.642229 273.030922 
L 182.818689 271.559337 
L 183.210843 271.838804 
L 183.99515 273.003591 
L 184.387304 273.235044 
L 184.779457 273.131213 
L 185.171611 272.618913 
L 185.955918 270.782165 
L 186.348071 270.561693 
L 186.740225 271.228154 
L 187.524532 272.921527 
L 187.916686 273.071707 
L 188.308839 272.528568 
L 188.700993 271.024792 
L 189.4853 266.960097 
L 189.877454 267.10356 
L 190.661761 271.230032 
L 191.053914 272.309172 
L 191.446068 271.394415 
L 191.838221 266.889252 
L 193.014682 237.752722 
L 193.406836 241.957099 
L 194.191143 264.691016 
L 194.583296 270.267187 
L 194.97545 270.797052 
L 195.367604 266.882126 
L 196.151911 250.340911 
L 196.544064 247.447077 
L 196.936218 252.749213 
L 197.720525 268.756291 
L 198.112679 271.93061 
L 198.504832 272.41359 
L 198.896986 271.245644 
L 199.681293 267.194222 
L 200.073446 267.098839 
L 201.249907 272.550276 
L 201.642061 273.005328 
L 202.034214 272.643752 
L 202.426368 271.508757 
L 202.818521 269.930505 
L 203.210675 268.90125 
L 203.602829 269.280128 
L 204.387136 272.174387 
L 204.779289 272.924064 
L 205.171443 272.884736 
L 205.563596 271.947055 
L 206.347904 267.79869 
L 206.740057 266.850808 
L 207.132211 267.989276 
L 207.916518 272.017143 
L 208.308671 272.50656 
L 208.700825 271.117389 
L 209.092979 266.785888 
L 209.877286 252.602544 
L 210.269439 251.468969 
L 210.661593 257.047954 
L 211.053746 264.74396 
L 211.4459 269.862346 
L 211.838054 270.75499 
L 212.230207 266.359922 
L 212.622361 254.835291 
L 213.406668 225.908139 
L 213.798821 228.220781 
L 214.583129 258.924861 
L 214.975282 268.346933 
L 215.367436 271.264545 
L 215.759589 269.807858 
L 216.93605 256.152715 
L 217.328204 258.598115 
L 218.112511 269.399344 
L 218.504664 271.268754 
L 218.896818 268.889813 
L 219.288971 260.138271 
L 220.073279 228.512422 
L 220.465432 224.244361 
L 220.857586 235.337584 
L 221.641893 264.994155 
L 222.034046 269.247661 
L 222.4262 265.249032 
L 222.818354 251.732424 
L 223.602661 213.717734 
L 223.994814 214.437758 
L 225.171275 266.1937 
L 225.563429 271.089842 
L 225.955582 271.077116 
L 226.347736 268.255627 
L 226.739889 264.281623 
L 227.132043 261.906182 
L 227.524196 263.157153 
L 228.308504 270.516892 
L 228.700657 272.39611 
L 229.092811 272.706411 
L 229.484964 271.753656 
L 230.269271 267.453113 
L 230.661425 266.635269 
L 231.053579 267.962565 
L 231.837886 272.093322 
L 232.230039 272.621716 
L 232.622193 271.541028 
L 233.014346 268.172623 
L 233.798654 257.836067 
L 234.190807 257.431299 
L 235.367268 271.11952 
L 235.759421 272.138636 
L 236.151575 270.636814 
L 236.543729 266.390705 
L 236.935882 260.433536 
L 237.328036 256.423158 
L 237.720189 257.686959 
L 238.504496 268.642389 
L 238.89665 271.798484 
L 239.288804 272.781676 
L 239.680957 272.444565 
L 240.857418 269.16711 
L 241.249571 269.867657 
L 242.033879 272.531601 
L 242.426032 273.102072 
L 242.818186 273.126561 
L 243.210339 272.699335 
L 243.994646 271.141495 
L 244.3868 270.992653 
L 244.778954 271.589942 
L 245.563261 273.034762 
L 245.955414 273.23966 
L 246.347568 273.096285 
L 246.739721 272.595175 
L 247.524029 271.277988 
L 247.916182 271.360776 
L 249.092643 273.157719 
L 249.484796 273.215318 
L 249.87695 272.902014 
L 251.053411 270.784852 
L 251.445564 271.133977 
L 252.229871 272.794183 
L 252.622025 273.137743 
L 253.014179 272.969176 
L 253.406332 272.138757 
L 254.190639 269.015637 
L 254.582793 268.547041 
L 254.974946 269.605076 
L 255.3671 271.292926 
L 255.759254 272.469729 
L 256.151407 272.502249 
L 256.543561 270.634934 
L 256.935714 265.684326 
L 257.720021 251.64149 
L 258.112175 251.679086 
L 259.288636 270.554208 
L 259.680789 271.934308 
L 260.072943 270.390663 
L 260.465096 265.9986 
L 260.85725 260.081265 
L 261.249404 256.433575 
L 261.641557 258.12109 
L 262.425864 269.015074 
L 262.818018 271.925537 
L 263.210171 272.672024 
L 263.602325 271.971124 
L 264.386632 268.20777 
L 264.778786 267.431786 
L 265.170939 268.553147 
L 265.955246 272.240046 
L 266.3474 272.851606 
L 266.739554 272.362946 
L 267.131707 270.5139 
L 267.916014 264.623975 
L 268.308168 264.301232 
L 268.700321 266.731903 
L 269.092475 269.926699 
L 269.484629 271.954611 
L 269.876782 272.073269 
L 270.268936 269.564544 
L 270.661089 263.379816 
L 271.053243 254.656689 
L 271.445396 248.603857 
L 271.83755 250.208627 
L 272.621857 266.156842 
L 273.014011 270.493023 
L 273.406164 270.239602 
L 273.798318 264.47744 
L 274.974779 230.895394 
L 275.366932 237.536091 
L 276.151239 264.349199 
L 276.543393 270.513087 
L 276.935546 271.952218 
L 277.3277 270.605857 
L 278.112007 264.4817 
L 278.504161 263.797902 
L 278.896314 266.093255 
L 279.288468 269.467577 
L 279.680621 271.863818 
L 280.072775 272.729019 
L 280.464929 272.240405 
L 280.857082 270.38803 
L 281.641389 265.364425 
L 282.033543 265.595187 
L 282.81785 270.762673 
L 283.210004 272.208438 
L 283.602157 271.654882 
L 283.994311 267.969319 
L 285.170771 244.298012 
L 285.562925 247.899035 
L 286.347232 266.396618 
L 286.739386 270.69068 
L 287.131539 270.35785 
L 287.523693 265.160255 
L 288.308 244.484334 
L 288.700154 241.069281 
L 289.092307 247.842196 
L 289.876614 267.691384 
L 290.268768 271.419194 
L 290.660921 271.4219 
L 291.053075 268.57481 
L 291.837382 259.609945 
L 292.229536 259.489769 
L 293.405996 271.250229 
L 293.79815 271.015246 
L 294.190304 266.237891 
L 294.582457 255.137184 
L 294.974611 240.165102 
L 295.366764 230.623666 
L 295.758918 234.472506 
L 296.543225 261.909252 
L 296.935379 269.064566 
L 297.327532 269.412252 
L 297.719686 262.875321 
L 298.503993 233.734621 
L 298.896146 227.343083 
L 299.2883 235.58784 
L 300.072607 264.290686 
L 300.464761 270.148033 
L 300.856914 270.152256 
L 301.249068 265.260439 
L 302.033375 248.345881 
L 302.425529 247.154595 
L 302.817682 253.96122 
L 303.209836 263.201168 
L 303.601989 269.445096 
L 303.994143 271.373796 
L 304.386296 269.249928 
L 304.77845 262.745851 
L 305.170604 253.291372 
L 305.562757 246.521645 
L 305.954911 247.998173 
L 306.739218 265.284398 
L 307.131371 270.01744 
L 307.523525 269.327235 
L 307.915679 261.527518 
L 309.092139 214.989979 
L 309.484293 223.599594 
L 310.2686 260.576107 
L 310.660754 269.338136 
L 311.052907 271.64611 
L 311.445061 270.37879 
L 312.229368 263.66488 
L 312.621521 262.80915 
L 313.013675 265.256398 
L 313.797982 271.677688 
L 314.190136 272.779571 
L 314.582289 272.652172 
L 314.974443 271.532243 
L 315.75875 268.317583 
L 316.150904 268.412131 
L 317.327364 272.775783 
L 317.719518 273.027854 
L 318.111671 272.531261 
L 318.503825 271.260956 
L 318.895979 269.605197 
L 319.288132 268.644439 
L 319.680286 269.190742 
L 320.464593 272.222282 
L 320.856746 272.907342 
L 321.2489 272.694775 
L 321.641054 271.359173 
L 322.425361 266.037977 
L 322.817514 265.080761 
L 323.209668 266.755227 
L 323.993975 271.710649 
L 324.386129 271.823118 
L 324.778282 268.568557 
L 325.170436 259.674823 
L 325.954743 233.075885 
L 326.346896 232.299484 
L 327.523357 267.768888 
L 327.915511 270.964308 
L 328.307664 269.2502 
L 328.699818 263.200095 
L 329.091971 254.684048 
L 329.484125 249.0599 
L 329.876279 251.01902 
L 330.660586 266.661896 
L 331.052739 270.852559 
L 331.444893 271.102772 
L 331.837046 267.320166 
L 332.621354 250.000453 
L 333.013507 245.944825 
L 333.405661 250.625258 
L 334.189968 267.826717 
L 334.582121 271.529886 
L 334.974275 271.981389 
L 335.366429 270.082554 
L 336.150736 263.010065 
L 336.542889 262.401861 
L 336.935043 265.171774 
L 337.327196 269.047726 
L 337.71935 271.744008 
L 338.111504 272.773739 
L 338.503657 272.533623 
L 338.895811 271.241247 
L 339.680118 267.834933 
L 340.072271 268.086215 
L 340.856579 271.673169 
L 341.248732 272.669144 
L 341.640886 272.466875 
L 342.033039 270.600333 
L 343.2095 259.132972 
L 343.601654 261.110098 
L 344.385961 270.145846 
L 344.778114 272.180435 
L 345.170268 272.098157 
L 345.562421 269.94623 
L 346.346729 261.668868 
L 346.738882 260.503381 
L 347.131036 263.377808 
L 347.915343 271.139966 
L 348.307496 272.087229 
L 348.69965 270.369008 
L 349.091804 265.175532 
L 349.876111 250.537559 
L 350.268264 250.727112 
L 351.444725 270.59486 
L 351.836879 272.454003 
L 352.229032 272.308696 
L 352.621186 270.903986 
L 353.013339 268.94671 
L 353.405493 267.762636 
L 353.797646 268.357804 
L 354.581954 271.976677 
L 354.974107 272.915097 
L 355.366261 273.096971 
L 355.758414 272.698103 
L 356.542721 270.830264 
L 356.934875 270.464461 
L 357.327029 271.033281 
L 358.111336 272.852834 
L 358.503489 273.177923 
L 358.895643 273.050422 
L 359.287796 272.43964 
L 360.072104 270.5014 
L 360.464257 270.41427 
L 361.640718 272.957014 
L 362.032871 273.054258 
L 362.425025 272.445928 
L 362.817179 270.915466 
L 363.209332 268.774031 
L 363.601486 267.316729 
L 363.993639 267.748301 
L 364.777946 271.622768 
L 365.1701 272.424594 
L 365.562254 271.279205 
L 365.954407 266.673239 
L 366.738714 246.70024 
L 367.130868 241.744675 
L 367.523021 246.866094 
L 368.307329 266.768645 
L 368.699482 271.152756 
L 369.091636 271.688813 
L 369.483789 269.370736 
L 370.268096 260.524588 
L 370.66025 259.628485 
L 371.052404 262.987698 
L 371.444557 267.828999 
L 371.836711 271.225996 
L 372.228864 272.409761 
L 372.621018 271.603184 
L 373.013171 268.745981 
L 373.797479 261.155652 
L 374.189632 261.585583 
L 375.366093 272.014314 
L 375.758246 272.737437 
L 376.1504 272.11577 
L 377.326861 266.844092 
L 377.719014 267.694235 
L 378.503321 271.81859 
L 378.895475 272.54115 
L 379.287629 271.524346 
L 379.679782 267.781082 
L 380.464089 253.809557 
L 380.856243 251.638804 
L 381.248396 256.311215 
L 382.032704 269.603139 
L 382.424857 271.913456 
L 382.817011 271.343249 
L 383.209164 268.090336 
L 383.993471 258.370947 
L 384.385625 258.339693 
L 385.562086 271.38402 
L 385.954239 272.248977 
L 386.346393 270.830875 
L 386.738546 267.011087 
L 387.1307 261.853627 
L 387.522854 258.634293 
L 387.915007 260.052245 
L 388.699314 269.539326 
L 389.091468 272.086003 
L 389.483621 272.697369 
L 389.875775 271.938201 
L 390.660082 268.02344 
L 391.052236 267.196259 
L 391.444389 268.342467 
L 392.228696 272.181211 
L 392.62085 272.829145 
L 393.013004 272.336841 
L 393.405157 270.436987 
L 394.189464 264.322934 
L 394.581618 263.953111 
L 394.973771 266.449722 
L 395.365925 269.761293 
L 395.758079 271.848026 
L 396.150232 271.823492 
L 396.542386 268.675419 
L 396.934539 260.989242 
L 397.326693 250.097021 
L 397.718846 242.454976 
L 398.111 244.346933 
L 398.895307 264.267952 
L 399.287461 269.808627 
L 399.679614 269.835747 
L 400.071768 263.561068 
L 401.248229 226.074464 
L 401.640382 233.315316 
L 402.424689 263.183825 
L 402.816843 270.003932 
L 403.208996 271.191133 
L 403.60115 268.491437 
L 404.385457 257.467188 
L 404.777611 256.180332 
L 405.169764 260.241311 
L 405.561918 266.260263 
L 405.954071 270.397712 
L 406.346225 271.03485 
L 406.738379 266.855967 
L 407.130532 255.694032 
L 407.914839 225.815637 
L 408.306993 227.003842 
L 409.483454 266.926809 
L 409.875607 266.574502 
L 410.267761 253.730907 
L 411.444221 167.457929 
L 411.836375 180.208482 
L 412.620682 247.718521 
L 413.012836 264.225301 
L 413.404989 266.014685 
L 413.797143 255.186957 
L 414.58145 209.435282 
L 414.973604 201.610743 
L 415.365757 216.428027 
L 416.150064 260.465717 
L 416.542218 268.36133 
L 416.934371 266.658741 
L 417.326525 255.988531 
L 418.110832 223.165877 
L 418.502986 222.535496 
L 419.679446 266.614235 
L 420.0716 270.717311 
L 420.463754 269.364313 
L 420.855907 263.683175 
L 421.248061 255.700071 
L 421.640214 250.532992 
L 422.032368 252.511632 
L 422.816675 267.178058 
L 423.208829 270.961767 
L 423.600982 270.807629 
L 423.993136 266.244555 
L 424.777443 246.143692 
L 425.169596 241.629822 
L 425.56175 247.218658 
L 426.346057 267.091135 
L 426.738211 271.384368 
L 427.130364 272.205032 
L 427.522518 270.88371 
L 428.306825 265.669132 
L 428.698979 265.270282 
L 429.091132 267.358568 
L 429.483286 270.224833 
L 429.875439 272.182913 
L 430.267593 272.842666 
L 430.659746 272.364926 
L 431.0519 270.744185 
L 431.836207 266.63477 
L 432.228361 266.982486 
L 433.012668 271.329286 
L 433.404821 272.459763 
L 433.796975 271.949445 
L 434.189129 268.926583 
L 435.365589 251.036744 
L 435.757743 254.26154 
L 436.54205 268.434448 
L 436.934204 271.789029 
L 437.326357 272.546929 
L 437.718511 271.676309 
L 438.502818 267.712938 
L 438.894971 267.188558 
L 439.287125 268.606623 
L 440.071432 272.346799 
L 440.463586 272.831887 
L 440.855739 272.152763 
L 441.247893 270.038393 
L 442.0322 264.16411 
L 442.424354 264.300796 
L 443.600814 272.104661 
L 443.992968 272.03434 
L 444.385121 269.412372 
L 444.777275 263.463314 
L 445.169429 255.7334 
L 445.561582 251.189466 
L 445.953736 253.65999 
L 446.738043 267.88699 
L 447.130196 271.614867 
L 447.52235 272.728398 
L 447.914504 272.387062 
L 448.698811 269.894216 
L 449.090964 269.422713 
L 449.483118 270.213607 
L 450.267425 272.679489 
L 450.659579 273.1625 
L 451.051732 273.183425 
L 451.443886 272.85783 
L 452.228193 271.781719 
L 452.620346 271.743952 
L 453.796807 273.183079 
L 454.188961 273.313271 
L 454.581114 273.239117 
L 455.757575 272.371005 
L 456.149729 272.451359 
L 457.326189 273.310431 
L 457.718343 273.34528 
L 458.110496 273.250952 
L 459.286957 272.671834 
L 459.679111 272.79617 
L 460.463418 273.261595 
L 461.247725 273.354311 
L 462.032032 273.084195 
L 462.424186 272.917887 
L 462.816339 272.886783 
L 464.384954 273.378874 
L 465.169261 273.253417 
L 465.953568 272.995644 
L 466.345721 273.013024 
L 467.522182 273.367105 
L 468.306489 273.345108 
L 469.48295 273.060676 
L 470.267257 273.227748 
L 471.051564 273.386248 
L 471.835871 273.353883 
L 473.012332 273.184556 
L 474.9731 273.393733 
L 476.933868 273.306778 
L 478.110329 273.405064 
L 483.600479 273.332777 
L 485.169093 273.406031 
L 487.914168 273.40439 
L 492.227857 273.363397 
L 493.404318 273.168519 
L 495.757239 273.342512 
L 496.9337 273.161788 
L 498.894468 273.374955 
L 500.463082 273.144244 
L 502.031696 273.390508 
L 502.816004 273.264113 
L 503.600311 273.088881 
L 504.384618 273.239 
L 505.168925 273.385162 
L 505.953232 273.323256 
L 507.129693 273.057106 
L 509.090461 273.361928 
L 510.659075 273.004863 
L 512.227689 273.378763 
L 513.011996 273.19557 
L 513.796304 272.903905 
L 514.188457 272.951205 
L 515.364918 273.362553 
L 516.149225 273.269161 
L 517.325686 272.779983 
L 518.109993 273.113841 
L 518.8943 273.359982 
L 519.286454 273.325469 
L 520.070761 272.904887 
L 520.462914 272.661318 
L 520.855068 272.627658 
L 522.423682 273.344726 
L 522.815836 273.253887 
L 523.992296 272.369619 
L 524.38445 272.429784 
L 525.560911 273.293742 
L 525.953064 273.301763 
L 526.345218 273.107348 
L 527.521679 271.920109 
L 527.913832 272.143935 
L 528.698139 273.082628 
L 529.090293 273.269615 
L 529.482446 273.185737 
L 529.8746 272.771155 
L 530.658907 271.281047 
L 531.051061 271.09994 
L 531.443214 271.6389 
L 532.227521 273.017551 
L 532.619675 273.158164 
L 533.011829 272.781288 
L 533.403982 271.710469 
L 534.188289 268.802892 
L 534.580443 268.900755 
L 535.756904 272.668117 
L 536.149057 272.195742 
L 536.541211 269.542205 
L 537.717671 252.205294 
L 538.109825 254.686406 
L 538.894132 268.216229 
L 539.286286 271.57208 
L 539.678439 272.016059 
L 540.070593 270.034437 
L 540.8549 261.476341 
L 541.247054 259.965092 
L 541.639207 262.699758 
L 542.423514 270.950135 
L 542.815668 272.386908 
L 543.207821 271.851919 
L 543.599975 269.289178 
L 544.384282 261.413432 
L 544.776436 261.216206 
L 545.952896 271.515869 
L 546.34505 271.460885 
L 546.737204 267.665374 
L 547.129357 258.6819 
L 547.521511 246.410178 
L 547.913664 238.394758 
L 548.305818 241.297434 
L 549.090125 263.353656 
L 549.482279 266.916192 
L 549.874432 256.775789 
L 550.266586 220.584052 
L 551.050893 69.30773 
L 551.443046 34.611897 
L 551.8352 75.84892 
L 552.619507 225.395003 
L 553.011661 258.162927 
L 553.403814 265.166135 
L 553.795968 256.998529 
L 554.580275 223.00867 
L 554.972429 220.211522 
L 555.364582 233.703608 
L 555.756736 252.444328 
L 556.148889 265.496648 
L 556.541043 270.827453 
L 556.933196 271.034296 
L 557.32535 267.988272 
L 558.109657 259.624344 
L 558.501811 260.282279 
L 559.286118 269.193878 
L 559.678271 271.924339 
L 560.070425 272.721444 
L 560.462579 272.133537 
L 561.639039 267.199763 
L 562.031193 268.07511 
L 562.8155 272.010804 
L 563.207654 272.924065 
L 563.599807 273.026122 
L 563.991961 272.476418 
L 564.776268 270.270706 
L 565.168421 269.968315 
L 565.560575 270.743365 
L 566.344882 272.835398 
L 566.737036 273.190054 
L 567.129189 273.108927 
L 567.521343 272.638184 
L 568.30565 271.276599 
L 568.697804 271.300201 
L 569.874264 273.144735 
L 570.266418 273.276628 
L 570.658571 273.134574 
L 571.835032 271.882122 
L 572.227186 272.047342 
L 573.011493 273.027538 
L 573.403646 273.275546 
L 573.7958 273.30435 
L 574.187954 273.14065 
L 574.972261 272.423756 
L 575.364414 272.286547 
L 575.756568 272.506687 
L 576.540875 273.203328 
L 576.933029 273.333236 
L 577.325182 273.309123 
L 578.109489 272.851882 
L 578.501643 272.597116 
L 578.893796 272.574991 
L 580.070257 273.296185 
L 580.462411 273.357583 
L 580.854564 273.30393 
L 582.031025 272.739364 
L 582.423179 272.788993 
L 583.599639 273.345655 
L 584.383946 273.29425 
L 585.560407 272.859998 
L 586.344714 273.140789 
L 587.129021 273.371336 
L 587.913329 273.282822 
L 588.697636 272.992021 
L 589.089789 272.963834 
L 590.26625 273.34697 
L 590.26625 273.34697 
" clip-path="url(#pe2fe55acb1)" style="fill: none; stroke: #000000; stroke-width: 1.6; stroke-linecap: round"/>
   </g>
   <g id="patch_3">
    <path d="M 41.25125 273.415469 
L 41.25125 22.671719 
" style="fill: none; stroke: #cccccc; stroke-linejoin: miter; stroke-linecap: square"/>
   </g>
   <g id="patch_4">
    <path d="M 590.26625 273.415469 
L 590.26625 22.671719 
" style="fill: none; stroke: #cccccc; stroke-linejoin: miter; stroke-linecap: square"/>
   </g>
   <g id="patch_5">
    <path d="M 41.25125 273.415469 
L 590.26625 273.415469 
" style="fill: none; stroke: #cccccc; stroke-linejoin: miter; stroke-linecap: square"/>
   </g>
   <g id="patch_6">
    <path d="M 41.25125 22.671719 
L 590.26625 22.671719 
" style="fill: none; stroke: #cccccc; stroke-linejoin: miter; stroke-linecap: square"/>
   </g>
   <g id="text_17">
    <!-- Scaled Raman Peaks - 3-Deoxy-D-Manno-Octulosonic Acid -->
    <g style="fill: #262626" transform="translate(144.166875 16.671719) scale(0.13 -0.13)">
     <defs>
      <path id="ArialMT-64" d="M 2575 0 
L 2575 419 
Q 2259 -75 1647 -75 
Q 1250 -75 917 144 
Q 584 363 401 755 
Q 219 1147 219 1656 
Q 219 2153 384 2558 
Q 550 2963 881 3178 
Q 1213 3394 1622 3394 
Q 1922 3394 2156 3267 
Q 2391 3141 2538 2938 
L 2538 4581 
L 3097 4581 
L 3097 0 
L 2575 0 
z
M 797 1656 
Q 797 1019 1065 703 
Q 1334 388 1700 388 
Q 2069 388 2326 689 
Q 2584 991 2584 1609 
Q 2584 2291 2321 2609 
Q 2059 2928 1675 2928 
Q 1300 2928 1048 2622 
Q 797 2316 797 1656 
z
" transform="scale(0.015625)"/>
      <path id="ArialMT-50" d="M 494 0 
L 494 4581 
L 2222 4581 
Q 2678 4581 2919 4538 
Q 3256 4481 3484 4323 
Q 3713 4166 3852 3881 
Q 3991 3597 3991 3256 
Q 3991 2672 3619 2267 
Q 3247 1863 2275 1863 
L 1100 1863 
L 1100 0 
L 494 0 
z
M 1100 2403 
L 2284 2403 
Q 2872 2403 3119 2622 
Q 3366 2841 3366 3238 
Q 3366 3525 3220 3729 
Q 3075 3934 2838 4000 
Q 2684 4041 2272 4041 
L 1100 4041 
L 1100 2403 
z
" transform="scale(0.015625)"/>
      <path id="ArialMT-6b" d="M 425 0 
L 425 4581 
L 988 4581 
L 988 1969 
L 2319 3319 
L 3047 3319 
L 1778 2088 
L 3175 0 
L 2481 0 
L 1384 1697 
L 988 1316 
L 988 0 
L 425 0 
z
" transform="scale(0.015625)"/>
      <path id="ArialMT-2d" d="M 203 1375 
L 203 1941 
L 1931 1941 
L 1931 1375 
L 203 1375 
z
" transform="scale(0.015625)"/>
      <path id="ArialMT-33" d="M 269 1209 
L 831 1284 
Q 928 806 1161 595 
Q 1394 384 1728 384 
Q 2125 384 2398 659 
Q 2672 934 2672 1341 
Q 2672 1728 2419 1979 
Q 2166 2231 1775 2231 
Q 1616 2231 1378 2169 
L 1441 2663 
Q 1497 2656 1531 2656 
Q 1891 2656 2178 2843 
Q 2466 3031 2466 3422 
Q 2466 3731 2256 3934 
Q 2047 4138 1716 4138 
Q 1388 4138 1169 3931 
Q 950 3725 888 3313 
L 325 3413 
Q 428 3978 793 4289 
Q 1159 4600 1703 4600 
Q 2078 4600 2393 4439 
Q 2709 4278 2876 4000 
Q 3044 3722 3044 3409 
Q 3044 3113 2884 2869 
Q 2725 2625 2413 2481 
Q 2819 2388 3044 2092 
Q 3269 1797 3269 1353 
Q 3269 753 2831 336 
Q 2394 -81 1725 -81 
Q 1122 -81 723 278 
Q 325 638 269 1209 
z
" transform="scale(0.015625)"/>
      <path id="ArialMT-44" d="M 494 0 
L 494 4581 
L 2072 4581 
Q 2606 4581 2888 4516 
Q 3281 4425 3559 4188 
Q 3922 3881 4101 3404 
Q 4281 2928 4281 2316 
Q 4281 1794 4159 1391 
Q 4038 988 3847 723 
Q 3656 459 3429 307 
Q 3203 156 2883 78 
Q 2563 0 2147 0 
L 494 0 
z
M 1100 541 
L 2078 541 
Q 2531 541 2789 625 
Q 3047 709 3200 863 
Q 3416 1078 3536 1442 
Q 3656 1806 3656 2325 
Q 3656 3044 3420 3430 
Q 3184 3816 2847 3947 
Q 2603 4041 2063 4041 
L 1100 4041 
L 1100 541 
z
" transform="scale(0.015625)"/>
      <path id="ArialMT-6f" d="M 213 1659 
Q 213 2581 725 3025 
Q 1153 3394 1769 3394 
Q 2453 3394 2887 2945 
Q 3322 2497 3322 1706 
Q 3322 1066 3130 698 
Q 2938 331 2570 128 
Q 2203 -75 1769 -75 
Q 1072 -75 642 372 
Q 213 819 213 1659 
z
M 791 1659 
Q 791 1022 1069 705 
Q 1347 388 1769 388 
Q 2188 388 2466 706 
Q 2744 1025 2744 1678 
Q 2744 2294 2464 2611 
Q 2184 2928 1769 2928 
Q 1347 2928 1069 2612 
Q 791 2297 791 1659 
z
" transform="scale(0.015625)"/>
      <path id="ArialMT-78" d="M 47 0 
L 1259 1725 
L 138 3319 
L 841 3319 
L 1350 2541 
Q 1494 2319 1581 2169 
Q 1719 2375 1834 2534 
L 2394 3319 
L 3066 3319 
L 1919 1756 
L 3153 0 
L 2463 0 
L 1781 1031 
L 1600 1309 
L 728 0 
L 47 0 
z
" transform="scale(0.015625)"/>
      <path id="ArialMT-4d" d="M 475 0 
L 475 4581 
L 1388 4581 
L 2472 1338 
Q 2622 884 2691 659 
Q 2769 909 2934 1394 
L 4031 4581 
L 4847 4581 
L 4847 0 
L 4263 0 
L 4263 3834 
L 2931 0 
L 2384 0 
L 1059 3900 
L 1059 0 
L 475 0 
z
" transform="scale(0.015625)"/>
      <path id="ArialMT-4f" d="M 309 2231 
Q 309 3372 921 4017 
Q 1534 4663 2503 4663 
Q 3138 4663 3647 4359 
Q 4156 4056 4423 3514 
Q 4691 2972 4691 2284 
Q 4691 1588 4409 1038 
Q 4128 488 3612 205 
Q 3097 -78 2500 -78 
Q 1853 -78 1343 234 
Q 834 547 571 1087 
Q 309 1628 309 2231 
z
M 934 2222 
Q 934 1394 1379 917 
Q 1825 441 2497 441 
Q 3181 441 3623 922 
Q 4066 1403 4066 2288 
Q 4066 2847 3877 3264 
Q 3688 3681 3323 3911 
Q 2959 4141 2506 4141 
Q 1863 4141 1398 3698 
Q 934 3256 934 2222 
z
" transform="scale(0.015625)"/>
      <path id="ArialMT-41" d="M -9 0 
L 1750 4581 
L 2403 4581 
L 4278 0 
L 3588 0 
L 3053 1388 
L 1138 1388 
L 634 0 
L -9 0 
z
M 1313 1881 
L 2866 1881 
L 2388 3150 
Q 2169 3728 2063 4100 
Q 1975 3659 1816 3225 
L 1313 1881 
z
" transform="scale(0.015625)"/>
     </defs>
     <use xlink:href="#ArialMT-53"/>
     <use xlink:href="#ArialMT-63" transform="translate(66.699219 0)"/>
     <use xlink:href="#ArialMT-61" transform="translate(116.699219 0)"/>
     <use xlink:href="#ArialMT-6c" transform="translate(172.314453 0)"/>
     <use xlink:href="#ArialMT-65" transform="translate(194.53125 0)"/>
     <use xlink:href="#ArialMT-64" transform="translate(250.146484 0)"/>
     <use xlink:href="#ArialMT-20" transform="translate(305.761719 0)"/>
     <use xlink:href="#ArialMT-52" transform="translate(333.544922 0)"/>
     <use xlink:href="#ArialMT-61" transform="translate(405.761719 0)"/>
     <use xlink:href="#ArialMT-6d" transform="translate(461.376953 0)"/>
     <use xlink:href="#ArialMT-61" transform="translate(544.677734 0)"/>
     <use xlink:href="#ArialMT-6e" transform="translate(600.292969 0)"/>
     <use xlink:href="#ArialMT-20" transform="translate(655.908203 0)"/>
     <use xlink:href="#ArialMT-50" transform="translate(683.691406 0)"/>
     <use xlink:href="#ArialMT-65" transform="translate(750.390625 0)"/>
     <use xlink:href="#ArialMT-61" transform="translate(806.005859 0)"/>
     <use xlink:href="#ArialMT-6b" transform="translate(861.621094 0)"/>
     <use xlink:href="#ArialMT-73" transform="translate(911.621094 0)"/>
     <use xlink:href="#ArialMT-20" transform="translate(961.621094 0)"/>
     <use xlink:href="#ArialMT-2d" transform="translate(989.404297 0)"/>
     <use xlink:href="#ArialMT-20" transform="translate(1022.705078 0)"/>
     <use xlink:href="#ArialMT-33" transform="translate(1050.488281 0)"/>
     <use xlink:href="#ArialMT-2d" transform="translate(1106.103516 0)"/>
     <use xlink:href="#ArialMT-44" transform="translate(1139.404297 0)"/>
     <use xlink:href="#ArialMT-65" transform="translate(1211.621094 0)"/>
     <use xlink:href="#ArialMT-6f" transform="translate(1267.236328 0)"/>
     <use xlink:href="#ArialMT-78" transform="translate(1322.851562 0)"/>
     <use xlink:href="#ArialMT-79" transform="translate(1372.851562 0)"/>
     <use xlink:href="#ArialMT-2d" transform="translate(1422.851562 0)"/>
     <use xlink:href="#ArialMT-44" transform="translate(1456.152344 0)"/>
     <use xlink:href="#ArialMT-2d" transform="translate(1528.369141 0)"/>
     <use xlink:href="#ArialMT-4d" transform="translate(1561.669922 0)"/>
     <use xlink:href="#ArialMT-61" transform="translate(1644.970703 0)"/>
     <use xlink:href="#ArialMT-6e" transform="translate(1700.585938 0)"/>
     <use xlink:href="#ArialMT-6e" transform="translate(1756.201172 0)"/>
     <use xlink:href="#ArialMT-6f" transform="translate(1811.816406 0)"/>
     <use xlink:href="#ArialMT-2d" transform="translate(1867.431641 0)"/>
     <use xlink:href="#ArialMT-4f" transform="translate(1900.732422 0)"/>
     <use xlink:href="#ArialMT-63" transform="translate(1978.515625 0)"/>
     <use xlink:href="#ArialMT-74" transform="translate(2028.515625 0)"/>
     <use xlink:href="#ArialMT-75" transform="translate(2056.298828 0)"/>
     <use xlink:href="#ArialMT-6c" transform="translate(2111.914062 0)"/>
     <use xlink:href="#ArialMT-6f" transform="translate(2134.130859 0)"/>
     <use xlink:href="#ArialMT-73" transform="translate(2189.746094 0)"/>
     <use xlink:href="#ArialMT-6f" transform="translate(2239.746094 0)"/>
     <use xlink:href="#ArialMT-6e" transform="translate(2295.361328 0)"/>
     <use xlink:href="#ArialMT-69" transform="translate(2350.976562 0)"/>
     <use xlink:href="#ArialMT-63" transform="translate(2373.193359 0)"/>
     <use xlink:href="#ArialMT-20" transform="translate(2423.193359 0)"/>
     <use xlink:href="#ArialMT-41" transform="translate(2445.476562 0)"/>
     <use xlink:href="#ArialMT-63" transform="translate(2512.175781 0)"/>
     <use xlink:href="#ArialMT-69" transform="translate(2562.175781 0)"/>
     <use xlink:href="#ArialMT-64" transform="translate(2584.392578 0)"/>
    </g>
   </g>
  </g>
 </g>
 <defs>
  <clipPath id="pe2fe55acb1">
   <rect x="41.25125" y="22.671719" width="549.015" height="250.74375"/>
  </clipPath>
 </defs>
</svg>
