<?xml version="1.0" encoding="utf-8" standalone="no"?>
<!DOCTYPE svg PUBLIC "-//W3C//DTD SVG 1.1//EN"
  "http://www.w3.org/Graphics/SVG/1.1/DTD/svg11.dtd">
<svg xmlns:xlink="http://www.w3.org/1999/xlink" width="609.554062pt" height="311.607187pt" viewBox="0 0 609.554062 311.607187" xmlns="http://www.w3.org/2000/svg" version="1.1">
 <metadata>
  <rdf:RDF xmlns:dc="http://purl.org/dc/elements/1.1/" xmlns:cc="http://creativecommons.org/ns#" xmlns:rdf="http://www.w3.org/1999/02/22-rdf-syntax-ns#">
   <cc:Work>
    <dc:type rdf:resource="http://purl.org/dc/dcmitype/StillImage"/>
    <dc:date>2026-04-16T21:10:03.487449</dc:date>
    <dc:format>image/svg+xml</dc:format>
    <dc:creator>
     <cc:Agent>
      <dc:title>Matplotlib v3.10.8, https://matplotlib.org/</dc:title>
     </cc:Agent>
    </dc:creator>
   </cc:Work>
  </rdf:RDF>
 </metadata>
 <defs>
  <style type="text/css">*{stroke-linejoin: round; stroke-linecap: butt}</style>
 </defs>
 <g id="figure_1">
  <g id="patch_1">
   <path d="M 0 311.607187 
L 609.554062 311.607187 
L 609.554062 0 
L 0 0 
z
" style="fill: #ffffff"/>
  </g>
  <g id="axes_1">
   <g id="patch_2">
    <path d="M 41.105 273.407344 
L 590.12 273.407344 
L 590.12 22.663594 
L 41.105 22.663594 
z
" style="fill: #ffffff"/>
   </g>
   <g id="matplotlib.axis_1">
    <g id="xtick_1">
     <g id="line2d_1">
      <path d="M 41.105 273.407344 
L 41.105 22.663594 
" clip-path="url(#p3011267646)" style="fill: none; stroke: #cccccc; stroke-width: 0.8; stroke-linecap: round"/>
     </g>
     <g id="line2d_2"/>
     <g id="text_1">
      <!-- 400 -->
      <g style="fill: #262626" transform="translate(31.929453 284.780937) scale(0.11 -0.11)">
       <defs>
        <path id="ArialMT-34" d="M 2069 0 
L 2069 1097 
L 81 1097 
L 81 1613 
L 2172 4581 
L 2631 4581 
L 2631 1613 
L 3250 1613 
L 3250 1097 
L 2631 1097 
L 2631 0 
L 2069 0 
z
M 2069 1613 
L 2069 3678 
L 634 1613 
L 2069 1613 
z
" transform="scale(0.015625)"/>
        <path id="ArialMT-30" d="M 266 2259 
Q 266 3072 433 3567 
Q 600 4063 929 4331 
Q 1259 4600 1759 4600 
Q 2128 4600 2406 4451 
Q 2684 4303 2865 4023 
Q 3047 3744 3150 3342 
Q 3253 2941 3253 2259 
Q 3253 1453 3087 958 
Q 2922 463 2592 192 
Q 2263 -78 1759 -78 
Q 1097 -78 719 397 
Q 266 969 266 2259 
z
M 844 2259 
Q 844 1131 1108 757 
Q 1372 384 1759 384 
Q 2147 384 2411 759 
Q 2675 1134 2675 2259 
Q 2675 3391 2411 3762 
Q 2147 4134 1753 4134 
Q 1366 4134 1134 3806 
Q 844 3388 844 2259 
z
" transform="scale(0.015625)"/>
       </defs>
       <use xlink:href="#ArialMT-34"/>
       <use xlink:href="#ArialMT-30" transform="translate(55.615234 0)"/>
       <use xlink:href="#ArialMT-30" transform="translate(111.230469 0)"/>
      </g>
     </g>
    </g>
    <g id="xtick_2">
     <g id="line2d_3">
      <path d="M 119.535714 273.407344 
L 119.535714 22.663594 
" clip-path="url(#p3011267646)" style="fill: none; stroke: #cccccc; stroke-width: 0.8; stroke-linecap: round"/>
     </g>
     <g id="line2d_4"/>
     <g id="text_2">
      <!-- 600 -->
      <g style="fill: #262626" transform="translate(110.360167 284.780937) scale(0.11 -0.11)">
       <defs>
        <path id="ArialMT-36" d="M 3184 3459 
L 2625 3416 
Q 2550 3747 2413 3897 
Q 2184 4138 1850 4138 
Q 1581 4138 1378 3988 
Q 1113 3794 959 3422 
Q 806 3050 800 2363 
Q 1003 2672 1297 2822 
Q 1591 2972 1913 2972 
Q 2475 2972 2870 2558 
Q 3266 2144 3266 1488 
Q 3266 1056 3080 686 
Q 2894 316 2569 119 
Q 2244 -78 1831 -78 
Q 1128 -78 684 439 
Q 241 956 241 2144 
Q 241 3472 731 4075 
Q 1159 4600 1884 4600 
Q 2425 4600 2770 4297 
Q 3116 3994 3184 3459 
z
M 888 1484 
Q 888 1194 1011 928 
Q 1134 663 1356 523 
Q 1578 384 1822 384 
Q 2178 384 2434 671 
Q 2691 959 2691 1453 
Q 2691 1928 2437 2201 
Q 2184 2475 1800 2475 
Q 1419 2475 1153 2201 
Q 888 1928 888 1484 
z
" transform="scale(0.015625)"/>
       </defs>
       <use xlink:href="#ArialMT-36"/>
       <use xlink:href="#ArialMT-30" transform="translate(55.615234 0)"/>
       <use xlink:href="#ArialMT-30" transform="translate(111.230469 0)"/>
      </g>
     </g>
    </g>
    <g id="xtick_3">
     <g id="line2d_5">
      <path d="M 197.966429 273.407344 
L 197.966429 22.663594 
" clip-path="url(#p3011267646)" style="fill: none; stroke: #cccccc; stroke-width: 0.8; stroke-linecap: round"/>
     </g>
     <g id="line2d_6"/>
     <g id="text_3">
      <!-- 800 -->
      <g style="fill: #262626" transform="translate(188.790882 284.780937) scale(0.11 -0.11)">
       <defs>
        <path id="ArialMT-38" d="M 1131 2484 
Q 781 2613 612 2850 
Q 444 3088 444 3419 
Q 444 3919 803 4259 
Q 1163 4600 1759 4600 
Q 2359 4600 2725 4251 
Q 3091 3903 3091 3403 
Q 3091 3084 2923 2848 
Q 2756 2613 2416 2484 
Q 2838 2347 3058 2040 
Q 3278 1734 3278 1309 
Q 3278 722 2862 322 
Q 2447 -78 1769 -78 
Q 1091 -78 675 323 
Q 259 725 259 1325 
Q 259 1772 486 2073 
Q 713 2375 1131 2484 
z
M 1019 3438 
Q 1019 3113 1228 2906 
Q 1438 2700 1772 2700 
Q 2097 2700 2305 2904 
Q 2513 3109 2513 3406 
Q 2513 3716 2298 3927 
Q 2084 4138 1766 4138 
Q 1444 4138 1231 3931 
Q 1019 3725 1019 3438 
z
M 838 1322 
Q 838 1081 952 856 
Q 1066 631 1291 507 
Q 1516 384 1775 384 
Q 2178 384 2440 643 
Q 2703 903 2703 1303 
Q 2703 1709 2433 1975 
Q 2163 2241 1756 2241 
Q 1359 2241 1098 1978 
Q 838 1716 838 1322 
z
" transform="scale(0.015625)"/>
       </defs>
       <use xlink:href="#ArialMT-38"/>
       <use xlink:href="#ArialMT-30" transform="translate(55.615234 0)"/>
       <use xlink:href="#ArialMT-30" transform="translate(111.230469 0)"/>
      </g>
     </g>
    </g>
    <g id="xtick_4">
     <g id="line2d_7">
      <path d="M 276.397143 273.407344 
L 276.397143 22.663594 
" clip-path="url(#p3011267646)" style="fill: none; stroke: #cccccc; stroke-width: 0.8; stroke-linecap: round"/>
     </g>
     <g id="line2d_8"/>
     <g id="text_4">
      <!-- 1000 -->
      <g style="fill: #262626" transform="translate(264.16308 284.780937) scale(0.11 -0.11)">
       <defs>
        <path id="ArialMT-31" d="M 2384 0 
L 1822 0 
L 1822 3584 
Q 1619 3391 1289 3197 
Q 959 3003 697 2906 
L 697 3450 
Q 1169 3672 1522 3987 
Q 1875 4303 2022 4600 
L 2384 4600 
L 2384 0 
z
" transform="scale(0.015625)"/>
       </defs>
       <use xlink:href="#ArialMT-31"/>
       <use xlink:href="#ArialMT-30" transform="translate(55.615234 0)"/>
       <use xlink:href="#ArialMT-30" transform="translate(111.230469 0)"/>
       <use xlink:href="#ArialMT-30" transform="translate(166.845703 0)"/>
      </g>
     </g>
    </g>
    <g id="xtick_5">
     <g id="line2d_9">
      <path d="M 354.827857 273.407344 
L 354.827857 22.663594 
" clip-path="url(#p3011267646)" style="fill: none; stroke: #cccccc; stroke-width: 0.8; stroke-linecap: round"/>
     </g>
     <g id="line2d_10"/>
     <g id="text_5">
      <!-- 1200 -->
      <g style="fill: #262626" transform="translate(342.593795 284.780937) scale(0.11 -0.11)">
       <defs>
        <path id="ArialMT-32" d="M 3222 541 
L 3222 0 
L 194 0 
Q 188 203 259 391 
Q 375 700 629 1000 
Q 884 1300 1366 1694 
Q 2113 2306 2375 2664 
Q 2638 3022 2638 3341 
Q 2638 3675 2398 3904 
Q 2159 4134 1775 4134 
Q 1369 4134 1125 3890 
Q 881 3647 878 3216 
L 300 3275 
Q 359 3922 746 4261 
Q 1134 4600 1788 4600 
Q 2447 4600 2831 4234 
Q 3216 3869 3216 3328 
Q 3216 3053 3103 2787 
Q 2991 2522 2730 2228 
Q 2469 1934 1863 1422 
Q 1356 997 1212 845 
Q 1069 694 975 541 
L 3222 541 
z
" transform="scale(0.015625)"/>
       </defs>
       <use xlink:href="#ArialMT-31"/>
       <use xlink:href="#ArialMT-32" transform="translate(55.615234 0)"/>
       <use xlink:href="#ArialMT-30" transform="translate(111.230469 0)"/>
       <use xlink:href="#ArialMT-30" transform="translate(166.845703 0)"/>
      </g>
     </g>
    </g>
    <g id="xtick_6">
     <g id="line2d_11">
      <path d="M 433.258571 273.407344 
L 433.258571 22.663594 
" clip-path="url(#p3011267646)" style="fill: none; stroke: #cccccc; stroke-width: 0.8; stroke-linecap: round"/>
     </g>
     <g id="line2d_12"/>
     <g id="text_6">
      <!-- 1400 -->
      <g style="fill: #262626" transform="translate(421.024509 284.780937) scale(0.11 -0.11)">
       <use xlink:href="#ArialMT-31"/>
       <use xlink:href="#ArialMT-34" transform="translate(55.615234 0)"/>
       <use xlink:href="#ArialMT-30" transform="translate(111.230469 0)"/>
       <use xlink:href="#ArialMT-30" transform="translate(166.845703 0)"/>
      </g>
     </g>
    </g>
    <g id="xtick_7">
     <g id="line2d_13">
      <path d="M 511.689286 273.407344 
L 511.689286 22.663594 
" clip-path="url(#p3011267646)" style="fill: none; stroke: #cccccc; stroke-width: 0.8; stroke-linecap: round"/>
     </g>
     <g id="line2d_14"/>
     <g id="text_7">
      <!-- 1600 -->
      <g style="fill: #262626" transform="translate(499.455223 284.780937) scale(0.11 -0.11)">
       <use xlink:href="#ArialMT-31"/>
       <use xlink:href="#ArialMT-36" transform="translate(55.615234 0)"/>
       <use xlink:href="#ArialMT-30" transform="translate(111.230469 0)"/>
       <use xlink:href="#ArialMT-30" transform="translate(166.845703 0)"/>
      </g>
     </g>
    </g>
    <g id="xtick_8">
     <g id="line2d_15">
      <path d="M 590.12 273.407344 
L 590.12 22.663594 
" clip-path="url(#p3011267646)" style="fill: none; stroke: #cccccc; stroke-width: 0.8; stroke-linecap: round"/>
     </g>
     <g id="line2d_16"/>
     <g id="text_8">
      <!-- 1800 -->
      <g style="fill: #262626" transform="translate(577.885937 284.780937) scale(0.11 -0.11)">
       <use xlink:href="#ArialMT-31"/>
       <use xlink:href="#ArialMT-38" transform="translate(55.615234 0)"/>
       <use xlink:href="#ArialMT-30" transform="translate(111.230469 0)"/>
       <use xlink:href="#ArialMT-30" transform="translate(166.845703 0)"/>
      </g>
     </g>
    </g>
    <g id="text_9">
     <!-- Raman shift (cm$^{-1}$) -->
     <g style="fill: #262626" transform="translate(263.4725 301.767187) scale(0.12 -0.12)">
      <defs>
       <path id="ArialMT-52" d="M 503 0 
L 503 4581 
L 2534 4581 
Q 3147 4581 3465 4457 
Q 3784 4334 3975 4021 
Q 4166 3709 4166 3331 
Q 4166 2844 3850 2509 
Q 3534 2175 2875 2084 
Q 3116 1969 3241 1856 
Q 3506 1613 3744 1247 
L 4541 0 
L 3778 0 
L 3172 953 
Q 2906 1366 2734 1584 
Q 2563 1803 2427 1890 
Q 2291 1978 2150 2013 
Q 2047 2034 1813 2034 
L 1109 2034 
L 1109 0 
L 503 0 
z
M 1109 2559 
L 2413 2559 
Q 2828 2559 3062 2645 
Q 3297 2731 3419 2920 
Q 3541 3109 3541 3331 
Q 3541 3656 3305 3865 
Q 3069 4075 2559 4075 
L 1109 4075 
L 1109 2559 
z
" transform="scale(0.015625)"/>
       <path id="ArialMT-61" d="M 2588 409 
Q 2275 144 1986 34 
Q 1697 -75 1366 -75 
Q 819 -75 525 192 
Q 231 459 231 875 
Q 231 1119 342 1320 
Q 453 1522 633 1644 
Q 813 1766 1038 1828 
Q 1203 1872 1538 1913 
Q 2219 1994 2541 2106 
Q 2544 2222 2544 2253 
Q 2544 2597 2384 2738 
Q 2169 2928 1744 2928 
Q 1347 2928 1158 2789 
Q 969 2650 878 2297 
L 328 2372 
Q 403 2725 575 2942 
Q 747 3159 1072 3276 
Q 1397 3394 1825 3394 
Q 2250 3394 2515 3294 
Q 2781 3194 2906 3042 
Q 3031 2891 3081 2659 
Q 3109 2516 3109 2141 
L 3109 1391 
Q 3109 606 3145 398 
Q 3181 191 3288 0 
L 2700 0 
Q 2613 175 2588 409 
z
M 2541 1666 
Q 2234 1541 1622 1453 
Q 1275 1403 1131 1340 
Q 988 1278 909 1158 
Q 831 1038 831 891 
Q 831 666 1001 516 
Q 1172 366 1500 366 
Q 1825 366 2078 508 
Q 2331 650 2450 897 
Q 2541 1088 2541 1459 
L 2541 1666 
z
" transform="scale(0.015625)"/>
       <path id="ArialMT-6d" d="M 422 0 
L 422 3319 
L 925 3319 
L 925 2853 
Q 1081 3097 1340 3245 
Q 1600 3394 1931 3394 
Q 2300 3394 2536 3241 
Q 2772 3088 2869 2813 
Q 3263 3394 3894 3394 
Q 4388 3394 4653 3120 
Q 4919 2847 4919 2278 
L 4919 0 
L 4359 0 
L 4359 2091 
Q 4359 2428 4304 2576 
Q 4250 2725 4106 2815 
Q 3963 2906 3769 2906 
Q 3419 2906 3187 2673 
Q 2956 2441 2956 1928 
L 2956 0 
L 2394 0 
L 2394 2156 
Q 2394 2531 2256 2718 
Q 2119 2906 1806 2906 
Q 1569 2906 1367 2781 
Q 1166 2656 1075 2415 
Q 984 2175 984 1722 
L 984 0 
L 422 0 
z
" transform="scale(0.015625)"/>
       <path id="ArialMT-6e" d="M 422 0 
L 422 3319 
L 928 3319 
L 928 2847 
Q 1294 3394 1984 3394 
Q 2284 3394 2536 3286 
Q 2788 3178 2913 3003 
Q 3038 2828 3088 2588 
Q 3119 2431 3119 2041 
L 3119 0 
L 2556 0 
L 2556 2019 
Q 2556 2363 2490 2533 
Q 2425 2703 2258 2804 
Q 2091 2906 1866 2906 
Q 1506 2906 1245 2678 
Q 984 2450 984 1813 
L 984 0 
L 422 0 
z
" transform="scale(0.015625)"/>
       <path id="ArialMT-20" transform="scale(0.015625)"/>
       <path id="ArialMT-73" d="M 197 991 
L 753 1078 
Q 800 744 1014 566 
Q 1228 388 1613 388 
Q 2000 388 2187 545 
Q 2375 703 2375 916 
Q 2375 1106 2209 1216 
Q 2094 1291 1634 1406 
Q 1016 1563 777 1677 
Q 538 1791 414 1992 
Q 291 2194 291 2438 
Q 291 2659 392 2848 
Q 494 3038 669 3163 
Q 800 3259 1026 3326 
Q 1253 3394 1513 3394 
Q 1903 3394 2198 3281 
Q 2494 3169 2634 2976 
Q 2775 2784 2828 2463 
L 2278 2388 
Q 2241 2644 2061 2787 
Q 1881 2931 1553 2931 
Q 1166 2931 1000 2803 
Q 834 2675 834 2503 
Q 834 2394 903 2306 
Q 972 2216 1119 2156 
Q 1203 2125 1616 2013 
Q 2213 1853 2448 1751 
Q 2684 1650 2818 1456 
Q 2953 1263 2953 975 
Q 2953 694 2789 445 
Q 2625 197 2315 61 
Q 2006 -75 1616 -75 
Q 969 -75 630 194 
Q 291 463 197 991 
z
" transform="scale(0.015625)"/>
       <path id="ArialMT-68" d="M 422 0 
L 422 4581 
L 984 4581 
L 984 2938 
Q 1378 3394 1978 3394 
Q 2347 3394 2619 3248 
Q 2891 3103 3008 2847 
Q 3125 2591 3125 2103 
L 3125 0 
L 2563 0 
L 2563 2103 
Q 2563 2525 2380 2717 
Q 2197 2909 1863 2909 
Q 1613 2909 1392 2779 
Q 1172 2650 1078 2428 
Q 984 2206 984 1816 
L 984 0 
L 422 0 
z
" transform="scale(0.015625)"/>
       <path id="ArialMT-69" d="M 425 3934 
L 425 4581 
L 988 4581 
L 988 3934 
L 425 3934 
z
M 425 0 
L 425 3319 
L 988 3319 
L 988 0 
L 425 0 
z
" transform="scale(0.015625)"/>
       <path id="ArialMT-66" d="M 556 0 
L 556 2881 
L 59 2881 
L 59 3319 
L 556 3319 
L 556 3672 
Q 556 4006 616 4169 
Q 697 4388 901 4523 
Q 1106 4659 1475 4659 
Q 1713 4659 2000 4603 
L 1916 4113 
Q 1741 4144 1584 4144 
Q 1328 4144 1222 4034 
Q 1116 3925 1116 3625 
L 1116 3319 
L 1763 3319 
L 1763 2881 
L 1116 2881 
L 1116 0 
L 556 0 
z
" transform="scale(0.015625)"/>
       <path id="ArialMT-74" d="M 1650 503 
L 1731 6 
Q 1494 -44 1306 -44 
Q 1000 -44 831 53 
Q 663 150 594 308 
Q 525 466 525 972 
L 525 2881 
L 113 2881 
L 113 3319 
L 525 3319 
L 525 4141 
L 1084 4478 
L 1084 3319 
L 1650 3319 
L 1650 2881 
L 1084 2881 
L 1084 941 
Q 1084 700 1114 631 
Q 1144 563 1211 522 
Q 1278 481 1403 481 
Q 1497 481 1650 503 
z
" transform="scale(0.015625)"/>
       <path id="ArialMT-28" d="M 1497 -1347 
Q 1031 -759 709 28 
Q 388 816 388 1659 
Q 388 2403 628 3084 
Q 909 3875 1497 4659 
L 1900 4659 
Q 1522 4009 1400 3731 
Q 1209 3300 1100 2831 
Q 966 2247 966 1656 
Q 966 153 1900 -1347 
L 1497 -1347 
z
" transform="scale(0.015625)"/>
       <path id="ArialMT-63" d="M 2588 1216 
L 3141 1144 
Q 3050 572 2676 248 
Q 2303 -75 1759 -75 
Q 1078 -75 664 370 
Q 250 816 250 1647 
Q 250 2184 428 2587 
Q 606 2991 970 3192 
Q 1334 3394 1763 3394 
Q 2303 3394 2647 3120 
Q 2991 2847 3088 2344 
L 2541 2259 
Q 2463 2594 2264 2762 
Q 2066 2931 1784 2931 
Q 1359 2931 1093 2626 
Q 828 2322 828 1663 
Q 828 994 1084 691 
Q 1341 388 1753 388 
Q 2084 388 2306 591 
Q 2528 794 2588 1216 
z
" transform="scale(0.015625)"/>
       <path id="DejaVuSans-2212" d="M 678 2272 
L 4684 2272 
L 4684 1741 
L 678 1741 
L 678 2272 
z
" transform="scale(0.015625)"/>
       <path id="DejaVuSans-31" d="M 794 531 
L 1825 531 
L 1825 4091 
L 703 3866 
L 703 4441 
L 1819 4666 
L 2450 4666 
L 2450 531 
L 3481 531 
L 3481 0 
L 794 0 
L 794 531 
z
" transform="scale(0.015625)"/>
       <path id="ArialMT-29" d="M 791 -1347 
L 388 -1347 
Q 1322 153 1322 1656 
Q 1322 2244 1188 2822 
Q 1081 3291 891 3722 
Q 769 4003 388 4659 
L 791 4659 
Q 1378 3875 1659 3084 
Q 1900 2403 1900 1659 
Q 1900 816 1576 28 
Q 1253 -759 791 -1347 
z
" transform="scale(0.015625)"/>
      </defs>
      <use xlink:href="#ArialMT-52" transform="translate(0 0.684375)"/>
      <use xlink:href="#ArialMT-61" transform="translate(72.216797 0.684375)"/>
      <use xlink:href="#ArialMT-6d" transform="translate(127.832031 0.684375)"/>
      <use xlink:href="#ArialMT-61" transform="translate(211.132812 0.684375)"/>
      <use xlink:href="#ArialMT-6e" transform="translate(266.748047 0.684375)"/>
      <use xlink:href="#ArialMT-20" transform="translate(322.363281 0.684375)"/>
      <use xlink:href="#ArialMT-73" transform="translate(350.146484 0.684375)"/>
      <use xlink:href="#ArialMT-68" transform="translate(400.146484 0.684375)"/>
      <use xlink:href="#ArialMT-69" transform="translate(455.761719 0.684375)"/>
      <use xlink:href="#ArialMT-66" transform="translate(477.978516 0.684375)"/>
      <use xlink:href="#ArialMT-74" transform="translate(505.761719 0.684375)"/>
      <use xlink:href="#ArialMT-20" transform="translate(533.544922 0.684375)"/>
      <use xlink:href="#ArialMT-28" transform="translate(561.328125 0.684375)"/>
      <use xlink:href="#ArialMT-63" transform="translate(594.628906 0.684375)"/>
      <use xlink:href="#ArialMT-6d" transform="translate(644.628906 0.684375)"/>
      <use xlink:href="#DejaVuSans-2212" transform="translate(728.886719 38.965625) scale(0.7)"/>
      <use xlink:href="#DejaVuSans-31" transform="translate(787.539062 38.965625) scale(0.7)"/>
      <use xlink:href="#ArialMT-29" transform="translate(834.80957 0.684375)"/>
     </g>
    </g>
   </g>
   <g id="matplotlib.axis_2">
    <g id="ytick_1">
     <g id="line2d_17">
      <path d="M 41.105 273.407344 
L 590.12 273.407344 
" clip-path="url(#p3011267646)" style="fill: none; stroke: #cccccc; stroke-width: 0.8; stroke-linecap: round"/>
     </g>
     <g id="line2d_18"/>
     <g id="text_10">
      <!-- 0.0 -->
      <g style="fill: #262626" transform="translate(22.315 277.344141) scale(0.11 -0.11)">
       <defs>
        <path id="ArialMT-2e" d="M 581 0 
L 581 641 
L 1222 641 
L 1222 0 
L 581 0 
z
" transform="scale(0.015625)"/>
       </defs>
       <use xlink:href="#ArialMT-30"/>
       <use xlink:href="#ArialMT-2e" transform="translate(55.615234 0)"/>
       <use xlink:href="#ArialMT-30" transform="translate(83.398438 0)"/>
      </g>
     </g>
    </g>
    <g id="ytick_2">
     <g id="line2d_19">
      <path d="M 41.105 225.646629 
L 590.12 225.646629 
" clip-path="url(#p3011267646)" style="fill: none; stroke: #cccccc; stroke-width: 0.8; stroke-linecap: round"/>
     </g>
     <g id="line2d_20"/>
     <g id="text_11">
      <!-- 0.2 -->
      <g style="fill: #262626" transform="translate(22.315 229.583426) scale(0.11 -0.11)">
       <use xlink:href="#ArialMT-30"/>
       <use xlink:href="#ArialMT-2e" transform="translate(55.615234 0)"/>
       <use xlink:href="#ArialMT-32" transform="translate(83.398438 0)"/>
      </g>
     </g>
    </g>
    <g id="ytick_3">
     <g id="line2d_21">
      <path d="M 41.105 177.885915 
L 590.12 177.885915 
" clip-path="url(#p3011267646)" style="fill: none; stroke: #cccccc; stroke-width: 0.8; stroke-linecap: round"/>
     </g>
     <g id="line2d_22"/>
     <g id="text_12">
      <!-- 0.4 -->
      <g style="fill: #262626" transform="translate(22.315 181.822712) scale(0.11 -0.11)">
       <use xlink:href="#ArialMT-30"/>
       <use xlink:href="#ArialMT-2e" transform="translate(55.615234 0)"/>
       <use xlink:href="#ArialMT-34" transform="translate(83.398438 0)"/>
      </g>
     </g>
    </g>
    <g id="ytick_4">
     <g id="line2d_23">
      <path d="M 41.105 130.125201 
L 590.12 130.125201 
" clip-path="url(#p3011267646)" style="fill: none; stroke: #cccccc; stroke-width: 0.8; stroke-linecap: round"/>
     </g>
     <g id="line2d_24"/>
     <g id="text_13">
      <!-- 0.6 -->
      <g style="fill: #262626" transform="translate(22.315 134.061998) scale(0.11 -0.11)">
       <use xlink:href="#ArialMT-30"/>
       <use xlink:href="#ArialMT-2e" transform="translate(55.615234 0)"/>
       <use xlink:href="#ArialMT-36" transform="translate(83.398438 0)"/>
      </g>
     </g>
    </g>
    <g id="ytick_5">
     <g id="line2d_25">
      <path d="M 41.105 82.364487 
L 590.12 82.364487 
" clip-path="url(#p3011267646)" style="fill: none; stroke: #cccccc; stroke-width: 0.8; stroke-linecap: round"/>
     </g>
     <g id="line2d_26"/>
     <g id="text_14">
      <!-- 0.8 -->
      <g style="fill: #262626" transform="translate(22.315 86.301283) scale(0.11 -0.11)">
       <use xlink:href="#ArialMT-30"/>
       <use xlink:href="#ArialMT-2e" transform="translate(55.615234 0)"/>
       <use xlink:href="#ArialMT-38" transform="translate(83.398438 0)"/>
      </g>
     </g>
    </g>
    <g id="ytick_6">
     <g id="line2d_27">
      <path d="M 41.105 34.603772 
L 590.12 34.603772 
" clip-path="url(#p3011267646)" style="fill: none; stroke: #cccccc; stroke-width: 0.8; stroke-linecap: round"/>
     </g>
     <g id="line2d_28"/>
     <g id="text_15">
      <!-- 1.0 -->
      <g style="fill: #262626" transform="translate(22.315 38.540569) scale(0.11 -0.11)">
       <use xlink:href="#ArialMT-31"/>
       <use xlink:href="#ArialMT-2e" transform="translate(55.615234 0)"/>
       <use xlink:href="#ArialMT-30" transform="translate(83.398438 0)"/>
      </g>
     </g>
    </g>
    <g id="text_16">
     <!-- Normalized intensity -->
     <g style="fill: #262626" transform="translate(15.789375 202.053281) rotate(-90) scale(0.12 -0.12)">
      <defs>
       <path id="ArialMT-4e" d="M 488 0 
L 488 4581 
L 1109 4581 
L 3516 984 
L 3516 4581 
L 4097 4581 
L 4097 0 
L 3475 0 
L 1069 3600 
L 1069 0 
L 488 0 
z
" transform="scale(0.015625)"/>
       <path id="ArialMT-6f" d="M 213 1659 
Q 213 2581 725 3025 
Q 1153 3394 1769 3394 
Q 2453 3394 2887 2945 
Q 3322 2497 3322 1706 
Q 3322 1066 3130 698 
Q 2938 331 2570 128 
Q 2203 -75 1769 -75 
Q 1072 -75 642 372 
Q 213 819 213 1659 
z
M 791 1659 
Q 791 1022 1069 705 
Q 1347 388 1769 388 
Q 2188 388 2466 706 
Q 2744 1025 2744 1678 
Q 2744 2294 2464 2611 
Q 2184 2928 1769 2928 
Q 1347 2928 1069 2612 
Q 791 2297 791 1659 
z
" transform="scale(0.015625)"/>
       <path id="ArialMT-72" d="M 416 0 
L 416 3319 
L 922 3319 
L 922 2816 
Q 1116 3169 1280 3281 
Q 1444 3394 1641 3394 
Q 1925 3394 2219 3213 
L 2025 2691 
Q 1819 2813 1613 2813 
Q 1428 2813 1281 2702 
Q 1134 2591 1072 2394 
Q 978 2094 978 1738 
L 978 0 
L 416 0 
z
" transform="scale(0.015625)"/>
       <path id="ArialMT-6c" d="M 409 0 
L 409 4581 
L 972 4581 
L 972 0 
L 409 0 
z
" transform="scale(0.015625)"/>
       <path id="ArialMT-7a" d="M 125 0 
L 125 456 
L 2238 2881 
Q 1878 2863 1603 2863 
L 250 2863 
L 250 3319 
L 2963 3319 
L 2963 2947 
L 1166 841 
L 819 456 
Q 1197 484 1528 484 
L 3063 484 
L 3063 0 
L 125 0 
z
" transform="scale(0.015625)"/>
       <path id="ArialMT-65" d="M 2694 1069 
L 3275 997 
Q 3138 488 2766 206 
Q 2394 -75 1816 -75 
Q 1088 -75 661 373 
Q 234 822 234 1631 
Q 234 2469 665 2931 
Q 1097 3394 1784 3394 
Q 2450 3394 2872 2941 
Q 3294 2488 3294 1666 
Q 3294 1616 3291 1516 
L 816 1516 
Q 847 969 1125 678 
Q 1403 388 1819 388 
Q 2128 388 2347 550 
Q 2566 713 2694 1069 
z
M 847 1978 
L 2700 1978 
Q 2663 2397 2488 2606 
Q 2219 2931 1791 2931 
Q 1403 2931 1139 2672 
Q 875 2413 847 1978 
z
" transform="scale(0.015625)"/>
       <path id="ArialMT-64" d="M 2575 0 
L 2575 419 
Q 2259 -75 1647 -75 
Q 1250 -75 917 144 
Q 584 363 401 755 
Q 219 1147 219 1656 
Q 219 2153 384 2558 
Q 550 2963 881 3178 
Q 1213 3394 1622 3394 
Q 1922 3394 2156 3267 
Q 2391 3141 2538 2938 
L 2538 4581 
L 3097 4581 
L 3097 0 
L 2575 0 
z
M 797 1656 
Q 797 1019 1065 703 
Q 1334 388 1700 388 
Q 2069 388 2326 689 
Q 2584 991 2584 1609 
Q 2584 2291 2321 2609 
Q 2059 2928 1675 2928 
Q 1300 2928 1048 2622 
Q 797 2316 797 1656 
z
" transform="scale(0.015625)"/>
       <path id="ArialMT-79" d="M 397 -1278 
L 334 -750 
Q 519 -800 656 -800 
Q 844 -800 956 -737 
Q 1069 -675 1141 -563 
Q 1194 -478 1313 -144 
Q 1328 -97 1363 -6 
L 103 3319 
L 709 3319 
L 1400 1397 
Q 1534 1031 1641 628 
Q 1738 1016 1872 1384 
L 2581 3319 
L 3144 3319 
L 1881 -56 
Q 1678 -603 1566 -809 
Q 1416 -1088 1222 -1217 
Q 1028 -1347 759 -1347 
Q 597 -1347 397 -1278 
z
" transform="scale(0.015625)"/>
      </defs>
      <use xlink:href="#ArialMT-4e"/>
      <use xlink:href="#ArialMT-6f" transform="translate(72.216797 0)"/>
      <use xlink:href="#ArialMT-72" transform="translate(127.832031 0)"/>
      <use xlink:href="#ArialMT-6d" transform="translate(161.132812 0)"/>
      <use xlink:href="#ArialMT-61" transform="translate(244.433594 0)"/>
      <use xlink:href="#ArialMT-6c" transform="translate(300.048828 0)"/>
      <use xlink:href="#ArialMT-69" transform="translate(322.265625 0)"/>
      <use xlink:href="#ArialMT-7a" transform="translate(344.482422 0)"/>
      <use xlink:href="#ArialMT-65" transform="translate(394.482422 0)"/>
      <use xlink:href="#ArialMT-64" transform="translate(450.097656 0)"/>
      <use xlink:href="#ArialMT-20" transform="translate(505.712891 0)"/>
      <use xlink:href="#ArialMT-69" transform="translate(533.496094 0)"/>
      <use xlink:href="#ArialMT-6e" transform="translate(555.712891 0)"/>
      <use xlink:href="#ArialMT-74" transform="translate(611.328125 0)"/>
      <use xlink:href="#ArialMT-65" transform="translate(639.111328 0)"/>
      <use xlink:href="#ArialMT-6e" transform="translate(694.726562 0)"/>
      <use xlink:href="#ArialMT-73" transform="translate(750.341797 0)"/>
      <use xlink:href="#ArialMT-69" transform="translate(800.341797 0)"/>
      <use xlink:href="#ArialMT-74" transform="translate(822.558594 0)"/>
      <use xlink:href="#ArialMT-79" transform="translate(850.341797 0)"/>
     </g>
    </g>
   </g>
   <g id="line2d_29">
    <path d="M 41.105 90.347282 
L 41.889307 54.617864 
L 42.281461 43.380473 
L 42.673614 36.835807 
L 43.065768 34.603772 
L 43.457921 35.989636 
L 43.850075 40.159927 
L 44.634382 53.721479 
L 48.948071 141.804417 
L 49.732379 151.320579 
L 50.124532 153.368582 
L 50.516686 153.014851 
L 50.908839 149.966078 
L 51.300993 144.148414 
L 52.0853 125.32414 
L 53.653914 80.919373 
L 54.046068 74.027073 
L 54.438221 70.17125 
L 54.830375 69.485943 
L 55.222529 71.807244 
L 55.614682 76.771866 
L 56.398989 92.866032 
L 57.183296 114.642714 
L 59.928371 199.211509 
L 60.712679 215.228531 
L 61.496986 225.612976 
L 61.889139 228.888346 
L 62.281293 231.02749 
L 62.673446 232.128556 
L 63.0656 232.27536 
L 63.457754 231.538733 
L 63.849907 229.981566 
L 64.242061 227.664725 
L 65.026368 221.00953 
L 65.810675 212.135165 
L 68.163596 182.246598 
L 68.55575 179.442043 
L 68.947904 178.149147 
L 69.340057 178.560724 
L 69.732211 180.689102 
L 70.124364 184.343804 
L 70.908671 194.601724 
L 71.692979 205.229716 
L 72.085132 209.421469 
L 72.477286 212.391132 
L 72.869439 213.948681 
L 73.261593 214.025797 
L 73.653746 212.649168 
L 74.0459 209.909226 
L 74.830207 200.869606 
L 75.614514 188.204179 
L 77.183129 161.495897 
L 77.575282 157.383466 
L 77.967436 155.411635 
L 78.359589 155.956624 
L 78.751743 159.152644 
L 79.143896 164.852727 
L 79.928204 181.925038 
L 81.496818 220.733176 
L 82.281125 235.027905 
L 83.065432 244.802108 
L 83.849739 250.99545 
L 84.634046 254.71525 
L 85.418354 256.771936 
L 85.810507 257.325981 
L 86.202661 257.601679 
L 86.594814 257.605582 
L 86.986968 257.328261 
L 87.379121 256.743963 
L 87.771275 255.809345 
L 88.163429 254.46224 
L 88.555582 252.621719 
L 89.339889 247.065725 
L 90.124196 238.368892 
L 90.908504 226.288803 
L 92.477118 198.780887 
L 92.869271 193.852736 
L 93.261425 190.701278 
L 93.653579 189.62463 
L 94.045732 190.703889 
L 94.437886 193.791937 
L 95.222193 204.502266 
L 97.182961 236.656259 
L 97.967268 246.065917 
L 98.751575 253.030046 
L 99.535882 257.985266 
L 100.320189 261.409744 
L 101.104496 263.731262 
L 101.888804 265.291452 
L 102.673111 266.338367 
L 103.457418 267.032373 
L 104.241725 267.453981 
L 105.026032 267.620003 
L 105.810339 267.497082 
L 106.594646 266.993971 
L 107.378954 265.949828 
L 108.163261 264.167112 
L 108.947568 261.535498 
L 110.908336 253.56614 
L 111.300489 252.559132 
L 111.692643 251.997152 
L 112.084796 251.923376 
L 112.47695 252.329225 
L 112.869104 253.158376 
L 113.653411 255.706254 
L 115.614179 262.952153 
L 116.398486 265.17387 
L 117.182793 266.874683 
L 117.9671 268.077334 
L 118.751407 268.836485 
L 119.535714 269.217654 
L 120.320021 269.267678 
L 121.104329 268.989502 
L 121.888636 268.325544 
L 122.672943 267.156522 
L 123.45725 265.336254 
L 124.241557 262.79409 
L 126.594479 254.134319 
L 126.986632 253.366653 
L 127.378786 252.94963 
L 127.770939 252.880589 
L 128.163093 253.131238 
L 128.555246 253.658582 
L 129.339554 255.36254 
L 130.123861 257.688461 
L 132.868936 266.824155 
L 133.653243 268.595721 
L 134.43755 269.842543 
L 135.221857 270.68432 
L 136.006164 271.253834 
L 137.182625 271.811707 
L 138.751239 272.264069 
L 140.712007 272.585298 
L 143.849236 272.847395 
L 149.731539 273.070415 
L 163.064761 273.286226 
L 187.770436 273.183547 
L 196.397814 273.014486 
L 203.848732 272.712342 
L 208.162421 272.336398 
L 210.907496 271.889103 
L 212.868264 271.338865 
L 214.044725 270.817324 
L 215.221186 270.018365 
L 216.005493 269.214908 
L 216.7898 268.060885 
L 217.574107 266.417068 
L 218.358414 264.175525 
L 219.534875 259.755466 
L 221.887796 249.430714 
L 223.456411 241.841849 
L 226.593639 225.398563 
L 226.985793 224.212909 
L 227.377946 223.466226 
L 227.7701 223.18266 
L 228.162254 223.363704 
L 228.554407 224.001176 
L 228.946561 225.089753 
L 229.338714 226.632471 
L 230.123021 231.096095 
L 230.907329 237.227372 
L 232.868096 254.387285 
L 233.652404 259.516648 
L 234.436711 263.170913 
L 235.221018 265.619394 
L 236.005325 267.225726 
L 236.789632 268.290681 
L 237.573939 269.012772 
L 238.7504 269.690754 
L 239.926861 270.050659 
L 241.103321 270.17807 
L 242.279782 270.088631 
L 243.456243 269.736953 
L 244.24055 269.28607 
L 245.024857 268.560512 
L 245.809164 267.398713 
L 246.593471 265.538643 
L 247.377779 262.628935 
L 248.162086 258.357037 
L 249.338546 249.652601 
L 250.515007 241.244259 
L 250.907161 239.435971 
L 251.299314 238.400066 
L 251.691468 238.198304 
L 252.083621 238.805568 
L 252.475775 240.119478 
L 253.260082 244.221374 
L 255.22085 256.032353 
L 256.005157 259.654799 
L 256.789464 262.314117 
L 257.573771 263.983972 
L 257.965925 264.481321 
L 258.358079 264.79328 
L 259.142386 265.031717 
L 260.711 265.213128 
L 261.495307 265.607245 
L 262.671768 266.589522 
L 266.20115 269.938685 
L 267.377611 270.579811 
L 268.554071 270.918122 
L 270.122686 271.064731 
L 271.6913 270.993476 
L 273.259914 270.724836 
L 274.436375 270.335604 
L 275.612836 269.677269 
L 276.397143 269.020037 
L 277.18145 268.128681 
L 277.965757 266.948952 
L 278.750064 265.430699 
L 279.926525 262.496461 
L 283.455907 252.57852 
L 284.240214 251.206636 
L 284.632368 250.778202 
L 285.416675 250.380492 
L 286.200982 250.212934 
L 286.593136 250.001713 
L 286.985289 249.584275 
L 287.377443 248.88655 
L 287.769596 247.860609 
L 288.553904 244.80481 
L 291.298979 231.36236 
L 292.083286 229.357948 
L 292.475439 228.796965 
L 292.867593 228.534457 
L 293.259746 228.579694 
L 293.6519 228.938982 
L 294.044054 229.604658 
L 294.828361 231.709386 
L 296.789129 238.116245 
L 297.181282 238.994759 
L 297.573436 239.578591 
L 297.965589 239.789279 
L 298.357743 239.539951 
L 298.749896 238.741805 
L 299.14205 237.316398 
L 299.534204 235.21266 
L 300.318511 229.021172 
L 302.279279 210.250311 
L 302.671432 208.245098 
L 303.063586 207.373394 
L 303.455739 207.655724 
L 303.847893 208.977522 
L 304.6322 213.785232 
L 305.808661 222.167692 
L 306.592968 226.161542 
L 306.985121 227.44472 
L 307.377275 228.269171 
L 307.769429 228.687025 
L 308.161582 228.767065 
L 308.553736 228.58482 
L 309.338043 227.733827 
L 310.12235 226.732412 
L 310.514504 226.383769 
L 310.906657 226.26661 
L 311.298811 226.479957 
L 311.690964 227.103422 
L 312.083118 228.174949 
L 312.867425 231.50321 
L 314.043886 237.269059 
L 314.436039 238.602656 
L 314.828193 239.353074 
L 315.220346 239.426656 
L 315.6125 238.799676 
L 316.004654 237.516858 
L 316.788961 233.431246 
L 321.10265 206.45476 
L 322.279111 199.954932 
L 322.671264 198.443763 
L 323.063418 197.586268 
L 323.455571 197.604913 
L 323.847725 198.687222 
L 324.239879 200.939342 
L 324.632032 204.349747 
L 325.416339 213.956586 
L 326.984954 235.433351 
L 327.769261 242.909534 
L 328.161414 245.46278 
L 328.553568 247.280597 
L 328.945721 248.451189 
L 329.337875 249.076497 
L 329.730029 249.258708 
L 330.122182 249.093544 
L 330.514336 248.669725 
L 332.475104 245.797254 
L 332.867257 245.727316 
L 333.259411 245.996565 
L 333.651564 246.613698 
L 334.435871 248.690087 
L 335.612332 252.277094 
L 336.004486 253.099758 
L 336.396639 253.563258 
L 336.788793 253.595289 
L 337.180946 253.140804 
L 337.5731 252.155965 
L 337.965254 250.603058 
L 338.357407 248.448969 
L 339.141714 242.25749 
L 339.926021 233.699484 
L 341.886789 209.700754 
L 342.671096 203.714148 
L 343.06325 201.990699 
L 343.455404 201.04301 
L 343.847557 200.753244 
L 344.239711 200.991379 
L 344.631864 201.64154 
L 345.416171 203.851319 
L 346.200479 206.970251 
L 346.984786 210.863308 
L 347.769093 215.63482 
L 348.5534 221.505149 
L 350.906321 241.317269 
L 351.690629 245.146218 
L 352.082782 246.148022 
L 352.474936 246.573681 
L 352.867089 246.493734 
L 353.259243 245.998737 
L 354.04355 244.134544 
L 355.220011 240.126506 
L 356.396471 235.165918 
L 359.141546 222.129138 
L 359.5337 221.140406 
L 359.925854 220.796819 
L 360.318007 221.233496 
L 360.710161 222.523435 
L 361.102314 224.655615 
L 361.886621 230.973525 
L 363.847389 249.419378 
L 364.631696 254.83672 
L 365.416004 258.782516 
L 366.200311 261.507884 
L 366.984618 263.291721 
L 367.768925 264.363685 
L 368.553232 264.884237 
L 369.337539 264.940794 
L 369.729693 264.800245 
L 370.121846 264.53801 
L 370.906154 263.58362 
L 371.690461 261.902254 
L 372.474768 259.311761 
L 373.259075 255.783187 
L 375.219843 245.814146 
L 376.00415 243.100247 
L 377.572764 238.871237 
L 377.964918 237.16091 
L 378.357071 234.862575 
L 379.141379 228.227312 
L 380.317839 214.466573 
L 381.102146 205.615439 
L 381.886454 199.667719 
L 382.278607 198.150922 
L 382.670761 197.581023 
L 383.062914 197.825266 
L 383.455068 198.703761 
L 384.239375 201.640559 
L 386.200143 210.907801 
L 387.376604 216.97416 
L 388.553064 224.487854 
L 390.905986 241.09046 
L 391.690293 245.181956 
L 392.4746 247.961303 
L 392.866754 248.76468 
L 393.258907 249.13465 
L 393.651061 249.058668 
L 394.043214 248.552088 
L 394.435368 247.667218 
L 396.396136 242.073699 
L 396.788289 241.862522 
L 397.180443 242.233004 
L 397.572596 243.186233 
L 398.356904 246.506515 
L 400.317671 256.387542 
L 401.101979 258.824553 
L 401.494132 259.611103 
L 401.886286 260.132397 
L 402.278439 260.41068 
L 402.670593 260.46676 
L 403.062746 260.31779 
L 403.4549 259.976681 
L 404.239207 258.751506 
L 405.023514 256.828258 
L 405.807821 254.180418 
L 406.592129 250.671729 
L 407.376436 246.041928 
L 408.160743 239.947478 
L 408.94505 232.009008 
L 409.729357 221.908929 
L 410.905818 202.724232 
L 412.474432 171.830332 
L 414.827354 123.609052 
L 415.611661 111.555639 
L 416.395968 103.277031 
L 416.788121 100.794613 
L 417.180275 99.611718 
L 417.572429 99.908016 
L 417.964582 101.838176 
L 418.356736 105.472597 
L 419.141043 117.470657 
L 420.317504 142.839593 
L 421.886118 177.230534 
L 423.062579 198.657348 
L 424.239039 215.857615 
L 425.4155 229.334855 
L 426.199807 236.138137 
L 426.984114 240.749976 
L 427.376268 242.11497 
L 427.768421 242.812082 
L 428.160575 242.824688 
L 428.552729 242.142731 
L 428.944882 240.759665 
L 429.337036 238.672941 
L 430.121343 232.441913 
L 430.90565 223.901327 
L 432.082111 210.183995 
L 432.474264 206.698101 
L 432.866418 204.360422 
L 433.258571 203.430622 
L 433.650725 204.02568 
L 434.042879 206.096131 
L 434.827186 213.720328 
L 436.787954 237.100852 
L 437.572261 243.561925 
L 438.356568 248.19059 
L 439.533029 253.2499 
L 441.101643 258.869893 
L 441.88595 261.190736 
L 442.670257 262.920777 
L 443.454564 263.952657 
L 443.846718 264.197315 
L 444.238871 264.260371 
L 444.631025 264.141572 
L 445.023179 263.841131 
L 445.807486 262.708347 
L 446.591793 260.944188 
L 448.160407 256.41958 
L 449.336868 253.273583 
L 450.121175 251.797071 
L 450.513329 251.374361 
L 450.905482 251.22994 
L 451.297636 251.405193 
L 451.689789 251.91962 
L 452.081943 252.761474 
L 452.86625 255.213179 
L 454.434864 260.694916 
L 455.219171 262.509489 
L 455.611325 263.065397 
L 456.003479 263.383162 
L 456.395632 263.465688 
L 456.787786 263.312838 
L 457.179939 262.916126 
L 457.572093 262.254502 
L 457.964246 261.291298 
L 458.3564 259.972528 
L 458.748554 258.227083 
L 459.532861 253.109098 
L 460.317168 245.266058 
L 461.101475 234.509092 
L 462.670089 210.085042 
L 463.062243 205.535969 
L 463.454396 202.386422 
L 463.84655 200.852481 
L 464.238704 200.983379 
L 464.630857 202.663825 
L 465.023011 205.648965 
L 465.807318 214.246158 
L 468.160239 243.265851 
L 468.944546 250.841958 
L 469.728854 256.779192 
L 470.513161 261.118215 
L 471.297468 264.13579 
L 472.081775 266.193662 
L 472.866082 267.613468 
L 473.650389 268.628743 
L 474.82685 269.693951 
L 476.003311 270.424535 
L 477.571925 271.100754 
L 479.532693 271.654924 
L 481.885614 272.072138 
L 485.414996 272.430949 
L 490.512993 272.70489 
L 499.532525 272.921968 
L 507.375596 272.846402 
L 512.865746 272.606841 
L 516.002975 272.255352 
L 517.963743 271.844776 
L 519.532357 271.291896 
L 520.708818 270.615801 
L 521.493125 269.941032 
L 522.277432 268.965071 
L 523.061739 267.52149 
L 523.846046 265.397524 
L 524.630354 262.388351 
L 525.414661 258.404466 
L 526.591121 250.901075 
L 528.551889 237.333199 
L 529.336196 233.520227 
L 529.72835 232.543731 
L 530.120504 232.385193 
L 530.512657 233.127732 
L 530.904811 234.77161 
L 531.689118 240.318473 
L 533.649886 257.559734 
L 534.434193 262.409281 
L 535.2185 265.714645 
L 536.002807 267.859941 
L 536.787114 269.246776 
L 537.571421 270.169165 
L 538.355729 270.808431 
L 539.532189 271.452111 
L 541.100804 271.987249 
L 543.061571 272.389984 
L 545.806646 272.715597 
L 550.120336 272.980798 
L 557.571254 273.179354 
L 572.473089 273.310675 
L 590.12 273.38753 
L 590.12 273.38753 
" clip-path="url(#p3011267646)" style="fill: none; stroke: #d62728; stroke-width: 1.8; stroke-linecap: round"/>
   </g>
   <g id="patch_3">
    <path d="M 41.105 273.407344 
L 41.105 22.663594 
" style="fill: none; stroke: #cccccc; stroke-linejoin: miter; stroke-linecap: square"/>
   </g>
   <g id="patch_4">
    <path d="M 590.12 273.407344 
L 590.12 22.663594 
" style="fill: none; stroke: #cccccc; stroke-linejoin: miter; stroke-linecap: square"/>
   </g>
   <g id="patch_5">
    <path d="M 41.105 273.407344 
L 590.12 273.407344 
" style="fill: none; stroke: #cccccc; stroke-linejoin: miter; stroke-linecap: square"/>
   </g>
   <g id="patch_6">
    <path d="M 41.105 22.663594 
L 590.12 22.663594 
" style="fill: none; stroke: #cccccc; stroke-linejoin: miter; stroke-linecap: square"/>
   </g>
   <g id="text_17">
    <!-- D-glucosamine | Gaussian-Broadened Raman Spectrum -->
    <g style="fill: #262626" transform="translate(153.160234 16.663594) scale(0.13 -0.13)">
     <defs>
      <path id="ArialMT-44" d="M 494 0 
L 494 4581 
L 2072 4581 
Q 2606 4581 2888 4516 
Q 3281 4425 3559 4188 
Q 3922 3881 4101 3404 
Q 4281 2928 4281 2316 
Q 4281 1794 4159 1391 
Q 4038 988 3847 723 
Q 3656 459 3429 307 
Q 3203 156 2883 78 
Q 2563 0 2147 0 
L 494 0 
z
M 1100 541 
L 2078 541 
Q 2531 541 2789 625 
Q 3047 709 3200 863 
Q 3416 1078 3536 1442 
Q 3656 1806 3656 2325 
Q 3656 3044 3420 3430 
Q 3184 3816 2847 3947 
Q 2603 4041 2063 4041 
L 1100 4041 
L 1100 541 
z
" transform="scale(0.015625)"/>
      <path id="ArialMT-2d" d="M 203 1375 
L 203 1941 
L 1931 1941 
L 1931 1375 
L 203 1375 
z
" transform="scale(0.015625)"/>
      <path id="ArialMT-67" d="M 319 -275 
L 866 -356 
Q 900 -609 1056 -725 
Q 1266 -881 1628 -881 
Q 2019 -881 2231 -725 
Q 2444 -569 2519 -288 
Q 2563 -116 2559 434 
Q 2191 0 1641 0 
Q 956 0 581 494 
Q 206 988 206 1678 
Q 206 2153 378 2554 
Q 550 2956 876 3175 
Q 1203 3394 1644 3394 
Q 2231 3394 2613 2919 
L 2613 3319 
L 3131 3319 
L 3131 450 
Q 3131 -325 2973 -648 
Q 2816 -972 2473 -1159 
Q 2131 -1347 1631 -1347 
Q 1038 -1347 672 -1080 
Q 306 -813 319 -275 
z
M 784 1719 
Q 784 1066 1043 766 
Q 1303 466 1694 466 
Q 2081 466 2343 764 
Q 2606 1063 2606 1700 
Q 2606 2309 2336 2618 
Q 2066 2928 1684 2928 
Q 1309 2928 1046 2623 
Q 784 2319 784 1719 
z
" transform="scale(0.015625)"/>
      <path id="ArialMT-75" d="M 2597 0 
L 2597 488 
Q 2209 -75 1544 -75 
Q 1250 -75 995 37 
Q 741 150 617 320 
Q 494 491 444 738 
Q 409 903 409 1263 
L 409 3319 
L 972 3319 
L 972 1478 
Q 972 1038 1006 884 
Q 1059 663 1231 536 
Q 1403 409 1656 409 
Q 1909 409 2131 539 
Q 2353 669 2445 892 
Q 2538 1116 2538 1541 
L 2538 3319 
L 3100 3319 
L 3100 0 
L 2597 0 
z
" transform="scale(0.015625)"/>
      <path id="ArialMT-7c" d="M 588 -1347 
L 588 4659 
L 1078 4659 
L 1078 -1347 
L 588 -1347 
z
" transform="scale(0.015625)"/>
      <path id="ArialMT-47" d="M 2638 1797 
L 2638 2334 
L 4578 2338 
L 4578 638 
Q 4131 281 3656 101 
Q 3181 -78 2681 -78 
Q 2006 -78 1454 211 
Q 903 500 622 1047 
Q 341 1594 341 2269 
Q 341 2938 620 3517 
Q 900 4097 1425 4378 
Q 1950 4659 2634 4659 
Q 3131 4659 3532 4498 
Q 3934 4338 4162 4050 
Q 4391 3763 4509 3300 
L 3963 3150 
Q 3859 3500 3706 3700 
Q 3553 3900 3268 4020 
Q 2984 4141 2638 4141 
Q 2222 4141 1919 4014 
Q 1616 3888 1430 3681 
Q 1244 3475 1141 3228 
Q 966 2803 966 2306 
Q 966 1694 1177 1281 
Q 1388 869 1791 669 
Q 2194 469 2647 469 
Q 3041 469 3416 620 
Q 3791 772 3984 944 
L 3984 1797 
L 2638 1797 
z
" transform="scale(0.015625)"/>
      <path id="ArialMT-42" d="M 469 0 
L 469 4581 
L 2188 4581 
Q 2713 4581 3030 4442 
Q 3347 4303 3526 4014 
Q 3706 3725 3706 3409 
Q 3706 3116 3547 2856 
Q 3388 2597 3066 2438 
Q 3481 2316 3704 2022 
Q 3928 1728 3928 1328 
Q 3928 1006 3792 729 
Q 3656 453 3456 303 
Q 3256 153 2954 76 
Q 2653 0 2216 0 
L 469 0 
z
M 1075 2656 
L 2066 2656 
Q 2469 2656 2644 2709 
Q 2875 2778 2992 2937 
Q 3109 3097 3109 3338 
Q 3109 3566 3000 3739 
Q 2891 3913 2687 3977 
Q 2484 4041 1991 4041 
L 1075 4041 
L 1075 2656 
z
M 1075 541 
L 2216 541 
Q 2509 541 2628 563 
Q 2838 600 2978 687 
Q 3119 775 3209 942 
Q 3300 1109 3300 1328 
Q 3300 1584 3169 1773 
Q 3038 1963 2805 2039 
Q 2572 2116 2134 2116 
L 1075 2116 
L 1075 541 
z
" transform="scale(0.015625)"/>
      <path id="ArialMT-53" d="M 288 1472 
L 859 1522 
Q 900 1178 1048 958 
Q 1197 738 1509 602 
Q 1822 466 2213 466 
Q 2559 466 2825 569 
Q 3091 672 3220 851 
Q 3350 1031 3350 1244 
Q 3350 1459 3225 1620 
Q 3100 1781 2813 1891 
Q 2628 1963 1997 2114 
Q 1366 2266 1113 2400 
Q 784 2572 623 2826 
Q 463 3081 463 3397 
Q 463 3744 659 4045 
Q 856 4347 1234 4503 
Q 1613 4659 2075 4659 
Q 2584 4659 2973 4495 
Q 3363 4331 3572 4012 
Q 3781 3694 3797 3291 
L 3216 3247 
Q 3169 3681 2898 3903 
Q 2628 4125 2100 4125 
Q 1550 4125 1298 3923 
Q 1047 3722 1047 3438 
Q 1047 3191 1225 3031 
Q 1400 2872 2139 2705 
Q 2878 2538 3153 2413 
Q 3553 2228 3743 1945 
Q 3934 1663 3934 1294 
Q 3934 928 3725 604 
Q 3516 281 3123 101 
Q 2731 -78 2241 -78 
Q 1619 -78 1198 103 
Q 778 284 539 648 
Q 300 1013 288 1472 
z
" transform="scale(0.015625)"/>
      <path id="ArialMT-70" d="M 422 -1272 
L 422 3319 
L 934 3319 
L 934 2888 
Q 1116 3141 1344 3267 
Q 1572 3394 1897 3394 
Q 2322 3394 2647 3175 
Q 2972 2956 3137 2557 
Q 3303 2159 3303 1684 
Q 3303 1175 3120 767 
Q 2938 359 2589 142 
Q 2241 -75 1856 -75 
Q 1575 -75 1351 44 
Q 1128 163 984 344 
L 984 -1272 
L 422 -1272 
z
M 931 1641 
Q 931 1000 1190 694 
Q 1450 388 1819 388 
Q 2194 388 2461 705 
Q 2728 1022 2728 1688 
Q 2728 2322 2467 2637 
Q 2206 2953 1844 2953 
Q 1484 2953 1207 2617 
Q 931 2281 931 1641 
z
" transform="scale(0.015625)"/>
     </defs>
     <use xlink:href="#ArialMT-44"/>
     <use xlink:href="#ArialMT-2d" transform="translate(72.216797 0)"/>
     <use xlink:href="#ArialMT-67" transform="translate(105.517578 0)"/>
     <use xlink:href="#ArialMT-6c" transform="translate(161.132812 0)"/>
     <use xlink:href="#ArialMT-75" transform="translate(183.349609 0)"/>
     <use xlink:href="#ArialMT-63" transform="translate(238.964844 0)"/>
     <use xlink:href="#ArialMT-6f" transform="translate(288.964844 0)"/>
     <use xlink:href="#ArialMT-73" transform="translate(344.580078 0)"/>
     <use xlink:href="#ArialMT-61" transform="translate(394.580078 0)"/>
     <use xlink:href="#ArialMT-6d" transform="translate(450.195312 0)"/>
     <use xlink:href="#ArialMT-69" transform="translate(533.496094 0)"/>
     <use xlink:href="#ArialMT-6e" transform="translate(555.712891 0)"/>
     <use xlink:href="#ArialMT-65" transform="translate(611.328125 0)"/>
     <use xlink:href="#ArialMT-20" transform="translate(666.943359 0)"/>
     <use xlink:href="#ArialMT-7c" transform="translate(694.726562 0)"/>
     <use xlink:href="#ArialMT-20" transform="translate(720.703125 0)"/>
     <use xlink:href="#ArialMT-47" transform="translate(748.486328 0)"/>
     <use xlink:href="#ArialMT-61" transform="translate(826.269531 0)"/>
     <use xlink:href="#ArialMT-75" transform="translate(881.884766 0)"/>
     <use xlink:href="#ArialMT-73" transform="translate(937.5 0)"/>
     <use xlink:href="#ArialMT-73" transform="translate(987.5 0)"/>
     <use xlink:href="#ArialMT-69" transform="translate(1037.5 0)"/>
     <use xlink:href="#ArialMT-61" transform="translate(1059.716797 0)"/>
     <use xlink:href="#ArialMT-6e" transform="translate(1115.332031 0)"/>
     <use xlink:href="#ArialMT-2d" transform="translate(1170.947266 0)"/>
     <use xlink:href="#ArialMT-42" transform="translate(1204.248047 0)"/>
     <use xlink:href="#ArialMT-72" transform="translate(1270.947266 0)"/>
     <use xlink:href="#ArialMT-6f" transform="translate(1304.248047 0)"/>
     <use xlink:href="#ArialMT-61" transform="translate(1359.863281 0)"/>
     <use xlink:href="#ArialMT-64" transform="translate(1415.478516 0)"/>
     <use xlink:href="#ArialMT-65" transform="translate(1471.09375 0)"/>
     <use xlink:href="#ArialMT-6e" transform="translate(1526.708984 0)"/>
     <use xlink:href="#ArialMT-65" transform="translate(1582.324219 0)"/>
     <use xlink:href="#ArialMT-64" transform="translate(1637.939453 0)"/>
     <use xlink:href="#ArialMT-20" transform="translate(1693.554688 0)"/>
     <use xlink:href="#ArialMT-52" transform="translate(1721.337891 0)"/>
     <use xlink:href="#ArialMT-61" transform="translate(1793.554688 0)"/>
     <use xlink:href="#ArialMT-6d" transform="translate(1849.169922 0)"/>
     <use xlink:href="#ArialMT-61" transform="translate(1932.470703 0)"/>
     <use xlink:href="#ArialMT-6e" transform="translate(1988.085938 0)"/>
     <use xlink:href="#ArialMT-20" transform="translate(2043.701172 0)"/>
     <use xlink:href="#ArialMT-53" transform="translate(2071.484375 0)"/>
     <use xlink:href="#ArialMT-70" transform="translate(2138.183594 0)"/>
     <use xlink:href="#ArialMT-65" transform="translate(2193.798828 0)"/>
     <use xlink:href="#ArialMT-63" transform="translate(2249.414062 0)"/>
     <use xlink:href="#ArialMT-74" transform="translate(2299.414062 0)"/>
     <use xlink:href="#ArialMT-72" transform="translate(2327.197266 0)"/>
     <use xlink:href="#ArialMT-75" transform="translate(2360.498047 0)"/>
     <use xlink:href="#ArialMT-6d" transform="translate(2416.113281 0)"/>
    </g>
   </g>
   <g id="legend_1">
    <g id="patch_7">
     <path d="M 388.07 44.443594 
L 583.82 44.443594 
Q 585.62 44.443594 585.62 42.643594 
L 585.62 28.963594 
Q 585.62 27.163594 583.82 27.163594 
L 388.07 27.163594 
Q 386.27 27.163594 386.27 28.963594 
L 386.27 42.643594 
Q 386.27 44.443594 388.07 44.443594 
z
" style="fill: #ffffff; opacity: 0.8; stroke: #cccccc; stroke-linejoin: miter"/>
    </g>
    <g id="line2d_30">
     <path d="M 389.87 35.713594 
L 398.87 35.713594 
L 407.87 35.713594 
" style="fill: none; stroke: #d62728; stroke-width: 1.8; stroke-linecap: round"/>
    </g>
    <g id="text_18">
     <!-- Gaussian broadened (FWHM=12.0 cm$^{-1}$) -->
     <g style="fill: #262626" transform="translate(415.07 38.863594) scale(0.09 -0.09)">
      <defs>
       <path id="ArialMT-62" d="M 941 0 
L 419 0 
L 419 4581 
L 981 4581 
L 981 2947 
Q 1338 3394 1891 3394 
Q 2197 3394 2470 3270 
Q 2744 3147 2920 2923 
Q 3097 2700 3197 2384 
Q 3297 2069 3297 1709 
Q 3297 856 2875 390 
Q 2453 -75 1863 -75 
Q 1275 -75 941 416 
L 941 0 
z
M 934 1684 
Q 934 1088 1097 822 
Q 1363 388 1816 388 
Q 2184 388 2453 708 
Q 2722 1028 2722 1663 
Q 2722 2313 2464 2622 
Q 2206 2931 1841 2931 
Q 1472 2931 1203 2611 
Q 934 2291 934 1684 
z
" transform="scale(0.015625)"/>
       <path id="ArialMT-46" d="M 525 0 
L 525 4581 
L 3616 4581 
L 3616 4041 
L 1131 4041 
L 1131 2622 
L 3281 2622 
L 3281 2081 
L 1131 2081 
L 1131 0 
L 525 0 
z
" transform="scale(0.015625)"/>
       <path id="ArialMT-57" d="M 1294 0 
L 78 4581 
L 700 4581 
L 1397 1578 
Q 1509 1106 1591 641 
Q 1766 1375 1797 1488 
L 2669 4581 
L 3400 4581 
L 4056 2263 
Q 4303 1400 4413 641 
Q 4500 1075 4641 1638 
L 5359 4581 
L 5969 4581 
L 4713 0 
L 4128 0 
L 3163 3491 
Q 3041 3928 3019 4028 
Q 2947 3713 2884 3491 
L 1913 0 
L 1294 0 
z
" transform="scale(0.015625)"/>
       <path id="ArialMT-48" d="M 513 0 
L 513 4581 
L 1119 4581 
L 1119 2700 
L 3500 2700 
L 3500 4581 
L 4106 4581 
L 4106 0 
L 3500 0 
L 3500 2159 
L 1119 2159 
L 1119 0 
L 513 0 
z
" transform="scale(0.015625)"/>
       <path id="ArialMT-4d" d="M 475 0 
L 475 4581 
L 1388 4581 
L 2472 1338 
Q 2622 884 2691 659 
Q 2769 909 2934 1394 
L 4031 4581 
L 4847 4581 
L 4847 0 
L 4263 0 
L 4263 3834 
L 2931 0 
L 2384 0 
L 1059 3900 
L 1059 0 
L 475 0 
z
" transform="scale(0.015625)"/>
       <path id="ArialMT-3d" d="M 3381 2694 
L 356 2694 
L 356 3219 
L 3381 3219 
L 3381 2694 
z
M 3381 1303 
L 356 1303 
L 356 1828 
L 3381 1828 
L 3381 1303 
z
" transform="scale(0.015625)"/>
      </defs>
      <use xlink:href="#ArialMT-47" transform="translate(0 0.684375)"/>
      <use xlink:href="#ArialMT-61" transform="translate(77.783203 0.684375)"/>
      <use xlink:href="#ArialMT-75" transform="translate(133.398438 0.684375)"/>
      <use xlink:href="#ArialMT-73" transform="translate(189.013672 0.684375)"/>
      <use xlink:href="#ArialMT-73" transform="translate(239.013672 0.684375)"/>
      <use xlink:href="#ArialMT-69" transform="translate(289.013672 0.684375)"/>
      <use xlink:href="#ArialMT-61" transform="translate(311.230469 0.684375)"/>
      <use xlink:href="#ArialMT-6e" transform="translate(366.845703 0.684375)"/>
      <use xlink:href="#ArialMT-20" transform="translate(422.460938 0.684375)"/>
      <use xlink:href="#ArialMT-62" transform="translate(450.244141 0.684375)"/>
      <use xlink:href="#ArialMT-72" transform="translate(505.859375 0.684375)"/>
      <use xlink:href="#ArialMT-6f" transform="translate(539.160156 0.684375)"/>
      <use xlink:href="#ArialMT-61" transform="translate(594.775391 0.684375)"/>
      <use xlink:href="#ArialMT-64" transform="translate(650.390625 0.684375)"/>
      <use xlink:href="#ArialMT-65" transform="translate(706.005859 0.684375)"/>
      <use xlink:href="#ArialMT-6e" transform="translate(761.621094 0.684375)"/>
      <use xlink:href="#ArialMT-65" transform="translate(817.236328 0.684375)"/>
      <use xlink:href="#ArialMT-64" transform="translate(872.851562 0.684375)"/>
      <use xlink:href="#ArialMT-20" transform="translate(928.466797 0.684375)"/>
      <use xlink:href="#ArialMT-28" transform="translate(956.25 0.684375)"/>
      <use xlink:href="#ArialMT-46" transform="translate(989.550781 0.684375)"/>
      <use xlink:href="#ArialMT-57" transform="translate(1050.634766 0.684375)"/>
      <use xlink:href="#ArialMT-48" transform="translate(1145.019531 0.684375)"/>
      <use xlink:href="#ArialMT-4d" transform="translate(1217.236328 0.684375)"/>
      <use xlink:href="#ArialMT-3d" transform="translate(1300.537109 0.684375)"/>
      <use xlink:href="#ArialMT-31" transform="translate(1358.935547 0.684375)"/>
      <use xlink:href="#ArialMT-32" transform="translate(1414.550781 0.684375)"/>
      <use xlink:href="#ArialMT-2e" transform="translate(1470.166016 0.684375)"/>
      <use xlink:href="#ArialMT-30" transform="translate(1497.949219 0.684375)"/>
      <use xlink:href="#ArialMT-20" transform="translate(1553.564453 0.684375)"/>
      <use xlink:href="#ArialMT-63" transform="translate(1581.347656 0.684375)"/>
      <use xlink:href="#ArialMT-6d" transform="translate(1631.347656 0.684375)"/>
      <use xlink:href="#DejaVuSans-2212" transform="translate(1715.605469 38.965625) scale(0.7)"/>
      <use xlink:href="#DejaVuSans-31" transform="translate(1774.257812 38.965625) scale(0.7)"/>
      <use xlink:href="#ArialMT-29" transform="translate(1821.52832 0.684375)"/>
     </g>
    </g>
   </g>
  </g>
 </g>
 <defs>
  <clipPath id="p3011267646">
   <rect x="41.105" y="22.663594" width="549.015" height="250.74375"/>
  </clipPath>
 </defs>
</svg>
