<?xml version="1.0" encoding="utf-8" standalone="no"?>
<!DOCTYPE svg PUBLIC "-//W3C//DTD SVG 1.1//EN"
  "http://www.w3.org/Graphics/SVG/1.1/DTD/svg11.dtd">
<svg xmlns:xlink="http://www.w3.org/1999/xlink" width="609.700312pt" height="311.663437pt" viewBox="0 0 609.700312 311.663437" xmlns="http://www.w3.org/2000/svg" version="1.1">
 <metadata>
  <rdf:RDF xmlns:dc="http://purl.org/dc/elements/1.1/" xmlns:cc="http://creativecommons.org/ns#" xmlns:rdf="http://www.w3.org/1999/02/22-rdf-syntax-ns#">
   <cc:Work>
    <dc:type rdf:resource="http://purl.org/dc/dcmitype/StillImage"/>
    <dc:date>2026-04-16T21:06:18.382895</dc:date>
    <dc:format>image/svg+xml</dc:format>
    <dc:creator>
     <cc:Agent>
      <dc:title>Matplotlib v3.10.8, https://matplotlib.org/</dc:title>
     </cc:Agent>
    </dc:creator>
   </cc:Work>
  </rdf:RDF>
 </metadata>
 <defs>
  <style type="text/css">*{stroke-linejoin: round; stroke-linecap: butt}</style>
 </defs>
 <g id="figure_1">
  <g id="patch_1">
   <path d="M 0 311.663437 
L 609.700312 311.663437 
L 609.700312 0 
L 0 0 
z
" style="fill: #ffffff"/>
  </g>
  <g id="axes_1">
   <g id="patch_2">
    <path d="M 41.25125 273.463594 
L 590.26625 273.463594 
L 590.26625 22.663594 
L 41.25125 22.663594 
z
" style="fill: #ffffff"/>
   </g>
   <g id="matplotlib.axis_1">
    <g id="xtick_1">
     <g id="line2d_1">
      <path d="M 41.25125 273.463594 
L 41.25125 22.663594 
" clip-path="url(#pe50e75eb27)" style="fill: none; stroke: #cccccc; stroke-width: 0.8; stroke-linecap: round"/>
     </g>
     <g id="line2d_2"/>
     <g id="text_1">
      <!-- 400 -->
      <g style="fill: #262626" transform="translate(32.075703 284.837187) scale(0.11 -0.11)">
       <defs>
        <path id="ArialMT-34" d="M 2069 0 
L 2069 1097 
L 81 1097 
L 81 1613 
L 2172 4581 
L 2631 4581 
L 2631 1613 
L 3250 1613 
L 3250 1097 
L 2631 1097 
L 2631 0 
L 2069 0 
z
M 2069 1613 
L 2069 3678 
L 634 1613 
L 2069 1613 
z
" transform="scale(0.015625)"/>
        <path id="ArialMT-30" d="M 266 2259 
Q 266 3072 433 3567 
Q 600 4063 929 4331 
Q 1259 4600 1759 4600 
Q 2128 4600 2406 4451 
Q 2684 4303 2865 4023 
Q 3047 3744 3150 3342 
Q 3253 2941 3253 2259 
Q 3253 1453 3087 958 
Q 2922 463 2592 192 
Q 2263 -78 1759 -78 
Q 1097 -78 719 397 
Q 266 969 266 2259 
z
M 844 2259 
Q 844 1131 1108 757 
Q 1372 384 1759 384 
Q 2147 384 2411 759 
Q 2675 1134 2675 2259 
Q 2675 3391 2411 3762 
Q 2147 4134 1753 4134 
Q 1366 4134 1134 3806 
Q 844 3388 844 2259 
z
" transform="scale(0.015625)"/>
       </defs>
       <use xlink:href="#ArialMT-34"/>
       <use xlink:href="#ArialMT-30" transform="translate(55.615234 0)"/>
       <use xlink:href="#ArialMT-30" transform="translate(111.230469 0)"/>
      </g>
     </g>
    </g>
    <g id="xtick_2">
     <g id="line2d_3">
      <path d="M 119.681964 273.463594 
L 119.681964 22.663594 
" clip-path="url(#pe50e75eb27)" style="fill: none; stroke: #cccccc; stroke-width: 0.8; stroke-linecap: round"/>
     </g>
     <g id="line2d_4"/>
     <g id="text_2">
      <!-- 600 -->
      <g style="fill: #262626" transform="translate(110.506417 284.837187) scale(0.11 -0.11)">
       <defs>
        <path id="ArialMT-36" d="M 3184 3459 
L 2625 3416 
Q 2550 3747 2413 3897 
Q 2184 4138 1850 4138 
Q 1581 4138 1378 3988 
Q 1113 3794 959 3422 
Q 806 3050 800 2363 
Q 1003 2672 1297 2822 
Q 1591 2972 1913 2972 
Q 2475 2972 2870 2558 
Q 3266 2144 3266 1488 
Q 3266 1056 3080 686 
Q 2894 316 2569 119 
Q 2244 -78 1831 -78 
Q 1128 -78 684 439 
Q 241 956 241 2144 
Q 241 3472 731 4075 
Q 1159 4600 1884 4600 
Q 2425 4600 2770 4297 
Q 3116 3994 3184 3459 
z
M 888 1484 
Q 888 1194 1011 928 
Q 1134 663 1356 523 
Q 1578 384 1822 384 
Q 2178 384 2434 671 
Q 2691 959 2691 1453 
Q 2691 1928 2437 2201 
Q 2184 2475 1800 2475 
Q 1419 2475 1153 2201 
Q 888 1928 888 1484 
z
" transform="scale(0.015625)"/>
       </defs>
       <use xlink:href="#ArialMT-36"/>
       <use xlink:href="#ArialMT-30" transform="translate(55.615234 0)"/>
       <use xlink:href="#ArialMT-30" transform="translate(111.230469 0)"/>
      </g>
     </g>
    </g>
    <g id="xtick_3">
     <g id="line2d_5">
      <path d="M 198.112679 273.463594 
L 198.112679 22.663594 
" clip-path="url(#pe50e75eb27)" style="fill: none; stroke: #cccccc; stroke-width: 0.8; stroke-linecap: round"/>
     </g>
     <g id="line2d_6"/>
     <g id="text_3">
      <!-- 800 -->
      <g style="fill: #262626" transform="translate(188.937132 284.837187) scale(0.11 -0.11)">
       <defs>
        <path id="ArialMT-38" d="M 1131 2484 
Q 781 2613 612 2850 
Q 444 3088 444 3419 
Q 444 3919 803 4259 
Q 1163 4600 1759 4600 
Q 2359 4600 2725 4251 
Q 3091 3903 3091 3403 
Q 3091 3084 2923 2848 
Q 2756 2613 2416 2484 
Q 2838 2347 3058 2040 
Q 3278 1734 3278 1309 
Q 3278 722 2862 322 
Q 2447 -78 1769 -78 
Q 1091 -78 675 323 
Q 259 725 259 1325 
Q 259 1772 486 2073 
Q 713 2375 1131 2484 
z
M 1019 3438 
Q 1019 3113 1228 2906 
Q 1438 2700 1772 2700 
Q 2097 2700 2305 2904 
Q 2513 3109 2513 3406 
Q 2513 3716 2298 3927 
Q 2084 4138 1766 4138 
Q 1444 4138 1231 3931 
Q 1019 3725 1019 3438 
z
M 838 1322 
Q 838 1081 952 856 
Q 1066 631 1291 507 
Q 1516 384 1775 384 
Q 2178 384 2440 643 
Q 2703 903 2703 1303 
Q 2703 1709 2433 1975 
Q 2163 2241 1756 2241 
Q 1359 2241 1098 1978 
Q 838 1716 838 1322 
z
" transform="scale(0.015625)"/>
       </defs>
       <use xlink:href="#ArialMT-38"/>
       <use xlink:href="#ArialMT-30" transform="translate(55.615234 0)"/>
       <use xlink:href="#ArialMT-30" transform="translate(111.230469 0)"/>
      </g>
     </g>
    </g>
    <g id="xtick_4">
     <g id="line2d_7">
      <path d="M 276.543393 273.463594 
L 276.543393 22.663594 
" clip-path="url(#pe50e75eb27)" style="fill: none; stroke: #cccccc; stroke-width: 0.8; stroke-linecap: round"/>
     </g>
     <g id="line2d_8"/>
     <g id="text_4">
      <!-- 1000 -->
      <g style="fill: #262626" transform="translate(264.30933 284.837187) scale(0.11 -0.11)">
       <defs>
        <path id="ArialMT-31" d="M 2384 0 
L 1822 0 
L 1822 3584 
Q 1619 3391 1289 3197 
Q 959 3003 697 2906 
L 697 3450 
Q 1169 3672 1522 3987 
Q 1875 4303 2022 4600 
L 2384 4600 
L 2384 0 
z
" transform="scale(0.015625)"/>
       </defs>
       <use xlink:href="#ArialMT-31"/>
       <use xlink:href="#ArialMT-30" transform="translate(55.615234 0)"/>
       <use xlink:href="#ArialMT-30" transform="translate(111.230469 0)"/>
       <use xlink:href="#ArialMT-30" transform="translate(166.845703 0)"/>
      </g>
     </g>
    </g>
    <g id="xtick_5">
     <g id="line2d_9">
      <path d="M 354.974107 273.463594 
L 354.974107 22.663594 
" clip-path="url(#pe50e75eb27)" style="fill: none; stroke: #cccccc; stroke-width: 0.8; stroke-linecap: round"/>
     </g>
     <g id="line2d_10"/>
     <g id="text_5">
      <!-- 1200 -->
      <g style="fill: #262626" transform="translate(342.740045 284.837187) scale(0.11 -0.11)">
       <defs>
        <path id="ArialMT-32" d="M 3222 541 
L 3222 0 
L 194 0 
Q 188 203 259 391 
Q 375 700 629 1000 
Q 884 1300 1366 1694 
Q 2113 2306 2375 2664 
Q 2638 3022 2638 3341 
Q 2638 3675 2398 3904 
Q 2159 4134 1775 4134 
Q 1369 4134 1125 3890 
Q 881 3647 878 3216 
L 300 3275 
Q 359 3922 746 4261 
Q 1134 4600 1788 4600 
Q 2447 4600 2831 4234 
Q 3216 3869 3216 3328 
Q 3216 3053 3103 2787 
Q 2991 2522 2730 2228 
Q 2469 1934 1863 1422 
Q 1356 997 1212 845 
Q 1069 694 975 541 
L 3222 541 
z
" transform="scale(0.015625)"/>
       </defs>
       <use xlink:href="#ArialMT-31"/>
       <use xlink:href="#ArialMT-32" transform="translate(55.615234 0)"/>
       <use xlink:href="#ArialMT-30" transform="translate(111.230469 0)"/>
       <use xlink:href="#ArialMT-30" transform="translate(166.845703 0)"/>
      </g>
     </g>
    </g>
    <g id="xtick_6">
     <g id="line2d_11">
      <path d="M 433.404821 273.463594 
L 433.404821 22.663594 
" clip-path="url(#pe50e75eb27)" style="fill: none; stroke: #cccccc; stroke-width: 0.8; stroke-linecap: round"/>
     </g>
     <g id="line2d_12"/>
     <g id="text_6">
      <!-- 1400 -->
      <g style="fill: #262626" transform="translate(421.170759 284.837187) scale(0.11 -0.11)">
       <use xlink:href="#ArialMT-31"/>
       <use xlink:href="#ArialMT-34" transform="translate(55.615234 0)"/>
       <use xlink:href="#ArialMT-30" transform="translate(111.230469 0)"/>
       <use xlink:href="#ArialMT-30" transform="translate(166.845703 0)"/>
      </g>
     </g>
    </g>
    <g id="xtick_7">
     <g id="line2d_13">
      <path d="M 511.835536 273.463594 
L 511.835536 22.663594 
" clip-path="url(#pe50e75eb27)" style="fill: none; stroke: #cccccc; stroke-width: 0.8; stroke-linecap: round"/>
     </g>
     <g id="line2d_14"/>
     <g id="text_7">
      <!-- 1600 -->
      <g style="fill: #262626" transform="translate(499.601473 284.837187) scale(0.11 -0.11)">
       <use xlink:href="#ArialMT-31"/>
       <use xlink:href="#ArialMT-36" transform="translate(55.615234 0)"/>
       <use xlink:href="#ArialMT-30" transform="translate(111.230469 0)"/>
       <use xlink:href="#ArialMT-30" transform="translate(166.845703 0)"/>
      </g>
     </g>
    </g>
    <g id="xtick_8">
     <g id="line2d_15">
      <path d="M 590.26625 273.463594 
L 590.26625 22.663594 
" clip-path="url(#pe50e75eb27)" style="fill: none; stroke: #cccccc; stroke-width: 0.8; stroke-linecap: round"/>
     </g>
     <g id="line2d_16"/>
     <g id="text_8">
      <!-- 1800 -->
      <g style="fill: #262626" transform="translate(578.032187 284.837187) scale(0.11 -0.11)">
       <use xlink:href="#ArialMT-31"/>
       <use xlink:href="#ArialMT-38" transform="translate(55.615234 0)"/>
       <use xlink:href="#ArialMT-30" transform="translate(111.230469 0)"/>
       <use xlink:href="#ArialMT-30" transform="translate(166.845703 0)"/>
      </g>
     </g>
    </g>
    <g id="text_9">
     <!-- Raman Shift (cm$^{-1}$) -->
     <g style="fill: #262626" transform="translate(262.65875 301.823437) scale(0.12 -0.12)">
      <defs>
       <path id="ArialMT-52" d="M 503 0 
L 503 4581 
L 2534 4581 
Q 3147 4581 3465 4457 
Q 3784 4334 3975 4021 
Q 4166 3709 4166 3331 
Q 4166 2844 3850 2509 
Q 3534 2175 2875 2084 
Q 3116 1969 3241 1856 
Q 3506 1613 3744 1247 
L 4541 0 
L 3778 0 
L 3172 953 
Q 2906 1366 2734 1584 
Q 2563 1803 2427 1890 
Q 2291 1978 2150 2013 
Q 2047 2034 1813 2034 
L 1109 2034 
L 1109 0 
L 503 0 
z
M 1109 2559 
L 2413 2559 
Q 2828 2559 3062 2645 
Q 3297 2731 3419 2920 
Q 3541 3109 3541 3331 
Q 3541 3656 3305 3865 
Q 3069 4075 2559 4075 
L 1109 4075 
L 1109 2559 
z
" transform="scale(0.015625)"/>
       <path id="ArialMT-61" d="M 2588 409 
Q 2275 144 1986 34 
Q 1697 -75 1366 -75 
Q 819 -75 525 192 
Q 231 459 231 875 
Q 231 1119 342 1320 
Q 453 1522 633 1644 
Q 813 1766 1038 1828 
Q 1203 1872 1538 1913 
Q 2219 1994 2541 2106 
Q 2544 2222 2544 2253 
Q 2544 2597 2384 2738 
Q 2169 2928 1744 2928 
Q 1347 2928 1158 2789 
Q 969 2650 878 2297 
L 328 2372 
Q 403 2725 575 2942 
Q 747 3159 1072 3276 
Q 1397 3394 1825 3394 
Q 2250 3394 2515 3294 
Q 2781 3194 2906 3042 
Q 3031 2891 3081 2659 
Q 3109 2516 3109 2141 
L 3109 1391 
Q 3109 606 3145 398 
Q 3181 191 3288 0 
L 2700 0 
Q 2613 175 2588 409 
z
M 2541 1666 
Q 2234 1541 1622 1453 
Q 1275 1403 1131 1340 
Q 988 1278 909 1158 
Q 831 1038 831 891 
Q 831 666 1001 516 
Q 1172 366 1500 366 
Q 1825 366 2078 508 
Q 2331 650 2450 897 
Q 2541 1088 2541 1459 
L 2541 1666 
z
" transform="scale(0.015625)"/>
       <path id="ArialMT-6d" d="M 422 0 
L 422 3319 
L 925 3319 
L 925 2853 
Q 1081 3097 1340 3245 
Q 1600 3394 1931 3394 
Q 2300 3394 2536 3241 
Q 2772 3088 2869 2813 
Q 3263 3394 3894 3394 
Q 4388 3394 4653 3120 
Q 4919 2847 4919 2278 
L 4919 0 
L 4359 0 
L 4359 2091 
Q 4359 2428 4304 2576 
Q 4250 2725 4106 2815 
Q 3963 2906 3769 2906 
Q 3419 2906 3187 2673 
Q 2956 2441 2956 1928 
L 2956 0 
L 2394 0 
L 2394 2156 
Q 2394 2531 2256 2718 
Q 2119 2906 1806 2906 
Q 1569 2906 1367 2781 
Q 1166 2656 1075 2415 
Q 984 2175 984 1722 
L 984 0 
L 422 0 
z
" transform="scale(0.015625)"/>
       <path id="ArialMT-6e" d="M 422 0 
L 422 3319 
L 928 3319 
L 928 2847 
Q 1294 3394 1984 3394 
Q 2284 3394 2536 3286 
Q 2788 3178 2913 3003 
Q 3038 2828 3088 2588 
Q 3119 2431 3119 2041 
L 3119 0 
L 2556 0 
L 2556 2019 
Q 2556 2363 2490 2533 
Q 2425 2703 2258 2804 
Q 2091 2906 1866 2906 
Q 1506 2906 1245 2678 
Q 984 2450 984 1813 
L 984 0 
L 422 0 
z
" transform="scale(0.015625)"/>
       <path id="ArialMT-20" transform="scale(0.015625)"/>
       <path id="ArialMT-53" d="M 288 1472 
L 859 1522 
Q 900 1178 1048 958 
Q 1197 738 1509 602 
Q 1822 466 2213 466 
Q 2559 466 2825 569 
Q 3091 672 3220 851 
Q 3350 1031 3350 1244 
Q 3350 1459 3225 1620 
Q 3100 1781 2813 1891 
Q 2628 1963 1997 2114 
Q 1366 2266 1113 2400 
Q 784 2572 623 2826 
Q 463 3081 463 3397 
Q 463 3744 659 4045 
Q 856 4347 1234 4503 
Q 1613 4659 2075 4659 
Q 2584 4659 2973 4495 
Q 3363 4331 3572 4012 
Q 3781 3694 3797 3291 
L 3216 3247 
Q 3169 3681 2898 3903 
Q 2628 4125 2100 4125 
Q 1550 4125 1298 3923 
Q 1047 3722 1047 3438 
Q 1047 3191 1225 3031 
Q 1400 2872 2139 2705 
Q 2878 2538 3153 2413 
Q 3553 2228 3743 1945 
Q 3934 1663 3934 1294 
Q 3934 928 3725 604 
Q 3516 281 3123 101 
Q 2731 -78 2241 -78 
Q 1619 -78 1198 103 
Q 778 284 539 648 
Q 300 1013 288 1472 
z
" transform="scale(0.015625)"/>
       <path id="ArialMT-68" d="M 422 0 
L 422 4581 
L 984 4581 
L 984 2938 
Q 1378 3394 1978 3394 
Q 2347 3394 2619 3248 
Q 2891 3103 3008 2847 
Q 3125 2591 3125 2103 
L 3125 0 
L 2563 0 
L 2563 2103 
Q 2563 2525 2380 2717 
Q 2197 2909 1863 2909 
Q 1613 2909 1392 2779 
Q 1172 2650 1078 2428 
Q 984 2206 984 1816 
L 984 0 
L 422 0 
z
" transform="scale(0.015625)"/>
       <path id="ArialMT-69" d="M 425 3934 
L 425 4581 
L 988 4581 
L 988 3934 
L 425 3934 
z
M 425 0 
L 425 3319 
L 988 3319 
L 988 0 
L 425 0 
z
" transform="scale(0.015625)"/>
       <path id="ArialMT-66" d="M 556 0 
L 556 2881 
L 59 2881 
L 59 3319 
L 556 3319 
L 556 3672 
Q 556 4006 616 4169 
Q 697 4388 901 4523 
Q 1106 4659 1475 4659 
Q 1713 4659 2000 4603 
L 1916 4113 
Q 1741 4144 1584 4144 
Q 1328 4144 1222 4034 
Q 1116 3925 1116 3625 
L 1116 3319 
L 1763 3319 
L 1763 2881 
L 1116 2881 
L 1116 0 
L 556 0 
z
" transform="scale(0.015625)"/>
       <path id="ArialMT-74" d="M 1650 503 
L 1731 6 
Q 1494 -44 1306 -44 
Q 1000 -44 831 53 
Q 663 150 594 308 
Q 525 466 525 972 
L 525 2881 
L 113 2881 
L 113 3319 
L 525 3319 
L 525 4141 
L 1084 4478 
L 1084 3319 
L 1650 3319 
L 1650 2881 
L 1084 2881 
L 1084 941 
Q 1084 700 1114 631 
Q 1144 563 1211 522 
Q 1278 481 1403 481 
Q 1497 481 1650 503 
z
" transform="scale(0.015625)"/>
       <path id="ArialMT-28" d="M 1497 -1347 
Q 1031 -759 709 28 
Q 388 816 388 1659 
Q 388 2403 628 3084 
Q 909 3875 1497 4659 
L 1900 4659 
Q 1522 4009 1400 3731 
Q 1209 3300 1100 2831 
Q 966 2247 966 1656 
Q 966 153 1900 -1347 
L 1497 -1347 
z
" transform="scale(0.015625)"/>
       <path id="ArialMT-63" d="M 2588 1216 
L 3141 1144 
Q 3050 572 2676 248 
Q 2303 -75 1759 -75 
Q 1078 -75 664 370 
Q 250 816 250 1647 
Q 250 2184 428 2587 
Q 606 2991 970 3192 
Q 1334 3394 1763 3394 
Q 2303 3394 2647 3120 
Q 2991 2847 3088 2344 
L 2541 2259 
Q 2463 2594 2264 2762 
Q 2066 2931 1784 2931 
Q 1359 2931 1093 2626 
Q 828 2322 828 1663 
Q 828 994 1084 691 
Q 1341 388 1753 388 
Q 2084 388 2306 591 
Q 2528 794 2588 1216 
z
" transform="scale(0.015625)"/>
       <path id="DejaVuSans-2212" d="M 678 2272 
L 4684 2272 
L 4684 1741 
L 678 1741 
L 678 2272 
z
" transform="scale(0.015625)"/>
       <path id="DejaVuSans-31" d="M 794 531 
L 1825 531 
L 1825 4091 
L 703 3866 
L 703 4441 
L 1819 4666 
L 2450 4666 
L 2450 531 
L 3481 531 
L 3481 0 
L 794 0 
L 794 531 
z
" transform="scale(0.015625)"/>
       <path id="ArialMT-29" d="M 791 -1347 
L 388 -1347 
Q 1322 153 1322 1656 
Q 1322 2244 1188 2822 
Q 1081 3291 891 3722 
Q 769 4003 388 4659 
L 791 4659 
Q 1378 3875 1659 3084 
Q 1900 2403 1900 1659 
Q 1900 816 1576 28 
Q 1253 -759 791 -1347 
z
" transform="scale(0.015625)"/>
      </defs>
      <use xlink:href="#ArialMT-52" transform="translate(0 0.684375)"/>
      <use xlink:href="#ArialMT-61" transform="translate(72.216797 0.684375)"/>
      <use xlink:href="#ArialMT-6d" transform="translate(127.832031 0.684375)"/>
      <use xlink:href="#ArialMT-61" transform="translate(211.132812 0.684375)"/>
      <use xlink:href="#ArialMT-6e" transform="translate(266.748047 0.684375)"/>
      <use xlink:href="#ArialMT-20" transform="translate(322.363281 0.684375)"/>
      <use xlink:href="#ArialMT-53" transform="translate(350.146484 0.684375)"/>
      <use xlink:href="#ArialMT-68" transform="translate(416.845703 0.684375)"/>
      <use xlink:href="#ArialMT-69" transform="translate(472.460938 0.684375)"/>
      <use xlink:href="#ArialMT-66" transform="translate(494.677734 0.684375)"/>
      <use xlink:href="#ArialMT-74" transform="translate(522.460938 0.684375)"/>
      <use xlink:href="#ArialMT-20" transform="translate(550.244141 0.684375)"/>
      <use xlink:href="#ArialMT-28" transform="translate(578.027344 0.684375)"/>
      <use xlink:href="#ArialMT-63" transform="translate(611.328125 0.684375)"/>
      <use xlink:href="#ArialMT-6d" transform="translate(661.328125 0.684375)"/>
      <use xlink:href="#DejaVuSans-2212" transform="translate(745.585938 38.965625) scale(0.7)"/>
      <use xlink:href="#DejaVuSans-31" transform="translate(804.238281 38.965625) scale(0.7)"/>
      <use xlink:href="#ArialMT-29" transform="translate(851.508789 0.684375)"/>
     </g>
    </g>
   </g>
   <g id="matplotlib.axis_2">
    <g id="ytick_1">
     <g id="line2d_17">
      <path d="M 41.25125 273.463594 
L 590.26625 273.463594 
" clip-path="url(#pe50e75eb27)" style="fill: none; stroke: #cccccc; stroke-width: 0.8; stroke-linecap: round"/>
     </g>
     <g id="line2d_18"/>
     <g id="text_10">
      <!-- 0.0 -->
      <g style="fill: #262626" transform="translate(22.46125 277.400391) scale(0.11 -0.11)">
       <defs>
        <path id="ArialMT-2e" d="M 581 0 
L 581 641 
L 1222 641 
L 1222 0 
L 581 0 
z
" transform="scale(0.015625)"/>
       </defs>
       <use xlink:href="#ArialMT-30"/>
       <use xlink:href="#ArialMT-2e" transform="translate(55.615234 0)"/>
       <use xlink:href="#ArialMT-30" transform="translate(83.398438 0)"/>
      </g>
     </g>
    </g>
    <g id="ytick_2">
     <g id="line2d_19">
      <path d="M 41.25125 225.692165 
L 590.26625 225.692165 
" clip-path="url(#pe50e75eb27)" style="fill: none; stroke: #cccccc; stroke-width: 0.8; stroke-linecap: round"/>
     </g>
     <g id="line2d_20"/>
     <g id="text_11">
      <!-- 0.2 -->
      <g style="fill: #262626" transform="translate(22.46125 229.628962) scale(0.11 -0.11)">
       <use xlink:href="#ArialMT-30"/>
       <use xlink:href="#ArialMT-2e" transform="translate(55.615234 0)"/>
       <use xlink:href="#ArialMT-32" transform="translate(83.398438 0)"/>
      </g>
     </g>
    </g>
    <g id="ytick_3">
     <g id="line2d_21">
      <path d="M 41.25125 177.920737 
L 590.26625 177.920737 
" clip-path="url(#pe50e75eb27)" style="fill: none; stroke: #cccccc; stroke-width: 0.8; stroke-linecap: round"/>
     </g>
     <g id="line2d_22"/>
     <g id="text_12">
      <!-- 0.4 -->
      <g style="fill: #262626" transform="translate(22.46125 181.857533) scale(0.11 -0.11)">
       <use xlink:href="#ArialMT-30"/>
       <use xlink:href="#ArialMT-2e" transform="translate(55.615234 0)"/>
       <use xlink:href="#ArialMT-34" transform="translate(83.398438 0)"/>
      </g>
     </g>
    </g>
    <g id="ytick_4">
     <g id="line2d_23">
      <path d="M 41.25125 130.149308 
L 590.26625 130.149308 
" clip-path="url(#pe50e75eb27)" style="fill: none; stroke: #cccccc; stroke-width: 0.8; stroke-linecap: round"/>
     </g>
     <g id="line2d_24"/>
     <g id="text_13">
      <!-- 0.6 -->
      <g style="fill: #262626" transform="translate(22.46125 134.086105) scale(0.11 -0.11)">
       <use xlink:href="#ArialMT-30"/>
       <use xlink:href="#ArialMT-2e" transform="translate(55.615234 0)"/>
       <use xlink:href="#ArialMT-36" transform="translate(83.398438 0)"/>
      </g>
     </g>
    </g>
    <g id="ytick_5">
     <g id="line2d_25">
      <path d="M 41.25125 82.377879 
L 590.26625 82.377879 
" clip-path="url(#pe50e75eb27)" style="fill: none; stroke: #cccccc; stroke-width: 0.8; stroke-linecap: round"/>
     </g>
     <g id="line2d_26"/>
     <g id="text_14">
      <!-- 0.8 -->
      <g style="fill: #262626" transform="translate(22.46125 86.314676) scale(0.11 -0.11)">
       <use xlink:href="#ArialMT-30"/>
       <use xlink:href="#ArialMT-2e" transform="translate(55.615234 0)"/>
       <use xlink:href="#ArialMT-38" transform="translate(83.398438 0)"/>
      </g>
     </g>
    </g>
    <g id="ytick_6">
     <g id="line2d_27">
      <path d="M 41.25125 34.606451 
L 590.26625 34.606451 
" clip-path="url(#pe50e75eb27)" style="fill: none; stroke: #cccccc; stroke-width: 0.8; stroke-linecap: round"/>
     </g>
     <g id="line2d_28"/>
     <g id="text_15">
      <!-- 1.0 -->
      <g style="fill: #262626" transform="translate(22.46125 38.543248) scale(0.11 -0.11)">
       <use xlink:href="#ArialMT-31"/>
       <use xlink:href="#ArialMT-2e" transform="translate(55.615234 0)"/>
       <use xlink:href="#ArialMT-30" transform="translate(83.398438 0)"/>
      </g>
     </g>
    </g>
    <g id="text_16">
     <!-- Relative Intensity (a.u.) -->
     <g style="fill: #262626" transform="translate(15.935625 209.419219) rotate(-90) scale(0.12 -0.12)">
      <defs>
       <path id="ArialMT-65" d="M 2694 1069 
L 3275 997 
Q 3138 488 2766 206 
Q 2394 -75 1816 -75 
Q 1088 -75 661 373 
Q 234 822 234 1631 
Q 234 2469 665 2931 
Q 1097 3394 1784 3394 
Q 2450 3394 2872 2941 
Q 3294 2488 3294 1666 
Q 3294 1616 3291 1516 
L 816 1516 
Q 847 969 1125 678 
Q 1403 388 1819 388 
Q 2128 388 2347 550 
Q 2566 713 2694 1069 
z
M 847 1978 
L 2700 1978 
Q 2663 2397 2488 2606 
Q 2219 2931 1791 2931 
Q 1403 2931 1139 2672 
Q 875 2413 847 1978 
z
" transform="scale(0.015625)"/>
       <path id="ArialMT-6c" d="M 409 0 
L 409 4581 
L 972 4581 
L 972 0 
L 409 0 
z
" transform="scale(0.015625)"/>
       <path id="ArialMT-76" d="M 1344 0 
L 81 3319 
L 675 3319 
L 1388 1331 
Q 1503 1009 1600 663 
Q 1675 925 1809 1294 
L 2547 3319 
L 3125 3319 
L 1869 0 
L 1344 0 
z
" transform="scale(0.015625)"/>
       <path id="ArialMT-49" d="M 597 0 
L 597 4581 
L 1203 4581 
L 1203 0 
L 597 0 
z
" transform="scale(0.015625)"/>
       <path id="ArialMT-73" d="M 197 991 
L 753 1078 
Q 800 744 1014 566 
Q 1228 388 1613 388 
Q 2000 388 2187 545 
Q 2375 703 2375 916 
Q 2375 1106 2209 1216 
Q 2094 1291 1634 1406 
Q 1016 1563 777 1677 
Q 538 1791 414 1992 
Q 291 2194 291 2438 
Q 291 2659 392 2848 
Q 494 3038 669 3163 
Q 800 3259 1026 3326 
Q 1253 3394 1513 3394 
Q 1903 3394 2198 3281 
Q 2494 3169 2634 2976 
Q 2775 2784 2828 2463 
L 2278 2388 
Q 2241 2644 2061 2787 
Q 1881 2931 1553 2931 
Q 1166 2931 1000 2803 
Q 834 2675 834 2503 
Q 834 2394 903 2306 
Q 972 2216 1119 2156 
Q 1203 2125 1616 2013 
Q 2213 1853 2448 1751 
Q 2684 1650 2818 1456 
Q 2953 1263 2953 975 
Q 2953 694 2789 445 
Q 2625 197 2315 61 
Q 2006 -75 1616 -75 
Q 969 -75 630 194 
Q 291 463 197 991 
z
" transform="scale(0.015625)"/>
       <path id="ArialMT-79" d="M 397 -1278 
L 334 -750 
Q 519 -800 656 -800 
Q 844 -800 956 -737 
Q 1069 -675 1141 -563 
Q 1194 -478 1313 -144 
Q 1328 -97 1363 -6 
L 103 3319 
L 709 3319 
L 1400 1397 
Q 1534 1031 1641 628 
Q 1738 1016 1872 1384 
L 2581 3319 
L 3144 3319 
L 1881 -56 
Q 1678 -603 1566 -809 
Q 1416 -1088 1222 -1217 
Q 1028 -1347 759 -1347 
Q 597 -1347 397 -1278 
z
" transform="scale(0.015625)"/>
       <path id="ArialMT-75" d="M 2597 0 
L 2597 488 
Q 2209 -75 1544 -75 
Q 1250 -75 995 37 
Q 741 150 617 320 
Q 494 491 444 738 
Q 409 903 409 1263 
L 409 3319 
L 972 3319 
L 972 1478 
Q 972 1038 1006 884 
Q 1059 663 1231 536 
Q 1403 409 1656 409 
Q 1909 409 2131 539 
Q 2353 669 2445 892 
Q 2538 1116 2538 1541 
L 2538 3319 
L 3100 3319 
L 3100 0 
L 2597 0 
z
" transform="scale(0.015625)"/>
      </defs>
      <use xlink:href="#ArialMT-52"/>
      <use xlink:href="#ArialMT-65" transform="translate(72.216797 0)"/>
      <use xlink:href="#ArialMT-6c" transform="translate(127.832031 0)"/>
      <use xlink:href="#ArialMT-61" transform="translate(150.048828 0)"/>
      <use xlink:href="#ArialMT-74" transform="translate(205.664062 0)"/>
      <use xlink:href="#ArialMT-69" transform="translate(233.447266 0)"/>
      <use xlink:href="#ArialMT-76" transform="translate(255.664062 0)"/>
      <use xlink:href="#ArialMT-65" transform="translate(305.664062 0)"/>
      <use xlink:href="#ArialMT-20" transform="translate(361.279297 0)"/>
      <use xlink:href="#ArialMT-49" transform="translate(389.0625 0)"/>
      <use xlink:href="#ArialMT-6e" transform="translate(416.845703 0)"/>
      <use xlink:href="#ArialMT-74" transform="translate(472.460938 0)"/>
      <use xlink:href="#ArialMT-65" transform="translate(500.244141 0)"/>
      <use xlink:href="#ArialMT-6e" transform="translate(555.859375 0)"/>
      <use xlink:href="#ArialMT-73" transform="translate(611.474609 0)"/>
      <use xlink:href="#ArialMT-69" transform="translate(661.474609 0)"/>
      <use xlink:href="#ArialMT-74" transform="translate(683.691406 0)"/>
      <use xlink:href="#ArialMT-79" transform="translate(711.474609 0)"/>
      <use xlink:href="#ArialMT-20" transform="translate(761.474609 0)"/>
      <use xlink:href="#ArialMT-28" transform="translate(789.257812 0)"/>
      <use xlink:href="#ArialMT-61" transform="translate(822.558594 0)"/>
      <use xlink:href="#ArialMT-2e" transform="translate(878.173828 0)"/>
      <use xlink:href="#ArialMT-75" transform="translate(905.957031 0)"/>
      <use xlink:href="#ArialMT-2e" transform="translate(961.572266 0)"/>
      <use xlink:href="#ArialMT-29" transform="translate(989.355469 0)"/>
     </g>
    </g>
   </g>
   <g id="line2d_29">
    <path d="M 41.25125 174.55738 
L 41.643404 90.680324 
L 42.035557 34.606451 
L 42.427711 52.722937 
L 43.212018 204.678697 
L 43.604171 241.39448 
L 43.996325 233.683181 
L 45.172786 106.760254 
L 45.564939 132.858404 
L 46.349246 235.721345 
L 46.7414 252.452036 
L 47.133554 238.994107 
L 47.917861 165.407222 
L 48.310014 155.903825 
L 48.702168 182.962239 
L 49.094321 223.897781 
L 49.486475 252.583156 
L 49.878629 260.593242 
L 50.270782 250.792831 
L 51.055089 212.973936 
L 51.447243 213.381016 
L 52.23155 250.70707 
L 52.623704 256.804133 
L 53.015857 237.900543 
L 53.408011 186.663716 
L 53.800164 116.677705 
L 54.192318 72.564582 
L 54.584471 91.370342 
L 55.368779 218.664928 
L 55.760932 247.485623 
L 56.153086 239.724326 
L 57.329546 138.144898 
L 57.7217 161.541249 
L 58.506007 245.576882 
L 58.898161 262.025869 
L 59.290314 261.185662 
L 60.074621 239.149308 
L 60.466775 236.861987 
L 60.858929 245.822606 
L 61.251082 258.568137 
L 61.643236 267.04631 
L 62.035389 268.648522 
L 62.427543 264.007358 
L 63.21185 248.837243 
L 63.604004 249.474289 
L 64.388311 264.933644 
L 64.780464 268.24973 
L 65.172618 264.10032 
L 65.564771 251.50365 
L 65.956925 234.617935 
L 66.349079 224.648743 
L 66.741232 230.051287 
L 67.525539 259.772913 
L 67.917693 262.441937 
L 68.309846 249.213591 
L 69.094154 186.34468 
L 69.486307 173.543449 
L 69.878461 192.40216 
L 70.662768 253.846376 
L 71.054921 264.854268 
L 71.447075 262.883965 
L 72.231382 244.054564 
L 72.623536 242.689218 
L 73.015689 250.639136 
L 73.407843 261.166795 
L 73.799996 267.019046 
L 74.19215 264.54187 
L 74.584304 252.263559 
L 75.368611 219.291078 
L 75.760764 221.696576 
L 76.545071 255.347536 
L 76.937225 260.819099 
L 77.329379 247.68775 
L 77.721532 213.001017 
L 78.113686 168.415405 
L 78.505839 143.985295 
L 78.897993 160.584301 
L 79.6823 242.682612 
L 80.074454 262.073669 
L 80.466607 264.926217 
L 80.858761 258.52333 
L 81.250914 250.157793 
L 81.643068 247.278501 
L 82.035221 252.627901 
L 82.819529 268.472788 
L 83.211682 270.796411 
L 83.603836 269.264191 
L 84.388143 261.716967 
L 84.780296 261.405975 
L 85.956757 271.395821 
L 86.348911 271.407923 
L 86.741064 269.049411 
L 87.133218 265.324715 
L 87.525371 262.691305 
L 87.917525 263.368134 
L 88.701832 270.086925 
L 89.093986 271.242882 
L 89.486139 269.173953 
L 90.6626 253.2264 
L 91.054754 256.130208 
L 91.446907 262.711877 
L 91.839061 267.167237 
L 92.231214 264.056982 
L 92.623368 248.035285 
L 93.407675 186.883876 
L 93.799829 177.932017 
L 94.191982 198.909912 
L 94.976289 256.639399 
L 95.368443 265.891726 
L 95.760596 263.639484 
L 96.544904 247.753019 
L 96.937057 247.584193 
L 98.113518 269.782407 
L 98.505671 271.240902 
L 98.897825 269.699551 
L 99.289979 266.799299 
L 99.682132 264.82556 
L 100.074286 265.52643 
L 100.858593 271.027283 
L 101.250746 272.37562 
L 101.6429 272.21927 
L 102.819361 268.42736 
L 103.211514 269.239092 
L 103.995821 272.329219 
L 104.387975 272.786576 
L 104.780129 272.278783 
L 105.564436 269.753824 
L 105.956589 269.449465 
L 106.348743 270.387966 
L 106.740896 271.768713 
L 107.13305 272.644012 
L 107.525204 272.566019 
L 107.917357 271.404036 
L 108.701664 267.872021 
L 109.093818 267.938959 
L 109.878125 271.33983 
L 110.270279 271.678728 
L 110.662432 269.261766 
L 111.054586 263.142408 
L 111.446739 254.907756 
L 111.838893 249.817102 
L 112.231046 252.150435 
L 113.015354 267.211729 
L 113.407507 270.899903 
L 113.799661 271.005527 
L 114.976121 264.478453 
L 115.368275 266.072872 
L 116.152582 271.62131 
L 116.544736 272.630727 
L 116.936889 272.400201 
L 117.721196 270.41011 
L 118.11335 270.223924 
L 118.505504 271.03006 
L 118.897657 272.155716 
L 119.289811 272.883054 
L 119.681964 272.961877 
L 120.074118 272.416962 
L 120.858425 270.749784 
L 121.250579 270.834543 
L 122.034886 272.540429 
L 122.427039 272.908382 
L 122.819193 272.483878 
L 123.211346 271.182559 
L 123.6035 269.45142 
L 123.995654 268.449466 
L 124.387807 269.026345 
L 125.172114 271.908772 
L 125.564268 271.572357 
L 125.956421 268.51127 
L 126.740729 255.545012 
L 127.132882 253.023714 
L 127.525036 256.96939 
L 128.309343 269.321767 
L 128.701496 270.92855 
L 129.09365 268.966081 
L 129.877957 260.343105 
L 130.270111 259.807668 
L 130.662264 263.408698 
L 131.054418 268.209103 
L 131.446571 271.417787 
L 131.838725 272.506106 
L 132.230879 272.145263 
L 133.015186 270.33266 
L 133.407339 270.489961 
L 134.191646 272.498671 
L 134.5838 273.065545 
L 134.975954 273.112602 
L 135.368107 272.775803 
L 135.760261 272.291577 
L 136.152414 272.028366 
L 136.544568 272.219217 
L 137.328875 273.11924 
L 137.721029 273.300685 
L 138.113182 273.246764 
L 139.289643 272.691597 
L 140.07395 273.11948 
L 140.466104 273.314189 
L 140.858257 273.367549 
L 141.642564 273.11908 
L 142.034718 272.967544 
L 142.426871 272.957184 
L 143.603332 273.380499 
L 144.387639 273.306047 
L 145.171946 273.084323 
L 145.956254 273.230249 
L 146.740561 273.409984 
L 147.524868 273.31595 
L 148.309175 273.164466 
L 150.662096 273.322511 
L 151.446404 273.224389 
L 153.407171 273.393918 
L 154.583632 273.271656 
L 156.152246 273.439291 
L 158.113014 273.397531 
L 159.289475 273.441076 
L 161.250243 273.416937 
L 162.426704 273.434438 
L 163.995318 273.388478 
L 165.563932 273.430558 
L 167.132546 273.403401 
L 168.309007 273.437485 
L 169.877621 273.341752 
L 171.446236 273.42958 
L 173.01485 273.350557 
L 174.191311 273.443273 
L 176.544232 273.413438 
L 177.720693 273.412027 
L 178.897154 273.335499 
L 180.465768 273.432867 
L 182.034382 273.333236 
L 183.602996 273.421408 
L 185.171611 273.331807 
L 186.348071 273.4362 
L 188.308839 273.336289 
L 189.4853 273.429005 
L 191.053914 273.282834 
L 192.230375 273.429563 
L 193.014682 273.336849 
L 193.798989 273.198696 
L 195.759757 273.378269 
L 196.936218 273.146503 
L 198.504832 273.403914 
L 200.073446 273.085197 
L 201.249907 273.393146 
L 202.034214 273.257929 
L 202.818521 272.969603 
L 203.210675 273.00577 
L 204.387136 273.378131 
L 204.779289 273.317933 
L 205.95575 272.810037 
L 206.347904 272.910668 
L 207.132211 273.306022 
L 207.524364 273.343774 
L 207.916518 273.21383 
L 208.700825 272.651918 
L 209.092979 272.57791 
L 210.661593 273.264511 
L 211.053746 273.005814 
L 211.838054 272.200641 
L 212.230207 272.205735 
L 213.406668 273.209631 
L 213.798821 273.066111 
L 214.190975 272.534444 
L 214.583129 271.786328 
L 214.975282 271.308904 
L 215.367436 271.504573 
L 216.151743 272.828482 
L 216.543896 272.982505 
L 216.93605 272.43532 
L 217.720357 269.624549 
L 218.112511 268.961329 
L 218.504664 269.723396 
L 218.896818 271.215226 
L 219.288971 272.197977 
L 219.681125 271.665554 
L 220.073279 268.771096 
L 220.857586 258.437683 
L 221.249739 257.380659 
L 221.641893 261.273068 
L 222.034046 266.792468 
L 222.4262 270.124611 
L 222.818354 269.387663 
L 223.210507 263.900574 
L 223.994814 247.995245 
L 224.386968 248.584226 
L 225.171275 264.638328 
L 225.563429 268.367634 
L 225.955582 264.916125 
L 226.347736 253.576496 
L 226.739889 238.215201 
L 227.132043 229.049652 
L 227.524196 233.868536 
L 228.308504 261.733628 
L 228.700657 267.145852 
L 229.092811 263.527298 
L 229.877118 239.185173 
L 230.269271 234.047761 
L 230.661425 241.400487 
L 231.445732 265.755739 
L 231.837886 270.429168 
L 232.230039 270.418309 
L 233.014346 265.332708 
L 233.4065 264.934442 
L 233.798654 267.129867 
L 234.190807 270.114912 
L 234.582961 272.088662 
L 234.975114 272.596474 
L 235.367268 271.930899 
L 236.151575 269.640613 
L 236.543729 269.8017 
L 237.328036 272.247617 
L 237.720189 272.922422 
L 238.112343 272.881717 
L 238.504496 272.246786 
L 238.89665 271.362749 
L 239.288804 270.868569 
L 239.680957 271.194544 
L 240.465264 272.809346 
L 240.857418 273.087397 
L 241.249571 272.826183 
L 242.033879 271.317227 
L 242.426032 271.042692 
L 242.818186 271.530703 
L 243.602493 272.943202 
L 243.994646 272.98732 
L 244.3868 272.409113 
L 245.171107 270.375144 
L 245.563261 270.283594 
L 246.739721 272.734877 
L 247.131875 272.243193 
L 247.524029 270.496841 
L 247.916182 267.924464 
L 248.308336 266.106589 
L 248.700489 266.545175 
L 249.484796 270.838596 
L 249.87695 270.476917 
L 250.269104 265.509615 
L 251.445564 234.207327 
L 251.837718 239.801559 
L 252.622025 264.426705 
L 253.014179 269.530022 
L 253.406332 268.88292 
L 254.190639 259.559849 
L 254.582793 258.08839 
L 254.974946 261.431358 
L 255.759254 270.711273 
L 256.151407 272.142242 
L 256.543561 271.60579 
L 257.327868 268.510241 
L 257.720021 268.46297 
L 258.896482 272.492324 
L 259.288636 272.092765 
L 259.680789 270.285141 
L 260.072943 267.655702 
L 260.465096 265.89943 
L 260.85725 266.49284 
L 261.641557 271.307524 
L 262.033711 272.4787 
L 262.425864 272.286579 
L 263.602325 268.611391 
L 263.994479 269.382803 
L 264.778786 272.399067 
L 265.170939 272.967 
L 265.563093 272.806356 
L 266.3474 271.485618 
L 266.739554 271.317939 
L 267.131707 271.81596 
L 267.523861 272.560301 
L 267.916014 273.06511 
L 268.308168 273.149876 
L 268.700321 272.827482 
L 269.484629 271.748222 
L 269.876782 271.764781 
L 271.053243 273.167879 
L 271.445396 273.089039 
L 271.83755 272.627735 
L 272.229704 271.967823 
L 272.621857 271.553125 
L 273.014011 271.736522 
L 273.798318 272.927874 
L 274.190471 273.130898 
L 274.582625 272.855581 
L 275.366932 271.261963 
L 275.759086 270.896256 
L 276.151239 271.344173 
L 276.935546 272.839361 
L 277.3277 272.825137 
L 277.719854 271.957851 
L 278.504161 268.736334 
L 278.896314 268.431618 
L 279.288468 269.666792 
L 279.680621 271.36806 
L 280.072775 272.263298 
L 280.464929 271.544569 
L 280.857082 268.707885 
L 281.641389 260.873868 
L 282.033543 261.232793 
L 282.81785 269.176086 
L 283.210004 271.015774 
L 283.602157 269.410709 
L 283.994311 264.097037 
L 284.386464 256.955326 
L 284.778618 252.777914 
L 285.170771 255.124803 
L 285.955079 268.123658 
L 286.347232 270.737318 
L 286.739386 269.453007 
L 287.523693 259.922338 
L 287.915846 257.978478 
L 288.308 260.921838 
L 288.700154 266.15239 
L 289.092307 269.693097 
L 289.484461 268.988204 
L 289.876614 262.528224 
L 290.660921 240.27146 
L 291.053075 238.813239 
L 291.445229 247.853472 
L 291.837382 259.846027 
L 292.229536 267.089249 
L 292.621689 266.661909 
L 293.013843 258.363917 
L 293.79815 235.31086 
L 294.190304 237.116425 
L 294.974611 261.511997 
L 295.366764 268.106075 
L 295.758918 267.555362 
L 296.151071 261.078392 
L 296.543225 252.184669 
L 296.935379 247.323419 
L 297.327532 250.733463 
L 298.111839 266.988931 
L 298.503993 269.788614 
L 298.896146 267.318042 
L 299.680454 253.020597 
L 300.072607 250.53164 
L 300.464761 255.234841 
L 300.856914 262.9393 
L 301.249068 267.560158 
L 301.641221 264.727668 
L 302.033375 251.227886 
L 302.817682 208.200432 
L 303.209836 206.644062 
L 304.386296 263.140152 
L 304.77845 266.088073 
L 305.170604 259.620586 
L 305.562757 248.31862 
L 305.954911 240.303545 
L 306.347064 242.479366 
L 307.131371 263.473741 
L 307.523525 268.236296 
L 307.915679 265.669446 
L 309.092139 238.469571 
L 309.484293 243.613309 
L 310.2686 264.966053 
L 310.660754 267.502737 
L 311.052907 261.613341 
L 311.837214 234.558986 
L 312.229368 230.660979 
L 312.621521 240.149376 
L 313.405829 265.817416 
L 313.797982 269.422774 
L 314.190136 267.174945 
L 314.974443 256.61055 
L 315.366596 256.540822 
L 316.150904 267.084196 
L 316.543057 269.51796 
L 316.935211 266.312232 
L 317.327364 256.225954 
L 317.719518 242.034395 
L 318.111671 232.746892 
L 318.503825 236.14264 
L 319.288132 261.683249 
L 319.680286 266.547158 
L 320.072439 261.510381 
L 321.2489 221.384921 
L 321.641054 229.886163 
L 322.425361 261.124266 
L 322.817514 263.491879 
L 323.209668 252.076301 
L 323.993975 205.188118 
L 324.386129 199.78801 
L 324.778282 217.227853 
L 325.170436 243.021402 
L 325.562589 261.309674 
L 325.954743 268.06396 
L 326.346896 266.526745 
L 327.131204 256.059517 
L 327.523357 256.327871 
L 328.699818 270.593426 
L 329.091971 269.996453 
L 329.484125 265.8427 
L 329.876279 259.911778 
L 330.268432 256.251119 
L 330.660586 257.988419 
L 331.444893 268.643234 
L 331.837046 270.191208 
L 332.2292 267.017697 
L 333.013507 250.129729 
L 333.405661 246.404333 
L 333.797814 251.265849 
L 334.582121 267.923545 
L 334.974275 270.823787 
L 335.366429 269.828684 
L 336.150736 262.934504 
L 336.542889 262.322021 
L 336.935043 265.110634 
L 337.327196 268.933461 
L 337.71935 271.170485 
L 338.111504 270.547065 
L 338.503657 266.607514 
L 339.287964 255.584381 
L 339.680118 256.185352 
L 340.464425 267.089742 
L 340.856579 268.14061 
L 341.248732 261.084752 
L 341.640886 243.691687 
L 342.033039 221.108576 
L 342.425193 208.207863 
L 342.817346 215.927831 
L 343.601654 256.731035 
L 343.993807 264.302228 
L 344.385961 258.745802 
L 345.170268 223.544215 
L 345.562421 216.692867 
L 345.954575 227.775221 
L 346.738882 261.832871 
L 347.131036 265.576113 
L 347.523189 258.430062 
L 348.307496 229.449723 
L 348.69965 227.778064 
L 349.091804 239.913844 
L 349.483957 255.946295 
L 349.876111 266.483932 
L 350.268264 269.567333 
L 350.660418 267.162206 
L 351.444725 258.235837 
L 351.836879 259.03666 
L 352.621186 268.610324 
L 353.013339 270.57738 
L 353.405493 268.420567 
L 354.581954 249.269448 
L 354.974107 252.53739 
L 355.758414 267.334879 
L 356.150568 269.088831 
L 356.542721 264.623983 
L 357.327029 243.618463 
L 357.719182 240.167967 
L 358.111336 247.16656 
L 358.503489 258.557944 
L 358.895643 266.228188 
L 359.287796 265.924691 
L 359.67995 256.0778 
L 360.464257 223.412373 
L 360.856411 222.504859 
L 362.032871 266.091393 
L 362.425025 269.341031 
L 362.817179 266.818948 
L 363.209332 261.648939 
L 363.601486 257.98666 
L 363.993639 259.084824 
L 364.777946 268.986799 
L 365.1701 271.598179 
L 365.562254 271.691401 
L 365.954407 269.961507 
L 366.346561 267.611497 
L 366.738714 266.453083 
L 367.130868 267.517619 
L 367.915175 271.834237 
L 368.307329 272.492004 
L 368.699482 271.762276 
L 369.483789 268.024901 
L 369.875943 267.513147 
L 370.268096 268.853961 
L 370.66025 270.898601 
L 371.052404 272.229161 
L 371.444557 272.158988 
L 371.836711 270.480213 
L 372.621018 265.193251 
L 373.013171 265.202275 
L 373.797479 270.304461 
L 374.189632 271.15933 
L 374.581786 268.554582 
L 374.973939 261.426558 
L 375.366093 251.601759 
L 375.758246 245.295053 
L 376.1504 247.789305 
L 376.934707 265.611859 
L 377.326861 269.554081 
L 377.719014 267.983241 
L 378.895475 250.789824 
L 379.287629 254.580325 
L 379.679782 262.119899 
L 380.071936 267.29271 
L 380.464089 265.406915 
L 380.856243 252.839203 
L 381.64055 207.182277 
L 382.032704 202.327346 
L 382.424857 219.439625 
L 382.817011 244.173329 
L 383.209164 260.690546 
L 383.601318 263.538074 
L 383.993471 253.578684 
L 384.777779 221.022408 
L 385.169932 222.102411 
L 386.346393 265.188428 
L 386.738546 263.963992 
L 387.1307 252.926079 
L 387.522854 237.177065 
L 387.915007 227.633743 
L 388.307161 232.498288 
L 389.091468 261.538322 
L 389.483621 268.16134 
L 389.875775 267.274535 
L 390.660082 253.231825 
L 391.052236 250.141509 
L 391.444389 254.43585 
L 392.228696 268.653705 
L 392.62085 270.758598 
L 393.013004 268.988067 
L 393.797311 260.257762 
L 394.189464 259.564046 
L 394.581618 263.091198 
L 394.973771 267.79818 
L 395.365925 270.234302 
L 395.758079 268.307073 
L 396.150232 260.80286 
L 396.934539 240.677821 
L 397.326693 241.969286 
L 398.503154 269.400574 
L 398.895307 270.613952 
L 399.287461 268.333485 
L 399.679614 264.701802 
L 400.071768 262.621078 
L 400.463921 263.957787 
L 401.248229 270.733802 
L 401.640382 271.993956 
L 402.032536 271.146095 
L 402.816843 265.705988 
L 403.208996 264.689828 
L 403.60115 266.43796 
L 403.993304 269.430507 
L 404.385457 271.505911 
L 404.777611 271.487144 
L 405.169764 268.913769 
L 405.954071 260.016687 
L 406.346225 259.579855 
L 407.522686 270.454234 
L 407.914839 268.82522 
L 408.306993 262.326717 
L 408.699146 252.636607 
L 409.0913 245.727784 
L 409.483454 247.321892 
L 410.267761 264.412265 
L 410.659914 266.590506 
L 411.052068 258.576487 
L 412.228529 201.041748 
L 412.620682 211.158343 
L 413.404989 254.743514 
L 413.797143 257.649464 
L 414.189296 238.292658 
L 414.973604 154.675296 
L 415.365757 141.669895 
L 415.757911 169.972228 
L 416.150064 215.326532 
L 416.542218 246.523259 
L 416.934371 249.24845 
L 417.326525 220.765558 
L 418.110832 124.178183 
L 418.502986 122.311611 
L 419.679446 250.367579 
L 420.0716 255.626391 
L 420.463754 238.932724 
L 420.855907 211.178825 
L 421.248061 192.208348 
L 421.640214 198.38255 
L 422.424521 250.24711 
L 422.816675 263.414909 
L 423.208829 262.831197 
L 423.600982 251.90473 
L 423.993136 237.544217 
L 424.385289 230.664729 
L 424.777443 237.369769 
L 425.56175 264.014311 
L 425.953904 269.115965 
L 426.346057 267.836055 
L 427.130364 256.514145 
L 427.522518 255.026066 
L 427.914671 259.259487 
L 428.306825 265.601053 
L 428.698979 269.686795 
L 429.091132 269.450155 
L 429.483286 264.304381 
L 430.267593 248.345003 
L 430.659746 248.511753 
L 431.444054 264.077129 
L 431.836207 266.875726 
L 432.228361 259.893715 
L 432.620514 240.490212 
L 433.012668 213.923248 
L 433.404821 197.173169 
L 433.796975 204.320554 
L 434.581282 253.045074 
L 434.973436 265.428261 
L 435.365589 266.7041 
L 435.757743 260.827576 
L 436.149896 252.92274 
L 436.54205 249.467521 
L 436.934204 253.613148 
L 437.718511 268.290744 
L 438.110664 270.462041 
L 438.502818 268.347854 
L 439.287125 257.910458 
L 439.679279 256.867244 
L 440.071432 260.933348 
L 440.463586 266.737788 
L 440.855739 270.711292 
L 441.247893 271.894374 
L 441.640046 270.867671 
L 442.424354 266.837072 
L 442.816507 267.009979 
L 443.600814 271.237626 
L 443.992968 272.408151 
L 444.385121 272.179436 
L 444.777275 270.660186 
L 445.169429 268.531745 
L 445.561582 267.268366 
L 445.953736 267.95361 
L 446.738043 271.690909 
L 447.130196 271.90323 
L 447.52235 269.861677 
L 448.306657 260.455761 
L 448.698811 258.543379 
L 449.090964 261.351555 
L 449.875271 270.1185 
L 450.267425 270.436384 
L 450.659579 266.726993 
L 451.443886 253.08896 
L 451.836039 252.137003 
L 452.228193 257.671852 
L 452.620346 265.153978 
L 453.0125 270.149647 
L 453.404654 271.684869 
L 453.796807 270.671731 
L 454.581114 266.637809 
L 454.973268 266.943603 
L 455.757575 271.284291 
L 456.149729 272.378044 
L 456.541882 271.985608 
L 456.934036 270.208966 
L 457.326189 267.835606 
L 457.718343 266.528711 
L 458.110496 267.414038 
L 458.894804 271.578101 
L 459.286957 271.787153 
L 459.679111 269.612804 
L 460.463418 260.065909 
L 460.855571 258.388766 
L 461.247725 261.42966 
L 461.639879 266.3536 
L 462.032032 268.657559 
L 462.424186 263.98905 
L 462.816339 247.991394 
L 463.600646 197.965345 
L 463.9928 195.949257 
L 465.169261 261.58517 
L 465.561414 265.552097 
L 465.953568 259.14165 
L 466.737875 239.111266 
L 467.130029 241.281622 
L 467.914336 263.369468 
L 468.306489 269.638525 
L 468.698643 270.921351 
L 469.090796 269.061278 
L 469.48295 266.140047 
L 469.875104 264.625113 
L 470.267257 265.906382 
L 471.051564 271.434858 
L 471.443718 272.53831 
L 471.835871 272.292005 
L 472.620179 269.861379 
L 473.012332 269.490766 
L 473.404486 270.362584 
L 474.188793 272.730397 
L 474.580946 273.013499 
L 474.9731 272.669934 
L 475.757407 271.289908 
L 476.149561 271.275093 
L 477.326021 273.121116 
L 477.718175 273.161017 
L 478.110329 272.847393 
L 478.894636 272.021638 
L 479.286789 272.138481 
L 480.071096 273.054288 
L 480.46325 273.269756 
L 480.855404 273.214922 
L 482.031864 272.429694 
L 482.424018 272.59634 
L 483.208325 273.231397 
L 483.600479 273.327569 
L 483.992632 273.229428 
L 484.776939 272.732045 
L 485.169093 272.672065 
L 486.737707 273.349372 
L 487.522014 273.019699 
L 487.914168 272.844753 
L 488.306321 272.852439 
L 489.482782 273.364279 
L 489.874936 273.352648 
L 491.051396 272.920205 
L 491.44355 272.973786 
L 492.620011 273.386272 
L 493.404318 273.213169 
L 494.188625 272.987525 
L 494.972932 273.234376 
L 495.757239 273.397464 
L 496.541546 273.214842 
L 497.325854 273.068524 
L 498.894468 273.396706 
L 500.463082 273.102846 
L 501.639543 273.402639 
L 502.42385 273.285266 
L 503.208157 273.07323 
L 503.992464 273.246881 
L 504.776771 273.402638 
L 505.561079 273.233114 
L 506.345386 273.041288 
L 507.914 273.390729 
L 508.698307 273.153254 
L 509.090461 273.007581 
L 509.482614 272.988891 
L 510.659075 273.374738 
L 511.051229 273.36288 
L 512.619843 272.920718 
L 513.796304 273.361508 
L 514.188457 273.297478 
L 515.364918 272.669658 
L 515.757071 272.774967 
L 516.541379 273.259265 
L 516.933532 273.311566 
L 517.325686 273.147736 
L 518.109993 272.388072 
L 518.502146 272.260369 
L 518.8943 272.510526 
L 519.678607 273.194047 
L 520.070761 273.164048 
L 520.462914 272.75703 
L 521.247221 271.414427 
L 521.639375 271.371054 
L 522.815836 272.976449 
L 523.207989 272.614328 
L 523.600143 271.39988 
L 523.992296 269.640147 
L 524.38445 268.427241 
L 524.776604 268.767312 
L 525.560911 271.75385 
L 525.953064 271.692608 
L 526.345218 268.943352 
L 527.521679 251.776156 
L 527.913832 255.008657 
L 528.698139 267.884242 
L 529.090293 268.244686 
L 529.482446 261.361892 
L 530.266754 233.268357 
L 530.658907 229.360571 
L 531.051061 239.238162 
L 531.835368 265.945662 
L 532.227521 270.52923 
L 532.619675 270.424718 
L 533.403982 265.938761 
L 533.796136 265.93284 
L 534.972596 272.395338 
L 535.36475 272.777099 
L 535.756904 272.258923 
L 536.149057 271.333173 
L 536.541211 270.71663 
L 536.933364 270.953446 
L 537.717671 272.70361 
L 538.109825 273.134713 
L 538.501979 273.110463 
L 539.678439 272.078868 
L 540.070593 272.308579 
L 540.8549 273.162089 
L 541.247054 273.304127 
L 541.639207 273.215524 
L 542.423514 272.707783 
L 542.815668 272.650395 
L 544.384282 273.359895 
L 545.168589 273.082907 
L 545.560743 272.935962 
L 545.952896 272.945415 
L 547.129357 273.38356 
L 547.913664 273.291235 
L 548.697971 273.077894 
L 549.482279 273.243862 
L 550.266586 273.412286 
L 551.050893 273.309608 
L 551.8352 273.174305 
L 553.795968 273.394205 
L 554.972429 273.243763 
L 556.541043 273.430702 
L 558.501811 273.349073 
L 559.678271 273.432289 
L 561.246886 273.335595 
L 562.8155 273.431909 
L 564.384114 273.366488 
L 565.952729 273.430572 
L 567.521343 273.390532 
L 569.089957 273.428873 
L 570.658571 273.40919 
L 572.227186 273.427191 
L 573.7958 273.423551 
L 575.364414 273.425787 
L 576.933029 273.434469 
L 578.893796 273.408065 
L 590.26625 273.463241 
L 590.26625 273.463241 
" clip-path="url(#pe50e75eb27)" style="fill: none; stroke: #000000; stroke-width: 1.6; stroke-linecap: round"/>
   </g>
   <g id="patch_3">
    <path d="M 41.25125 273.463594 
L 41.25125 22.663594 
" style="fill: none; stroke: #cccccc; stroke-linejoin: miter; stroke-linecap: square"/>
   </g>
   <g id="patch_4">
    <path d="M 590.26625 273.463594 
L 590.26625 22.663594 
" style="fill: none; stroke: #cccccc; stroke-linejoin: miter; stroke-linecap: square"/>
   </g>
   <g id="patch_5">
    <path d="M 41.25125 273.463594 
L 590.26625 273.463594 
" style="fill: none; stroke: #cccccc; stroke-linejoin: miter; stroke-linecap: square"/>
   </g>
   <g id="patch_6">
    <path d="M 41.25125 22.663594 
L 590.26625 22.663594 
" style="fill: none; stroke: #cccccc; stroke-linejoin: miter; stroke-linecap: square"/>
   </g>
   <g id="text_17">
    <!-- Scaled Raman Peaks - D-glucosamine -->
    <g style="fill: #262626" transform="translate(204.131406 16.663594) scale(0.13 -0.13)">
     <defs>
      <path id="ArialMT-64" d="M 2575 0 
L 2575 419 
Q 2259 -75 1647 -75 
Q 1250 -75 917 144 
Q 584 363 401 755 
Q 219 1147 219 1656 
Q 219 2153 384 2558 
Q 550 2963 881 3178 
Q 1213 3394 1622 3394 
Q 1922 3394 2156 3267 
Q 2391 3141 2538 2938 
L 2538 4581 
L 3097 4581 
L 3097 0 
L 2575 0 
z
M 797 1656 
Q 797 1019 1065 703 
Q 1334 388 1700 388 
Q 2069 388 2326 689 
Q 2584 991 2584 1609 
Q 2584 2291 2321 2609 
Q 2059 2928 1675 2928 
Q 1300 2928 1048 2622 
Q 797 2316 797 1656 
z
" transform="scale(0.015625)"/>
      <path id="ArialMT-50" d="M 494 0 
L 494 4581 
L 2222 4581 
Q 2678 4581 2919 4538 
Q 3256 4481 3484 4323 
Q 3713 4166 3852 3881 
Q 3991 3597 3991 3256 
Q 3991 2672 3619 2267 
Q 3247 1863 2275 1863 
L 1100 1863 
L 1100 0 
L 494 0 
z
M 1100 2403 
L 2284 2403 
Q 2872 2403 3119 2622 
Q 3366 2841 3366 3238 
Q 3366 3525 3220 3729 
Q 3075 3934 2838 4000 
Q 2684 4041 2272 4041 
L 1100 4041 
L 1100 2403 
z
" transform="scale(0.015625)"/>
      <path id="ArialMT-6b" d="M 425 0 
L 425 4581 
L 988 4581 
L 988 1969 
L 2319 3319 
L 3047 3319 
L 1778 2088 
L 3175 0 
L 2481 0 
L 1384 1697 
L 988 1316 
L 988 0 
L 425 0 
z
" transform="scale(0.015625)"/>
      <path id="ArialMT-2d" d="M 203 1375 
L 203 1941 
L 1931 1941 
L 1931 1375 
L 203 1375 
z
" transform="scale(0.015625)"/>
      <path id="ArialMT-44" d="M 494 0 
L 494 4581 
L 2072 4581 
Q 2606 4581 2888 4516 
Q 3281 4425 3559 4188 
Q 3922 3881 4101 3404 
Q 4281 2928 4281 2316 
Q 4281 1794 4159 1391 
Q 4038 988 3847 723 
Q 3656 459 3429 307 
Q 3203 156 2883 78 
Q 2563 0 2147 0 
L 494 0 
z
M 1100 541 
L 2078 541 
Q 2531 541 2789 625 
Q 3047 709 3200 863 
Q 3416 1078 3536 1442 
Q 3656 1806 3656 2325 
Q 3656 3044 3420 3430 
Q 3184 3816 2847 3947 
Q 2603 4041 2063 4041 
L 1100 4041 
L 1100 541 
z
" transform="scale(0.015625)"/>
      <path id="ArialMT-67" d="M 319 -275 
L 866 -356 
Q 900 -609 1056 -725 
Q 1266 -881 1628 -881 
Q 2019 -881 2231 -725 
Q 2444 -569 2519 -288 
Q 2563 -116 2559 434 
Q 2191 0 1641 0 
Q 956 0 581 494 
Q 206 988 206 1678 
Q 206 2153 378 2554 
Q 550 2956 876 3175 
Q 1203 3394 1644 3394 
Q 2231 3394 2613 2919 
L 2613 3319 
L 3131 3319 
L 3131 450 
Q 3131 -325 2973 -648 
Q 2816 -972 2473 -1159 
Q 2131 -1347 1631 -1347 
Q 1038 -1347 672 -1080 
Q 306 -813 319 -275 
z
M 784 1719 
Q 784 1066 1043 766 
Q 1303 466 1694 466 
Q 2081 466 2343 764 
Q 2606 1063 2606 1700 
Q 2606 2309 2336 2618 
Q 2066 2928 1684 2928 
Q 1309 2928 1046 2623 
Q 784 2319 784 1719 
z
" transform="scale(0.015625)"/>
      <path id="ArialMT-6f" d="M 213 1659 
Q 213 2581 725 3025 
Q 1153 3394 1769 3394 
Q 2453 3394 2887 2945 
Q 3322 2497 3322 1706 
Q 3322 1066 3130 698 
Q 2938 331 2570 128 
Q 2203 -75 1769 -75 
Q 1072 -75 642 372 
Q 213 819 213 1659 
z
M 791 1659 
Q 791 1022 1069 705 
Q 1347 388 1769 388 
Q 2188 388 2466 706 
Q 2744 1025 2744 1678 
Q 2744 2294 2464 2611 
Q 2184 2928 1769 2928 
Q 1347 2928 1069 2612 
Q 791 2297 791 1659 
z
" transform="scale(0.015625)"/>
     </defs>
     <use xlink:href="#ArialMT-53"/>
     <use xlink:href="#ArialMT-63" transform="translate(66.699219 0)"/>
     <use xlink:href="#ArialMT-61" transform="translate(116.699219 0)"/>
     <use xlink:href="#ArialMT-6c" transform="translate(172.314453 0)"/>
     <use xlink:href="#ArialMT-65" transform="translate(194.53125 0)"/>
     <use xlink:href="#ArialMT-64" transform="translate(250.146484 0)"/>
     <use xlink:href="#ArialMT-20" transform="translate(305.761719 0)"/>
     <use xlink:href="#ArialMT-52" transform="translate(333.544922 0)"/>
     <use xlink:href="#ArialMT-61" transform="translate(405.761719 0)"/>
     <use xlink:href="#ArialMT-6d" transform="translate(461.376953 0)"/>
     <use xlink:href="#ArialMT-61" transform="translate(544.677734 0)"/>
     <use xlink:href="#ArialMT-6e" transform="translate(600.292969 0)"/>
     <use xlink:href="#ArialMT-20" transform="translate(655.908203 0)"/>
     <use xlink:href="#ArialMT-50" transform="translate(683.691406 0)"/>
     <use xlink:href="#ArialMT-65" transform="translate(750.390625 0)"/>
     <use xlink:href="#ArialMT-61" transform="translate(806.005859 0)"/>
     <use xlink:href="#ArialMT-6b" transform="translate(861.621094 0)"/>
     <use xlink:href="#ArialMT-73" transform="translate(911.621094 0)"/>
     <use xlink:href="#ArialMT-20" transform="translate(961.621094 0)"/>
     <use xlink:href="#ArialMT-2d" transform="translate(989.404297 0)"/>
     <use xlink:href="#ArialMT-20" transform="translate(1022.705078 0)"/>
     <use xlink:href="#ArialMT-44" transform="translate(1050.488281 0)"/>
     <use xlink:href="#ArialMT-2d" transform="translate(1122.705078 0)"/>
     <use xlink:href="#ArialMT-67" transform="translate(1156.005859 0)"/>
     <use xlink:href="#ArialMT-6c" transform="translate(1211.621094 0)"/>
     <use xlink:href="#ArialMT-75" transform="translate(1233.837891 0)"/>
     <use xlink:href="#ArialMT-63" transform="translate(1289.453125 0)"/>
     <use xlink:href="#ArialMT-6f" transform="translate(1339.453125 0)"/>
     <use xlink:href="#ArialMT-73" transform="translate(1395.068359 0)"/>
     <use xlink:href="#ArialMT-61" transform="translate(1445.068359 0)"/>
     <use xlink:href="#ArialMT-6d" transform="translate(1500.683594 0)"/>
     <use xlink:href="#ArialMT-69" transform="translate(1583.984375 0)"/>
     <use xlink:href="#ArialMT-6e" transform="translate(1606.201172 0)"/>
     <use xlink:href="#ArialMT-65" transform="translate(1661.816406 0)"/>
    </g>
   </g>
  </g>
 </g>
 <defs>
  <clipPath id="pe50e75eb27">
   <rect x="41.25125" y="22.663594" width="549.015" height="250.8"/>
  </clipPath>
 </defs>
</svg>
