<?xml version="1.0" encoding="utf-8" standalone="no"?>
<!DOCTYPE svg PUBLIC "-//W3C//DTD SVG 1.1//EN"
  "http://www.w3.org/Graphics/SVG/1.1/DTD/svg11.dtd">
<svg xmlns:xlink="http://www.w3.org/1999/xlink" width="609.554062pt" height="311.607187pt" viewBox="0 0 609.554062 311.607187" xmlns="http://www.w3.org/2000/svg" version="1.1">
 <metadata>
  <rdf:RDF xmlns:dc="http://purl.org/dc/elements/1.1/" xmlns:cc="http://creativecommons.org/ns#" xmlns:rdf="http://www.w3.org/1999/02/22-rdf-syntax-ns#">
   <cc:Work>
    <dc:type rdf:resource="http://purl.org/dc/dcmitype/StillImage"/>
    <dc:date>2026-04-16T21:06:19.541857</dc:date>
    <dc:format>image/svg+xml</dc:format>
    <dc:creator>
     <cc:Agent>
      <dc:title>Matplotlib v3.10.8, https://matplotlib.org/</dc:title>
     </cc:Agent>
    </dc:creator>
   </cc:Work>
  </rdf:RDF>
 </metadata>
 <defs>
  <style type="text/css">*{stroke-linejoin: round; stroke-linecap: butt}</style>
 </defs>
 <g id="figure_1">
  <g id="patch_1">
   <path d="M 0 311.607187 
L 609.554062 311.607187 
L 609.554062 0 
L 0 0 
z
" style="fill: #ffffff"/>
  </g>
  <g id="axes_1">
   <g id="patch_2">
    <path d="M 41.105 273.407344 
L 590.12 273.407344 
L 590.12 22.663594 
L 41.105 22.663594 
z
" style="fill: #ffffff"/>
   </g>
   <g id="matplotlib.axis_1">
    <g id="xtick_1">
     <g id="line2d_1">
      <path d="M 41.105 273.407344 
L 41.105 22.663594 
" clip-path="url(#pbfae8d7f5c)" style="fill: none; stroke: #cccccc; stroke-width: 0.8; stroke-linecap: round"/>
     </g>
     <g id="line2d_2"/>
     <g id="text_1">
      <!-- 400 -->
      <g style="fill: #262626" transform="translate(31.929453 284.780937) scale(0.11 -0.11)">
       <defs>
        <path id="ArialMT-34" d="M 2069 0 
L 2069 1097 
L 81 1097 
L 81 1613 
L 2172 4581 
L 2631 4581 
L 2631 1613 
L 3250 1613 
L 3250 1097 
L 2631 1097 
L 2631 0 
L 2069 0 
z
M 2069 1613 
L 2069 3678 
L 634 1613 
L 2069 1613 
z
" transform="scale(0.015625)"/>
        <path id="ArialMT-30" d="M 266 2259 
Q 266 3072 433 3567 
Q 600 4063 929 4331 
Q 1259 4600 1759 4600 
Q 2128 4600 2406 4451 
Q 2684 4303 2865 4023 
Q 3047 3744 3150 3342 
Q 3253 2941 3253 2259 
Q 3253 1453 3087 958 
Q 2922 463 2592 192 
Q 2263 -78 1759 -78 
Q 1097 -78 719 397 
Q 266 969 266 2259 
z
M 844 2259 
Q 844 1131 1108 757 
Q 1372 384 1759 384 
Q 2147 384 2411 759 
Q 2675 1134 2675 2259 
Q 2675 3391 2411 3762 
Q 2147 4134 1753 4134 
Q 1366 4134 1134 3806 
Q 844 3388 844 2259 
z
" transform="scale(0.015625)"/>
       </defs>
       <use xlink:href="#ArialMT-34"/>
       <use xlink:href="#ArialMT-30" transform="translate(55.615234 0)"/>
       <use xlink:href="#ArialMT-30" transform="translate(111.230469 0)"/>
      </g>
     </g>
    </g>
    <g id="xtick_2">
     <g id="line2d_3">
      <path d="M 119.535714 273.407344 
L 119.535714 22.663594 
" clip-path="url(#pbfae8d7f5c)" style="fill: none; stroke: #cccccc; stroke-width: 0.8; stroke-linecap: round"/>
     </g>
     <g id="line2d_4"/>
     <g id="text_2">
      <!-- 600 -->
      <g style="fill: #262626" transform="translate(110.360167 284.780937) scale(0.11 -0.11)">
       <defs>
        <path id="ArialMT-36" d="M 3184 3459 
L 2625 3416 
Q 2550 3747 2413 3897 
Q 2184 4138 1850 4138 
Q 1581 4138 1378 3988 
Q 1113 3794 959 3422 
Q 806 3050 800 2363 
Q 1003 2672 1297 2822 
Q 1591 2972 1913 2972 
Q 2475 2972 2870 2558 
Q 3266 2144 3266 1488 
Q 3266 1056 3080 686 
Q 2894 316 2569 119 
Q 2244 -78 1831 -78 
Q 1128 -78 684 439 
Q 241 956 241 2144 
Q 241 3472 731 4075 
Q 1159 4600 1884 4600 
Q 2425 4600 2770 4297 
Q 3116 3994 3184 3459 
z
M 888 1484 
Q 888 1194 1011 928 
Q 1134 663 1356 523 
Q 1578 384 1822 384 
Q 2178 384 2434 671 
Q 2691 959 2691 1453 
Q 2691 1928 2437 2201 
Q 2184 2475 1800 2475 
Q 1419 2475 1153 2201 
Q 888 1928 888 1484 
z
" transform="scale(0.015625)"/>
       </defs>
       <use xlink:href="#ArialMT-36"/>
       <use xlink:href="#ArialMT-30" transform="translate(55.615234 0)"/>
       <use xlink:href="#ArialMT-30" transform="translate(111.230469 0)"/>
      </g>
     </g>
    </g>
    <g id="xtick_3">
     <g id="line2d_5">
      <path d="M 197.966429 273.407344 
L 197.966429 22.663594 
" clip-path="url(#pbfae8d7f5c)" style="fill: none; stroke: #cccccc; stroke-width: 0.8; stroke-linecap: round"/>
     </g>
     <g id="line2d_6"/>
     <g id="text_3">
      <!-- 800 -->
      <g style="fill: #262626" transform="translate(188.790882 284.780937) scale(0.11 -0.11)">
       <defs>
        <path id="ArialMT-38" d="M 1131 2484 
Q 781 2613 612 2850 
Q 444 3088 444 3419 
Q 444 3919 803 4259 
Q 1163 4600 1759 4600 
Q 2359 4600 2725 4251 
Q 3091 3903 3091 3403 
Q 3091 3084 2923 2848 
Q 2756 2613 2416 2484 
Q 2838 2347 3058 2040 
Q 3278 1734 3278 1309 
Q 3278 722 2862 322 
Q 2447 -78 1769 -78 
Q 1091 -78 675 323 
Q 259 725 259 1325 
Q 259 1772 486 2073 
Q 713 2375 1131 2484 
z
M 1019 3438 
Q 1019 3113 1228 2906 
Q 1438 2700 1772 2700 
Q 2097 2700 2305 2904 
Q 2513 3109 2513 3406 
Q 2513 3716 2298 3927 
Q 2084 4138 1766 4138 
Q 1444 4138 1231 3931 
Q 1019 3725 1019 3438 
z
M 838 1322 
Q 838 1081 952 856 
Q 1066 631 1291 507 
Q 1516 384 1775 384 
Q 2178 384 2440 643 
Q 2703 903 2703 1303 
Q 2703 1709 2433 1975 
Q 2163 2241 1756 2241 
Q 1359 2241 1098 1978 
Q 838 1716 838 1322 
z
" transform="scale(0.015625)"/>
       </defs>
       <use xlink:href="#ArialMT-38"/>
       <use xlink:href="#ArialMT-30" transform="translate(55.615234 0)"/>
       <use xlink:href="#ArialMT-30" transform="translate(111.230469 0)"/>
      </g>
     </g>
    </g>
    <g id="xtick_4">
     <g id="line2d_7">
      <path d="M 276.397143 273.407344 
L 276.397143 22.663594 
" clip-path="url(#pbfae8d7f5c)" style="fill: none; stroke: #cccccc; stroke-width: 0.8; stroke-linecap: round"/>
     </g>
     <g id="line2d_8"/>
     <g id="text_4">
      <!-- 1000 -->
      <g style="fill: #262626" transform="translate(264.16308 284.780937) scale(0.11 -0.11)">
       <defs>
        <path id="ArialMT-31" d="M 2384 0 
L 1822 0 
L 1822 3584 
Q 1619 3391 1289 3197 
Q 959 3003 697 2906 
L 697 3450 
Q 1169 3672 1522 3987 
Q 1875 4303 2022 4600 
L 2384 4600 
L 2384 0 
z
" transform="scale(0.015625)"/>
       </defs>
       <use xlink:href="#ArialMT-31"/>
       <use xlink:href="#ArialMT-30" transform="translate(55.615234 0)"/>
       <use xlink:href="#ArialMT-30" transform="translate(111.230469 0)"/>
       <use xlink:href="#ArialMT-30" transform="translate(166.845703 0)"/>
      </g>
     </g>
    </g>
    <g id="xtick_5">
     <g id="line2d_9">
      <path d="M 354.827857 273.407344 
L 354.827857 22.663594 
" clip-path="url(#pbfae8d7f5c)" style="fill: none; stroke: #cccccc; stroke-width: 0.8; stroke-linecap: round"/>
     </g>
     <g id="line2d_10"/>
     <g id="text_5">
      <!-- 1200 -->
      <g style="fill: #262626" transform="translate(342.593795 284.780937) scale(0.11 -0.11)">
       <defs>
        <path id="ArialMT-32" d="M 3222 541 
L 3222 0 
L 194 0 
Q 188 203 259 391 
Q 375 700 629 1000 
Q 884 1300 1366 1694 
Q 2113 2306 2375 2664 
Q 2638 3022 2638 3341 
Q 2638 3675 2398 3904 
Q 2159 4134 1775 4134 
Q 1369 4134 1125 3890 
Q 881 3647 878 3216 
L 300 3275 
Q 359 3922 746 4261 
Q 1134 4600 1788 4600 
Q 2447 4600 2831 4234 
Q 3216 3869 3216 3328 
Q 3216 3053 3103 2787 
Q 2991 2522 2730 2228 
Q 2469 1934 1863 1422 
Q 1356 997 1212 845 
Q 1069 694 975 541 
L 3222 541 
z
" transform="scale(0.015625)"/>
       </defs>
       <use xlink:href="#ArialMT-31"/>
       <use xlink:href="#ArialMT-32" transform="translate(55.615234 0)"/>
       <use xlink:href="#ArialMT-30" transform="translate(111.230469 0)"/>
       <use xlink:href="#ArialMT-30" transform="translate(166.845703 0)"/>
      </g>
     </g>
    </g>
    <g id="xtick_6">
     <g id="line2d_11">
      <path d="M 433.258571 273.407344 
L 433.258571 22.663594 
" clip-path="url(#pbfae8d7f5c)" style="fill: none; stroke: #cccccc; stroke-width: 0.8; stroke-linecap: round"/>
     </g>
     <g id="line2d_12"/>
     <g id="text_6">
      <!-- 1400 -->
      <g style="fill: #262626" transform="translate(421.024509 284.780937) scale(0.11 -0.11)">
       <use xlink:href="#ArialMT-31"/>
       <use xlink:href="#ArialMT-34" transform="translate(55.615234 0)"/>
       <use xlink:href="#ArialMT-30" transform="translate(111.230469 0)"/>
       <use xlink:href="#ArialMT-30" transform="translate(166.845703 0)"/>
      </g>
     </g>
    </g>
    <g id="xtick_7">
     <g id="line2d_13">
      <path d="M 511.689286 273.407344 
L 511.689286 22.663594 
" clip-path="url(#pbfae8d7f5c)" style="fill: none; stroke: #cccccc; stroke-width: 0.8; stroke-linecap: round"/>
     </g>
     <g id="line2d_14"/>
     <g id="text_7">
      <!-- 1600 -->
      <g style="fill: #262626" transform="translate(499.455223 284.780937) scale(0.11 -0.11)">
       <use xlink:href="#ArialMT-31"/>
       <use xlink:href="#ArialMT-36" transform="translate(55.615234 0)"/>
       <use xlink:href="#ArialMT-30" transform="translate(111.230469 0)"/>
       <use xlink:href="#ArialMT-30" transform="translate(166.845703 0)"/>
      </g>
     </g>
    </g>
    <g id="xtick_8">
     <g id="line2d_15">
      <path d="M 590.12 273.407344 
L 590.12 22.663594 
" clip-path="url(#pbfae8d7f5c)" style="fill: none; stroke: #cccccc; stroke-width: 0.8; stroke-linecap: round"/>
     </g>
     <g id="line2d_16"/>
     <g id="text_8">
      <!-- 1800 -->
      <g style="fill: #262626" transform="translate(577.885937 284.780937) scale(0.11 -0.11)">
       <use xlink:href="#ArialMT-31"/>
       <use xlink:href="#ArialMT-38" transform="translate(55.615234 0)"/>
       <use xlink:href="#ArialMT-30" transform="translate(111.230469 0)"/>
       <use xlink:href="#ArialMT-30" transform="translate(166.845703 0)"/>
      </g>
     </g>
    </g>
    <g id="text_9">
     <!-- Raman shift (cm$^{-1}$) -->
     <g style="fill: #262626" transform="translate(263.4725 301.767187) scale(0.12 -0.12)">
      <defs>
       <path id="ArialMT-52" d="M 503 0 
L 503 4581 
L 2534 4581 
Q 3147 4581 3465 4457 
Q 3784 4334 3975 4021 
Q 4166 3709 4166 3331 
Q 4166 2844 3850 2509 
Q 3534 2175 2875 2084 
Q 3116 1969 3241 1856 
Q 3506 1613 3744 1247 
L 4541 0 
L 3778 0 
L 3172 953 
Q 2906 1366 2734 1584 
Q 2563 1803 2427 1890 
Q 2291 1978 2150 2013 
Q 2047 2034 1813 2034 
L 1109 2034 
L 1109 0 
L 503 0 
z
M 1109 2559 
L 2413 2559 
Q 2828 2559 3062 2645 
Q 3297 2731 3419 2920 
Q 3541 3109 3541 3331 
Q 3541 3656 3305 3865 
Q 3069 4075 2559 4075 
L 1109 4075 
L 1109 2559 
z
" transform="scale(0.015625)"/>
       <path id="ArialMT-61" d="M 2588 409 
Q 2275 144 1986 34 
Q 1697 -75 1366 -75 
Q 819 -75 525 192 
Q 231 459 231 875 
Q 231 1119 342 1320 
Q 453 1522 633 1644 
Q 813 1766 1038 1828 
Q 1203 1872 1538 1913 
Q 2219 1994 2541 2106 
Q 2544 2222 2544 2253 
Q 2544 2597 2384 2738 
Q 2169 2928 1744 2928 
Q 1347 2928 1158 2789 
Q 969 2650 878 2297 
L 328 2372 
Q 403 2725 575 2942 
Q 747 3159 1072 3276 
Q 1397 3394 1825 3394 
Q 2250 3394 2515 3294 
Q 2781 3194 2906 3042 
Q 3031 2891 3081 2659 
Q 3109 2516 3109 2141 
L 3109 1391 
Q 3109 606 3145 398 
Q 3181 191 3288 0 
L 2700 0 
Q 2613 175 2588 409 
z
M 2541 1666 
Q 2234 1541 1622 1453 
Q 1275 1403 1131 1340 
Q 988 1278 909 1158 
Q 831 1038 831 891 
Q 831 666 1001 516 
Q 1172 366 1500 366 
Q 1825 366 2078 508 
Q 2331 650 2450 897 
Q 2541 1088 2541 1459 
L 2541 1666 
z
" transform="scale(0.015625)"/>
       <path id="ArialMT-6d" d="M 422 0 
L 422 3319 
L 925 3319 
L 925 2853 
Q 1081 3097 1340 3245 
Q 1600 3394 1931 3394 
Q 2300 3394 2536 3241 
Q 2772 3088 2869 2813 
Q 3263 3394 3894 3394 
Q 4388 3394 4653 3120 
Q 4919 2847 4919 2278 
L 4919 0 
L 4359 0 
L 4359 2091 
Q 4359 2428 4304 2576 
Q 4250 2725 4106 2815 
Q 3963 2906 3769 2906 
Q 3419 2906 3187 2673 
Q 2956 2441 2956 1928 
L 2956 0 
L 2394 0 
L 2394 2156 
Q 2394 2531 2256 2718 
Q 2119 2906 1806 2906 
Q 1569 2906 1367 2781 
Q 1166 2656 1075 2415 
Q 984 2175 984 1722 
L 984 0 
L 422 0 
z
" transform="scale(0.015625)"/>
       <path id="ArialMT-6e" d="M 422 0 
L 422 3319 
L 928 3319 
L 928 2847 
Q 1294 3394 1984 3394 
Q 2284 3394 2536 3286 
Q 2788 3178 2913 3003 
Q 3038 2828 3088 2588 
Q 3119 2431 3119 2041 
L 3119 0 
L 2556 0 
L 2556 2019 
Q 2556 2363 2490 2533 
Q 2425 2703 2258 2804 
Q 2091 2906 1866 2906 
Q 1506 2906 1245 2678 
Q 984 2450 984 1813 
L 984 0 
L 422 0 
z
" transform="scale(0.015625)"/>
       <path id="ArialMT-20" transform="scale(0.015625)"/>
       <path id="ArialMT-73" d="M 197 991 
L 753 1078 
Q 800 744 1014 566 
Q 1228 388 1613 388 
Q 2000 388 2187 545 
Q 2375 703 2375 916 
Q 2375 1106 2209 1216 
Q 2094 1291 1634 1406 
Q 1016 1563 777 1677 
Q 538 1791 414 1992 
Q 291 2194 291 2438 
Q 291 2659 392 2848 
Q 494 3038 669 3163 
Q 800 3259 1026 3326 
Q 1253 3394 1513 3394 
Q 1903 3394 2198 3281 
Q 2494 3169 2634 2976 
Q 2775 2784 2828 2463 
L 2278 2388 
Q 2241 2644 2061 2787 
Q 1881 2931 1553 2931 
Q 1166 2931 1000 2803 
Q 834 2675 834 2503 
Q 834 2394 903 2306 
Q 972 2216 1119 2156 
Q 1203 2125 1616 2013 
Q 2213 1853 2448 1751 
Q 2684 1650 2818 1456 
Q 2953 1263 2953 975 
Q 2953 694 2789 445 
Q 2625 197 2315 61 
Q 2006 -75 1616 -75 
Q 969 -75 630 194 
Q 291 463 197 991 
z
" transform="scale(0.015625)"/>
       <path id="ArialMT-68" d="M 422 0 
L 422 4581 
L 984 4581 
L 984 2938 
Q 1378 3394 1978 3394 
Q 2347 3394 2619 3248 
Q 2891 3103 3008 2847 
Q 3125 2591 3125 2103 
L 3125 0 
L 2563 0 
L 2563 2103 
Q 2563 2525 2380 2717 
Q 2197 2909 1863 2909 
Q 1613 2909 1392 2779 
Q 1172 2650 1078 2428 
Q 984 2206 984 1816 
L 984 0 
L 422 0 
z
" transform="scale(0.015625)"/>
       <path id="ArialMT-69" d="M 425 3934 
L 425 4581 
L 988 4581 
L 988 3934 
L 425 3934 
z
M 425 0 
L 425 3319 
L 988 3319 
L 988 0 
L 425 0 
z
" transform="scale(0.015625)"/>
       <path id="ArialMT-66" d="M 556 0 
L 556 2881 
L 59 2881 
L 59 3319 
L 556 3319 
L 556 3672 
Q 556 4006 616 4169 
Q 697 4388 901 4523 
Q 1106 4659 1475 4659 
Q 1713 4659 2000 4603 
L 1916 4113 
Q 1741 4144 1584 4144 
Q 1328 4144 1222 4034 
Q 1116 3925 1116 3625 
L 1116 3319 
L 1763 3319 
L 1763 2881 
L 1116 2881 
L 1116 0 
L 556 0 
z
" transform="scale(0.015625)"/>
       <path id="ArialMT-74" d="M 1650 503 
L 1731 6 
Q 1494 -44 1306 -44 
Q 1000 -44 831 53 
Q 663 150 594 308 
Q 525 466 525 972 
L 525 2881 
L 113 2881 
L 113 3319 
L 525 3319 
L 525 4141 
L 1084 4478 
L 1084 3319 
L 1650 3319 
L 1650 2881 
L 1084 2881 
L 1084 941 
Q 1084 700 1114 631 
Q 1144 563 1211 522 
Q 1278 481 1403 481 
Q 1497 481 1650 503 
z
" transform="scale(0.015625)"/>
       <path id="ArialMT-28" d="M 1497 -1347 
Q 1031 -759 709 28 
Q 388 816 388 1659 
Q 388 2403 628 3084 
Q 909 3875 1497 4659 
L 1900 4659 
Q 1522 4009 1400 3731 
Q 1209 3300 1100 2831 
Q 966 2247 966 1656 
Q 966 153 1900 -1347 
L 1497 -1347 
z
" transform="scale(0.015625)"/>
       <path id="ArialMT-63" d="M 2588 1216 
L 3141 1144 
Q 3050 572 2676 248 
Q 2303 -75 1759 -75 
Q 1078 -75 664 370 
Q 250 816 250 1647 
Q 250 2184 428 2587 
Q 606 2991 970 3192 
Q 1334 3394 1763 3394 
Q 2303 3394 2647 3120 
Q 2991 2847 3088 2344 
L 2541 2259 
Q 2463 2594 2264 2762 
Q 2066 2931 1784 2931 
Q 1359 2931 1093 2626 
Q 828 2322 828 1663 
Q 828 994 1084 691 
Q 1341 388 1753 388 
Q 2084 388 2306 591 
Q 2528 794 2588 1216 
z
" transform="scale(0.015625)"/>
       <path id="DejaVuSans-2212" d="M 678 2272 
L 4684 2272 
L 4684 1741 
L 678 1741 
L 678 2272 
z
" transform="scale(0.015625)"/>
       <path id="DejaVuSans-31" d="M 794 531 
L 1825 531 
L 1825 4091 
L 703 3866 
L 703 4441 
L 1819 4666 
L 2450 4666 
L 2450 531 
L 3481 531 
L 3481 0 
L 794 0 
L 794 531 
z
" transform="scale(0.015625)"/>
       <path id="ArialMT-29" d="M 791 -1347 
L 388 -1347 
Q 1322 153 1322 1656 
Q 1322 2244 1188 2822 
Q 1081 3291 891 3722 
Q 769 4003 388 4659 
L 791 4659 
Q 1378 3875 1659 3084 
Q 1900 2403 1900 1659 
Q 1900 816 1576 28 
Q 1253 -759 791 -1347 
z
" transform="scale(0.015625)"/>
      </defs>
      <use xlink:href="#ArialMT-52" transform="translate(0 0.684375)"/>
      <use xlink:href="#ArialMT-61" transform="translate(72.216797 0.684375)"/>
      <use xlink:href="#ArialMT-6d" transform="translate(127.832031 0.684375)"/>
      <use xlink:href="#ArialMT-61" transform="translate(211.132812 0.684375)"/>
      <use xlink:href="#ArialMT-6e" transform="translate(266.748047 0.684375)"/>
      <use xlink:href="#ArialMT-20" transform="translate(322.363281 0.684375)"/>
      <use xlink:href="#ArialMT-73" transform="translate(350.146484 0.684375)"/>
      <use xlink:href="#ArialMT-68" transform="translate(400.146484 0.684375)"/>
      <use xlink:href="#ArialMT-69" transform="translate(455.761719 0.684375)"/>
      <use xlink:href="#ArialMT-66" transform="translate(477.978516 0.684375)"/>
      <use xlink:href="#ArialMT-74" transform="translate(505.761719 0.684375)"/>
      <use xlink:href="#ArialMT-20" transform="translate(533.544922 0.684375)"/>
      <use xlink:href="#ArialMT-28" transform="translate(561.328125 0.684375)"/>
      <use xlink:href="#ArialMT-63" transform="translate(594.628906 0.684375)"/>
      <use xlink:href="#ArialMT-6d" transform="translate(644.628906 0.684375)"/>
      <use xlink:href="#DejaVuSans-2212" transform="translate(728.886719 38.965625) scale(0.7)"/>
      <use xlink:href="#DejaVuSans-31" transform="translate(787.539062 38.965625) scale(0.7)"/>
      <use xlink:href="#ArialMT-29" transform="translate(834.80957 0.684375)"/>
     </g>
    </g>
   </g>
   <g id="matplotlib.axis_2">
    <g id="ytick_1">
     <g id="line2d_17">
      <path d="M 41.105 273.407344 
L 590.12 273.407344 
" clip-path="url(#pbfae8d7f5c)" style="fill: none; stroke: #cccccc; stroke-width: 0.8; stroke-linecap: round"/>
     </g>
     <g id="line2d_18"/>
     <g id="text_10">
      <!-- 0.0 -->
      <g style="fill: #262626" transform="translate(22.315 277.344141) scale(0.11 -0.11)">
       <defs>
        <path id="ArialMT-2e" d="M 581 0 
L 581 641 
L 1222 641 
L 1222 0 
L 581 0 
z
" transform="scale(0.015625)"/>
       </defs>
       <use xlink:href="#ArialMT-30"/>
       <use xlink:href="#ArialMT-2e" transform="translate(55.615234 0)"/>
       <use xlink:href="#ArialMT-30" transform="translate(83.398438 0)"/>
      </g>
     </g>
    </g>
    <g id="ytick_2">
     <g id="line2d_19">
      <path d="M 41.105 225.646629 
L 590.12 225.646629 
" clip-path="url(#pbfae8d7f5c)" style="fill: none; stroke: #cccccc; stroke-width: 0.8; stroke-linecap: round"/>
     </g>
     <g id="line2d_20"/>
     <g id="text_11">
      <!-- 0.2 -->
      <g style="fill: #262626" transform="translate(22.315 229.583426) scale(0.11 -0.11)">
       <use xlink:href="#ArialMT-30"/>
       <use xlink:href="#ArialMT-2e" transform="translate(55.615234 0)"/>
       <use xlink:href="#ArialMT-32" transform="translate(83.398438 0)"/>
      </g>
     </g>
    </g>
    <g id="ytick_3">
     <g id="line2d_21">
      <path d="M 41.105 177.885915 
L 590.12 177.885915 
" clip-path="url(#pbfae8d7f5c)" style="fill: none; stroke: #cccccc; stroke-width: 0.8; stroke-linecap: round"/>
     </g>
     <g id="line2d_22"/>
     <g id="text_12">
      <!-- 0.4 -->
      <g style="fill: #262626" transform="translate(22.315 181.822712) scale(0.11 -0.11)">
       <use xlink:href="#ArialMT-30"/>
       <use xlink:href="#ArialMT-2e" transform="translate(55.615234 0)"/>
       <use xlink:href="#ArialMT-34" transform="translate(83.398438 0)"/>
      </g>
     </g>
    </g>
    <g id="ytick_4">
     <g id="line2d_23">
      <path d="M 41.105 130.125201 
L 590.12 130.125201 
" clip-path="url(#pbfae8d7f5c)" style="fill: none; stroke: #cccccc; stroke-width: 0.8; stroke-linecap: round"/>
     </g>
     <g id="line2d_24"/>
     <g id="text_13">
      <!-- 0.6 -->
      <g style="fill: #262626" transform="translate(22.315 134.061998) scale(0.11 -0.11)">
       <use xlink:href="#ArialMT-30"/>
       <use xlink:href="#ArialMT-2e" transform="translate(55.615234 0)"/>
       <use xlink:href="#ArialMT-36" transform="translate(83.398438 0)"/>
      </g>
     </g>
    </g>
    <g id="ytick_5">
     <g id="line2d_25">
      <path d="M 41.105 82.364487 
L 590.12 82.364487 
" clip-path="url(#pbfae8d7f5c)" style="fill: none; stroke: #cccccc; stroke-width: 0.8; stroke-linecap: round"/>
     </g>
     <g id="line2d_26"/>
     <g id="text_14">
      <!-- 0.8 -->
      <g style="fill: #262626" transform="translate(22.315 86.301283) scale(0.11 -0.11)">
       <use xlink:href="#ArialMT-30"/>
       <use xlink:href="#ArialMT-2e" transform="translate(55.615234 0)"/>
       <use xlink:href="#ArialMT-38" transform="translate(83.398438 0)"/>
      </g>
     </g>
    </g>
    <g id="ytick_6">
     <g id="line2d_27">
      <path d="M 41.105 34.603772 
L 590.12 34.603772 
" clip-path="url(#pbfae8d7f5c)" style="fill: none; stroke: #cccccc; stroke-width: 0.8; stroke-linecap: round"/>
     </g>
     <g id="line2d_28"/>
     <g id="text_15">
      <!-- 1.0 -->
      <g style="fill: #262626" transform="translate(22.315 38.540569) scale(0.11 -0.11)">
       <use xlink:href="#ArialMT-31"/>
       <use xlink:href="#ArialMT-2e" transform="translate(55.615234 0)"/>
       <use xlink:href="#ArialMT-30" transform="translate(83.398438 0)"/>
      </g>
     </g>
    </g>
    <g id="text_16">
     <!-- Normalized intensity -->
     <g style="fill: #262626" transform="translate(15.789375 202.053281) rotate(-90) scale(0.12 -0.12)">
      <defs>
       <path id="ArialMT-4e" d="M 488 0 
L 488 4581 
L 1109 4581 
L 3516 984 
L 3516 4581 
L 4097 4581 
L 4097 0 
L 3475 0 
L 1069 3600 
L 1069 0 
L 488 0 
z
" transform="scale(0.015625)"/>
       <path id="ArialMT-6f" d="M 213 1659 
Q 213 2581 725 3025 
Q 1153 3394 1769 3394 
Q 2453 3394 2887 2945 
Q 3322 2497 3322 1706 
Q 3322 1066 3130 698 
Q 2938 331 2570 128 
Q 2203 -75 1769 -75 
Q 1072 -75 642 372 
Q 213 819 213 1659 
z
M 791 1659 
Q 791 1022 1069 705 
Q 1347 388 1769 388 
Q 2188 388 2466 706 
Q 2744 1025 2744 1678 
Q 2744 2294 2464 2611 
Q 2184 2928 1769 2928 
Q 1347 2928 1069 2612 
Q 791 2297 791 1659 
z
" transform="scale(0.015625)"/>
       <path id="ArialMT-72" d="M 416 0 
L 416 3319 
L 922 3319 
L 922 2816 
Q 1116 3169 1280 3281 
Q 1444 3394 1641 3394 
Q 1925 3394 2219 3213 
L 2025 2691 
Q 1819 2813 1613 2813 
Q 1428 2813 1281 2702 
Q 1134 2591 1072 2394 
Q 978 2094 978 1738 
L 978 0 
L 416 0 
z
" transform="scale(0.015625)"/>
       <path id="ArialMT-6c" d="M 409 0 
L 409 4581 
L 972 4581 
L 972 0 
L 409 0 
z
" transform="scale(0.015625)"/>
       <path id="ArialMT-7a" d="M 125 0 
L 125 456 
L 2238 2881 
Q 1878 2863 1603 2863 
L 250 2863 
L 250 3319 
L 2963 3319 
L 2963 2947 
L 1166 841 
L 819 456 
Q 1197 484 1528 484 
L 3063 484 
L 3063 0 
L 125 0 
z
" transform="scale(0.015625)"/>
       <path id="ArialMT-65" d="M 2694 1069 
L 3275 997 
Q 3138 488 2766 206 
Q 2394 -75 1816 -75 
Q 1088 -75 661 373 
Q 234 822 234 1631 
Q 234 2469 665 2931 
Q 1097 3394 1784 3394 
Q 2450 3394 2872 2941 
Q 3294 2488 3294 1666 
Q 3294 1616 3291 1516 
L 816 1516 
Q 847 969 1125 678 
Q 1403 388 1819 388 
Q 2128 388 2347 550 
Q 2566 713 2694 1069 
z
M 847 1978 
L 2700 1978 
Q 2663 2397 2488 2606 
Q 2219 2931 1791 2931 
Q 1403 2931 1139 2672 
Q 875 2413 847 1978 
z
" transform="scale(0.015625)"/>
       <path id="ArialMT-64" d="M 2575 0 
L 2575 419 
Q 2259 -75 1647 -75 
Q 1250 -75 917 144 
Q 584 363 401 755 
Q 219 1147 219 1656 
Q 219 2153 384 2558 
Q 550 2963 881 3178 
Q 1213 3394 1622 3394 
Q 1922 3394 2156 3267 
Q 2391 3141 2538 2938 
L 2538 4581 
L 3097 4581 
L 3097 0 
L 2575 0 
z
M 797 1656 
Q 797 1019 1065 703 
Q 1334 388 1700 388 
Q 2069 388 2326 689 
Q 2584 991 2584 1609 
Q 2584 2291 2321 2609 
Q 2059 2928 1675 2928 
Q 1300 2928 1048 2622 
Q 797 2316 797 1656 
z
" transform="scale(0.015625)"/>
       <path id="ArialMT-79" d="M 397 -1278 
L 334 -750 
Q 519 -800 656 -800 
Q 844 -800 956 -737 
Q 1069 -675 1141 -563 
Q 1194 -478 1313 -144 
Q 1328 -97 1363 -6 
L 103 3319 
L 709 3319 
L 1400 1397 
Q 1534 1031 1641 628 
Q 1738 1016 1872 1384 
L 2581 3319 
L 3144 3319 
L 1881 -56 
Q 1678 -603 1566 -809 
Q 1416 -1088 1222 -1217 
Q 1028 -1347 759 -1347 
Q 597 -1347 397 -1278 
z
" transform="scale(0.015625)"/>
      </defs>
      <use xlink:href="#ArialMT-4e"/>
      <use xlink:href="#ArialMT-6f" transform="translate(72.216797 0)"/>
      <use xlink:href="#ArialMT-72" transform="translate(127.832031 0)"/>
      <use xlink:href="#ArialMT-6d" transform="translate(161.132812 0)"/>
      <use xlink:href="#ArialMT-61" transform="translate(244.433594 0)"/>
      <use xlink:href="#ArialMT-6c" transform="translate(300.048828 0)"/>
      <use xlink:href="#ArialMT-69" transform="translate(322.265625 0)"/>
      <use xlink:href="#ArialMT-7a" transform="translate(344.482422 0)"/>
      <use xlink:href="#ArialMT-65" transform="translate(394.482422 0)"/>
      <use xlink:href="#ArialMT-64" transform="translate(450.097656 0)"/>
      <use xlink:href="#ArialMT-20" transform="translate(505.712891 0)"/>
      <use xlink:href="#ArialMT-69" transform="translate(533.496094 0)"/>
      <use xlink:href="#ArialMT-6e" transform="translate(555.712891 0)"/>
      <use xlink:href="#ArialMT-74" transform="translate(611.328125 0)"/>
      <use xlink:href="#ArialMT-65" transform="translate(639.111328 0)"/>
      <use xlink:href="#ArialMT-6e" transform="translate(694.726562 0)"/>
      <use xlink:href="#ArialMT-73" transform="translate(750.341797 0)"/>
      <use xlink:href="#ArialMT-69" transform="translate(800.341797 0)"/>
      <use xlink:href="#ArialMT-74" transform="translate(822.558594 0)"/>
      <use xlink:href="#ArialMT-79" transform="translate(850.341797 0)"/>
     </g>
    </g>
   </g>
   <g id="line2d_29">
    <path d="M 41.105 201.360026 
L 41.497154 195.287494 
L 41.889307 191.552711 
L 42.281461 190.408727 
L 42.673614 191.818092 
L 43.065768 195.470748 
L 43.850075 207.336467 
L 45.418689 233.25667 
L 46.202996 241.929357 
L 46.987304 247.249661 
L 47.379457 248.858028 
L 47.771611 249.880208 
L 48.163764 250.38125 
L 48.555918 250.402225 
L 48.948071 249.958586 
L 49.340225 249.040092 
L 49.732379 247.610883 
L 50.124532 245.608782 
L 50.516686 242.943534 
L 51.300993 235.107441 
L 52.0853 222.733181 
L 52.869607 203.950519 
L 53.653914 176.810524 
L 54.438221 140.715416 
L 56.006836 60.37698 
L 56.398989 46.152163 
L 56.791143 37.244072 
L 57.183296 34.603772 
L 57.57545 38.543434 
L 57.967604 48.672938 
L 58.751911 82.99301 
L 60.712679 182.702377 
L 61.496986 209.527603 
L 62.281293 227.939804 
L 63.0656 240.116717 
L 63.849907 248.075474 
L 64.634214 253.272381 
L 65.418521 256.63641 
L 66.202829 258.710138 
L 66.594982 259.3566 
L 66.987136 259.764276 
L 67.379289 259.933845 
L 67.771443 259.85629 
L 68.163596 259.516831 
L 68.55575 258.900641 
L 69.340057 256.824324 
L 70.124364 253.811412 
L 71.300825 249.099847 
L 71.692979 248.023996 
L 72.085132 247.411899 
L 72.477286 247.33726 
L 72.869439 247.81519 
L 73.261593 248.801033 
L 74.0459 251.891883 
L 76.006668 260.77237 
L 76.790975 263.414327 
L 77.575282 265.415277 
L 78.359589 266.871918 
L 79.143896 267.89995 
L 79.928204 268.608826 
L 81.104664 269.268554 
L 82.281125 269.633283 
L 83.849739 269.841176 
L 85.418354 269.809571 
L 86.986968 269.518946 
L 88.163429 269.061505 
L 88.947736 268.580639 
L 89.732043 267.882714 
L 90.51635 266.851618 
L 91.300657 265.284549 
L 92.084964 262.862501 
L 92.869271 259.184537 
L 93.653579 253.940279 
L 94.830039 243.612966 
L 96.0065 233.713807 
L 96.398654 231.408054 
L 96.790807 229.828993 
L 97.182961 229.015566 
L 97.575114 228.940405 
L 97.967268 229.528587 
L 98.359421 230.682758 
L 99.143729 234.313465 
L 99.928036 239.211971 
L 102.280957 255.504646 
L 103.065264 259.316019 
L 103.849571 261.841446 
L 104.633879 263.233678 
L 105.026032 263.570655 
L 105.418186 263.694323 
L 105.810339 263.613079 
L 106.202493 263.324559 
L 106.594646 262.815309 
L 106.9868 262.061412 
L 107.378954 261.030167 
L 108.163261 257.98088 
L 108.947568 253.389372 
L 109.731875 247.195826 
L 110.908336 235.747965 
L 112.47695 220.250735 
L 113.261257 214.316646 
L 113.653411 212.345297 
L 114.045564 211.306362 
L 114.437718 211.379211 
L 114.829871 212.675657 
L 115.222025 215.20379 
L 116.006332 223.391433 
L 117.9671 248.722636 
L 118.751407 255.937352 
L 119.535714 260.885677 
L 120.320021 264.109758 
L 121.104329 266.197836 
L 121.888636 267.587171 
L 122.672943 268.548205 
L 123.45725 269.236115 
L 124.633711 269.948916 
L 125.810171 270.423047 
L 127.378786 270.822099 
L 129.339554 271.085506 
L 131.692475 271.15947 
L 134.045396 270.998502 
L 136.006164 270.631635 
L 137.574779 270.091038 
L 138.751239 269.438491 
L 139.535546 268.814679 
L 140.319854 267.953071 
L 141.104161 266.73375 
L 141.888468 264.981124 
L 142.672775 262.441384 
L 143.457082 258.767774 
L 144.241389 253.529682 
L 145.025696 246.297028 
L 145.810004 236.901132 
L 148.947232 195.237305 
L 149.339386 192.127577 
L 149.731539 189.914009 
L 150.123693 188.751177 
L 150.515846 188.804479 
L 150.908 190.214323 
L 151.300154 193.050005 
L 151.692307 197.269537 
L 152.476614 209.053763 
L 154.437382 241.96422 
L 155.221689 251.110219 
L 156.005996 257.45456 
L 156.790304 261.671242 
L 157.574611 264.4521 
L 158.358918 266.315186 
L 159.143225 267.596011 
L 159.927532 268.499833 
L 161.103993 269.416297 
L 162.280454 270.00992 
L 163.849068 270.497492 
L 165.417682 270.765512 
L 167.37845 270.87061 
L 168.947064 270.774998 
L 170.515679 270.466285 
L 171.692139 270.006901 
L 172.476446 269.515884 
L 173.260754 268.778886 
L 174.045061 267.653658 
L 174.829368 265.957956 
L 175.613675 263.532556 
L 176.397982 260.363233 
L 178.750904 249.719733 
L 179.535211 247.245991 
L 179.927364 246.39757 
L 180.319518 245.867299 
L 180.711671 245.707506 
L 181.103825 245.967212 
L 181.495979 246.678 
L 181.888132 247.839815 
L 182.672439 251.313715 
L 184.633207 261.72666 
L 185.417514 264.698522 
L 186.201821 266.734045 
L 186.986129 268.04517 
L 187.770436 268.871545 
L 188.554743 269.393792 
L 189.731204 269.837213 
L 190.907664 270.038425 
L 192.476279 270.07871 
L 194.437046 269.861738 
L 196.005661 269.488506 
L 197.574275 268.90787 
L 198.750736 268.285796 
L 199.927196 267.441503 
L 201.103657 266.267036 
L 201.887964 265.205483 
L 202.672271 263.818911 
L 203.456579 261.955276 
L 204.240886 259.373423 
L 205.025193 255.730825 
L 205.8095 250.573765 
L 206.593807 243.350568 
L 207.378114 233.456063 
L 208.162421 220.251096 
L 208.946729 203.131682 
L 210.123189 169.980214 
L 212.868264 85.154455 
L 213.652571 69.725066 
L 214.044725 65.621828 
L 214.436879 64.653747 
L 214.829032 67.209697 
L 215.221186 73.414021 
L 215.613339 83.057866 
L 216.397646 110.260741 
L 218.358414 186.197079 
L 219.142721 208.652633 
L 219.927029 225.517112 
L 220.711336 237.672477 
L 221.495643 246.114078 
L 222.27995 251.771244 
L 223.064257 255.407595 
L 223.848564 257.556948 
L 224.240718 258.173776 
L 224.632871 258.507911 
L 225.025025 258.557929 
L 225.417179 258.31003 
L 225.809332 257.742128 
L 226.201486 256.830298 
L 226.985793 253.925751 
L 227.7701 249.750235 
L 228.946561 242.948295 
L 229.338714 241.237325 
L 229.730868 240.102584 
L 230.123021 239.659335 
L 230.515175 239.948735 
L 230.907329 240.932156 
L 231.691636 244.501994 
L 233.652404 255.617311 
L 234.436711 258.929531 
L 235.221018 261.330341 
L 236.005325 262.889505 
L 236.397479 263.37926 
L 236.789632 263.686262 
L 237.181786 263.814436 
L 237.573939 263.763788 
L 237.966093 263.530309 
L 238.358246 263.106448 
L 238.7504 262.482193 
L 239.534707 260.590817 
L 240.319014 257.799799 
L 241.103321 254.130868 
L 242.279782 247.264633 
L 243.848396 237.737735 
L 244.24055 236.067162 
L 244.632704 235.011689 
L 245.024857 234.708219 
L 245.417011 235.231044 
L 245.809164 236.572073 
L 246.593471 241.260445 
L 248.554239 255.658043 
L 249.338546 259.517264 
L 250.122854 261.991854 
L 250.907161 263.412267 
L 251.691468 264.108291 
L 252.475775 264.298789 
L 253.260082 264.092934 
L 254.044389 263.522729 
L 254.828696 262.551222 
L 255.613004 261.057364 
L 256.397311 258.812731 
L 257.181618 255.42195 
L 257.965925 250.207042 
L 258.750232 242.099926 
L 259.534539 229.706496 
L 260.318846 211.841569 
L 261.495307 176.201279 
L 262.279614 152.462324 
L 262.671768 143.102836 
L 263.063921 136.524315 
L 263.456075 133.282223 
L 263.848229 133.582719 
L 264.240382 137.248271 
L 264.632536 143.758894 
L 265.416843 162.180492 
L 266.593304 191.474341 
L 267.377611 206.282591 
L 268.161918 216.068109 
L 268.554071 219.224086 
L 268.946225 221.369548 
L 269.338379 222.630669 
L 269.730532 223.144049 
L 270.122686 223.061991 
L 270.514839 222.55885 
L 271.6913 220.587835 
L 272.083454 220.480144 
L 272.475607 220.917358 
L 272.867761 221.952445 
L 273.652068 225.53961 
L 274.828529 231.730954 
L 275.220682 233.06636 
L 275.612836 233.748208 
L 276.004989 233.715831 
L 276.397143 232.994075 
L 276.789296 231.684792 
L 277.573604 227.974491 
L 278.750064 222.337077 
L 279.534371 219.574246 
L 280.710832 215.623053 
L 281.495139 211.476735 
L 282.279446 205.059331 
L 283.063754 196.023491 
L 283.848061 184.54468 
L 285.024521 163.797775 
L 286.985289 126.959758 
L 287.769596 116.11532 
L 288.553904 109.256594 
L 288.946057 107.149601 
L 289.338211 105.714688 
L 289.730364 104.799554 
L 290.122518 104.2949 
L 290.514671 104.143361 
L 290.906825 104.333742 
L 291.298979 104.893089 
L 291.691132 105.886451 
L 292.083286 107.424795 
L 292.475439 109.671292 
L 292.867593 112.831837 
L 293.259746 117.1205 
L 294.044054 129.63093 
L 294.828361 146.920363 
L 296.396975 183.702177 
L 297.181282 196.45301 
L 297.965589 203.949041 
L 298.357743 206.124759 
L 299.14205 208.69476 
L 300.710664 212.256942 
L 301.102818 212.845635 
L 301.494971 212.909797 
L 301.887125 212.152779 
L 302.279279 210.304355 
L 302.671432 207.178054 
L 303.455739 197.068361 
L 305.024354 171.401239 
L 305.416507 167.442871 
L 305.808661 165.655336 
L 306.200814 166.305881 
L 306.592968 169.376185 
L 306.985121 174.575037 
L 307.769429 189.245545 
L 308.945889 213.09192 
L 309.730196 225.455036 
L 310.514504 233.68236 
L 310.906657 236.254992 
L 311.298811 237.847387 
L 311.690964 238.495473 
L 312.083118 238.23151 
L 312.475271 237.085871 
L 312.867425 235.089923 
L 313.651732 228.688631 
L 314.436039 219.359932 
L 315.6125 201.233455 
L 316.788961 183.396403 
L 317.181114 179.406594 
L 317.573268 177.182334 
L 317.965421 177.062913 
L 318.357575 179.192666 
L 318.749729 183.481874 
L 319.534036 197.099437 
L 321.494804 236.070338 
L 322.279111 246.419218 
L 323.063418 253.361518 
L 323.847725 257.836076 
L 324.632032 260.722181 
L 325.416339 262.628264 
L 326.200646 263.91624 
L 326.984954 264.795226 
L 327.769261 265.390063 
L 328.553568 265.767841 
L 329.337875 265.956643 
L 330.122182 265.963223 
L 330.906489 265.769319 
L 331.690796 265.319538 
L 332.475104 264.532242 
L 333.259411 263.336041 
L 334.043718 261.722732 
L 336.004486 256.79087 
L 337.965254 251.723083 
L 338.749561 248.870371 
L 339.533868 245.090044 
L 341.886789 231.999344 
L 342.278943 230.676745 
L 342.671096 229.755523 
L 344.239711 227.150218 
L 344.631864 225.587224 
L 345.024018 223.181968 
L 345.416171 219.788488 
L 346.200479 209.950856 
L 347.376939 189.956107 
L 348.5534 170.339362 
L 349.337707 160.28087 
L 350.122014 153.317018 
L 350.514168 151.115515 
L 350.906321 149.85667 
L 351.298475 149.593355 
L 351.690629 150.329737 
L 352.082782 151.999489 
L 352.867089 157.541477 
L 354.435704 172.355909 
L 356.396471 190.209602 
L 359.141546 213.419539 
L 359.925854 218.304531 
L 360.318007 219.907691 
L 360.710161 220.827833 
L 361.102314 221.0001 
L 361.494468 220.37701 
L 361.886621 218.923543 
L 362.278775 216.614683 
L 363.063082 209.400307 
L 363.847389 198.987443 
L 365.416004 175.067679 
L 365.808157 170.807694 
L 366.200311 168.181317 
L 366.592464 167.509802 
L 366.984618 168.919396 
L 367.376771 172.317714 
L 368.161079 183.785416 
L 370.514 225.492946 
L 371.298307 235.43798 
L 372.082614 242.725535 
L 372.866921 247.454022 
L 373.259075 248.901357 
L 373.651229 249.755924 
L 374.043382 250.023452 
L 374.435536 249.70234 
L 374.827689 248.787375 
L 375.219843 247.278092 
L 376.00415 242.576557 
L 378.357071 224.480075 
L 378.749225 223.027455 
L 379.141379 222.40257 
L 379.533532 222.566353 
L 379.925686 223.395239 
L 380.709993 226.302068 
L 381.886454 230.895754 
L 382.278607 231.874705 
L 382.670761 232.389362 
L 383.062914 232.344539 
L 383.455068 231.650058 
L 383.847221 230.223725 
L 384.239375 228.001035 
L 385.023682 221.093841 
L 385.807989 211.411375 
L 387.376604 191.358043 
L 387.768757 187.956694 
L 388.160911 185.56989 
L 388.553064 184.173255 
L 388.945218 183.626356 
L 389.337371 183.710239 
L 390.121679 184.779159 
L 390.513832 185.325865 
L 390.905986 185.670311 
L 391.298139 185.725778 
L 391.690293 185.460156 
L 392.082446 184.891691 
L 392.866754 183.134695 
L 393.651061 181.302098 
L 394.043214 180.656449 
L 394.435368 180.323577 
L 394.827521 180.383815 
L 395.219675 180.916538 
L 395.611829 182.013723 
L 396.003982 183.783464 
L 396.396136 186.336762 
L 397.180443 194.072771 
L 397.96475 205.015217 
L 399.925518 234.494995 
L 400.709825 242.366948 
L 401.494132 247.186337 
L 401.886286 248.579563 
L 402.278439 249.387736 
L 402.670593 249.677782 
L 403.062746 249.511339 
L 403.4549 248.946584 
L 403.847054 248.041573 
L 404.631361 245.45331 
L 405.807821 240.421228 
L 406.592129 236.405738 
L 407.376436 231.118315 
L 408.160743 223.292218 
L 408.94505 211.724005 
L 409.729357 196.269724 
L 411.297971 163.418721 
L 411.690125 157.830692 
L 412.082279 154.149552 
L 412.474432 152.43705 
L 412.866586 152.463319 
L 413.258739 153.731333 
L 414.043046 157.150626 
L 414.4352 157.789694 
L 414.827354 156.876643 
L 415.219507 154.053916 
L 415.611661 149.256014 
L 416.395968 135.017063 
L 417.572429 112.918319 
L 417.964582 108.698026 
L 418.356736 107.035672 
L 418.748889 108.083484 
L 419.141043 111.682021 
L 419.92535 124.786319 
L 422.670425 183.427203 
L 423.454732 194.541639 
L 423.846886 198.390124 
L 424.239039 201.057347 
L 424.631193 202.613491 
L 425.023346 203.220043 
L 425.4155 203.125753 
L 426.199807 202.15159 
L 426.591961 201.987353 
L 426.984114 202.461875 
L 427.376268 203.782915 
L 427.768421 206.031163 
L 428.552729 212.983939 
L 430.513496 234.205741 
L 431.297804 240.337415 
L 432.082111 244.409763 
L 432.474264 245.703067 
L 432.866418 246.532928 
L 433.258571 246.929466 
L 433.650725 246.929337 
L 434.042879 246.578114 
L 434.435032 245.932182 
L 435.219339 244.033617 
L 436.787954 239.885142 
L 437.572261 238.574914 
L 437.964414 238.270435 
L 438.356568 238.269486 
L 438.748721 238.628799 
L 439.140875 239.39569 
L 439.533029 240.592557 
L 440.317336 244.168517 
L 442.670257 257.015484 
L 443.454564 259.481395 
L 443.846718 260.224973 
L 444.238871 260.652979 
L 444.631025 260.772397 
L 445.023179 260.581657 
L 445.415332 260.066098 
L 445.807486 259.194855 
L 446.199639 257.919236 
L 446.591793 256.173017 
L 447.3761 250.940106 
L 448.160407 242.865176 
L 448.944714 231.829923 
L 450.513329 207.5106 
L 450.905482 203.383402 
L 451.297636 200.908647 
L 451.689789 200.323968 
L 452.081943 201.667888 
L 452.474096 204.775709 
L 453.258404 214.850826 
L 455.219171 243.550557 
L 456.003479 251.644972 
L 456.787786 257.53347 
L 457.572093 261.67277 
L 458.3564 264.523469 
L 459.140707 266.473284 
L 459.925014 267.817752 
L 460.709321 268.767187 
L 461.885782 269.744573 
L 463.062243 270.4044 
L 464.630857 271.005787 
L 466.591625 271.507404 
L 469.3367 271.966037 
L 473.650389 272.44042 
L 481.885614 272.951001 
L 487.767918 273.118864 
L 499.532525 273.291157 
L 525.414661 273.407344 
L 590.12 273.407344 
L 590.12 273.407344 
" clip-path="url(#pbfae8d7f5c)" style="fill: none; stroke: #d62728; stroke-width: 1.8; stroke-linecap: round"/>
   </g>
   <g id="patch_3">
    <path d="M 41.105 273.407344 
L 41.105 22.663594 
" style="fill: none; stroke: #cccccc; stroke-linejoin: miter; stroke-linecap: square"/>
   </g>
   <g id="patch_4">
    <path d="M 590.12 273.407344 
L 590.12 22.663594 
" style="fill: none; stroke: #cccccc; stroke-linejoin: miter; stroke-linecap: square"/>
   </g>
   <g id="patch_5">
    <path d="M 41.105 273.407344 
L 590.12 273.407344 
" style="fill: none; stroke: #cccccc; stroke-linejoin: miter; stroke-linecap: square"/>
   </g>
   <g id="patch_6">
    <path d="M 41.105 22.663594 
L 590.12 22.663594 
" style="fill: none; stroke: #cccccc; stroke-linejoin: miter; stroke-linecap: square"/>
   </g>
   <g id="text_17">
    <!-- L-Glycero-D-Manno-Heptose | Gaussian-Broadened Raman Spectrum -->
    <g style="fill: #262626" transform="translate(113.068437 16.663594) scale(0.13 -0.13)">
     <defs>
      <path id="ArialMT-4c" d="M 469 0 
L 469 4581 
L 1075 4581 
L 1075 541 
L 3331 541 
L 3331 0 
L 469 0 
z
" transform="scale(0.015625)"/>
      <path id="ArialMT-2d" d="M 203 1375 
L 203 1941 
L 1931 1941 
L 1931 1375 
L 203 1375 
z
" transform="scale(0.015625)"/>
      <path id="ArialMT-47" d="M 2638 1797 
L 2638 2334 
L 4578 2338 
L 4578 638 
Q 4131 281 3656 101 
Q 3181 -78 2681 -78 
Q 2006 -78 1454 211 
Q 903 500 622 1047 
Q 341 1594 341 2269 
Q 341 2938 620 3517 
Q 900 4097 1425 4378 
Q 1950 4659 2634 4659 
Q 3131 4659 3532 4498 
Q 3934 4338 4162 4050 
Q 4391 3763 4509 3300 
L 3963 3150 
Q 3859 3500 3706 3700 
Q 3553 3900 3268 4020 
Q 2984 4141 2638 4141 
Q 2222 4141 1919 4014 
Q 1616 3888 1430 3681 
Q 1244 3475 1141 3228 
Q 966 2803 966 2306 
Q 966 1694 1177 1281 
Q 1388 869 1791 669 
Q 2194 469 2647 469 
Q 3041 469 3416 620 
Q 3791 772 3984 944 
L 3984 1797 
L 2638 1797 
z
" transform="scale(0.015625)"/>
      <path id="ArialMT-44" d="M 494 0 
L 494 4581 
L 2072 4581 
Q 2606 4581 2888 4516 
Q 3281 4425 3559 4188 
Q 3922 3881 4101 3404 
Q 4281 2928 4281 2316 
Q 4281 1794 4159 1391 
Q 4038 988 3847 723 
Q 3656 459 3429 307 
Q 3203 156 2883 78 
Q 2563 0 2147 0 
L 494 0 
z
M 1100 541 
L 2078 541 
Q 2531 541 2789 625 
Q 3047 709 3200 863 
Q 3416 1078 3536 1442 
Q 3656 1806 3656 2325 
Q 3656 3044 3420 3430 
Q 3184 3816 2847 3947 
Q 2603 4041 2063 4041 
L 1100 4041 
L 1100 541 
z
" transform="scale(0.015625)"/>
      <path id="ArialMT-4d" d="M 475 0 
L 475 4581 
L 1388 4581 
L 2472 1338 
Q 2622 884 2691 659 
Q 2769 909 2934 1394 
L 4031 4581 
L 4847 4581 
L 4847 0 
L 4263 0 
L 4263 3834 
L 2931 0 
L 2384 0 
L 1059 3900 
L 1059 0 
L 475 0 
z
" transform="scale(0.015625)"/>
      <path id="ArialMT-48" d="M 513 0 
L 513 4581 
L 1119 4581 
L 1119 2700 
L 3500 2700 
L 3500 4581 
L 4106 4581 
L 4106 0 
L 3500 0 
L 3500 2159 
L 1119 2159 
L 1119 0 
L 513 0 
z
" transform="scale(0.015625)"/>
      <path id="ArialMT-70" d="M 422 -1272 
L 422 3319 
L 934 3319 
L 934 2888 
Q 1116 3141 1344 3267 
Q 1572 3394 1897 3394 
Q 2322 3394 2647 3175 
Q 2972 2956 3137 2557 
Q 3303 2159 3303 1684 
Q 3303 1175 3120 767 
Q 2938 359 2589 142 
Q 2241 -75 1856 -75 
Q 1575 -75 1351 44 
Q 1128 163 984 344 
L 984 -1272 
L 422 -1272 
z
M 931 1641 
Q 931 1000 1190 694 
Q 1450 388 1819 388 
Q 2194 388 2461 705 
Q 2728 1022 2728 1688 
Q 2728 2322 2467 2637 
Q 2206 2953 1844 2953 
Q 1484 2953 1207 2617 
Q 931 2281 931 1641 
z
" transform="scale(0.015625)"/>
      <path id="ArialMT-7c" d="M 588 -1347 
L 588 4659 
L 1078 4659 
L 1078 -1347 
L 588 -1347 
z
" transform="scale(0.015625)"/>
      <path id="ArialMT-75" d="M 2597 0 
L 2597 488 
Q 2209 -75 1544 -75 
Q 1250 -75 995 37 
Q 741 150 617 320 
Q 494 491 444 738 
Q 409 903 409 1263 
L 409 3319 
L 972 3319 
L 972 1478 
Q 972 1038 1006 884 
Q 1059 663 1231 536 
Q 1403 409 1656 409 
Q 1909 409 2131 539 
Q 2353 669 2445 892 
Q 2538 1116 2538 1541 
L 2538 3319 
L 3100 3319 
L 3100 0 
L 2597 0 
z
" transform="scale(0.015625)"/>
      <path id="ArialMT-42" d="M 469 0 
L 469 4581 
L 2188 4581 
Q 2713 4581 3030 4442 
Q 3347 4303 3526 4014 
Q 3706 3725 3706 3409 
Q 3706 3116 3547 2856 
Q 3388 2597 3066 2438 
Q 3481 2316 3704 2022 
Q 3928 1728 3928 1328 
Q 3928 1006 3792 729 
Q 3656 453 3456 303 
Q 3256 153 2954 76 
Q 2653 0 2216 0 
L 469 0 
z
M 1075 2656 
L 2066 2656 
Q 2469 2656 2644 2709 
Q 2875 2778 2992 2937 
Q 3109 3097 3109 3338 
Q 3109 3566 3000 3739 
Q 2891 3913 2687 3977 
Q 2484 4041 1991 4041 
L 1075 4041 
L 1075 2656 
z
M 1075 541 
L 2216 541 
Q 2509 541 2628 563 
Q 2838 600 2978 687 
Q 3119 775 3209 942 
Q 3300 1109 3300 1328 
Q 3300 1584 3169 1773 
Q 3038 1963 2805 2039 
Q 2572 2116 2134 2116 
L 1075 2116 
L 1075 541 
z
" transform="scale(0.015625)"/>
      <path id="ArialMT-53" d="M 288 1472 
L 859 1522 
Q 900 1178 1048 958 
Q 1197 738 1509 602 
Q 1822 466 2213 466 
Q 2559 466 2825 569 
Q 3091 672 3220 851 
Q 3350 1031 3350 1244 
Q 3350 1459 3225 1620 
Q 3100 1781 2813 1891 
Q 2628 1963 1997 2114 
Q 1366 2266 1113 2400 
Q 784 2572 623 2826 
Q 463 3081 463 3397 
Q 463 3744 659 4045 
Q 856 4347 1234 4503 
Q 1613 4659 2075 4659 
Q 2584 4659 2973 4495 
Q 3363 4331 3572 4012 
Q 3781 3694 3797 3291 
L 3216 3247 
Q 3169 3681 2898 3903 
Q 2628 4125 2100 4125 
Q 1550 4125 1298 3923 
Q 1047 3722 1047 3438 
Q 1047 3191 1225 3031 
Q 1400 2872 2139 2705 
Q 2878 2538 3153 2413 
Q 3553 2228 3743 1945 
Q 3934 1663 3934 1294 
Q 3934 928 3725 604 
Q 3516 281 3123 101 
Q 2731 -78 2241 -78 
Q 1619 -78 1198 103 
Q 778 284 539 648 
Q 300 1013 288 1472 
z
" transform="scale(0.015625)"/>
     </defs>
     <use xlink:href="#ArialMT-4c"/>
     <use xlink:href="#ArialMT-2d" transform="translate(55.615234 0)"/>
     <use xlink:href="#ArialMT-47" transform="translate(88.916016 0)"/>
     <use xlink:href="#ArialMT-6c" transform="translate(166.699219 0)"/>
     <use xlink:href="#ArialMT-79" transform="translate(188.916016 0)"/>
     <use xlink:href="#ArialMT-63" transform="translate(238.916016 0)"/>
     <use xlink:href="#ArialMT-65" transform="translate(288.916016 0)"/>
     <use xlink:href="#ArialMT-72" transform="translate(344.53125 0)"/>
     <use xlink:href="#ArialMT-6f" transform="translate(377.832031 0)"/>
     <use xlink:href="#ArialMT-2d" transform="translate(433.447266 0)"/>
     <use xlink:href="#ArialMT-44" transform="translate(466.748047 0)"/>
     <use xlink:href="#ArialMT-2d" transform="translate(538.964844 0)"/>
     <use xlink:href="#ArialMT-4d" transform="translate(572.265625 0)"/>
     <use xlink:href="#ArialMT-61" transform="translate(655.566406 0)"/>
     <use xlink:href="#ArialMT-6e" transform="translate(711.181641 0)"/>
     <use xlink:href="#ArialMT-6e" transform="translate(766.796875 0)"/>
     <use xlink:href="#ArialMT-6f" transform="translate(822.412109 0)"/>
     <use xlink:href="#ArialMT-2d" transform="translate(878.027344 0)"/>
     <use xlink:href="#ArialMT-48" transform="translate(911.328125 0)"/>
     <use xlink:href="#ArialMT-65" transform="translate(983.544922 0)"/>
     <use xlink:href="#ArialMT-70" transform="translate(1039.160156 0)"/>
     <use xlink:href="#ArialMT-74" transform="translate(1094.775391 0)"/>
     <use xlink:href="#ArialMT-6f" transform="translate(1122.558594 0)"/>
     <use xlink:href="#ArialMT-73" transform="translate(1178.173828 0)"/>
     <use xlink:href="#ArialMT-65" transform="translate(1228.173828 0)"/>
     <use xlink:href="#ArialMT-20" transform="translate(1283.789062 0)"/>
     <use xlink:href="#ArialMT-7c" transform="translate(1311.572266 0)"/>
     <use xlink:href="#ArialMT-20" transform="translate(1337.548828 0)"/>
     <use xlink:href="#ArialMT-47" transform="translate(1365.332031 0)"/>
     <use xlink:href="#ArialMT-61" transform="translate(1443.115234 0)"/>
     <use xlink:href="#ArialMT-75" transform="translate(1498.730469 0)"/>
     <use xlink:href="#ArialMT-73" transform="translate(1554.345703 0)"/>
     <use xlink:href="#ArialMT-73" transform="translate(1604.345703 0)"/>
     <use xlink:href="#ArialMT-69" transform="translate(1654.345703 0)"/>
     <use xlink:href="#ArialMT-61" transform="translate(1676.5625 0)"/>
     <use xlink:href="#ArialMT-6e" transform="translate(1732.177734 0)"/>
     <use xlink:href="#ArialMT-2d" transform="translate(1787.792969 0)"/>
     <use xlink:href="#ArialMT-42" transform="translate(1821.09375 0)"/>
     <use xlink:href="#ArialMT-72" transform="translate(1887.792969 0)"/>
     <use xlink:href="#ArialMT-6f" transform="translate(1921.09375 0)"/>
     <use xlink:href="#ArialMT-61" transform="translate(1976.708984 0)"/>
     <use xlink:href="#ArialMT-64" transform="translate(2032.324219 0)"/>
     <use xlink:href="#ArialMT-65" transform="translate(2087.939453 0)"/>
     <use xlink:href="#ArialMT-6e" transform="translate(2143.554688 0)"/>
     <use xlink:href="#ArialMT-65" transform="translate(2199.169922 0)"/>
     <use xlink:href="#ArialMT-64" transform="translate(2254.785156 0)"/>
     <use xlink:href="#ArialMT-20" transform="translate(2310.400391 0)"/>
     <use xlink:href="#ArialMT-52" transform="translate(2338.183594 0)"/>
     <use xlink:href="#ArialMT-61" transform="translate(2410.400391 0)"/>
     <use xlink:href="#ArialMT-6d" transform="translate(2466.015625 0)"/>
     <use xlink:href="#ArialMT-61" transform="translate(2549.316406 0)"/>
     <use xlink:href="#ArialMT-6e" transform="translate(2604.931641 0)"/>
     <use xlink:href="#ArialMT-20" transform="translate(2660.546875 0)"/>
     <use xlink:href="#ArialMT-53" transform="translate(2688.330078 0)"/>
     <use xlink:href="#ArialMT-70" transform="translate(2755.029297 0)"/>
     <use xlink:href="#ArialMT-65" transform="translate(2810.644531 0)"/>
     <use xlink:href="#ArialMT-63" transform="translate(2866.259766 0)"/>
     <use xlink:href="#ArialMT-74" transform="translate(2916.259766 0)"/>
     <use xlink:href="#ArialMT-72" transform="translate(2944.042969 0)"/>
     <use xlink:href="#ArialMT-75" transform="translate(2977.34375 0)"/>
     <use xlink:href="#ArialMT-6d" transform="translate(3032.958984 0)"/>
    </g>
   </g>
   <g id="legend_1">
    <g id="patch_7">
     <path d="M 388.07 44.443594 
L 583.82 44.443594 
Q 585.62 44.443594 585.62 42.643594 
L 585.62 28.963594 
Q 585.62 27.163594 583.82 27.163594 
L 388.07 27.163594 
Q 386.27 27.163594 386.27 28.963594 
L 386.27 42.643594 
Q 386.27 44.443594 388.07 44.443594 
z
" style="fill: #ffffff; opacity: 0.8; stroke: #cccccc; stroke-linejoin: miter"/>
    </g>
    <g id="line2d_30">
     <path d="M 389.87 35.713594 
L 398.87 35.713594 
L 407.87 35.713594 
" style="fill: none; stroke: #d62728; stroke-width: 1.8; stroke-linecap: round"/>
    </g>
    <g id="text_18">
     <!-- Gaussian broadened (FWHM=12.0 cm$^{-1}$) -->
     <g style="fill: #262626" transform="translate(415.07 38.863594) scale(0.09 -0.09)">
      <defs>
       <path id="ArialMT-62" d="M 941 0 
L 419 0 
L 419 4581 
L 981 4581 
L 981 2947 
Q 1338 3394 1891 3394 
Q 2197 3394 2470 3270 
Q 2744 3147 2920 2923 
Q 3097 2700 3197 2384 
Q 3297 2069 3297 1709 
Q 3297 856 2875 390 
Q 2453 -75 1863 -75 
Q 1275 -75 941 416 
L 941 0 
z
M 934 1684 
Q 934 1088 1097 822 
Q 1363 388 1816 388 
Q 2184 388 2453 708 
Q 2722 1028 2722 1663 
Q 2722 2313 2464 2622 
Q 2206 2931 1841 2931 
Q 1472 2931 1203 2611 
Q 934 2291 934 1684 
z
" transform="scale(0.015625)"/>
       <path id="ArialMT-46" d="M 525 0 
L 525 4581 
L 3616 4581 
L 3616 4041 
L 1131 4041 
L 1131 2622 
L 3281 2622 
L 3281 2081 
L 1131 2081 
L 1131 0 
L 525 0 
z
" transform="scale(0.015625)"/>
       <path id="ArialMT-57" d="M 1294 0 
L 78 4581 
L 700 4581 
L 1397 1578 
Q 1509 1106 1591 641 
Q 1766 1375 1797 1488 
L 2669 4581 
L 3400 4581 
L 4056 2263 
Q 4303 1400 4413 641 
Q 4500 1075 4641 1638 
L 5359 4581 
L 5969 4581 
L 4713 0 
L 4128 0 
L 3163 3491 
Q 3041 3928 3019 4028 
Q 2947 3713 2884 3491 
L 1913 0 
L 1294 0 
z
" transform="scale(0.015625)"/>
       <path id="ArialMT-3d" d="M 3381 2694 
L 356 2694 
L 356 3219 
L 3381 3219 
L 3381 2694 
z
M 3381 1303 
L 356 1303 
L 356 1828 
L 3381 1828 
L 3381 1303 
z
" transform="scale(0.015625)"/>
      </defs>
      <use xlink:href="#ArialMT-47" transform="translate(0 0.684375)"/>
      <use xlink:href="#ArialMT-61" transform="translate(77.783203 0.684375)"/>
      <use xlink:href="#ArialMT-75" transform="translate(133.398438 0.684375)"/>
      <use xlink:href="#ArialMT-73" transform="translate(189.013672 0.684375)"/>
      <use xlink:href="#ArialMT-73" transform="translate(239.013672 0.684375)"/>
      <use xlink:href="#ArialMT-69" transform="translate(289.013672 0.684375)"/>
      <use xlink:href="#ArialMT-61" transform="translate(311.230469 0.684375)"/>
      <use xlink:href="#ArialMT-6e" transform="translate(366.845703 0.684375)"/>
      <use xlink:href="#ArialMT-20" transform="translate(422.460938 0.684375)"/>
      <use xlink:href="#ArialMT-62" transform="translate(450.244141 0.684375)"/>
      <use xlink:href="#ArialMT-72" transform="translate(505.859375 0.684375)"/>
      <use xlink:href="#ArialMT-6f" transform="translate(539.160156 0.684375)"/>
      <use xlink:href="#ArialMT-61" transform="translate(594.775391 0.684375)"/>
      <use xlink:href="#ArialMT-64" transform="translate(650.390625 0.684375)"/>
      <use xlink:href="#ArialMT-65" transform="translate(706.005859 0.684375)"/>
      <use xlink:href="#ArialMT-6e" transform="translate(761.621094 0.684375)"/>
      <use xlink:href="#ArialMT-65" transform="translate(817.236328 0.684375)"/>
      <use xlink:href="#ArialMT-64" transform="translate(872.851562 0.684375)"/>
      <use xlink:href="#ArialMT-20" transform="translate(928.466797 0.684375)"/>
      <use xlink:href="#ArialMT-28" transform="translate(956.25 0.684375)"/>
      <use xlink:href="#ArialMT-46" transform="translate(989.550781 0.684375)"/>
      <use xlink:href="#ArialMT-57" transform="translate(1050.634766 0.684375)"/>
      <use xlink:href="#ArialMT-48" transform="translate(1145.019531 0.684375)"/>
      <use xlink:href="#ArialMT-4d" transform="translate(1217.236328 0.684375)"/>
      <use xlink:href="#ArialMT-3d" transform="translate(1300.537109 0.684375)"/>
      <use xlink:href="#ArialMT-31" transform="translate(1358.935547 0.684375)"/>
      <use xlink:href="#ArialMT-32" transform="translate(1414.550781 0.684375)"/>
      <use xlink:href="#ArialMT-2e" transform="translate(1470.166016 0.684375)"/>
      <use xlink:href="#ArialMT-30" transform="translate(1497.949219 0.684375)"/>
      <use xlink:href="#ArialMT-20" transform="translate(1553.564453 0.684375)"/>
      <use xlink:href="#ArialMT-63" transform="translate(1581.347656 0.684375)"/>
      <use xlink:href="#ArialMT-6d" transform="translate(1631.347656 0.684375)"/>
      <use xlink:href="#DejaVuSans-2212" transform="translate(1715.605469 38.965625) scale(0.7)"/>
      <use xlink:href="#DejaVuSans-31" transform="translate(1774.257812 38.965625) scale(0.7)"/>
      <use xlink:href="#ArialMT-29" transform="translate(1821.52832 0.684375)"/>
     </g>
    </g>
   </g>
  </g>
 </g>
 <defs>
  <clipPath id="pbfae8d7f5c">
   <rect x="41.105" y="22.663594" width="549.015" height="250.74375"/>
  </clipPath>
 </defs>
</svg>
