<?xml version="1.0" encoding="utf-8" standalone="no"?>
<!DOCTYPE svg PUBLIC "-//W3C//DTD SVG 1.1//EN"
  "http://www.w3.org/Graphics/SVG/1.1/DTD/svg11.dtd">
<svg xmlns:xlink="http://www.w3.org/1999/xlink" width="609.700312pt" height="311.607187pt" viewBox="0 0 609.700312 311.607187" xmlns="http://www.w3.org/2000/svg" version="1.1">
 <metadata>
  <rdf:RDF xmlns:dc="http://purl.org/dc/elements/1.1/" xmlns:cc="http://creativecommons.org/ns#" xmlns:rdf="http://www.w3.org/1999/02/22-rdf-syntax-ns#">
   <cc:Work>
    <dc:type rdf:resource="http://purl.org/dc/dcmitype/StillImage"/>
    <dc:date>2026-04-16T21:06:19.171672</dc:date>
    <dc:format>image/svg+xml</dc:format>
    <dc:creator>
     <cc:Agent>
      <dc:title>Matplotlib v3.10.8, https://matplotlib.org/</dc:title>
     </cc:Agent>
    </dc:creator>
   </cc:Work>
  </rdf:RDF>
 </metadata>
 <defs>
  <style type="text/css">*{stroke-linejoin: round; stroke-linecap: butt}</style>
 </defs>
 <g id="figure_1">
  <g id="patch_1">
   <path d="M 0 311.607187 
L 609.700312 311.607187 
L 609.700312 0 
L 0 0 
z
" style="fill: #ffffff"/>
  </g>
  <g id="axes_1">
   <g id="patch_2">
    <path d="M 41.25125 273.407344 
L 590.26625 273.407344 
L 590.26625 22.663594 
L 41.25125 22.663594 
z
" style="fill: #ffffff"/>
   </g>
   <g id="matplotlib.axis_1">
    <g id="xtick_1">
     <g id="line2d_1">
      <path d="M 41.25125 273.407344 
L 41.25125 22.663594 
" clip-path="url(#p33a5baef7c)" style="fill: none; stroke: #cccccc; stroke-width: 0.8; stroke-linecap: round"/>
     </g>
     <g id="line2d_2"/>
     <g id="text_1">
      <!-- 400 -->
      <g style="fill: #262626" transform="translate(32.075703 284.780937) scale(0.11 -0.11)">
       <defs>
        <path id="ArialMT-34" d="M 2069 0 
L 2069 1097 
L 81 1097 
L 81 1613 
L 2172 4581 
L 2631 4581 
L 2631 1613 
L 3250 1613 
L 3250 1097 
L 2631 1097 
L 2631 0 
L 2069 0 
z
M 2069 1613 
L 2069 3678 
L 634 1613 
L 2069 1613 
z
" transform="scale(0.015625)"/>
        <path id="ArialMT-30" d="M 266 2259 
Q 266 3072 433 3567 
Q 600 4063 929 4331 
Q 1259 4600 1759 4600 
Q 2128 4600 2406 4451 
Q 2684 4303 2865 4023 
Q 3047 3744 3150 3342 
Q 3253 2941 3253 2259 
Q 3253 1453 3087 958 
Q 2922 463 2592 192 
Q 2263 -78 1759 -78 
Q 1097 -78 719 397 
Q 266 969 266 2259 
z
M 844 2259 
Q 844 1131 1108 757 
Q 1372 384 1759 384 
Q 2147 384 2411 759 
Q 2675 1134 2675 2259 
Q 2675 3391 2411 3762 
Q 2147 4134 1753 4134 
Q 1366 4134 1134 3806 
Q 844 3388 844 2259 
z
" transform="scale(0.015625)"/>
       </defs>
       <use xlink:href="#ArialMT-34"/>
       <use xlink:href="#ArialMT-30" transform="translate(55.615234 0)"/>
       <use xlink:href="#ArialMT-30" transform="translate(111.230469 0)"/>
      </g>
     </g>
    </g>
    <g id="xtick_2">
     <g id="line2d_3">
      <path d="M 119.681964 273.407344 
L 119.681964 22.663594 
" clip-path="url(#p33a5baef7c)" style="fill: none; stroke: #cccccc; stroke-width: 0.8; stroke-linecap: round"/>
     </g>
     <g id="line2d_4"/>
     <g id="text_2">
      <!-- 600 -->
      <g style="fill: #262626" transform="translate(110.506417 284.780937) scale(0.11 -0.11)">
       <defs>
        <path id="ArialMT-36" d="M 3184 3459 
L 2625 3416 
Q 2550 3747 2413 3897 
Q 2184 4138 1850 4138 
Q 1581 4138 1378 3988 
Q 1113 3794 959 3422 
Q 806 3050 800 2363 
Q 1003 2672 1297 2822 
Q 1591 2972 1913 2972 
Q 2475 2972 2870 2558 
Q 3266 2144 3266 1488 
Q 3266 1056 3080 686 
Q 2894 316 2569 119 
Q 2244 -78 1831 -78 
Q 1128 -78 684 439 
Q 241 956 241 2144 
Q 241 3472 731 4075 
Q 1159 4600 1884 4600 
Q 2425 4600 2770 4297 
Q 3116 3994 3184 3459 
z
M 888 1484 
Q 888 1194 1011 928 
Q 1134 663 1356 523 
Q 1578 384 1822 384 
Q 2178 384 2434 671 
Q 2691 959 2691 1453 
Q 2691 1928 2437 2201 
Q 2184 2475 1800 2475 
Q 1419 2475 1153 2201 
Q 888 1928 888 1484 
z
" transform="scale(0.015625)"/>
       </defs>
       <use xlink:href="#ArialMT-36"/>
       <use xlink:href="#ArialMT-30" transform="translate(55.615234 0)"/>
       <use xlink:href="#ArialMT-30" transform="translate(111.230469 0)"/>
      </g>
     </g>
    </g>
    <g id="xtick_3">
     <g id="line2d_5">
      <path d="M 198.112679 273.407344 
L 198.112679 22.663594 
" clip-path="url(#p33a5baef7c)" style="fill: none; stroke: #cccccc; stroke-width: 0.8; stroke-linecap: round"/>
     </g>
     <g id="line2d_6"/>
     <g id="text_3">
      <!-- 800 -->
      <g style="fill: #262626" transform="translate(188.937132 284.780937) scale(0.11 -0.11)">
       <defs>
        <path id="ArialMT-38" d="M 1131 2484 
Q 781 2613 612 2850 
Q 444 3088 444 3419 
Q 444 3919 803 4259 
Q 1163 4600 1759 4600 
Q 2359 4600 2725 4251 
Q 3091 3903 3091 3403 
Q 3091 3084 2923 2848 
Q 2756 2613 2416 2484 
Q 2838 2347 3058 2040 
Q 3278 1734 3278 1309 
Q 3278 722 2862 322 
Q 2447 -78 1769 -78 
Q 1091 -78 675 323 
Q 259 725 259 1325 
Q 259 1772 486 2073 
Q 713 2375 1131 2484 
z
M 1019 3438 
Q 1019 3113 1228 2906 
Q 1438 2700 1772 2700 
Q 2097 2700 2305 2904 
Q 2513 3109 2513 3406 
Q 2513 3716 2298 3927 
Q 2084 4138 1766 4138 
Q 1444 4138 1231 3931 
Q 1019 3725 1019 3438 
z
M 838 1322 
Q 838 1081 952 856 
Q 1066 631 1291 507 
Q 1516 384 1775 384 
Q 2178 384 2440 643 
Q 2703 903 2703 1303 
Q 2703 1709 2433 1975 
Q 2163 2241 1756 2241 
Q 1359 2241 1098 1978 
Q 838 1716 838 1322 
z
" transform="scale(0.015625)"/>
       </defs>
       <use xlink:href="#ArialMT-38"/>
       <use xlink:href="#ArialMT-30" transform="translate(55.615234 0)"/>
       <use xlink:href="#ArialMT-30" transform="translate(111.230469 0)"/>
      </g>
     </g>
    </g>
    <g id="xtick_4">
     <g id="line2d_7">
      <path d="M 276.543393 273.407344 
L 276.543393 22.663594 
" clip-path="url(#p33a5baef7c)" style="fill: none; stroke: #cccccc; stroke-width: 0.8; stroke-linecap: round"/>
     </g>
     <g id="line2d_8"/>
     <g id="text_4">
      <!-- 1000 -->
      <g style="fill: #262626" transform="translate(264.30933 284.780937) scale(0.11 -0.11)">
       <defs>
        <path id="ArialMT-31" d="M 2384 0 
L 1822 0 
L 1822 3584 
Q 1619 3391 1289 3197 
Q 959 3003 697 2906 
L 697 3450 
Q 1169 3672 1522 3987 
Q 1875 4303 2022 4600 
L 2384 4600 
L 2384 0 
z
" transform="scale(0.015625)"/>
       </defs>
       <use xlink:href="#ArialMT-31"/>
       <use xlink:href="#ArialMT-30" transform="translate(55.615234 0)"/>
       <use xlink:href="#ArialMT-30" transform="translate(111.230469 0)"/>
       <use xlink:href="#ArialMT-30" transform="translate(166.845703 0)"/>
      </g>
     </g>
    </g>
    <g id="xtick_5">
     <g id="line2d_9">
      <path d="M 354.974107 273.407344 
L 354.974107 22.663594 
" clip-path="url(#p33a5baef7c)" style="fill: none; stroke: #cccccc; stroke-width: 0.8; stroke-linecap: round"/>
     </g>
     <g id="line2d_10"/>
     <g id="text_5">
      <!-- 1200 -->
      <g style="fill: #262626" transform="translate(342.740045 284.780937) scale(0.11 -0.11)">
       <defs>
        <path id="ArialMT-32" d="M 3222 541 
L 3222 0 
L 194 0 
Q 188 203 259 391 
Q 375 700 629 1000 
Q 884 1300 1366 1694 
Q 2113 2306 2375 2664 
Q 2638 3022 2638 3341 
Q 2638 3675 2398 3904 
Q 2159 4134 1775 4134 
Q 1369 4134 1125 3890 
Q 881 3647 878 3216 
L 300 3275 
Q 359 3922 746 4261 
Q 1134 4600 1788 4600 
Q 2447 4600 2831 4234 
Q 3216 3869 3216 3328 
Q 3216 3053 3103 2787 
Q 2991 2522 2730 2228 
Q 2469 1934 1863 1422 
Q 1356 997 1212 845 
Q 1069 694 975 541 
L 3222 541 
z
" transform="scale(0.015625)"/>
       </defs>
       <use xlink:href="#ArialMT-31"/>
       <use xlink:href="#ArialMT-32" transform="translate(55.615234 0)"/>
       <use xlink:href="#ArialMT-30" transform="translate(111.230469 0)"/>
       <use xlink:href="#ArialMT-30" transform="translate(166.845703 0)"/>
      </g>
     </g>
    </g>
    <g id="xtick_6">
     <g id="line2d_11">
      <path d="M 433.404821 273.407344 
L 433.404821 22.663594 
" clip-path="url(#p33a5baef7c)" style="fill: none; stroke: #cccccc; stroke-width: 0.8; stroke-linecap: round"/>
     </g>
     <g id="line2d_12"/>
     <g id="text_6">
      <!-- 1400 -->
      <g style="fill: #262626" transform="translate(421.170759 284.780937) scale(0.11 -0.11)">
       <use xlink:href="#ArialMT-31"/>
       <use xlink:href="#ArialMT-34" transform="translate(55.615234 0)"/>
       <use xlink:href="#ArialMT-30" transform="translate(111.230469 0)"/>
       <use xlink:href="#ArialMT-30" transform="translate(166.845703 0)"/>
      </g>
     </g>
    </g>
    <g id="xtick_7">
     <g id="line2d_13">
      <path d="M 511.835536 273.407344 
L 511.835536 22.663594 
" clip-path="url(#p33a5baef7c)" style="fill: none; stroke: #cccccc; stroke-width: 0.8; stroke-linecap: round"/>
     </g>
     <g id="line2d_14"/>
     <g id="text_7">
      <!-- 1600 -->
      <g style="fill: #262626" transform="translate(499.601473 284.780937) scale(0.11 -0.11)">
       <use xlink:href="#ArialMT-31"/>
       <use xlink:href="#ArialMT-36" transform="translate(55.615234 0)"/>
       <use xlink:href="#ArialMT-30" transform="translate(111.230469 0)"/>
       <use xlink:href="#ArialMT-30" transform="translate(166.845703 0)"/>
      </g>
     </g>
    </g>
    <g id="xtick_8">
     <g id="line2d_15">
      <path d="M 590.26625 273.407344 
L 590.26625 22.663594 
" clip-path="url(#p33a5baef7c)" style="fill: none; stroke: #cccccc; stroke-width: 0.8; stroke-linecap: round"/>
     </g>
     <g id="line2d_16"/>
     <g id="text_8">
      <!-- 1800 -->
      <g style="fill: #262626" transform="translate(578.032187 284.780937) scale(0.11 -0.11)">
       <use xlink:href="#ArialMT-31"/>
       <use xlink:href="#ArialMT-38" transform="translate(55.615234 0)"/>
       <use xlink:href="#ArialMT-30" transform="translate(111.230469 0)"/>
       <use xlink:href="#ArialMT-30" transform="translate(166.845703 0)"/>
      </g>
     </g>
    </g>
    <g id="text_9">
     <!-- Raman Shift (cm$^{-1}$) -->
     <g style="fill: #262626" transform="translate(262.65875 301.767187) scale(0.12 -0.12)">
      <defs>
       <path id="ArialMT-52" d="M 503 0 
L 503 4581 
L 2534 4581 
Q 3147 4581 3465 4457 
Q 3784 4334 3975 4021 
Q 4166 3709 4166 3331 
Q 4166 2844 3850 2509 
Q 3534 2175 2875 2084 
Q 3116 1969 3241 1856 
Q 3506 1613 3744 1247 
L 4541 0 
L 3778 0 
L 3172 953 
Q 2906 1366 2734 1584 
Q 2563 1803 2427 1890 
Q 2291 1978 2150 2013 
Q 2047 2034 1813 2034 
L 1109 2034 
L 1109 0 
L 503 0 
z
M 1109 2559 
L 2413 2559 
Q 2828 2559 3062 2645 
Q 3297 2731 3419 2920 
Q 3541 3109 3541 3331 
Q 3541 3656 3305 3865 
Q 3069 4075 2559 4075 
L 1109 4075 
L 1109 2559 
z
" transform="scale(0.015625)"/>
       <path id="ArialMT-61" d="M 2588 409 
Q 2275 144 1986 34 
Q 1697 -75 1366 -75 
Q 819 -75 525 192 
Q 231 459 231 875 
Q 231 1119 342 1320 
Q 453 1522 633 1644 
Q 813 1766 1038 1828 
Q 1203 1872 1538 1913 
Q 2219 1994 2541 2106 
Q 2544 2222 2544 2253 
Q 2544 2597 2384 2738 
Q 2169 2928 1744 2928 
Q 1347 2928 1158 2789 
Q 969 2650 878 2297 
L 328 2372 
Q 403 2725 575 2942 
Q 747 3159 1072 3276 
Q 1397 3394 1825 3394 
Q 2250 3394 2515 3294 
Q 2781 3194 2906 3042 
Q 3031 2891 3081 2659 
Q 3109 2516 3109 2141 
L 3109 1391 
Q 3109 606 3145 398 
Q 3181 191 3288 0 
L 2700 0 
Q 2613 175 2588 409 
z
M 2541 1666 
Q 2234 1541 1622 1453 
Q 1275 1403 1131 1340 
Q 988 1278 909 1158 
Q 831 1038 831 891 
Q 831 666 1001 516 
Q 1172 366 1500 366 
Q 1825 366 2078 508 
Q 2331 650 2450 897 
Q 2541 1088 2541 1459 
L 2541 1666 
z
" transform="scale(0.015625)"/>
       <path id="ArialMT-6d" d="M 422 0 
L 422 3319 
L 925 3319 
L 925 2853 
Q 1081 3097 1340 3245 
Q 1600 3394 1931 3394 
Q 2300 3394 2536 3241 
Q 2772 3088 2869 2813 
Q 3263 3394 3894 3394 
Q 4388 3394 4653 3120 
Q 4919 2847 4919 2278 
L 4919 0 
L 4359 0 
L 4359 2091 
Q 4359 2428 4304 2576 
Q 4250 2725 4106 2815 
Q 3963 2906 3769 2906 
Q 3419 2906 3187 2673 
Q 2956 2441 2956 1928 
L 2956 0 
L 2394 0 
L 2394 2156 
Q 2394 2531 2256 2718 
Q 2119 2906 1806 2906 
Q 1569 2906 1367 2781 
Q 1166 2656 1075 2415 
Q 984 2175 984 1722 
L 984 0 
L 422 0 
z
" transform="scale(0.015625)"/>
       <path id="ArialMT-6e" d="M 422 0 
L 422 3319 
L 928 3319 
L 928 2847 
Q 1294 3394 1984 3394 
Q 2284 3394 2536 3286 
Q 2788 3178 2913 3003 
Q 3038 2828 3088 2588 
Q 3119 2431 3119 2041 
L 3119 0 
L 2556 0 
L 2556 2019 
Q 2556 2363 2490 2533 
Q 2425 2703 2258 2804 
Q 2091 2906 1866 2906 
Q 1506 2906 1245 2678 
Q 984 2450 984 1813 
L 984 0 
L 422 0 
z
" transform="scale(0.015625)"/>
       <path id="ArialMT-20" transform="scale(0.015625)"/>
       <path id="ArialMT-53" d="M 288 1472 
L 859 1522 
Q 900 1178 1048 958 
Q 1197 738 1509 602 
Q 1822 466 2213 466 
Q 2559 466 2825 569 
Q 3091 672 3220 851 
Q 3350 1031 3350 1244 
Q 3350 1459 3225 1620 
Q 3100 1781 2813 1891 
Q 2628 1963 1997 2114 
Q 1366 2266 1113 2400 
Q 784 2572 623 2826 
Q 463 3081 463 3397 
Q 463 3744 659 4045 
Q 856 4347 1234 4503 
Q 1613 4659 2075 4659 
Q 2584 4659 2973 4495 
Q 3363 4331 3572 4012 
Q 3781 3694 3797 3291 
L 3216 3247 
Q 3169 3681 2898 3903 
Q 2628 4125 2100 4125 
Q 1550 4125 1298 3923 
Q 1047 3722 1047 3438 
Q 1047 3191 1225 3031 
Q 1400 2872 2139 2705 
Q 2878 2538 3153 2413 
Q 3553 2228 3743 1945 
Q 3934 1663 3934 1294 
Q 3934 928 3725 604 
Q 3516 281 3123 101 
Q 2731 -78 2241 -78 
Q 1619 -78 1198 103 
Q 778 284 539 648 
Q 300 1013 288 1472 
z
" transform="scale(0.015625)"/>
       <path id="ArialMT-68" d="M 422 0 
L 422 4581 
L 984 4581 
L 984 2938 
Q 1378 3394 1978 3394 
Q 2347 3394 2619 3248 
Q 2891 3103 3008 2847 
Q 3125 2591 3125 2103 
L 3125 0 
L 2563 0 
L 2563 2103 
Q 2563 2525 2380 2717 
Q 2197 2909 1863 2909 
Q 1613 2909 1392 2779 
Q 1172 2650 1078 2428 
Q 984 2206 984 1816 
L 984 0 
L 422 0 
z
" transform="scale(0.015625)"/>
       <path id="ArialMT-69" d="M 425 3934 
L 425 4581 
L 988 4581 
L 988 3934 
L 425 3934 
z
M 425 0 
L 425 3319 
L 988 3319 
L 988 0 
L 425 0 
z
" transform="scale(0.015625)"/>
       <path id="ArialMT-66" d="M 556 0 
L 556 2881 
L 59 2881 
L 59 3319 
L 556 3319 
L 556 3672 
Q 556 4006 616 4169 
Q 697 4388 901 4523 
Q 1106 4659 1475 4659 
Q 1713 4659 2000 4603 
L 1916 4113 
Q 1741 4144 1584 4144 
Q 1328 4144 1222 4034 
Q 1116 3925 1116 3625 
L 1116 3319 
L 1763 3319 
L 1763 2881 
L 1116 2881 
L 1116 0 
L 556 0 
z
" transform="scale(0.015625)"/>
       <path id="ArialMT-74" d="M 1650 503 
L 1731 6 
Q 1494 -44 1306 -44 
Q 1000 -44 831 53 
Q 663 150 594 308 
Q 525 466 525 972 
L 525 2881 
L 113 2881 
L 113 3319 
L 525 3319 
L 525 4141 
L 1084 4478 
L 1084 3319 
L 1650 3319 
L 1650 2881 
L 1084 2881 
L 1084 941 
Q 1084 700 1114 631 
Q 1144 563 1211 522 
Q 1278 481 1403 481 
Q 1497 481 1650 503 
z
" transform="scale(0.015625)"/>
       <path id="ArialMT-28" d="M 1497 -1347 
Q 1031 -759 709 28 
Q 388 816 388 1659 
Q 388 2403 628 3084 
Q 909 3875 1497 4659 
L 1900 4659 
Q 1522 4009 1400 3731 
Q 1209 3300 1100 2831 
Q 966 2247 966 1656 
Q 966 153 1900 -1347 
L 1497 -1347 
z
" transform="scale(0.015625)"/>
       <path id="ArialMT-63" d="M 2588 1216 
L 3141 1144 
Q 3050 572 2676 248 
Q 2303 -75 1759 -75 
Q 1078 -75 664 370 
Q 250 816 250 1647 
Q 250 2184 428 2587 
Q 606 2991 970 3192 
Q 1334 3394 1763 3394 
Q 2303 3394 2647 3120 
Q 2991 2847 3088 2344 
L 2541 2259 
Q 2463 2594 2264 2762 
Q 2066 2931 1784 2931 
Q 1359 2931 1093 2626 
Q 828 2322 828 1663 
Q 828 994 1084 691 
Q 1341 388 1753 388 
Q 2084 388 2306 591 
Q 2528 794 2588 1216 
z
" transform="scale(0.015625)"/>
       <path id="DejaVuSans-2212" d="M 678 2272 
L 4684 2272 
L 4684 1741 
L 678 1741 
L 678 2272 
z
" transform="scale(0.015625)"/>
       <path id="DejaVuSans-31" d="M 794 531 
L 1825 531 
L 1825 4091 
L 703 3866 
L 703 4441 
L 1819 4666 
L 2450 4666 
L 2450 531 
L 3481 531 
L 3481 0 
L 794 0 
L 794 531 
z
" transform="scale(0.015625)"/>
       <path id="ArialMT-29" d="M 791 -1347 
L 388 -1347 
Q 1322 153 1322 1656 
Q 1322 2244 1188 2822 
Q 1081 3291 891 3722 
Q 769 4003 388 4659 
L 791 4659 
Q 1378 3875 1659 3084 
Q 1900 2403 1900 1659 
Q 1900 816 1576 28 
Q 1253 -759 791 -1347 
z
" transform="scale(0.015625)"/>
      </defs>
      <use xlink:href="#ArialMT-52" transform="translate(0 0.684375)"/>
      <use xlink:href="#ArialMT-61" transform="translate(72.216797 0.684375)"/>
      <use xlink:href="#ArialMT-6d" transform="translate(127.832031 0.684375)"/>
      <use xlink:href="#ArialMT-61" transform="translate(211.132812 0.684375)"/>
      <use xlink:href="#ArialMT-6e" transform="translate(266.748047 0.684375)"/>
      <use xlink:href="#ArialMT-20" transform="translate(322.363281 0.684375)"/>
      <use xlink:href="#ArialMT-53" transform="translate(350.146484 0.684375)"/>
      <use xlink:href="#ArialMT-68" transform="translate(416.845703 0.684375)"/>
      <use xlink:href="#ArialMT-69" transform="translate(472.460938 0.684375)"/>
      <use xlink:href="#ArialMT-66" transform="translate(494.677734 0.684375)"/>
      <use xlink:href="#ArialMT-74" transform="translate(522.460938 0.684375)"/>
      <use xlink:href="#ArialMT-20" transform="translate(550.244141 0.684375)"/>
      <use xlink:href="#ArialMT-28" transform="translate(578.027344 0.684375)"/>
      <use xlink:href="#ArialMT-63" transform="translate(611.328125 0.684375)"/>
      <use xlink:href="#ArialMT-6d" transform="translate(661.328125 0.684375)"/>
      <use xlink:href="#DejaVuSans-2212" transform="translate(745.585938 38.965625) scale(0.7)"/>
      <use xlink:href="#DejaVuSans-31" transform="translate(804.238281 38.965625) scale(0.7)"/>
      <use xlink:href="#ArialMT-29" transform="translate(851.508789 0.684375)"/>
     </g>
    </g>
   </g>
   <g id="matplotlib.axis_2">
    <g id="ytick_1">
     <g id="line2d_17">
      <path d="M 41.25125 273.407344 
L 590.26625 273.407344 
" clip-path="url(#p33a5baef7c)" style="fill: none; stroke: #cccccc; stroke-width: 0.8; stroke-linecap: round"/>
     </g>
     <g id="line2d_18"/>
     <g id="text_10">
      <!-- 0.0 -->
      <g style="fill: #262626" transform="translate(22.46125 277.344141) scale(0.11 -0.11)">
       <defs>
        <path id="ArialMT-2e" d="M 581 0 
L 581 641 
L 1222 641 
L 1222 0 
L 581 0 
z
" transform="scale(0.015625)"/>
       </defs>
       <use xlink:href="#ArialMT-30"/>
       <use xlink:href="#ArialMT-2e" transform="translate(55.615234 0)"/>
       <use xlink:href="#ArialMT-30" transform="translate(83.398438 0)"/>
      </g>
     </g>
    </g>
    <g id="ytick_2">
     <g id="line2d_19">
      <path d="M 41.25125 225.646629 
L 590.26625 225.646629 
" clip-path="url(#p33a5baef7c)" style="fill: none; stroke: #cccccc; stroke-width: 0.8; stroke-linecap: round"/>
     </g>
     <g id="line2d_20"/>
     <g id="text_11">
      <!-- 0.2 -->
      <g style="fill: #262626" transform="translate(22.46125 229.583426) scale(0.11 -0.11)">
       <use xlink:href="#ArialMT-30"/>
       <use xlink:href="#ArialMT-2e" transform="translate(55.615234 0)"/>
       <use xlink:href="#ArialMT-32" transform="translate(83.398438 0)"/>
      </g>
     </g>
    </g>
    <g id="ytick_3">
     <g id="line2d_21">
      <path d="M 41.25125 177.885915 
L 590.26625 177.885915 
" clip-path="url(#p33a5baef7c)" style="fill: none; stroke: #cccccc; stroke-width: 0.8; stroke-linecap: round"/>
     </g>
     <g id="line2d_22"/>
     <g id="text_12">
      <!-- 0.4 -->
      <g style="fill: #262626" transform="translate(22.46125 181.822712) scale(0.11 -0.11)">
       <use xlink:href="#ArialMT-30"/>
       <use xlink:href="#ArialMT-2e" transform="translate(55.615234 0)"/>
       <use xlink:href="#ArialMT-34" transform="translate(83.398438 0)"/>
      </g>
     </g>
    </g>
    <g id="ytick_4">
     <g id="line2d_23">
      <path d="M 41.25125 130.125201 
L 590.26625 130.125201 
" clip-path="url(#p33a5baef7c)" style="fill: none; stroke: #cccccc; stroke-width: 0.8; stroke-linecap: round"/>
     </g>
     <g id="line2d_24"/>
     <g id="text_13">
      <!-- 0.6 -->
      <g style="fill: #262626" transform="translate(22.46125 134.061998) scale(0.11 -0.11)">
       <use xlink:href="#ArialMT-30"/>
       <use xlink:href="#ArialMT-2e" transform="translate(55.615234 0)"/>
       <use xlink:href="#ArialMT-36" transform="translate(83.398438 0)"/>
      </g>
     </g>
    </g>
    <g id="ytick_5">
     <g id="line2d_25">
      <path d="M 41.25125 82.364487 
L 590.26625 82.364487 
" clip-path="url(#p33a5baef7c)" style="fill: none; stroke: #cccccc; stroke-width: 0.8; stroke-linecap: round"/>
     </g>
     <g id="line2d_26"/>
     <g id="text_14">
      <!-- 0.8 -->
      <g style="fill: #262626" transform="translate(22.46125 86.301283) scale(0.11 -0.11)">
       <use xlink:href="#ArialMT-30"/>
       <use xlink:href="#ArialMT-2e" transform="translate(55.615234 0)"/>
       <use xlink:href="#ArialMT-38" transform="translate(83.398438 0)"/>
      </g>
     </g>
    </g>
    <g id="ytick_6">
     <g id="line2d_27">
      <path d="M 41.25125 34.603772 
L 590.26625 34.603772 
" clip-path="url(#p33a5baef7c)" style="fill: none; stroke: #cccccc; stroke-width: 0.8; stroke-linecap: round"/>
     </g>
     <g id="line2d_28"/>
     <g id="text_15">
      <!-- 1.0 -->
      <g style="fill: #262626" transform="translate(22.46125 38.540569) scale(0.11 -0.11)">
       <use xlink:href="#ArialMT-31"/>
       <use xlink:href="#ArialMT-2e" transform="translate(55.615234 0)"/>
       <use xlink:href="#ArialMT-30" transform="translate(83.398438 0)"/>
      </g>
     </g>
    </g>
    <g id="text_16">
     <!-- Relative Intensity (a.u.) -->
     <g style="fill: #262626" transform="translate(15.935625 209.391094) rotate(-90) scale(0.12 -0.12)">
      <defs>
       <path id="ArialMT-65" d="M 2694 1069 
L 3275 997 
Q 3138 488 2766 206 
Q 2394 -75 1816 -75 
Q 1088 -75 661 373 
Q 234 822 234 1631 
Q 234 2469 665 2931 
Q 1097 3394 1784 3394 
Q 2450 3394 2872 2941 
Q 3294 2488 3294 1666 
Q 3294 1616 3291 1516 
L 816 1516 
Q 847 969 1125 678 
Q 1403 388 1819 388 
Q 2128 388 2347 550 
Q 2566 713 2694 1069 
z
M 847 1978 
L 2700 1978 
Q 2663 2397 2488 2606 
Q 2219 2931 1791 2931 
Q 1403 2931 1139 2672 
Q 875 2413 847 1978 
z
" transform="scale(0.015625)"/>
       <path id="ArialMT-6c" d="M 409 0 
L 409 4581 
L 972 4581 
L 972 0 
L 409 0 
z
" transform="scale(0.015625)"/>
       <path id="ArialMT-76" d="M 1344 0 
L 81 3319 
L 675 3319 
L 1388 1331 
Q 1503 1009 1600 663 
Q 1675 925 1809 1294 
L 2547 3319 
L 3125 3319 
L 1869 0 
L 1344 0 
z
" transform="scale(0.015625)"/>
       <path id="ArialMT-49" d="M 597 0 
L 597 4581 
L 1203 4581 
L 1203 0 
L 597 0 
z
" transform="scale(0.015625)"/>
       <path id="ArialMT-73" d="M 197 991 
L 753 1078 
Q 800 744 1014 566 
Q 1228 388 1613 388 
Q 2000 388 2187 545 
Q 2375 703 2375 916 
Q 2375 1106 2209 1216 
Q 2094 1291 1634 1406 
Q 1016 1563 777 1677 
Q 538 1791 414 1992 
Q 291 2194 291 2438 
Q 291 2659 392 2848 
Q 494 3038 669 3163 
Q 800 3259 1026 3326 
Q 1253 3394 1513 3394 
Q 1903 3394 2198 3281 
Q 2494 3169 2634 2976 
Q 2775 2784 2828 2463 
L 2278 2388 
Q 2241 2644 2061 2787 
Q 1881 2931 1553 2931 
Q 1166 2931 1000 2803 
Q 834 2675 834 2503 
Q 834 2394 903 2306 
Q 972 2216 1119 2156 
Q 1203 2125 1616 2013 
Q 2213 1853 2448 1751 
Q 2684 1650 2818 1456 
Q 2953 1263 2953 975 
Q 2953 694 2789 445 
Q 2625 197 2315 61 
Q 2006 -75 1616 -75 
Q 969 -75 630 194 
Q 291 463 197 991 
z
" transform="scale(0.015625)"/>
       <path id="ArialMT-79" d="M 397 -1278 
L 334 -750 
Q 519 -800 656 -800 
Q 844 -800 956 -737 
Q 1069 -675 1141 -563 
Q 1194 -478 1313 -144 
Q 1328 -97 1363 -6 
L 103 3319 
L 709 3319 
L 1400 1397 
Q 1534 1031 1641 628 
Q 1738 1016 1872 1384 
L 2581 3319 
L 3144 3319 
L 1881 -56 
Q 1678 -603 1566 -809 
Q 1416 -1088 1222 -1217 
Q 1028 -1347 759 -1347 
Q 597 -1347 397 -1278 
z
" transform="scale(0.015625)"/>
       <path id="ArialMT-75" d="M 2597 0 
L 2597 488 
Q 2209 -75 1544 -75 
Q 1250 -75 995 37 
Q 741 150 617 320 
Q 494 491 444 738 
Q 409 903 409 1263 
L 409 3319 
L 972 3319 
L 972 1478 
Q 972 1038 1006 884 
Q 1059 663 1231 536 
Q 1403 409 1656 409 
Q 1909 409 2131 539 
Q 2353 669 2445 892 
Q 2538 1116 2538 1541 
L 2538 3319 
L 3100 3319 
L 3100 0 
L 2597 0 
z
" transform="scale(0.015625)"/>
      </defs>
      <use xlink:href="#ArialMT-52"/>
      <use xlink:href="#ArialMT-65" transform="translate(72.216797 0)"/>
      <use xlink:href="#ArialMT-6c" transform="translate(127.832031 0)"/>
      <use xlink:href="#ArialMT-61" transform="translate(150.048828 0)"/>
      <use xlink:href="#ArialMT-74" transform="translate(205.664062 0)"/>
      <use xlink:href="#ArialMT-69" transform="translate(233.447266 0)"/>
      <use xlink:href="#ArialMT-76" transform="translate(255.664062 0)"/>
      <use xlink:href="#ArialMT-65" transform="translate(305.664062 0)"/>
      <use xlink:href="#ArialMT-20" transform="translate(361.279297 0)"/>
      <use xlink:href="#ArialMT-49" transform="translate(389.0625 0)"/>
      <use xlink:href="#ArialMT-6e" transform="translate(416.845703 0)"/>
      <use xlink:href="#ArialMT-74" transform="translate(472.460938 0)"/>
      <use xlink:href="#ArialMT-65" transform="translate(500.244141 0)"/>
      <use xlink:href="#ArialMT-6e" transform="translate(555.859375 0)"/>
      <use xlink:href="#ArialMT-73" transform="translate(611.474609 0)"/>
      <use xlink:href="#ArialMT-69" transform="translate(661.474609 0)"/>
      <use xlink:href="#ArialMT-74" transform="translate(683.691406 0)"/>
      <use xlink:href="#ArialMT-79" transform="translate(711.474609 0)"/>
      <use xlink:href="#ArialMT-20" transform="translate(761.474609 0)"/>
      <use xlink:href="#ArialMT-28" transform="translate(789.257812 0)"/>
      <use xlink:href="#ArialMT-61" transform="translate(822.558594 0)"/>
      <use xlink:href="#ArialMT-2e" transform="translate(878.173828 0)"/>
      <use xlink:href="#ArialMT-75" transform="translate(905.957031 0)"/>
      <use xlink:href="#ArialMT-2e" transform="translate(961.572266 0)"/>
      <use xlink:href="#ArialMT-29" transform="translate(989.355469 0)"/>
     </g>
    </g>
   </g>
   <g id="line2d_29">
    <path d="M 41.25125 237.895957 
L 41.643404 207.780684 
L 42.035557 187.648424 
L 42.427711 194.160384 
L 43.212018 249.22495 
L 43.604171 264.345994 
L 43.996325 267.397578 
L 44.388479 263.084649 
L 44.780632 256.461736 
L 45.172786 253.237025 
L 45.564939 256.396782 
L 46.349246 268.873051 
L 46.7414 271.004282 
L 47.133554 269.664949 
L 47.917861 261.767393 
L 48.310014 260.743516 
L 48.702168 263.651266 
L 49.094321 268.007961 
L 49.486475 270.819254 
L 49.878629 270.674666 
L 50.270782 267.183638 
L 51.055089 256.342387 
L 51.447243 256.455772 
L 52.23155 267.037262 
L 52.623704 268.96683 
L 53.015857 264.315617 
L 53.408011 251.332378 
L 53.800164 233.548401 
L 54.192318 222.331736 
L 54.584471 227.068989 
L 55.368779 256.558014 
L 55.760932 253.149178 
L 56.153086 219.661131 
L 56.937393 69.214627 
L 57.329546 34.603772 
L 57.7217 75.893232 
L 58.506007 224.59419 
L 58.898161 254.937133 
L 59.290314 256.917206 
L 60.074621 229.533593 
L 60.466775 226.622147 
L 60.858929 238.089004 
L 61.251082 254.472179 
L 61.643236 265.781763 
L 62.035389 269.50144 
L 62.427543 267.515527 
L 63.21185 258.55383 
L 63.604004 258.942962 
L 64.780464 271.318342 
L 65.172618 271.512671 
L 65.564771 269.596678 
L 65.956925 266.74915 
L 66.349079 265.047737 
L 66.741232 265.975591 
L 67.525539 271.205173 
L 67.917693 272.17279 
L 68.309846 271.372822 
L 69.094154 266.372017 
L 69.486307 265.338841 
L 69.878461 266.851854 
L 70.270614 269.554818 
L 70.662768 271.296512 
L 71.054921 270.505776 
L 71.447075 266.020217 
L 72.231382 250.784527 
L 72.623536 249.726158 
L 73.015689 255.871485 
L 73.407843 264.175869 
L 73.799996 269.703695 
L 74.19215 271.341236 
L 74.584304 270.061366 
L 75.368611 265.193361 
L 75.760764 265.561904 
L 76.545071 270.836882 
L 76.937225 272.358053 
L 77.329379 272.525133 
L 77.721532 271.700978 
L 78.113686 270.488256 
L 78.505839 269.813211 
L 78.897993 270.273691 
L 79.6823 272.52133 
L 80.074454 272.948747 
L 80.466607 272.717059 
L 81.250914 271.137527 
L 81.643068 270.854558 
L 82.035221 271.375358 
L 82.819529 272.891218 
L 83.211682 273.025964 
L 83.603836 272.645554 
L 84.388143 271.211537 
L 84.780296 271.153044 
L 85.956757 272.999631 
L 86.348911 272.943849 
L 86.741064 272.372274 
L 87.525371 270.872468 
L 87.917525 271.031875 
L 88.701832 272.62529 
L 89.093986 272.945433 
L 89.486139 272.605388 
L 90.6626 269.682996 
L 91.054754 270.220534 
L 91.839061 272.433134 
L 92.231214 272.490932 
L 92.623368 271.270463 
L 93.407675 266.230495 
L 93.799829 265.487107 
L 94.191982 267.205537 
L 94.584136 269.807474 
L 94.976289 270.987717 
L 95.368443 268.65068 
L 95.760596 260.83308 
L 96.544904 237.549529 
L 96.937057 237.298319 
L 98.113518 267.646923 
L 98.505671 268.011743 
L 98.897825 262.192285 
L 99.289979 253.149522 
L 99.682132 247.112869 
L 100.074286 249.245553 
L 100.858593 266.096283 
L 101.250746 270.597795 
L 101.6429 271.305163 
L 102.035054 269.610702 
L 102.427207 267.176464 
L 102.819361 266.028987 
L 103.211514 267.218745 
L 103.995821 271.756539 
L 104.387975 272.463257 
L 104.780129 271.817715 
L 105.564436 268.456572 
L 105.956589 268.050483 
L 106.348743 269.302384 
L 106.740896 271.141 
L 107.13305 272.288211 
L 107.525204 272.109152 
L 107.917357 270.378467 
L 108.701664 265.171845 
L 109.093818 265.270702 
L 109.878125 270.304689 
L 110.270279 270.907695 
L 110.662432 267.68443 
L 111.054586 259.393032 
L 111.446739 248.217354 
L 111.838893 241.306424 
L 112.231046 244.464416 
L 113.015354 264.288381 
L 113.407507 266.98649 
L 113.799661 260.396385 
L 114.583968 225.893339 
L 114.976121 218.15409 
L 115.368275 227.960612 
L 116.152582 262.302091 
L 116.544736 269.238071 
L 116.936889 269.7278 
L 117.721196 263.742989 
L 118.11335 263.15869 
L 118.505504 265.712684 
L 118.897657 269.299435 
L 119.289811 271.732725 
L 119.681964 272.447494 
L 120.074118 271.814998 
L 120.858425 269.383169 
L 121.250579 269.50999 
L 122.427039 272.842423 
L 122.819193 272.867945 
L 123.211346 272.308432 
L 123.6035 271.494852 
L 123.995654 271.019163 
L 124.387807 271.296077 
L 125.172114 272.796155 
L 125.564268 273.096875 
L 125.956421 272.95328 
L 126.740729 271.883565 
L 127.132882 271.669751 
L 127.525036 272.005056 
L 128.309343 273.047379 
L 128.701496 273.159035 
L 129.09365 272.928409 
L 129.877957 271.995855 
L 130.270111 271.93809 
L 131.446571 273.142844 
L 131.838725 273.135597 
L 132.230879 272.812116 
L 133.015186 271.913119 
L 133.407339 271.987657 
L 134.191646 272.934173 
L 134.5838 273.155811 
L 134.975954 273.026471 
L 136.152414 271.610206 
L 136.544568 271.848639 
L 137.328875 272.947884 
L 137.721029 273.076881 
L 138.113182 272.735612 
L 138.897489 271.125898 
L 139.289643 270.855036 
L 139.681796 271.385631 
L 140.07395 272.255831 
L 140.466104 272.833267 
L 140.858257 272.762505 
L 141.250411 271.881318 
L 142.034718 268.980247 
L 142.426871 268.886323 
L 143.603332 272.260755 
L 143.995486 271.221682 
L 144.387639 268.024137 
L 144.779793 263.423895 
L 145.171946 260.256011 
L 145.5641 261.14471 
L 146.348407 268.994588 
L 146.740561 269.032426 
L 147.132714 262.452757 
L 148.309175 220.952024 
L 148.701329 228.782801 
L 149.485636 260.632628 
L 149.877789 263.945802 
L 150.269943 253.949341 
L 151.05425 209.606347 
L 151.446404 203.407601 
L 151.838557 219.084323 
L 152.622864 261.422484 
L 153.015018 268.539437 
L 153.407171 267.987756 
L 154.191479 259.77267 
L 154.583632 259.760853 
L 155.760093 271.468749 
L 156.152246 272.153119 
L 156.5444 271.19793 
L 156.936554 269.498504 
L 157.328707 268.36714 
L 157.720861 268.8016 
L 158.505168 272.009643 
L 158.897321 272.788529 
L 159.289475 272.708122 
L 160.465936 270.628643 
L 160.858089 271.089471 
L 161.642396 272.795733 
L 162.03455 273.058987 
L 162.426704 272.823225 
L 163.211011 271.607867 
L 163.603164 271.47111 
L 163.995318 271.932702 
L 164.387471 272.604666 
L 164.779625 273.051116 
L 165.171779 273.111917 
L 165.563932 272.796721 
L 166.348239 271.783304 
L 166.740393 271.81228 
L 167.916854 273.134827 
L 168.309007 273.061061 
L 168.701161 272.639012 
L 169.093314 272.043525 
L 169.485468 271.679813 
L 169.877621 271.858556 
L 170.661929 272.933092 
L 171.054082 273.108165 
L 171.446236 272.853169 
L 172.230543 271.427799 
L 172.622696 271.11807 
L 173.01485 271.533127 
L 173.799157 272.864478 
L 174.191311 272.856835 
L 174.583464 272.11988 
L 175.367771 269.43205 
L 175.759925 269.21036 
L 176.152079 270.261387 
L 176.544232 271.643774 
L 176.936386 272.186812 
L 177.328539 270.918395 
L 177.720693 267.039255 
L 178.505 256.773879 
L 178.897154 257.382076 
L 179.681461 267.909589 
L 180.073614 270.415151 
L 180.465768 268.749198 
L 180.857921 262.824142 
L 181.250075 254.921441 
L 181.642229 250.436727 
L 182.034382 253.214507 
L 182.818689 267.805402 
L 183.210843 271.303712 
L 183.602996 271.781507 
L 183.99515 270.514723 
L 184.387304 268.854017 
L 184.779457 268.248482 
L 185.171611 269.268045 
L 185.955918 272.396672 
L 186.348071 272.85349 
L 186.740225 272.513825 
L 187.524532 270.860243 
L 187.916686 270.770971 
L 189.093146 272.957174 
L 189.4853 272.993203 
L 189.877454 272.536241 
L 190.661761 271.251729 
L 191.053914 271.37065 
L 191.838221 272.738512 
L 192.230375 273.064669 
L 192.622529 272.91509 
L 193.798989 271.14349 
L 194.191143 271.454818 
L 194.97545 272.844796 
L 195.367604 273.029943 
L 195.759757 272.677933 
L 196.544064 270.970685 
L 196.936218 270.696587 
L 197.328371 271.272572 
L 197.720525 272.202813 
L 198.112679 272.836403 
L 198.504832 272.854157 
L 198.896986 272.165943 
L 199.681293 269.861465 
L 200.073446 269.806746 
L 201.249907 272.690176 
L 201.642061 272.375608 
L 202.034214 270.995301 
L 202.426368 268.974445 
L 202.818521 267.60167 
L 203.210675 268.025951 
L 203.994982 271.626126 
L 204.387136 272.162582 
L 204.779289 270.882499 
L 205.95575 261.793663 
L 206.347904 263.574961 
L 207.132211 270.211963 
L 207.524364 269.552045 
L 207.916518 263.64126 
L 208.700825 241.038171 
L 209.092979 238.080203 
L 209.485132 246.076082 
L 209.877286 257.924458 
L 210.269439 264.222255 
L 210.661593 258.108895 
L 211.053746 234.42332 
L 211.838054 164.898779 
L 212.230207 165.333007 
L 213.406668 251.902157 
L 213.798821 240.401871 
L 214.190975 196.521221 
L 214.583129 134.652269 
L 214.975282 95.164748 
L 215.367436 111.418915 
L 216.151743 225.38443 
L 216.543896 254.799876 
L 216.93605 258.638747 
L 217.328204 246.308858 
L 217.720357 229.317658 
L 218.112511 221.765743 
L 218.504664 230.577675 
L 219.288971 262.649963 
L 219.681125 268.879563 
L 220.073279 268.310322 
L 220.857586 258.934231 
L 221.249739 257.925953 
L 221.641893 261.685053 
L 222.034046 267.084698 
L 222.4262 270.741078 
L 222.818354 271.624429 
L 223.210507 270.115478 
L 223.994814 264.847666 
L 224.386968 265.047227 
L 225.171275 270.496298 
L 225.563429 271.970727 
L 225.955582 271.518585 
L 226.347736 269.203998 
L 226.739889 265.982494 
L 227.132043 264.053596 
L 227.524196 265.063016 
L 228.308504 270.577862 
L 228.700657 270.423831 
L 229.092811 265.936599 
L 229.877118 246.060522 
L 230.269271 241.953179 
L 230.661425 247.818255 
L 231.445732 267.150273 
L 231.837886 270.540527 
L 232.230039 269.655074 
L 233.014346 262.798275 
L 233.4065 262.275405 
L 233.798654 265.140193 
L 234.190807 269.033078 
L 234.582961 271.593217 
L 234.975114 272.200542 
L 235.367268 271.203549 
L 236.151575 267.88984 
L 236.543729 268.121883 
L 237.328036 271.625964 
L 237.720189 272.495729 
L 238.112343 272.111009 
L 238.504496 270.522367 
L 238.89665 268.401705 
L 239.288804 267.221903 
L 239.680957 267.99601 
L 240.465264 271.677705 
L 240.857418 271.742563 
L 241.249571 269.437057 
L 242.033879 259.467721 
L 242.426032 257.681098 
L 242.818186 260.843696 
L 243.210339 266.170356 
L 243.602493 269.647407 
L 243.994646 268.750478 
L 244.3868 262.005977 
L 245.171107 239.699738 
L 245.563261 238.705404 
L 245.955414 248.136648 
L 246.347568 260.338833 
L 246.739721 268.331994 
L 247.131875 270.904275 
L 247.524029 269.77158 
L 248.308336 264.881 
L 248.700489 265.397981 
L 249.484796 270.840839 
L 249.87695 272.25082 
L 250.269104 272.093115 
L 250.661257 270.660777 
L 251.053411 268.749382 
L 251.445564 267.763644 
L 251.837718 268.566856 
L 252.622025 272.032855 
L 253.014179 272.50822 
L 253.406332 271.704639 
L 254.190639 267.792537 
L 254.582793 267.195433 
L 254.974946 268.541326 
L 255.3671 270.668219 
L 255.759254 272.067264 
L 256.151407 271.952098 
L 256.543561 270.025218 
L 257.327868 263.816944 
L 257.720021 263.721555 
L 258.504329 269.702794 
L 258.896482 271.045633 
L 259.288636 268.980879 
L 259.680789 262.634377 
L 260.072943 253.64983 
L 260.465096 247.667057 
L 260.85725 249.663004 
L 261.641557 264.492348 
L 262.033711 262.54765 
L 262.425864 244.147287 
L 263.602325 136.76184 
L 263.994479 158.487991 
L 264.778786 243.807468 
L 265.170939 261.072522 
L 265.563093 259.964454 
L 266.3474 234.580049 
L 266.739554 231.297524 
L 267.131707 241.076319 
L 267.523861 255.71695 
L 267.916014 265.795351 
L 268.308168 268.076289 
L 268.700321 263.236559 
L 269.484629 246.159307 
L 269.876782 246.421634 
L 270.661089 263.653934 
L 271.053243 268.097492 
L 271.445396 265.24297 
L 271.83755 254.468737 
L 272.229704 239.414756 
L 272.621857 229.982064 
L 273.014011 234.158935 
L 273.798318 261.811149 
L 274.190471 268.556332 
L 274.582625 268.531594 
L 275.759086 255.19507 
L 276.151239 258.372142 
L 276.935546 268.924206 
L 277.3277 268.64365 
L 277.719854 262.019476 
L 278.504161 237.609743 
L 278.896314 235.306193 
L 279.288468 244.704354 
L 279.680621 257.919606 
L 280.072775 266.411862 
L 280.464929 267.010803 
L 280.857082 259.744655 
L 281.641389 237.712122 
L 282.033543 238.730793 
L 282.81785 261.174497 
L 283.210004 266.079416 
L 283.602157 260.540861 
L 283.994311 243.402101 
L 284.386464 220.488431 
L 284.778618 207.092922 
L 285.170771 214.599249 
L 285.955079 255.196988 
L 286.347232 259.671665 
L 286.739386 244.386006 
L 287.523693 170.169501 
L 287.915846 155.326783 
L 288.308 177.841374 
L 289.092307 248.456641 
L 289.484461 255.158242 
L 289.876614 236.902574 
L 290.660921 164.80838 
L 291.053075 160.0484 
L 291.445229 189.632875 
L 291.837382 228.928925 
L 292.229536 252.939548 
L 292.621689 252.626241 
L 293.013843 227.971298 
L 293.79815 158.762488 
L 294.190304 164.194624 
L 294.974611 237.929785 
L 295.366764 259.450828 
L 295.758918 263.10306 
L 296.151071 254.508089 
L 296.543225 241.313959 
L 296.935379 234.013969 
L 297.327532 239.151202 
L 298.111839 263.428232 
L 298.503993 266.871315 
L 298.896146 260.978999 
L 299.680454 231.324356 
L 300.072607 226.20193 
L 300.464761 235.942671 
L 301.249068 264.280031 
L 301.641221 267.816513 
L 302.033375 263.521821 
L 302.817682 245.464723 
L 303.209836 244.795271 
L 303.994143 262.021949 
L 304.386296 265.420522 
L 304.77845 256.916507 
L 305.170604 232.245157 
L 305.562757 196.798838 
L 305.954911 172.20921 
L 306.347064 178.851833 
L 307.131371 243.863871 
L 307.523525 262.023774 
L 307.915679 265.208478 
L 308.307832 258.693119 
L 308.699986 248.906358 
L 309.092139 243.912207 
L 309.484293 248.25608 
L 310.2686 266.619057 
L 310.660754 270.027351 
L 311.052907 268.536094 
L 311.837214 258.139996 
L 312.229368 256.612399 
L 312.621521 260.317996 
L 313.013675 266.030489 
L 313.405829 269.541942 
L 313.797982 268.345432 
L 314.190136 261.065923 
L 314.974443 238.633117 
L 315.366596 238.480602 
L 316.150904 260.18721 
L 316.543057 264.985106 
L 316.935211 257.625423 
L 317.327364 235.18107 
L 317.719518 203.684833 
L 318.111671 183.080658 
L 318.503825 190.633066 
L 319.288132 248.588526 
L 319.680286 264.286107 
L 320.072439 267.704131 
L 320.464593 263.936334 
L 320.856746 258.027446 
L 321.2489 255.255642 
L 321.641054 258.227237 
L 322.425361 269.488213 
L 322.817514 271.577955 
L 323.209668 270.977664 
L 323.993975 266.163568 
L 324.386129 265.592934 
L 324.778282 267.4405 
L 325.170436 270.159001 
L 325.562589 272.008797 
L 325.954743 272.403262 
L 326.346896 271.469911 
L 327.131204 268.264589 
L 327.523357 268.342595 
L 328.699818 272.576195 
L 329.091971 272.444384 
L 329.484125 271.312001 
L 329.876279 269.684341 
L 330.268432 268.678969 
L 330.660586 269.156632 
L 331.444893 272.109274 
L 331.837046 272.62957 
L 332.2292 272.034145 
L 333.013507 268.510072 
L 333.405661 267.728228 
L 333.797814 268.744273 
L 334.189968 270.658057 
L 334.582121 272.010793 
L 334.974275 271.863003 
L 335.366429 269.67957 
L 336.150736 261.801904 
L 336.542889 261.123055 
L 336.935043 264.201308 
L 337.327196 268.444185 
L 337.71935 271.053079 
L 338.111504 270.864467 
L 338.503657 267.686242 
L 339.287964 258.545712 
L 339.680118 259.048123 
L 340.464425 268.307298 
L 340.856579 269.970214 
L 341.248732 266.599439 
L 341.640886 257.340763 
L 342.033039 245.192075 
L 342.425193 238.24302 
L 342.817346 242.40501 
L 343.601654 264.499837 
L 343.993807 268.967181 
L 344.385961 267.074287 
L 345.170268 252.356166 
L 345.562421 249.466944 
L 345.954575 254.113557 
L 346.346729 262.129745 
L 346.738882 267.090491 
L 347.131036 264.215303 
L 347.523189 249.843331 
L 348.307496 202.341238 
L 348.69965 199.626648 
L 349.091804 219.164791 
L 349.483957 244.629152 
L 349.876111 259.508406 
L 350.268264 257.157404 
L 350.660418 236.548259 
L 351.444725 181.079821 
L 351.836879 185.933639 
L 352.621186 244.888836 
L 353.013339 260.368953 
L 353.405493 258.263383 
L 353.797646 241.391042 
L 354.1898 218.64258 
L 354.581954 206.498251 
L 354.974107 215.54954 
L 355.758414 257.194435 
L 356.150568 264.593179 
L 356.542721 259.325611 
L 357.327029 227.363713 
L 357.719182 222.050581 
L 358.111336 232.874317 
L 358.895643 263.674993 
L 359.287796 267.595752 
L 359.67995 263.342438 
L 360.464257 245.326018 
L 360.856411 244.818079 
L 362.032871 268.016192 
L 362.425025 266.428023 
L 362.817179 257.415513 
L 363.209332 243.988442 
L 363.601486 234.775619 
L 363.993639 237.496657 
L 364.777946 261.241836 
L 365.1701 264.004694 
L 365.562254 252.887154 
L 366.738714 177.404847 
L 367.130868 191.994017 
L 367.915175 252.021976 
L 368.307329 264.167072 
L 368.699482 262.691666 
L 369.483789 241.546181 
L 369.875943 238.562419 
L 370.268096 246.43761 
L 371.052404 267.289831 
L 371.444557 270.206962 
L 371.836711 268.475803 
L 372.621018 260.345267 
L 373.013171 260.365597 
L 374.189632 271.167414 
L 374.581786 270.754069 
L 374.973939 267.541392 
L 375.366093 262.837464 
L 375.758246 259.795186 
L 376.1504 260.994117 
L 376.934707 269.152698 
L 377.326861 269.351049 
L 377.719014 263.550015 
L 378.503321 235.883855 
L 378.895475 229.28085 
L 379.287629 236.7011 
L 380.071936 263.876086 
L 380.464089 268.370986 
L 380.856243 265.57879 
L 381.64055 249.680177 
L 382.032704 247.948701 
L 382.424857 254.06928 
L 382.817011 262.891364 
L 383.209164 268.649057 
L 383.601318 269.122049 
L 383.993471 264.259893 
L 384.777779 249.128543 
L 385.169932 249.621703 
L 385.954239 264.659452 
L 386.346393 267.155591 
L 386.738546 260.355478 
L 387.1307 242.022167 
L 387.522854 217.501189 
L 387.915007 202.757853 
L 388.307161 210.249841 
L 389.091468 254.7278 
L 389.483621 263.870565 
L 389.875775 259.420185 
L 390.660082 225.485949 
L 391.052236 218.152167 
L 391.444389 228.311635 
L 392.228696 261.254883 
L 392.62085 263.811964 
L 393.013004 253.316206 
L 393.797311 212.385757 
L 394.189464 209.178256 
L 394.581618 225.547947 
L 394.973771 247.81329 
L 395.365925 261.681891 
L 395.758079 261.867171 
L 396.150232 248.289218 
L 396.934539 209.042162 
L 397.326693 211.580998 
L 398.503154 265.629667 
L 398.895307 268.509103 
L 399.287461 265.061845 
L 399.679614 259.232101 
L 400.071768 255.872644 
L 400.463921 258.035131 
L 401.248229 269.013113 
L 401.640382 271.122615 
L 402.032536 269.953706 
L 402.816843 261.926809 
L 403.208996 260.423313 
L 403.60115 263.009106 
L 403.993304 267.427989 
L 404.385457 270.44615 
L 404.777611 270.217735 
L 405.169764 265.901174 
L 405.954071 251.177333 
L 406.346225 250.456335 
L 407.522686 269.062516 
L 407.914839 268.114232 
L 408.306993 261.324757 
L 408.699146 250.901481 
L 409.0913 243.443641 
L 409.483454 245.161629 
L 410.267761 263.291686 
L 410.659914 264.340519 
L 411.052068 251.67843 
L 412.228529 166.465491 
L 412.620682 181.447768 
L 413.404989 248.390377 
L 413.797143 261.714503 
L 414.189296 258.0632 
L 414.973604 225.416432 
L 415.365757 220.177394 
L 415.757911 231.562889 
L 416.150064 249.524395 
L 416.542218 260.210094 
L 416.934371 254.241639 
L 417.326525 225.243036 
L 418.110832 135.162564 
L 418.502986 133.425766 
L 419.679446 251.988985 
L 420.0716 256.780723 
L 420.463754 241.147142 
L 420.855907 215.205822 
L 421.248061 197.477903 
L 421.640214 203.247885 
L 422.424521 251.749424 
L 422.816675 264.193269 
L 423.208829 264.065436 
L 423.600982 254.677281 
L 423.993136 242.229803 
L 424.385289 236.259641 
L 424.777443 242.064217 
L 425.56175 264.327658 
L 425.953904 265.810201 
L 426.346057 256.753574 
L 427.130364 219.273111 
L 427.522518 214.502763 
L 427.914671 228.065951 
L 428.306825 248.620785 
L 428.698979 263.222599 
L 429.091132 268.062097 
L 429.483286 265.147899 
L 430.267593 251.746467 
L 430.659746 251.90046 
L 431.836207 270.103194 
L 432.228361 270.319899 
L 432.620514 267.054042 
L 433.012668 262.085557 
L 433.404821 258.913427 
L 433.796975 260.268112 
L 434.581282 269.261175 
L 434.973436 270.630206 
L 435.365589 267.985852 
L 436.149896 253.497126 
L 436.54205 250.125162 
L 436.934204 254.141754 
L 437.718511 268.143115 
L 438.110664 269.448945 
L 438.502818 265.285852 
L 439.287125 248.141749 
L 439.679279 246.444408 
L 440.071432 253.05216 
L 440.463586 262.496824 
L 440.855739 269.027231 
L 441.247893 271.214106 
L 441.640046 270.17117 
L 442.424354 265.274682 
L 442.816507 265.487547 
L 443.600814 270.681838 
L 443.992968 272.143236 
L 444.385121 271.942095 
L 444.777275 270.245226 
L 445.169429 267.849579 
L 445.561582 266.426351 
L 445.953736 267.199106 
L 446.738043 271.446328 
L 447.130196 271.816594 
L 447.52235 269.892108 
L 448.306657 260.772455 
L 448.698811 258.91325 
L 449.090964 261.617974 
L 449.483118 266.369635 
L 449.875271 268.919447 
L 450.267425 265.279798 
L 450.659579 251.505629 
L 451.443886 206.015039 
L 451.836039 202.861221 
L 452.228193 221.173405 
L 452.620346 245.950572 
L 453.0125 262.611819 
L 453.404654 268.160743 
L 453.796807 265.893997 
L 454.581114 255.272867 
L 454.973268 256.088234 
L 455.757575 267.758513 
L 456.149729 271.217462 
L 456.541882 271.90092 
L 456.934036 270.728092 
L 457.326189 268.859628 
L 457.718343 267.811057 
L 458.110496 268.528571 
L 458.894804 272.048326 
L 459.286957 272.785615 
L 459.679111 272.626307 
L 460.463418 270.924853 
L 460.855571 270.615867 
L 461.247725 271.185795 
L 462.032032 272.863785 
L 462.424186 273.075832 
L 462.816339 272.822692 
L 463.600646 271.746721 
L 463.9928 271.702662 
L 465.169261 273.127444 
L 465.561414 273.163347 
L 465.953568 272.906849 
L 466.737875 272.191219 
L 467.130029 272.26788 
L 467.914336 273.042414 
L 468.306489 273.235348 
L 468.698643 273.192254 
L 469.875104 272.468957 
L 470.267257 272.604836 
L 471.051564 273.186959 
L 471.443718 273.287142 
L 471.835871 273.214423 
L 472.620179 272.788884 
L 473.012332 272.725108 
L 474.580946 273.310287 
L 475.365254 273.031067 
L 475.757407 272.872632 
L 476.149561 272.868944 
L 477.326021 273.318884 
L 478.110329 273.215562 
L 478.894636 272.956621 
L 479.678943 273.137676 
L 480.46325 273.348952 
L 481.247557 273.260862 
L 482.031864 273.11896 
L 483.992632 273.336352 
L 485.169093 273.166215 
L 487.129861 273.33708 
L 488.306321 273.221278 
L 489.874936 273.377629 
L 491.44355 273.27967 
L 493.012164 273.376887 
L 494.580779 273.305448 
L 496.149393 273.377364 
L 497.718007 273.334876 
L 499.286621 273.379914 
L 500.855236 273.360224 
L 502.42385 273.3779 
L 503.992464 273.371645 
L 505.953232 273.356979 
L 510.266921 273.387728 
L 514.972764 273.407322 
L 590.26625 273.407344 
L 590.26625 273.407344 
" clip-path="url(#p33a5baef7c)" style="fill: none; stroke: #000000; stroke-width: 1.6; stroke-linecap: round"/>
   </g>
   <g id="patch_3">
    <path d="M 41.25125 273.407344 
L 41.25125 22.663594 
" style="fill: none; stroke: #cccccc; stroke-linejoin: miter; stroke-linecap: square"/>
   </g>
   <g id="patch_4">
    <path d="M 590.26625 273.407344 
L 590.26625 22.663594 
" style="fill: none; stroke: #cccccc; stroke-linejoin: miter; stroke-linecap: square"/>
   </g>
   <g id="patch_5">
    <path d="M 41.25125 273.407344 
L 590.26625 273.407344 
" style="fill: none; stroke: #cccccc; stroke-linejoin: miter; stroke-linecap: square"/>
   </g>
   <g id="patch_6">
    <path d="M 41.25125 22.663594 
L 590.26625 22.663594 
" style="fill: none; stroke: #cccccc; stroke-linejoin: miter; stroke-linecap: square"/>
   </g>
   <g id="text_17">
    <!-- Scaled Raman Peaks - L-Glycero-D-Manno-Heptose -->
    <g style="fill: #262626" transform="translate(164.039609 16.663594) scale(0.13 -0.13)">
     <defs>
      <path id="ArialMT-64" d="M 2575 0 
L 2575 419 
Q 2259 -75 1647 -75 
Q 1250 -75 917 144 
Q 584 363 401 755 
Q 219 1147 219 1656 
Q 219 2153 384 2558 
Q 550 2963 881 3178 
Q 1213 3394 1622 3394 
Q 1922 3394 2156 3267 
Q 2391 3141 2538 2938 
L 2538 4581 
L 3097 4581 
L 3097 0 
L 2575 0 
z
M 797 1656 
Q 797 1019 1065 703 
Q 1334 388 1700 388 
Q 2069 388 2326 689 
Q 2584 991 2584 1609 
Q 2584 2291 2321 2609 
Q 2059 2928 1675 2928 
Q 1300 2928 1048 2622 
Q 797 2316 797 1656 
z
" transform="scale(0.015625)"/>
      <path id="ArialMT-50" d="M 494 0 
L 494 4581 
L 2222 4581 
Q 2678 4581 2919 4538 
Q 3256 4481 3484 4323 
Q 3713 4166 3852 3881 
Q 3991 3597 3991 3256 
Q 3991 2672 3619 2267 
Q 3247 1863 2275 1863 
L 1100 1863 
L 1100 0 
L 494 0 
z
M 1100 2403 
L 2284 2403 
Q 2872 2403 3119 2622 
Q 3366 2841 3366 3238 
Q 3366 3525 3220 3729 
Q 3075 3934 2838 4000 
Q 2684 4041 2272 4041 
L 1100 4041 
L 1100 2403 
z
" transform="scale(0.015625)"/>
      <path id="ArialMT-6b" d="M 425 0 
L 425 4581 
L 988 4581 
L 988 1969 
L 2319 3319 
L 3047 3319 
L 1778 2088 
L 3175 0 
L 2481 0 
L 1384 1697 
L 988 1316 
L 988 0 
L 425 0 
z
" transform="scale(0.015625)"/>
      <path id="ArialMT-2d" d="M 203 1375 
L 203 1941 
L 1931 1941 
L 1931 1375 
L 203 1375 
z
" transform="scale(0.015625)"/>
      <path id="ArialMT-4c" d="M 469 0 
L 469 4581 
L 1075 4581 
L 1075 541 
L 3331 541 
L 3331 0 
L 469 0 
z
" transform="scale(0.015625)"/>
      <path id="ArialMT-47" d="M 2638 1797 
L 2638 2334 
L 4578 2338 
L 4578 638 
Q 4131 281 3656 101 
Q 3181 -78 2681 -78 
Q 2006 -78 1454 211 
Q 903 500 622 1047 
Q 341 1594 341 2269 
Q 341 2938 620 3517 
Q 900 4097 1425 4378 
Q 1950 4659 2634 4659 
Q 3131 4659 3532 4498 
Q 3934 4338 4162 4050 
Q 4391 3763 4509 3300 
L 3963 3150 
Q 3859 3500 3706 3700 
Q 3553 3900 3268 4020 
Q 2984 4141 2638 4141 
Q 2222 4141 1919 4014 
Q 1616 3888 1430 3681 
Q 1244 3475 1141 3228 
Q 966 2803 966 2306 
Q 966 1694 1177 1281 
Q 1388 869 1791 669 
Q 2194 469 2647 469 
Q 3041 469 3416 620 
Q 3791 772 3984 944 
L 3984 1797 
L 2638 1797 
z
" transform="scale(0.015625)"/>
      <path id="ArialMT-72" d="M 416 0 
L 416 3319 
L 922 3319 
L 922 2816 
Q 1116 3169 1280 3281 
Q 1444 3394 1641 3394 
Q 1925 3394 2219 3213 
L 2025 2691 
Q 1819 2813 1613 2813 
Q 1428 2813 1281 2702 
Q 1134 2591 1072 2394 
Q 978 2094 978 1738 
L 978 0 
L 416 0 
z
" transform="scale(0.015625)"/>
      <path id="ArialMT-6f" d="M 213 1659 
Q 213 2581 725 3025 
Q 1153 3394 1769 3394 
Q 2453 3394 2887 2945 
Q 3322 2497 3322 1706 
Q 3322 1066 3130 698 
Q 2938 331 2570 128 
Q 2203 -75 1769 -75 
Q 1072 -75 642 372 
Q 213 819 213 1659 
z
M 791 1659 
Q 791 1022 1069 705 
Q 1347 388 1769 388 
Q 2188 388 2466 706 
Q 2744 1025 2744 1678 
Q 2744 2294 2464 2611 
Q 2184 2928 1769 2928 
Q 1347 2928 1069 2612 
Q 791 2297 791 1659 
z
" transform="scale(0.015625)"/>
      <path id="ArialMT-44" d="M 494 0 
L 494 4581 
L 2072 4581 
Q 2606 4581 2888 4516 
Q 3281 4425 3559 4188 
Q 3922 3881 4101 3404 
Q 4281 2928 4281 2316 
Q 4281 1794 4159 1391 
Q 4038 988 3847 723 
Q 3656 459 3429 307 
Q 3203 156 2883 78 
Q 2563 0 2147 0 
L 494 0 
z
M 1100 541 
L 2078 541 
Q 2531 541 2789 625 
Q 3047 709 3200 863 
Q 3416 1078 3536 1442 
Q 3656 1806 3656 2325 
Q 3656 3044 3420 3430 
Q 3184 3816 2847 3947 
Q 2603 4041 2063 4041 
L 1100 4041 
L 1100 541 
z
" transform="scale(0.015625)"/>
      <path id="ArialMT-4d" d="M 475 0 
L 475 4581 
L 1388 4581 
L 2472 1338 
Q 2622 884 2691 659 
Q 2769 909 2934 1394 
L 4031 4581 
L 4847 4581 
L 4847 0 
L 4263 0 
L 4263 3834 
L 2931 0 
L 2384 0 
L 1059 3900 
L 1059 0 
L 475 0 
z
" transform="scale(0.015625)"/>
      <path id="ArialMT-48" d="M 513 0 
L 513 4581 
L 1119 4581 
L 1119 2700 
L 3500 2700 
L 3500 4581 
L 4106 4581 
L 4106 0 
L 3500 0 
L 3500 2159 
L 1119 2159 
L 1119 0 
L 513 0 
z
" transform="scale(0.015625)"/>
      <path id="ArialMT-70" d="M 422 -1272 
L 422 3319 
L 934 3319 
L 934 2888 
Q 1116 3141 1344 3267 
Q 1572 3394 1897 3394 
Q 2322 3394 2647 3175 
Q 2972 2956 3137 2557 
Q 3303 2159 3303 1684 
Q 3303 1175 3120 767 
Q 2938 359 2589 142 
Q 2241 -75 1856 -75 
Q 1575 -75 1351 44 
Q 1128 163 984 344 
L 984 -1272 
L 422 -1272 
z
M 931 1641 
Q 931 1000 1190 694 
Q 1450 388 1819 388 
Q 2194 388 2461 705 
Q 2728 1022 2728 1688 
Q 2728 2322 2467 2637 
Q 2206 2953 1844 2953 
Q 1484 2953 1207 2617 
Q 931 2281 931 1641 
z
" transform="scale(0.015625)"/>
     </defs>
     <use xlink:href="#ArialMT-53"/>
     <use xlink:href="#ArialMT-63" transform="translate(66.699219 0)"/>
     <use xlink:href="#ArialMT-61" transform="translate(116.699219 0)"/>
     <use xlink:href="#ArialMT-6c" transform="translate(172.314453 0)"/>
     <use xlink:href="#ArialMT-65" transform="translate(194.53125 0)"/>
     <use xlink:href="#ArialMT-64" transform="translate(250.146484 0)"/>
     <use xlink:href="#ArialMT-20" transform="translate(305.761719 0)"/>
     <use xlink:href="#ArialMT-52" transform="translate(333.544922 0)"/>
     <use xlink:href="#ArialMT-61" transform="translate(405.761719 0)"/>
     <use xlink:href="#ArialMT-6d" transform="translate(461.376953 0)"/>
     <use xlink:href="#ArialMT-61" transform="translate(544.677734 0)"/>
     <use xlink:href="#ArialMT-6e" transform="translate(600.292969 0)"/>
     <use xlink:href="#ArialMT-20" transform="translate(655.908203 0)"/>
     <use xlink:href="#ArialMT-50" transform="translate(683.691406 0)"/>
     <use xlink:href="#ArialMT-65" transform="translate(750.390625 0)"/>
     <use xlink:href="#ArialMT-61" transform="translate(806.005859 0)"/>
     <use xlink:href="#ArialMT-6b" transform="translate(861.621094 0)"/>
     <use xlink:href="#ArialMT-73" transform="translate(911.621094 0)"/>
     <use xlink:href="#ArialMT-20" transform="translate(961.621094 0)"/>
     <use xlink:href="#ArialMT-2d" transform="translate(989.404297 0)"/>
     <use xlink:href="#ArialMT-20" transform="translate(1022.705078 0)"/>
     <use xlink:href="#ArialMT-4c" transform="translate(1050.488281 0)"/>
     <use xlink:href="#ArialMT-2d" transform="translate(1106.103516 0)"/>
     <use xlink:href="#ArialMT-47" transform="translate(1139.404297 0)"/>
     <use xlink:href="#ArialMT-6c" transform="translate(1217.1875 0)"/>
     <use xlink:href="#ArialMT-79" transform="translate(1239.404297 0)"/>
     <use xlink:href="#ArialMT-63" transform="translate(1289.404297 0)"/>
     <use xlink:href="#ArialMT-65" transform="translate(1339.404297 0)"/>
     <use xlink:href="#ArialMT-72" transform="translate(1395.019531 0)"/>
     <use xlink:href="#ArialMT-6f" transform="translate(1428.320312 0)"/>
     <use xlink:href="#ArialMT-2d" transform="translate(1483.935547 0)"/>
     <use xlink:href="#ArialMT-44" transform="translate(1517.236328 0)"/>
     <use xlink:href="#ArialMT-2d" transform="translate(1589.453125 0)"/>
     <use xlink:href="#ArialMT-4d" transform="translate(1622.753906 0)"/>
     <use xlink:href="#ArialMT-61" transform="translate(1706.054688 0)"/>
     <use xlink:href="#ArialMT-6e" transform="translate(1761.669922 0)"/>
     <use xlink:href="#ArialMT-6e" transform="translate(1817.285156 0)"/>
     <use xlink:href="#ArialMT-6f" transform="translate(1872.900391 0)"/>
     <use xlink:href="#ArialMT-2d" transform="translate(1928.515625 0)"/>
     <use xlink:href="#ArialMT-48" transform="translate(1961.816406 0)"/>
     <use xlink:href="#ArialMT-65" transform="translate(2034.033203 0)"/>
     <use xlink:href="#ArialMT-70" transform="translate(2089.648438 0)"/>
     <use xlink:href="#ArialMT-74" transform="translate(2145.263672 0)"/>
     <use xlink:href="#ArialMT-6f" transform="translate(2173.046875 0)"/>
     <use xlink:href="#ArialMT-73" transform="translate(2228.662109 0)"/>
     <use xlink:href="#ArialMT-65" transform="translate(2278.662109 0)"/>
    </g>
   </g>
  </g>
 </g>
 <defs>
  <clipPath id="p33a5baef7c">
   <rect x="41.25125" y="22.663594" width="549.015" height="250.74375"/>
  </clipPath>
 </defs>
</svg>
