<?xml version="1.0" encoding="utf-8" standalone="no"?>
<!DOCTYPE svg PUBLIC "-//W3C//DTD SVG 1.1//EN"
  "http://www.w3.org/Graphics/SVG/1.1/DTD/svg11.dtd">
<svg xmlns:xlink="http://www.w3.org/1999/xlink" width="609.554062pt" height="311.607187pt" viewBox="0 0 609.554062 311.607187" xmlns="http://www.w3.org/2000/svg" version="1.1">
 <metadata>
  <rdf:RDF xmlns:dc="http://purl.org/dc/elements/1.1/" xmlns:cc="http://creativecommons.org/ns#" xmlns:rdf="http://www.w3.org/1999/02/22-rdf-syntax-ns#">
   <cc:Work>
    <dc:type rdf:resource="http://purl.org/dc/dcmitype/StillImage"/>
    <dc:date>2026-04-16T21:06:20.272455</dc:date>
    <dc:format>image/svg+xml</dc:format>
    <dc:creator>
     <cc:Agent>
      <dc:title>Matplotlib v3.10.8, https://matplotlib.org/</dc:title>
     </cc:Agent>
    </dc:creator>
   </cc:Work>
  </rdf:RDF>
 </metadata>
 <defs>
  <style type="text/css">*{stroke-linejoin: round; stroke-linecap: butt}</style>
 </defs>
 <g id="figure_1">
  <g id="patch_1">
   <path d="M 0 311.607187 
L 609.554062 311.607187 
L 609.554062 0 
L 0 0 
z
" style="fill: #ffffff"/>
  </g>
  <g id="axes_1">
   <g id="patch_2">
    <path d="M 41.105 273.407344 
L 590.12 273.407344 
L 590.12 22.663594 
L 41.105 22.663594 
z
" style="fill: #ffffff"/>
   </g>
   <g id="matplotlib.axis_1">
    <g id="xtick_1">
     <g id="line2d_1">
      <path d="M 41.105 273.407344 
L 41.105 22.663594 
" clip-path="url(#p46e9016a2f)" style="fill: none; stroke: #cccccc; stroke-width: 0.8; stroke-linecap: round"/>
     </g>
     <g id="line2d_2"/>
     <g id="text_1">
      <!-- 400 -->
      <g style="fill: #262626" transform="translate(31.929453 284.780937) scale(0.11 -0.11)">
       <defs>
        <path id="ArialMT-34" d="M 2069 0 
L 2069 1097 
L 81 1097 
L 81 1613 
L 2172 4581 
L 2631 4581 
L 2631 1613 
L 3250 1613 
L 3250 1097 
L 2631 1097 
L 2631 0 
L 2069 0 
z
M 2069 1613 
L 2069 3678 
L 634 1613 
L 2069 1613 
z
" transform="scale(0.015625)"/>
        <path id="ArialMT-30" d="M 266 2259 
Q 266 3072 433 3567 
Q 600 4063 929 4331 
Q 1259 4600 1759 4600 
Q 2128 4600 2406 4451 
Q 2684 4303 2865 4023 
Q 3047 3744 3150 3342 
Q 3253 2941 3253 2259 
Q 3253 1453 3087 958 
Q 2922 463 2592 192 
Q 2263 -78 1759 -78 
Q 1097 -78 719 397 
Q 266 969 266 2259 
z
M 844 2259 
Q 844 1131 1108 757 
Q 1372 384 1759 384 
Q 2147 384 2411 759 
Q 2675 1134 2675 2259 
Q 2675 3391 2411 3762 
Q 2147 4134 1753 4134 
Q 1366 4134 1134 3806 
Q 844 3388 844 2259 
z
" transform="scale(0.015625)"/>
       </defs>
       <use xlink:href="#ArialMT-34"/>
       <use xlink:href="#ArialMT-30" transform="translate(55.615234 0)"/>
       <use xlink:href="#ArialMT-30" transform="translate(111.230469 0)"/>
      </g>
     </g>
    </g>
    <g id="xtick_2">
     <g id="line2d_3">
      <path d="M 119.535714 273.407344 
L 119.535714 22.663594 
" clip-path="url(#p46e9016a2f)" style="fill: none; stroke: #cccccc; stroke-width: 0.8; stroke-linecap: round"/>
     </g>
     <g id="line2d_4"/>
     <g id="text_2">
      <!-- 600 -->
      <g style="fill: #262626" transform="translate(110.360167 284.780937) scale(0.11 -0.11)">
       <defs>
        <path id="ArialMT-36" d="M 3184 3459 
L 2625 3416 
Q 2550 3747 2413 3897 
Q 2184 4138 1850 4138 
Q 1581 4138 1378 3988 
Q 1113 3794 959 3422 
Q 806 3050 800 2363 
Q 1003 2672 1297 2822 
Q 1591 2972 1913 2972 
Q 2475 2972 2870 2558 
Q 3266 2144 3266 1488 
Q 3266 1056 3080 686 
Q 2894 316 2569 119 
Q 2244 -78 1831 -78 
Q 1128 -78 684 439 
Q 241 956 241 2144 
Q 241 3472 731 4075 
Q 1159 4600 1884 4600 
Q 2425 4600 2770 4297 
Q 3116 3994 3184 3459 
z
M 888 1484 
Q 888 1194 1011 928 
Q 1134 663 1356 523 
Q 1578 384 1822 384 
Q 2178 384 2434 671 
Q 2691 959 2691 1453 
Q 2691 1928 2437 2201 
Q 2184 2475 1800 2475 
Q 1419 2475 1153 2201 
Q 888 1928 888 1484 
z
" transform="scale(0.015625)"/>
       </defs>
       <use xlink:href="#ArialMT-36"/>
       <use xlink:href="#ArialMT-30" transform="translate(55.615234 0)"/>
       <use xlink:href="#ArialMT-30" transform="translate(111.230469 0)"/>
      </g>
     </g>
    </g>
    <g id="xtick_3">
     <g id="line2d_5">
      <path d="M 197.966429 273.407344 
L 197.966429 22.663594 
" clip-path="url(#p46e9016a2f)" style="fill: none; stroke: #cccccc; stroke-width: 0.8; stroke-linecap: round"/>
     </g>
     <g id="line2d_6"/>
     <g id="text_3">
      <!-- 800 -->
      <g style="fill: #262626" transform="translate(188.790882 284.780937) scale(0.11 -0.11)">
       <defs>
        <path id="ArialMT-38" d="M 1131 2484 
Q 781 2613 612 2850 
Q 444 3088 444 3419 
Q 444 3919 803 4259 
Q 1163 4600 1759 4600 
Q 2359 4600 2725 4251 
Q 3091 3903 3091 3403 
Q 3091 3084 2923 2848 
Q 2756 2613 2416 2484 
Q 2838 2347 3058 2040 
Q 3278 1734 3278 1309 
Q 3278 722 2862 322 
Q 2447 -78 1769 -78 
Q 1091 -78 675 323 
Q 259 725 259 1325 
Q 259 1772 486 2073 
Q 713 2375 1131 2484 
z
M 1019 3438 
Q 1019 3113 1228 2906 
Q 1438 2700 1772 2700 
Q 2097 2700 2305 2904 
Q 2513 3109 2513 3406 
Q 2513 3716 2298 3927 
Q 2084 4138 1766 4138 
Q 1444 4138 1231 3931 
Q 1019 3725 1019 3438 
z
M 838 1322 
Q 838 1081 952 856 
Q 1066 631 1291 507 
Q 1516 384 1775 384 
Q 2178 384 2440 643 
Q 2703 903 2703 1303 
Q 2703 1709 2433 1975 
Q 2163 2241 1756 2241 
Q 1359 2241 1098 1978 
Q 838 1716 838 1322 
z
" transform="scale(0.015625)"/>
       </defs>
       <use xlink:href="#ArialMT-38"/>
       <use xlink:href="#ArialMT-30" transform="translate(55.615234 0)"/>
       <use xlink:href="#ArialMT-30" transform="translate(111.230469 0)"/>
      </g>
     </g>
    </g>
    <g id="xtick_4">
     <g id="line2d_7">
      <path d="M 276.397143 273.407344 
L 276.397143 22.663594 
" clip-path="url(#p46e9016a2f)" style="fill: none; stroke: #cccccc; stroke-width: 0.8; stroke-linecap: round"/>
     </g>
     <g id="line2d_8"/>
     <g id="text_4">
      <!-- 1000 -->
      <g style="fill: #262626" transform="translate(264.16308 284.780937) scale(0.11 -0.11)">
       <defs>
        <path id="ArialMT-31" d="M 2384 0 
L 1822 0 
L 1822 3584 
Q 1619 3391 1289 3197 
Q 959 3003 697 2906 
L 697 3450 
Q 1169 3672 1522 3987 
Q 1875 4303 2022 4600 
L 2384 4600 
L 2384 0 
z
" transform="scale(0.015625)"/>
       </defs>
       <use xlink:href="#ArialMT-31"/>
       <use xlink:href="#ArialMT-30" transform="translate(55.615234 0)"/>
       <use xlink:href="#ArialMT-30" transform="translate(111.230469 0)"/>
       <use xlink:href="#ArialMT-30" transform="translate(166.845703 0)"/>
      </g>
     </g>
    </g>
    <g id="xtick_5">
     <g id="line2d_9">
      <path d="M 354.827857 273.407344 
L 354.827857 22.663594 
" clip-path="url(#p46e9016a2f)" style="fill: none; stroke: #cccccc; stroke-width: 0.8; stroke-linecap: round"/>
     </g>
     <g id="line2d_10"/>
     <g id="text_5">
      <!-- 1200 -->
      <g style="fill: #262626" transform="translate(342.593795 284.780937) scale(0.11 -0.11)">
       <defs>
        <path id="ArialMT-32" d="M 3222 541 
L 3222 0 
L 194 0 
Q 188 203 259 391 
Q 375 700 629 1000 
Q 884 1300 1366 1694 
Q 2113 2306 2375 2664 
Q 2638 3022 2638 3341 
Q 2638 3675 2398 3904 
Q 2159 4134 1775 4134 
Q 1369 4134 1125 3890 
Q 881 3647 878 3216 
L 300 3275 
Q 359 3922 746 4261 
Q 1134 4600 1788 4600 
Q 2447 4600 2831 4234 
Q 3216 3869 3216 3328 
Q 3216 3053 3103 2787 
Q 2991 2522 2730 2228 
Q 2469 1934 1863 1422 
Q 1356 997 1212 845 
Q 1069 694 975 541 
L 3222 541 
z
" transform="scale(0.015625)"/>
       </defs>
       <use xlink:href="#ArialMT-31"/>
       <use xlink:href="#ArialMT-32" transform="translate(55.615234 0)"/>
       <use xlink:href="#ArialMT-30" transform="translate(111.230469 0)"/>
       <use xlink:href="#ArialMT-30" transform="translate(166.845703 0)"/>
      </g>
     </g>
    </g>
    <g id="xtick_6">
     <g id="line2d_11">
      <path d="M 433.258571 273.407344 
L 433.258571 22.663594 
" clip-path="url(#p46e9016a2f)" style="fill: none; stroke: #cccccc; stroke-width: 0.8; stroke-linecap: round"/>
     </g>
     <g id="line2d_12"/>
     <g id="text_6">
      <!-- 1400 -->
      <g style="fill: #262626" transform="translate(421.024509 284.780937) scale(0.11 -0.11)">
       <use xlink:href="#ArialMT-31"/>
       <use xlink:href="#ArialMT-34" transform="translate(55.615234 0)"/>
       <use xlink:href="#ArialMT-30" transform="translate(111.230469 0)"/>
       <use xlink:href="#ArialMT-30" transform="translate(166.845703 0)"/>
      </g>
     </g>
    </g>
    <g id="xtick_7">
     <g id="line2d_13">
      <path d="M 511.689286 273.407344 
L 511.689286 22.663594 
" clip-path="url(#p46e9016a2f)" style="fill: none; stroke: #cccccc; stroke-width: 0.8; stroke-linecap: round"/>
     </g>
     <g id="line2d_14"/>
     <g id="text_7">
      <!-- 1600 -->
      <g style="fill: #262626" transform="translate(499.455223 284.780937) scale(0.11 -0.11)">
       <use xlink:href="#ArialMT-31"/>
       <use xlink:href="#ArialMT-36" transform="translate(55.615234 0)"/>
       <use xlink:href="#ArialMT-30" transform="translate(111.230469 0)"/>
       <use xlink:href="#ArialMT-30" transform="translate(166.845703 0)"/>
      </g>
     </g>
    </g>
    <g id="xtick_8">
     <g id="line2d_15">
      <path d="M 590.12 273.407344 
L 590.12 22.663594 
" clip-path="url(#p46e9016a2f)" style="fill: none; stroke: #cccccc; stroke-width: 0.8; stroke-linecap: round"/>
     </g>
     <g id="line2d_16"/>
     <g id="text_8">
      <!-- 1800 -->
      <g style="fill: #262626" transform="translate(577.885937 284.780937) scale(0.11 -0.11)">
       <use xlink:href="#ArialMT-31"/>
       <use xlink:href="#ArialMT-38" transform="translate(55.615234 0)"/>
       <use xlink:href="#ArialMT-30" transform="translate(111.230469 0)"/>
       <use xlink:href="#ArialMT-30" transform="translate(166.845703 0)"/>
      </g>
     </g>
    </g>
    <g id="text_9">
     <!-- Raman shift (cm$^{-1}$) -->
     <g style="fill: #262626" transform="translate(263.4725 301.767187) scale(0.12 -0.12)">
      <defs>
       <path id="ArialMT-52" d="M 503 0 
L 503 4581 
L 2534 4581 
Q 3147 4581 3465 4457 
Q 3784 4334 3975 4021 
Q 4166 3709 4166 3331 
Q 4166 2844 3850 2509 
Q 3534 2175 2875 2084 
Q 3116 1969 3241 1856 
Q 3506 1613 3744 1247 
L 4541 0 
L 3778 0 
L 3172 953 
Q 2906 1366 2734 1584 
Q 2563 1803 2427 1890 
Q 2291 1978 2150 2013 
Q 2047 2034 1813 2034 
L 1109 2034 
L 1109 0 
L 503 0 
z
M 1109 2559 
L 2413 2559 
Q 2828 2559 3062 2645 
Q 3297 2731 3419 2920 
Q 3541 3109 3541 3331 
Q 3541 3656 3305 3865 
Q 3069 4075 2559 4075 
L 1109 4075 
L 1109 2559 
z
" transform="scale(0.015625)"/>
       <path id="ArialMT-61" d="M 2588 409 
Q 2275 144 1986 34 
Q 1697 -75 1366 -75 
Q 819 -75 525 192 
Q 231 459 231 875 
Q 231 1119 342 1320 
Q 453 1522 633 1644 
Q 813 1766 1038 1828 
Q 1203 1872 1538 1913 
Q 2219 1994 2541 2106 
Q 2544 2222 2544 2253 
Q 2544 2597 2384 2738 
Q 2169 2928 1744 2928 
Q 1347 2928 1158 2789 
Q 969 2650 878 2297 
L 328 2372 
Q 403 2725 575 2942 
Q 747 3159 1072 3276 
Q 1397 3394 1825 3394 
Q 2250 3394 2515 3294 
Q 2781 3194 2906 3042 
Q 3031 2891 3081 2659 
Q 3109 2516 3109 2141 
L 3109 1391 
Q 3109 606 3145 398 
Q 3181 191 3288 0 
L 2700 0 
Q 2613 175 2588 409 
z
M 2541 1666 
Q 2234 1541 1622 1453 
Q 1275 1403 1131 1340 
Q 988 1278 909 1158 
Q 831 1038 831 891 
Q 831 666 1001 516 
Q 1172 366 1500 366 
Q 1825 366 2078 508 
Q 2331 650 2450 897 
Q 2541 1088 2541 1459 
L 2541 1666 
z
" transform="scale(0.015625)"/>
       <path id="ArialMT-6d" d="M 422 0 
L 422 3319 
L 925 3319 
L 925 2853 
Q 1081 3097 1340 3245 
Q 1600 3394 1931 3394 
Q 2300 3394 2536 3241 
Q 2772 3088 2869 2813 
Q 3263 3394 3894 3394 
Q 4388 3394 4653 3120 
Q 4919 2847 4919 2278 
L 4919 0 
L 4359 0 
L 4359 2091 
Q 4359 2428 4304 2576 
Q 4250 2725 4106 2815 
Q 3963 2906 3769 2906 
Q 3419 2906 3187 2673 
Q 2956 2441 2956 1928 
L 2956 0 
L 2394 0 
L 2394 2156 
Q 2394 2531 2256 2718 
Q 2119 2906 1806 2906 
Q 1569 2906 1367 2781 
Q 1166 2656 1075 2415 
Q 984 2175 984 1722 
L 984 0 
L 422 0 
z
" transform="scale(0.015625)"/>
       <path id="ArialMT-6e" d="M 422 0 
L 422 3319 
L 928 3319 
L 928 2847 
Q 1294 3394 1984 3394 
Q 2284 3394 2536 3286 
Q 2788 3178 2913 3003 
Q 3038 2828 3088 2588 
Q 3119 2431 3119 2041 
L 3119 0 
L 2556 0 
L 2556 2019 
Q 2556 2363 2490 2533 
Q 2425 2703 2258 2804 
Q 2091 2906 1866 2906 
Q 1506 2906 1245 2678 
Q 984 2450 984 1813 
L 984 0 
L 422 0 
z
" transform="scale(0.015625)"/>
       <path id="ArialMT-20" transform="scale(0.015625)"/>
       <path id="ArialMT-73" d="M 197 991 
L 753 1078 
Q 800 744 1014 566 
Q 1228 388 1613 388 
Q 2000 388 2187 545 
Q 2375 703 2375 916 
Q 2375 1106 2209 1216 
Q 2094 1291 1634 1406 
Q 1016 1563 777 1677 
Q 538 1791 414 1992 
Q 291 2194 291 2438 
Q 291 2659 392 2848 
Q 494 3038 669 3163 
Q 800 3259 1026 3326 
Q 1253 3394 1513 3394 
Q 1903 3394 2198 3281 
Q 2494 3169 2634 2976 
Q 2775 2784 2828 2463 
L 2278 2388 
Q 2241 2644 2061 2787 
Q 1881 2931 1553 2931 
Q 1166 2931 1000 2803 
Q 834 2675 834 2503 
Q 834 2394 903 2306 
Q 972 2216 1119 2156 
Q 1203 2125 1616 2013 
Q 2213 1853 2448 1751 
Q 2684 1650 2818 1456 
Q 2953 1263 2953 975 
Q 2953 694 2789 445 
Q 2625 197 2315 61 
Q 2006 -75 1616 -75 
Q 969 -75 630 194 
Q 291 463 197 991 
z
" transform="scale(0.015625)"/>
       <path id="ArialMT-68" d="M 422 0 
L 422 4581 
L 984 4581 
L 984 2938 
Q 1378 3394 1978 3394 
Q 2347 3394 2619 3248 
Q 2891 3103 3008 2847 
Q 3125 2591 3125 2103 
L 3125 0 
L 2563 0 
L 2563 2103 
Q 2563 2525 2380 2717 
Q 2197 2909 1863 2909 
Q 1613 2909 1392 2779 
Q 1172 2650 1078 2428 
Q 984 2206 984 1816 
L 984 0 
L 422 0 
z
" transform="scale(0.015625)"/>
       <path id="ArialMT-69" d="M 425 3934 
L 425 4581 
L 988 4581 
L 988 3934 
L 425 3934 
z
M 425 0 
L 425 3319 
L 988 3319 
L 988 0 
L 425 0 
z
" transform="scale(0.015625)"/>
       <path id="ArialMT-66" d="M 556 0 
L 556 2881 
L 59 2881 
L 59 3319 
L 556 3319 
L 556 3672 
Q 556 4006 616 4169 
Q 697 4388 901 4523 
Q 1106 4659 1475 4659 
Q 1713 4659 2000 4603 
L 1916 4113 
Q 1741 4144 1584 4144 
Q 1328 4144 1222 4034 
Q 1116 3925 1116 3625 
L 1116 3319 
L 1763 3319 
L 1763 2881 
L 1116 2881 
L 1116 0 
L 556 0 
z
" transform="scale(0.015625)"/>
       <path id="ArialMT-74" d="M 1650 503 
L 1731 6 
Q 1494 -44 1306 -44 
Q 1000 -44 831 53 
Q 663 150 594 308 
Q 525 466 525 972 
L 525 2881 
L 113 2881 
L 113 3319 
L 525 3319 
L 525 4141 
L 1084 4478 
L 1084 3319 
L 1650 3319 
L 1650 2881 
L 1084 2881 
L 1084 941 
Q 1084 700 1114 631 
Q 1144 563 1211 522 
Q 1278 481 1403 481 
Q 1497 481 1650 503 
z
" transform="scale(0.015625)"/>
       <path id="ArialMT-28" d="M 1497 -1347 
Q 1031 -759 709 28 
Q 388 816 388 1659 
Q 388 2403 628 3084 
Q 909 3875 1497 4659 
L 1900 4659 
Q 1522 4009 1400 3731 
Q 1209 3300 1100 2831 
Q 966 2247 966 1656 
Q 966 153 1900 -1347 
L 1497 -1347 
z
" transform="scale(0.015625)"/>
       <path id="ArialMT-63" d="M 2588 1216 
L 3141 1144 
Q 3050 572 2676 248 
Q 2303 -75 1759 -75 
Q 1078 -75 664 370 
Q 250 816 250 1647 
Q 250 2184 428 2587 
Q 606 2991 970 3192 
Q 1334 3394 1763 3394 
Q 2303 3394 2647 3120 
Q 2991 2847 3088 2344 
L 2541 2259 
Q 2463 2594 2264 2762 
Q 2066 2931 1784 2931 
Q 1359 2931 1093 2626 
Q 828 2322 828 1663 
Q 828 994 1084 691 
Q 1341 388 1753 388 
Q 2084 388 2306 591 
Q 2528 794 2588 1216 
z
" transform="scale(0.015625)"/>
       <path id="DejaVuSans-2212" d="M 678 2272 
L 4684 2272 
L 4684 1741 
L 678 1741 
L 678 2272 
z
" transform="scale(0.015625)"/>
       <path id="DejaVuSans-31" d="M 794 531 
L 1825 531 
L 1825 4091 
L 703 3866 
L 703 4441 
L 1819 4666 
L 2450 4666 
L 2450 531 
L 3481 531 
L 3481 0 
L 794 0 
L 794 531 
z
" transform="scale(0.015625)"/>
       <path id="ArialMT-29" d="M 791 -1347 
L 388 -1347 
Q 1322 153 1322 1656 
Q 1322 2244 1188 2822 
Q 1081 3291 891 3722 
Q 769 4003 388 4659 
L 791 4659 
Q 1378 3875 1659 3084 
Q 1900 2403 1900 1659 
Q 1900 816 1576 28 
Q 1253 -759 791 -1347 
z
" transform="scale(0.015625)"/>
      </defs>
      <use xlink:href="#ArialMT-52" transform="translate(0 0.684375)"/>
      <use xlink:href="#ArialMT-61" transform="translate(72.216797 0.684375)"/>
      <use xlink:href="#ArialMT-6d" transform="translate(127.832031 0.684375)"/>
      <use xlink:href="#ArialMT-61" transform="translate(211.132812 0.684375)"/>
      <use xlink:href="#ArialMT-6e" transform="translate(266.748047 0.684375)"/>
      <use xlink:href="#ArialMT-20" transform="translate(322.363281 0.684375)"/>
      <use xlink:href="#ArialMT-73" transform="translate(350.146484 0.684375)"/>
      <use xlink:href="#ArialMT-68" transform="translate(400.146484 0.684375)"/>
      <use xlink:href="#ArialMT-69" transform="translate(455.761719 0.684375)"/>
      <use xlink:href="#ArialMT-66" transform="translate(477.978516 0.684375)"/>
      <use xlink:href="#ArialMT-74" transform="translate(505.761719 0.684375)"/>
      <use xlink:href="#ArialMT-20" transform="translate(533.544922 0.684375)"/>
      <use xlink:href="#ArialMT-28" transform="translate(561.328125 0.684375)"/>
      <use xlink:href="#ArialMT-63" transform="translate(594.628906 0.684375)"/>
      <use xlink:href="#ArialMT-6d" transform="translate(644.628906 0.684375)"/>
      <use xlink:href="#DejaVuSans-2212" transform="translate(728.886719 38.965625) scale(0.7)"/>
      <use xlink:href="#DejaVuSans-31" transform="translate(787.539062 38.965625) scale(0.7)"/>
      <use xlink:href="#ArialMT-29" transform="translate(834.80957 0.684375)"/>
     </g>
    </g>
   </g>
   <g id="matplotlib.axis_2">
    <g id="ytick_1">
     <g id="line2d_17">
      <path d="M 41.105 273.407344 
L 590.12 273.407344 
" clip-path="url(#p46e9016a2f)" style="fill: none; stroke: #cccccc; stroke-width: 0.8; stroke-linecap: round"/>
     </g>
     <g id="line2d_18"/>
     <g id="text_10">
      <!-- 0.0 -->
      <g style="fill: #262626" transform="translate(22.315 277.344141) scale(0.11 -0.11)">
       <defs>
        <path id="ArialMT-2e" d="M 581 0 
L 581 641 
L 1222 641 
L 1222 0 
L 581 0 
z
" transform="scale(0.015625)"/>
       </defs>
       <use xlink:href="#ArialMT-30"/>
       <use xlink:href="#ArialMT-2e" transform="translate(55.615234 0)"/>
       <use xlink:href="#ArialMT-30" transform="translate(83.398438 0)"/>
      </g>
     </g>
    </g>
    <g id="ytick_2">
     <g id="line2d_19">
      <path d="M 41.105 225.646629 
L 590.12 225.646629 
" clip-path="url(#p46e9016a2f)" style="fill: none; stroke: #cccccc; stroke-width: 0.8; stroke-linecap: round"/>
     </g>
     <g id="line2d_20"/>
     <g id="text_11">
      <!-- 0.2 -->
      <g style="fill: #262626" transform="translate(22.315 229.583426) scale(0.11 -0.11)">
       <use xlink:href="#ArialMT-30"/>
       <use xlink:href="#ArialMT-2e" transform="translate(55.615234 0)"/>
       <use xlink:href="#ArialMT-32" transform="translate(83.398438 0)"/>
      </g>
     </g>
    </g>
    <g id="ytick_3">
     <g id="line2d_21">
      <path d="M 41.105 177.885915 
L 590.12 177.885915 
" clip-path="url(#p46e9016a2f)" style="fill: none; stroke: #cccccc; stroke-width: 0.8; stroke-linecap: round"/>
     </g>
     <g id="line2d_22"/>
     <g id="text_12">
      <!-- 0.4 -->
      <g style="fill: #262626" transform="translate(22.315 181.822712) scale(0.11 -0.11)">
       <use xlink:href="#ArialMT-30"/>
       <use xlink:href="#ArialMT-2e" transform="translate(55.615234 0)"/>
       <use xlink:href="#ArialMT-34" transform="translate(83.398438 0)"/>
      </g>
     </g>
    </g>
    <g id="ytick_4">
     <g id="line2d_23">
      <path d="M 41.105 130.125201 
L 590.12 130.125201 
" clip-path="url(#p46e9016a2f)" style="fill: none; stroke: #cccccc; stroke-width: 0.8; stroke-linecap: round"/>
     </g>
     <g id="line2d_24"/>
     <g id="text_13">
      <!-- 0.6 -->
      <g style="fill: #262626" transform="translate(22.315 134.061998) scale(0.11 -0.11)">
       <use xlink:href="#ArialMT-30"/>
       <use xlink:href="#ArialMT-2e" transform="translate(55.615234 0)"/>
       <use xlink:href="#ArialMT-36" transform="translate(83.398438 0)"/>
      </g>
     </g>
    </g>
    <g id="ytick_5">
     <g id="line2d_25">
      <path d="M 41.105 82.364487 
L 590.12 82.364487 
" clip-path="url(#p46e9016a2f)" style="fill: none; stroke: #cccccc; stroke-width: 0.8; stroke-linecap: round"/>
     </g>
     <g id="line2d_26"/>
     <g id="text_14">
      <!-- 0.8 -->
      <g style="fill: #262626" transform="translate(22.315 86.301283) scale(0.11 -0.11)">
       <use xlink:href="#ArialMT-30"/>
       <use xlink:href="#ArialMT-2e" transform="translate(55.615234 0)"/>
       <use xlink:href="#ArialMT-38" transform="translate(83.398438 0)"/>
      </g>
     </g>
    </g>
    <g id="ytick_6">
     <g id="line2d_27">
      <path d="M 41.105 34.603772 
L 590.12 34.603772 
" clip-path="url(#p46e9016a2f)" style="fill: none; stroke: #cccccc; stroke-width: 0.8; stroke-linecap: round"/>
     </g>
     <g id="line2d_28"/>
     <g id="text_15">
      <!-- 1.0 -->
      <g style="fill: #262626" transform="translate(22.315 38.540569) scale(0.11 -0.11)">
       <use xlink:href="#ArialMT-31"/>
       <use xlink:href="#ArialMT-2e" transform="translate(55.615234 0)"/>
       <use xlink:href="#ArialMT-30" transform="translate(83.398438 0)"/>
      </g>
     </g>
    </g>
    <g id="text_16">
     <!-- Normalized intensity -->
     <g style="fill: #262626" transform="translate(15.789375 202.053281) rotate(-90) scale(0.12 -0.12)">
      <defs>
       <path id="ArialMT-4e" d="M 488 0 
L 488 4581 
L 1109 4581 
L 3516 984 
L 3516 4581 
L 4097 4581 
L 4097 0 
L 3475 0 
L 1069 3600 
L 1069 0 
L 488 0 
z
" transform="scale(0.015625)"/>
       <path id="ArialMT-6f" d="M 213 1659 
Q 213 2581 725 3025 
Q 1153 3394 1769 3394 
Q 2453 3394 2887 2945 
Q 3322 2497 3322 1706 
Q 3322 1066 3130 698 
Q 2938 331 2570 128 
Q 2203 -75 1769 -75 
Q 1072 -75 642 372 
Q 213 819 213 1659 
z
M 791 1659 
Q 791 1022 1069 705 
Q 1347 388 1769 388 
Q 2188 388 2466 706 
Q 2744 1025 2744 1678 
Q 2744 2294 2464 2611 
Q 2184 2928 1769 2928 
Q 1347 2928 1069 2612 
Q 791 2297 791 1659 
z
" transform="scale(0.015625)"/>
       <path id="ArialMT-72" d="M 416 0 
L 416 3319 
L 922 3319 
L 922 2816 
Q 1116 3169 1280 3281 
Q 1444 3394 1641 3394 
Q 1925 3394 2219 3213 
L 2025 2691 
Q 1819 2813 1613 2813 
Q 1428 2813 1281 2702 
Q 1134 2591 1072 2394 
Q 978 2094 978 1738 
L 978 0 
L 416 0 
z
" transform="scale(0.015625)"/>
       <path id="ArialMT-6c" d="M 409 0 
L 409 4581 
L 972 4581 
L 972 0 
L 409 0 
z
" transform="scale(0.015625)"/>
       <path id="ArialMT-7a" d="M 125 0 
L 125 456 
L 2238 2881 
Q 1878 2863 1603 2863 
L 250 2863 
L 250 3319 
L 2963 3319 
L 2963 2947 
L 1166 841 
L 819 456 
Q 1197 484 1528 484 
L 3063 484 
L 3063 0 
L 125 0 
z
" transform="scale(0.015625)"/>
       <path id="ArialMT-65" d="M 2694 1069 
L 3275 997 
Q 3138 488 2766 206 
Q 2394 -75 1816 -75 
Q 1088 -75 661 373 
Q 234 822 234 1631 
Q 234 2469 665 2931 
Q 1097 3394 1784 3394 
Q 2450 3394 2872 2941 
Q 3294 2488 3294 1666 
Q 3294 1616 3291 1516 
L 816 1516 
Q 847 969 1125 678 
Q 1403 388 1819 388 
Q 2128 388 2347 550 
Q 2566 713 2694 1069 
z
M 847 1978 
L 2700 1978 
Q 2663 2397 2488 2606 
Q 2219 2931 1791 2931 
Q 1403 2931 1139 2672 
Q 875 2413 847 1978 
z
" transform="scale(0.015625)"/>
       <path id="ArialMT-64" d="M 2575 0 
L 2575 419 
Q 2259 -75 1647 -75 
Q 1250 -75 917 144 
Q 584 363 401 755 
Q 219 1147 219 1656 
Q 219 2153 384 2558 
Q 550 2963 881 3178 
Q 1213 3394 1622 3394 
Q 1922 3394 2156 3267 
Q 2391 3141 2538 2938 
L 2538 4581 
L 3097 4581 
L 3097 0 
L 2575 0 
z
M 797 1656 
Q 797 1019 1065 703 
Q 1334 388 1700 388 
Q 2069 388 2326 689 
Q 2584 991 2584 1609 
Q 2584 2291 2321 2609 
Q 2059 2928 1675 2928 
Q 1300 2928 1048 2622 
Q 797 2316 797 1656 
z
" transform="scale(0.015625)"/>
       <path id="ArialMT-79" d="M 397 -1278 
L 334 -750 
Q 519 -800 656 -800 
Q 844 -800 956 -737 
Q 1069 -675 1141 -563 
Q 1194 -478 1313 -144 
Q 1328 -97 1363 -6 
L 103 3319 
L 709 3319 
L 1400 1397 
Q 1534 1031 1641 628 
Q 1738 1016 1872 1384 
L 2581 3319 
L 3144 3319 
L 1881 -56 
Q 1678 -603 1566 -809 
Q 1416 -1088 1222 -1217 
Q 1028 -1347 759 -1347 
Q 597 -1347 397 -1278 
z
" transform="scale(0.015625)"/>
      </defs>
      <use xlink:href="#ArialMT-4e"/>
      <use xlink:href="#ArialMT-6f" transform="translate(72.216797 0)"/>
      <use xlink:href="#ArialMT-72" transform="translate(127.832031 0)"/>
      <use xlink:href="#ArialMT-6d" transform="translate(161.132812 0)"/>
      <use xlink:href="#ArialMT-61" transform="translate(244.433594 0)"/>
      <use xlink:href="#ArialMT-6c" transform="translate(300.048828 0)"/>
      <use xlink:href="#ArialMT-69" transform="translate(322.265625 0)"/>
      <use xlink:href="#ArialMT-7a" transform="translate(344.482422 0)"/>
      <use xlink:href="#ArialMT-65" transform="translate(394.482422 0)"/>
      <use xlink:href="#ArialMT-64" transform="translate(450.097656 0)"/>
      <use xlink:href="#ArialMT-20" transform="translate(505.712891 0)"/>
      <use xlink:href="#ArialMT-69" transform="translate(533.496094 0)"/>
      <use xlink:href="#ArialMT-6e" transform="translate(555.712891 0)"/>
      <use xlink:href="#ArialMT-74" transform="translate(611.328125 0)"/>
      <use xlink:href="#ArialMT-65" transform="translate(639.111328 0)"/>
      <use xlink:href="#ArialMT-6e" transform="translate(694.726562 0)"/>
      <use xlink:href="#ArialMT-73" transform="translate(750.341797 0)"/>
      <use xlink:href="#ArialMT-69" transform="translate(800.341797 0)"/>
      <use xlink:href="#ArialMT-74" transform="translate(822.558594 0)"/>
      <use xlink:href="#ArialMT-79" transform="translate(850.341797 0)"/>
     </g>
    </g>
   </g>
   <g id="line2d_29">
    <path d="M 41.105 272.669532 
L 42.673614 272.29811 
L 43.850075 272.302719 
L 51.300993 273.105207 
L 56.791143 273.148041 
L 62.281293 273.022309 
L 65.026368 272.785034 
L 67.771443 272.319594 
L 70.124364 271.652213 
L 74.830207 270.132514 
L 75.614514 269.821269 
L 76.398821 269.220584 
L 77.183129 268.184056 
L 77.967436 266.639609 
L 79.143896 263.558061 
L 81.888971 255.796283 
L 82.673279 254.200021 
L 83.065432 253.797999 
L 83.457586 253.770013 
L 83.849739 254.166376 
L 84.241893 254.992901 
L 85.0262 257.718173 
L 86.986968 265.880835 
L 87.771275 268.094851 
L 88.555582 269.601688 
L 89.339889 270.595137 
L 90.124196 271.249813 
L 91.300657 271.859885 
L 92.869271 272.319803 
L 94.830039 272.624162 
L 97.967268 272.86415 
L 102.673111 272.997189 
L 108.947568 272.953141 
L 113.261257 272.719407 
L 115.614179 272.386609 
L 117.182793 271.921104 
L 117.9671 271.530995 
L 118.751407 270.943018 
L 119.535714 270.026519 
L 120.320021 268.587156 
L 121.104329 266.383612 
L 121.888636 263.258732 
L 123.849404 254.163324 
L 124.241557 253.137553 
L 124.633711 252.672644 
L 125.025864 252.808167 
L 125.418018 253.515616 
L 126.202325 256.244313 
L 128.163093 264.559999 
L 128.9474 266.873411 
L 129.731707 268.545836 
L 130.516014 269.721224 
L 131.300321 270.514485 
L 132.084629 271.017007 
L 132.868936 271.299515 
L 133.653243 271.404197 
L 134.43755 271.345191 
L 135.221857 271.112857 
L 136.006164 270.676893 
L 136.790471 269.991328 
L 137.574779 268.993906 
L 138.359086 267.608596 
L 139.535546 264.798011 
L 140.712007 261.989711 
L 141.104161 261.40033 
L 141.496314 261.111757 
L 141.888468 261.165635 
L 142.280621 261.565702 
L 142.672775 262.276412 
L 143.457082 264.337297 
L 145.025696 268.668976 
L 145.810004 270.146325 
L 146.594311 271.131363 
L 147.378618 271.762798 
L 148.555079 272.313731 
L 150.123693 272.690759 
L 152.476614 272.955621 
L 156.39815 273.133012 
L 163.064761 273.175815 
L 199.142889 273.058112 
L 205.417346 272.800447 
L 208.162421 272.48456 
L 210.123189 272.035734 
L 211.29965 271.564265 
L 212.083957 271.084353 
L 212.868264 270.401436 
L 213.652571 269.433724 
L 214.436879 268.101941 
L 215.221186 266.378451 
L 216.397646 263.126932 
L 217.574107 259.11323 
L 219.142721 253.559115 
L 219.534875 252.645552 
L 219.927029 252.122973 
L 220.319182 252.048196 
L 220.711336 252.423308 
L 221.103489 253.189843 
L 223.064257 258.10252 
L 223.456411 258.293753 
L 223.848564 258.015234 
L 224.240718 257.271695 
L 225.025025 254.678277 
L 226.201486 250.302027 
L 226.593639 249.465262 
L 226.985793 249.196166 
L 227.377946 249.558249 
L 227.7701 250.535936 
L 228.554407 253.929678 
L 230.515175 263.869559 
L 231.299482 266.53116 
L 232.083789 268.385589 
L 232.868096 269.651983 
L 233.652404 270.513998 
L 234.436711 271.108548 
L 235.613171 271.696119 
L 237.181786 272.153153 
L 239.534707 272.525976 
L 242.671936 272.758645 
L 246.985625 272.843835 
L 250.907161 272.743643 
L 256.005157 272.259955 
L 257.573771 271.991505 
L 259.142386 271.441478 
L 261.495307 270.475964 
L 263.063921 270.146537 
L 264.240382 270.115949 
L 265.024689 270.271639 
L 266.593304 270.91645 
L 267.769764 271.356481 
L 268.946225 271.568044 
L 270.514839 271.566667 
L 274.828529 271.255321 
L 276.004989 270.917654 
L 277.18145 270.310066 
L 277.965757 269.700573 
L 278.750064 268.885716 
L 279.926525 267.283267 
L 281.495139 265.031072 
L 283.455907 262.569478 
L 284.240214 261.049767 
L 285.024521 258.76841 
L 285.808829 255.45081 
L 286.593136 250.951255 
L 287.769596 242.196881 
L 288.946057 231.476571 
L 290.514671 215.974429 
L 290.906825 213.058943 
L 291.298979 211.145138 
L 291.691132 210.510578 
L 292.083286 211.316077 
L 292.475439 213.564107 
L 293.259746 221.599162 
L 295.220514 246.340311 
L 296.004821 253.190807 
L 296.789129 257.943992 
L 297.573436 261.043977 
L 298.357743 262.844569 
L 298.749896 263.333098 
L 299.14205 263.575098 
L 299.534204 263.58481 
L 299.926357 263.37129 
L 300.318511 262.93858 
L 300.710664 262.285731 
L 301.494971 260.291022 
L 302.279279 257.305982 
L 303.063586 253.362234 
L 304.240046 246.92775 
L 304.6322 245.267178 
L 305.024354 244.162893 
L 305.416507 243.761187 
L 305.808661 244.136446 
L 306.200814 245.274285 
L 306.985121 249.362879 
L 308.945889 261.507141 
L 309.730196 264.59207 
L 310.514504 266.534161 
L 311.298811 267.633913 
L 312.083118 268.141447 
L 312.867425 268.191514 
L 313.259579 268.052198 
L 313.651732 267.791365 
L 314.043886 267.390946 
L 314.828193 266.068459 
L 315.6125 263.847119 
L 316.396807 260.556661 
L 318.749729 248.772492 
L 319.141882 247.837854 
L 319.534036 247.444772 
L 319.926189 247.562652 
L 320.318343 248.10078 
L 321.10265 249.899972 
L 321.886957 251.760053 
L 322.671264 252.952445 
L 323.063418 253.212067 
L 323.455571 253.257269 
L 324.239879 252.878323 
L 325.024186 252.381529 
L 325.416339 252.330035 
L 325.808493 252.529698 
L 326.200646 253.036416 
L 326.5928 253.864016 
L 327.377107 256.322459 
L 329.337875 263.462626 
L 330.122182 265.629275 
L 330.906489 267.341539 
L 331.690796 268.668238 
L 332.475104 269.659392 
L 333.259411 270.375638 
L 334.435871 271.085408 
L 335.612332 271.512089 
L 337.5731 271.911364 
L 339.926021 272.131038 
L 342.278943 272.139238 
L 344.239711 271.883684 
L 346.592632 271.502417 
L 348.161246 271.532162 
L 350.906321 271.61552 
L 356.396471 271.534538 
L 359.5337 271.586637 
L 360.710161 271.395142 
L 363.847389 270.672417 
L 365.02385 270.774549 
L 366.984618 270.976263 
L 368.161079 270.846308 
L 369.337539 270.424098 
L 370.121846 269.943454 
L 371.298307 268.881138 
L 373.259075 266.807361 
L 374.043382 266.378638 
L 374.827689 266.291793 
L 377.180611 266.42873 
L 377.964918 266.145422 
L 378.749225 265.600073 
L 379.533532 264.791122 
L 380.317839 263.737054 
L 381.102146 262.399587 
L 381.886454 260.629314 
L 382.670761 258.199362 
L 383.455068 254.819292 
L 384.239375 250.023392 
L 385.023682 243.044519 
L 385.807989 232.788575 
L 386.592296 217.790829 
L 387.376604 196.277286 
L 388.160911 167.179983 
L 390.121679 86.832494 
L 390.513832 78.388024 
L 390.905986 74.976821 
L 391.298139 76.848959 
L 391.690293 83.655971 
L 392.4746 108.284933 
L 394.435368 181.432531 
L 395.219675 202.728753 
L 396.003982 219.107723 
L 396.788289 231.482295 
L 397.572596 240.654347 
L 398.356904 247.45729 
L 399.141211 252.61225 
L 399.925518 256.561783 
L 400.709825 259.575601 
L 401.494132 261.906742 
L 402.670593 264.565837 
L 403.4549 265.902122 
L 404.239207 266.929231 
L 405.415668 268.026465 
L 406.592129 268.754438 
L 408.160743 269.384909 
L 410.513664 270.077293 
L 412.866586 270.502423 
L 414.827354 270.623531 
L 416.395968 270.531041 
L 417.964582 270.219159 
L 419.141043 269.802252 
L 419.92535 269.354515 
L 420.709657 268.683325 
L 421.493964 267.712346 
L 422.278271 266.396781 
L 424.239039 262.641955 
L 424.631193 262.197482 
L 425.023346 261.965869 
L 425.4155 261.957157 
L 425.807654 262.153339 
L 426.591961 262.976687 
L 427.768421 264.419856 
L 428.552729 265.028937 
L 429.337036 265.241222 
L 430.121343 265.158181 
L 431.297804 265.019508 
L 432.082111 265.319466 
L 432.866418 266.050903 
L 435.219339 268.83932 
L 436.003646 269.373779 
L 436.787954 269.669154 
L 437.964414 269.782894 
L 439.140875 269.657049 
L 440.317336 269.338444 
L 441.493796 268.781112 
L 442.278104 268.245759 
L 443.062411 267.500287 
L 443.846718 266.409006 
L 444.631025 264.795221 
L 445.415332 262.463156 
L 446.199639 259.284914 
L 448.552561 248.545053 
L 448.944714 247.617703 
L 449.336868 247.091674 
L 449.729021 246.910919 
L 450.513329 247.129474 
L 450.905482 247.241754 
L 451.297636 247.161044 
L 451.689789 246.753375 
L 452.081943 245.894278 
L 452.474096 244.460509 
L 452.86625 242.31869 
L 453.258404 239.313408 
L 453.650557 235.255891 
L 454.042711 229.914072 
L 454.827018 214.211036 
L 455.611325 189.641298 
L 456.395632 154.618394 
L 458.3564 52.523304 
L 458.748554 40.605957 
L 459.140707 34.603772 
L 459.532861 34.856436 
L 459.925014 40.987977 
L 460.317168 52.006931 
L 461.101475 83.042155 
L 462.277936 132.509215 
L 463.062243 159.348373 
L 463.84655 180.472925 
L 464.630857 196.891565 
L 465.415164 209.777205 
L 466.591625 225.244152 
L 467.768086 238.303626 
L 468.944546 248.607976 
L 469.728854 253.717585 
L 470.513161 257.681376 
L 471.297468 260.757535 
L 472.081775 263.107046 
L 472.866082 264.876243 
L 473.650389 266.224845 
L 474.82685 267.702541 
L 476.003311 268.711937 
L 477.571925 269.664328 
L 479.140539 270.331349 
L 481.493461 271.030554 
L 484.238536 271.569964 
L 487.375764 271.987841 
L 491.689454 272.366444 
L 498.356064 272.706454 
L 508.944211 272.989741 
L 534.826346 273.40043 
L 572.473089 273.284101 
L 576.394625 273.110059 
L 578.355393 272.830272 
L 579.531854 272.492335 
L 580.708314 271.968324 
L 581.884775 271.237202 
L 583.453389 269.942035 
L 584.237696 269.328038 
L 585.022004 268.991393 
L 585.414157 268.985447 
L 586.198464 269.329021 
L 586.982771 270.0407 
L 588.551386 271.66358 
L 589.727846 272.493635 
L 590.12 272.686417 
L 590.12 272.686417 
" clip-path="url(#p46e9016a2f)" style="fill: none; stroke: #d62728; stroke-width: 1.8; stroke-linecap: round"/>
   </g>
   <g id="patch_3">
    <path d="M 41.105 273.407344 
L 41.105 22.663594 
" style="fill: none; stroke: #cccccc; stroke-linejoin: miter; stroke-linecap: square"/>
   </g>
   <g id="patch_4">
    <path d="M 590.12 273.407344 
L 590.12 22.663594 
" style="fill: none; stroke: #cccccc; stroke-linejoin: miter; stroke-linecap: square"/>
   </g>
   <g id="patch_5">
    <path d="M 41.105 273.407344 
L 590.12 273.407344 
" style="fill: none; stroke: #cccccc; stroke-linejoin: miter; stroke-linecap: square"/>
   </g>
   <g id="patch_6">
    <path d="M 41.105 22.663594 
L 590.12 22.663594 
" style="fill: none; stroke: #cccccc; stroke-linejoin: miter; stroke-linecap: square"/>
   </g>
   <g id="text_17">
    <!-- Myristic Acid | Gaussian-Broadened Raman Spectrum -->
    <g style="fill: #262626" transform="translate(160.393516 16.663594) scale(0.13 -0.13)">
     <defs>
      <path id="ArialMT-4d" d="M 475 0 
L 475 4581 
L 1388 4581 
L 2472 1338 
Q 2622 884 2691 659 
Q 2769 909 2934 1394 
L 4031 4581 
L 4847 4581 
L 4847 0 
L 4263 0 
L 4263 3834 
L 2931 0 
L 2384 0 
L 1059 3900 
L 1059 0 
L 475 0 
z
" transform="scale(0.015625)"/>
      <path id="ArialMT-41" d="M -9 0 
L 1750 4581 
L 2403 4581 
L 4278 0 
L 3588 0 
L 3053 1388 
L 1138 1388 
L 634 0 
L -9 0 
z
M 1313 1881 
L 2866 1881 
L 2388 3150 
Q 2169 3728 2063 4100 
Q 1975 3659 1816 3225 
L 1313 1881 
z
" transform="scale(0.015625)"/>
      <path id="ArialMT-7c" d="M 588 -1347 
L 588 4659 
L 1078 4659 
L 1078 -1347 
L 588 -1347 
z
" transform="scale(0.015625)"/>
      <path id="ArialMT-47" d="M 2638 1797 
L 2638 2334 
L 4578 2338 
L 4578 638 
Q 4131 281 3656 101 
Q 3181 -78 2681 -78 
Q 2006 -78 1454 211 
Q 903 500 622 1047 
Q 341 1594 341 2269 
Q 341 2938 620 3517 
Q 900 4097 1425 4378 
Q 1950 4659 2634 4659 
Q 3131 4659 3532 4498 
Q 3934 4338 4162 4050 
Q 4391 3763 4509 3300 
L 3963 3150 
Q 3859 3500 3706 3700 
Q 3553 3900 3268 4020 
Q 2984 4141 2638 4141 
Q 2222 4141 1919 4014 
Q 1616 3888 1430 3681 
Q 1244 3475 1141 3228 
Q 966 2803 966 2306 
Q 966 1694 1177 1281 
Q 1388 869 1791 669 
Q 2194 469 2647 469 
Q 3041 469 3416 620 
Q 3791 772 3984 944 
L 3984 1797 
L 2638 1797 
z
" transform="scale(0.015625)"/>
      <path id="ArialMT-75" d="M 2597 0 
L 2597 488 
Q 2209 -75 1544 -75 
Q 1250 -75 995 37 
Q 741 150 617 320 
Q 494 491 444 738 
Q 409 903 409 1263 
L 409 3319 
L 972 3319 
L 972 1478 
Q 972 1038 1006 884 
Q 1059 663 1231 536 
Q 1403 409 1656 409 
Q 1909 409 2131 539 
Q 2353 669 2445 892 
Q 2538 1116 2538 1541 
L 2538 3319 
L 3100 3319 
L 3100 0 
L 2597 0 
z
" transform="scale(0.015625)"/>
      <path id="ArialMT-2d" d="M 203 1375 
L 203 1941 
L 1931 1941 
L 1931 1375 
L 203 1375 
z
" transform="scale(0.015625)"/>
      <path id="ArialMT-42" d="M 469 0 
L 469 4581 
L 2188 4581 
Q 2713 4581 3030 4442 
Q 3347 4303 3526 4014 
Q 3706 3725 3706 3409 
Q 3706 3116 3547 2856 
Q 3388 2597 3066 2438 
Q 3481 2316 3704 2022 
Q 3928 1728 3928 1328 
Q 3928 1006 3792 729 
Q 3656 453 3456 303 
Q 3256 153 2954 76 
Q 2653 0 2216 0 
L 469 0 
z
M 1075 2656 
L 2066 2656 
Q 2469 2656 2644 2709 
Q 2875 2778 2992 2937 
Q 3109 3097 3109 3338 
Q 3109 3566 3000 3739 
Q 2891 3913 2687 3977 
Q 2484 4041 1991 4041 
L 1075 4041 
L 1075 2656 
z
M 1075 541 
L 2216 541 
Q 2509 541 2628 563 
Q 2838 600 2978 687 
Q 3119 775 3209 942 
Q 3300 1109 3300 1328 
Q 3300 1584 3169 1773 
Q 3038 1963 2805 2039 
Q 2572 2116 2134 2116 
L 1075 2116 
L 1075 541 
z
" transform="scale(0.015625)"/>
      <path id="ArialMT-53" d="M 288 1472 
L 859 1522 
Q 900 1178 1048 958 
Q 1197 738 1509 602 
Q 1822 466 2213 466 
Q 2559 466 2825 569 
Q 3091 672 3220 851 
Q 3350 1031 3350 1244 
Q 3350 1459 3225 1620 
Q 3100 1781 2813 1891 
Q 2628 1963 1997 2114 
Q 1366 2266 1113 2400 
Q 784 2572 623 2826 
Q 463 3081 463 3397 
Q 463 3744 659 4045 
Q 856 4347 1234 4503 
Q 1613 4659 2075 4659 
Q 2584 4659 2973 4495 
Q 3363 4331 3572 4012 
Q 3781 3694 3797 3291 
L 3216 3247 
Q 3169 3681 2898 3903 
Q 2628 4125 2100 4125 
Q 1550 4125 1298 3923 
Q 1047 3722 1047 3438 
Q 1047 3191 1225 3031 
Q 1400 2872 2139 2705 
Q 2878 2538 3153 2413 
Q 3553 2228 3743 1945 
Q 3934 1663 3934 1294 
Q 3934 928 3725 604 
Q 3516 281 3123 101 
Q 2731 -78 2241 -78 
Q 1619 -78 1198 103 
Q 778 284 539 648 
Q 300 1013 288 1472 
z
" transform="scale(0.015625)"/>
      <path id="ArialMT-70" d="M 422 -1272 
L 422 3319 
L 934 3319 
L 934 2888 
Q 1116 3141 1344 3267 
Q 1572 3394 1897 3394 
Q 2322 3394 2647 3175 
Q 2972 2956 3137 2557 
Q 3303 2159 3303 1684 
Q 3303 1175 3120 767 
Q 2938 359 2589 142 
Q 2241 -75 1856 -75 
Q 1575 -75 1351 44 
Q 1128 163 984 344 
L 984 -1272 
L 422 -1272 
z
M 931 1641 
Q 931 1000 1190 694 
Q 1450 388 1819 388 
Q 2194 388 2461 705 
Q 2728 1022 2728 1688 
Q 2728 2322 2467 2637 
Q 2206 2953 1844 2953 
Q 1484 2953 1207 2617 
Q 931 2281 931 1641 
z
" transform="scale(0.015625)"/>
     </defs>
     <use xlink:href="#ArialMT-4d"/>
     <use xlink:href="#ArialMT-79" transform="translate(83.300781 0)"/>
     <use xlink:href="#ArialMT-72" transform="translate(133.300781 0)"/>
     <use xlink:href="#ArialMT-69" transform="translate(166.601562 0)"/>
     <use xlink:href="#ArialMT-73" transform="translate(188.818359 0)"/>
     <use xlink:href="#ArialMT-74" transform="translate(238.818359 0)"/>
     <use xlink:href="#ArialMT-69" transform="translate(266.601562 0)"/>
     <use xlink:href="#ArialMT-63" transform="translate(288.818359 0)"/>
     <use xlink:href="#ArialMT-20" transform="translate(338.818359 0)"/>
     <use xlink:href="#ArialMT-41" transform="translate(361.101562 0)"/>
     <use xlink:href="#ArialMT-63" transform="translate(427.800781 0)"/>
     <use xlink:href="#ArialMT-69" transform="translate(477.800781 0)"/>
     <use xlink:href="#ArialMT-64" transform="translate(500.017578 0)"/>
     <use xlink:href="#ArialMT-20" transform="translate(555.632812 0)"/>
     <use xlink:href="#ArialMT-7c" transform="translate(583.416016 0)"/>
     <use xlink:href="#ArialMT-20" transform="translate(609.392578 0)"/>
     <use xlink:href="#ArialMT-47" transform="translate(637.175781 0)"/>
     <use xlink:href="#ArialMT-61" transform="translate(714.958984 0)"/>
     <use xlink:href="#ArialMT-75" transform="translate(770.574219 0)"/>
     <use xlink:href="#ArialMT-73" transform="translate(826.189453 0)"/>
     <use xlink:href="#ArialMT-73" transform="translate(876.189453 0)"/>
     <use xlink:href="#ArialMT-69" transform="translate(926.189453 0)"/>
     <use xlink:href="#ArialMT-61" transform="translate(948.40625 0)"/>
     <use xlink:href="#ArialMT-6e" transform="translate(1004.021484 0)"/>
     <use xlink:href="#ArialMT-2d" transform="translate(1059.636719 0)"/>
     <use xlink:href="#ArialMT-42" transform="translate(1092.9375 0)"/>
     <use xlink:href="#ArialMT-72" transform="translate(1159.636719 0)"/>
     <use xlink:href="#ArialMT-6f" transform="translate(1192.9375 0)"/>
     <use xlink:href="#ArialMT-61" transform="translate(1248.552734 0)"/>
     <use xlink:href="#ArialMT-64" transform="translate(1304.167969 0)"/>
     <use xlink:href="#ArialMT-65" transform="translate(1359.783203 0)"/>
     <use xlink:href="#ArialMT-6e" transform="translate(1415.398438 0)"/>
     <use xlink:href="#ArialMT-65" transform="translate(1471.013672 0)"/>
     <use xlink:href="#ArialMT-64" transform="translate(1526.628906 0)"/>
     <use xlink:href="#ArialMT-20" transform="translate(1582.244141 0)"/>
     <use xlink:href="#ArialMT-52" transform="translate(1610.027344 0)"/>
     <use xlink:href="#ArialMT-61" transform="translate(1682.244141 0)"/>
     <use xlink:href="#ArialMT-6d" transform="translate(1737.859375 0)"/>
     <use xlink:href="#ArialMT-61" transform="translate(1821.160156 0)"/>
     <use xlink:href="#ArialMT-6e" transform="translate(1876.775391 0)"/>
     <use xlink:href="#ArialMT-20" transform="translate(1932.390625 0)"/>
     <use xlink:href="#ArialMT-53" transform="translate(1960.173828 0)"/>
     <use xlink:href="#ArialMT-70" transform="translate(2026.873047 0)"/>
     <use xlink:href="#ArialMT-65" transform="translate(2082.488281 0)"/>
     <use xlink:href="#ArialMT-63" transform="translate(2138.103516 0)"/>
     <use xlink:href="#ArialMT-74" transform="translate(2188.103516 0)"/>
     <use xlink:href="#ArialMT-72" transform="translate(2215.886719 0)"/>
     <use xlink:href="#ArialMT-75" transform="translate(2249.1875 0)"/>
     <use xlink:href="#ArialMT-6d" transform="translate(2304.802734 0)"/>
    </g>
   </g>
   <g id="legend_1">
    <g id="patch_7">
     <path d="M 388.07 44.443594 
L 583.82 44.443594 
Q 585.62 44.443594 585.62 42.643594 
L 585.62 28.963594 
Q 585.62 27.163594 583.82 27.163594 
L 388.07 27.163594 
Q 386.27 27.163594 386.27 28.963594 
L 386.27 42.643594 
Q 386.27 44.443594 388.07 44.443594 
z
" style="fill: #ffffff; opacity: 0.8; stroke: #cccccc; stroke-linejoin: miter"/>
    </g>
    <g id="line2d_30">
     <path d="M 389.87 35.713594 
L 398.87 35.713594 
L 407.87 35.713594 
" style="fill: none; stroke: #d62728; stroke-width: 1.8; stroke-linecap: round"/>
    </g>
    <g id="text_18">
     <!-- Gaussian broadened (FWHM=12.0 cm$^{-1}$) -->
     <g style="fill: #262626" transform="translate(415.07 38.863594) scale(0.09 -0.09)">
      <defs>
       <path id="ArialMT-62" d="M 941 0 
L 419 0 
L 419 4581 
L 981 4581 
L 981 2947 
Q 1338 3394 1891 3394 
Q 2197 3394 2470 3270 
Q 2744 3147 2920 2923 
Q 3097 2700 3197 2384 
Q 3297 2069 3297 1709 
Q 3297 856 2875 390 
Q 2453 -75 1863 -75 
Q 1275 -75 941 416 
L 941 0 
z
M 934 1684 
Q 934 1088 1097 822 
Q 1363 388 1816 388 
Q 2184 388 2453 708 
Q 2722 1028 2722 1663 
Q 2722 2313 2464 2622 
Q 2206 2931 1841 2931 
Q 1472 2931 1203 2611 
Q 934 2291 934 1684 
z
" transform="scale(0.015625)"/>
       <path id="ArialMT-46" d="M 525 0 
L 525 4581 
L 3616 4581 
L 3616 4041 
L 1131 4041 
L 1131 2622 
L 3281 2622 
L 3281 2081 
L 1131 2081 
L 1131 0 
L 525 0 
z
" transform="scale(0.015625)"/>
       <path id="ArialMT-57" d="M 1294 0 
L 78 4581 
L 700 4581 
L 1397 1578 
Q 1509 1106 1591 641 
Q 1766 1375 1797 1488 
L 2669 4581 
L 3400 4581 
L 4056 2263 
Q 4303 1400 4413 641 
Q 4500 1075 4641 1638 
L 5359 4581 
L 5969 4581 
L 4713 0 
L 4128 0 
L 3163 3491 
Q 3041 3928 3019 4028 
Q 2947 3713 2884 3491 
L 1913 0 
L 1294 0 
z
" transform="scale(0.015625)"/>
       <path id="ArialMT-48" d="M 513 0 
L 513 4581 
L 1119 4581 
L 1119 2700 
L 3500 2700 
L 3500 4581 
L 4106 4581 
L 4106 0 
L 3500 0 
L 3500 2159 
L 1119 2159 
L 1119 0 
L 513 0 
z
" transform="scale(0.015625)"/>
       <path id="ArialMT-3d" d="M 3381 2694 
L 356 2694 
L 356 3219 
L 3381 3219 
L 3381 2694 
z
M 3381 1303 
L 356 1303 
L 356 1828 
L 3381 1828 
L 3381 1303 
z
" transform="scale(0.015625)"/>
      </defs>
      <use xlink:href="#ArialMT-47" transform="translate(0 0.684375)"/>
      <use xlink:href="#ArialMT-61" transform="translate(77.783203 0.684375)"/>
      <use xlink:href="#ArialMT-75" transform="translate(133.398438 0.684375)"/>
      <use xlink:href="#ArialMT-73" transform="translate(189.013672 0.684375)"/>
      <use xlink:href="#ArialMT-73" transform="translate(239.013672 0.684375)"/>
      <use xlink:href="#ArialMT-69" transform="translate(289.013672 0.684375)"/>
      <use xlink:href="#ArialMT-61" transform="translate(311.230469 0.684375)"/>
      <use xlink:href="#ArialMT-6e" transform="translate(366.845703 0.684375)"/>
      <use xlink:href="#ArialMT-20" transform="translate(422.460938 0.684375)"/>
      <use xlink:href="#ArialMT-62" transform="translate(450.244141 0.684375)"/>
      <use xlink:href="#ArialMT-72" transform="translate(505.859375 0.684375)"/>
      <use xlink:href="#ArialMT-6f" transform="translate(539.160156 0.684375)"/>
      <use xlink:href="#ArialMT-61" transform="translate(594.775391 0.684375)"/>
      <use xlink:href="#ArialMT-64" transform="translate(650.390625 0.684375)"/>
      <use xlink:href="#ArialMT-65" transform="translate(706.005859 0.684375)"/>
      <use xlink:href="#ArialMT-6e" transform="translate(761.621094 0.684375)"/>
      <use xlink:href="#ArialMT-65" transform="translate(817.236328 0.684375)"/>
      <use xlink:href="#ArialMT-64" transform="translate(872.851562 0.684375)"/>
      <use xlink:href="#ArialMT-20" transform="translate(928.466797 0.684375)"/>
      <use xlink:href="#ArialMT-28" transform="translate(956.25 0.684375)"/>
      <use xlink:href="#ArialMT-46" transform="translate(989.550781 0.684375)"/>
      <use xlink:href="#ArialMT-57" transform="translate(1050.634766 0.684375)"/>
      <use xlink:href="#ArialMT-48" transform="translate(1145.019531 0.684375)"/>
      <use xlink:href="#ArialMT-4d" transform="translate(1217.236328 0.684375)"/>
      <use xlink:href="#ArialMT-3d" transform="translate(1300.537109 0.684375)"/>
      <use xlink:href="#ArialMT-31" transform="translate(1358.935547 0.684375)"/>
      <use xlink:href="#ArialMT-32" transform="translate(1414.550781 0.684375)"/>
      <use xlink:href="#ArialMT-2e" transform="translate(1470.166016 0.684375)"/>
      <use xlink:href="#ArialMT-30" transform="translate(1497.949219 0.684375)"/>
      <use xlink:href="#ArialMT-20" transform="translate(1553.564453 0.684375)"/>
      <use xlink:href="#ArialMT-63" transform="translate(1581.347656 0.684375)"/>
      <use xlink:href="#ArialMT-6d" transform="translate(1631.347656 0.684375)"/>
      <use xlink:href="#DejaVuSans-2212" transform="translate(1715.605469 38.965625) scale(0.7)"/>
      <use xlink:href="#DejaVuSans-31" transform="translate(1774.257812 38.965625) scale(0.7)"/>
      <use xlink:href="#ArialMT-29" transform="translate(1821.52832 0.684375)"/>
     </g>
    </g>
   </g>
  </g>
 </g>
 <defs>
  <clipPath id="p46e9016a2f">
   <rect x="41.105" y="22.663594" width="549.015" height="250.74375"/>
  </clipPath>
 </defs>
</svg>
