<?xml version="1.0" encoding="utf-8" standalone="no"?>
<!DOCTYPE svg PUBLIC "-//W3C//DTD SVG 1.1//EN"
  "http://www.w3.org/Graphics/SVG/1.1/DTD/svg11.dtd">
<svg xmlns:xlink="http://www.w3.org/1999/xlink" width="609.700312pt" height="311.607187pt" viewBox="0 0 609.700312 311.607187" xmlns="http://www.w3.org/2000/svg" version="1.1">
 <metadata>
  <rdf:RDF xmlns:dc="http://purl.org/dc/elements/1.1/" xmlns:cc="http://creativecommons.org/ns#" xmlns:rdf="http://www.w3.org/1999/02/22-rdf-syntax-ns#">
   <cc:Work>
    <dc:type rdf:resource="http://purl.org/dc/dcmitype/StillImage"/>
    <dc:date>2026-04-16T21:06:19.910981</dc:date>
    <dc:format>image/svg+xml</dc:format>
    <dc:creator>
     <cc:Agent>
      <dc:title>Matplotlib v3.10.8, https://matplotlib.org/</dc:title>
     </cc:Agent>
    </dc:creator>
   </cc:Work>
  </rdf:RDF>
 </metadata>
 <defs>
  <style type="text/css">*{stroke-linejoin: round; stroke-linecap: butt}</style>
 </defs>
 <g id="figure_1">
  <g id="patch_1">
   <path d="M 0 311.607187 
L 609.700312 311.607187 
L 609.700312 0 
L 0 0 
z
" style="fill: #ffffff"/>
  </g>
  <g id="axes_1">
   <g id="patch_2">
    <path d="M 41.25125 273.407344 
L 590.26625 273.407344 
L 590.26625 22.663594 
L 41.25125 22.663594 
z
" style="fill: #ffffff"/>
   </g>
   <g id="matplotlib.axis_1">
    <g id="xtick_1">
     <g id="line2d_1">
      <path d="M 41.25125 273.407344 
L 41.25125 22.663594 
" clip-path="url(#p747d1c0458)" style="fill: none; stroke: #cccccc; stroke-width: 0.8; stroke-linecap: round"/>
     </g>
     <g id="line2d_2"/>
     <g id="text_1">
      <!-- 400 -->
      <g style="fill: #262626" transform="translate(32.075703 284.780937) scale(0.11 -0.11)">
       <defs>
        <path id="ArialMT-34" d="M 2069 0 
L 2069 1097 
L 81 1097 
L 81 1613 
L 2172 4581 
L 2631 4581 
L 2631 1613 
L 3250 1613 
L 3250 1097 
L 2631 1097 
L 2631 0 
L 2069 0 
z
M 2069 1613 
L 2069 3678 
L 634 1613 
L 2069 1613 
z
" transform="scale(0.015625)"/>
        <path id="ArialMT-30" d="M 266 2259 
Q 266 3072 433 3567 
Q 600 4063 929 4331 
Q 1259 4600 1759 4600 
Q 2128 4600 2406 4451 
Q 2684 4303 2865 4023 
Q 3047 3744 3150 3342 
Q 3253 2941 3253 2259 
Q 3253 1453 3087 958 
Q 2922 463 2592 192 
Q 2263 -78 1759 -78 
Q 1097 -78 719 397 
Q 266 969 266 2259 
z
M 844 2259 
Q 844 1131 1108 757 
Q 1372 384 1759 384 
Q 2147 384 2411 759 
Q 2675 1134 2675 2259 
Q 2675 3391 2411 3762 
Q 2147 4134 1753 4134 
Q 1366 4134 1134 3806 
Q 844 3388 844 2259 
z
" transform="scale(0.015625)"/>
       </defs>
       <use xlink:href="#ArialMT-34"/>
       <use xlink:href="#ArialMT-30" transform="translate(55.615234 0)"/>
       <use xlink:href="#ArialMT-30" transform="translate(111.230469 0)"/>
      </g>
     </g>
    </g>
    <g id="xtick_2">
     <g id="line2d_3">
      <path d="M 119.681964 273.407344 
L 119.681964 22.663594 
" clip-path="url(#p747d1c0458)" style="fill: none; stroke: #cccccc; stroke-width: 0.8; stroke-linecap: round"/>
     </g>
     <g id="line2d_4"/>
     <g id="text_2">
      <!-- 600 -->
      <g style="fill: #262626" transform="translate(110.506417 284.780937) scale(0.11 -0.11)">
       <defs>
        <path id="ArialMT-36" d="M 3184 3459 
L 2625 3416 
Q 2550 3747 2413 3897 
Q 2184 4138 1850 4138 
Q 1581 4138 1378 3988 
Q 1113 3794 959 3422 
Q 806 3050 800 2363 
Q 1003 2672 1297 2822 
Q 1591 2972 1913 2972 
Q 2475 2972 2870 2558 
Q 3266 2144 3266 1488 
Q 3266 1056 3080 686 
Q 2894 316 2569 119 
Q 2244 -78 1831 -78 
Q 1128 -78 684 439 
Q 241 956 241 2144 
Q 241 3472 731 4075 
Q 1159 4600 1884 4600 
Q 2425 4600 2770 4297 
Q 3116 3994 3184 3459 
z
M 888 1484 
Q 888 1194 1011 928 
Q 1134 663 1356 523 
Q 1578 384 1822 384 
Q 2178 384 2434 671 
Q 2691 959 2691 1453 
Q 2691 1928 2437 2201 
Q 2184 2475 1800 2475 
Q 1419 2475 1153 2201 
Q 888 1928 888 1484 
z
" transform="scale(0.015625)"/>
       </defs>
       <use xlink:href="#ArialMT-36"/>
       <use xlink:href="#ArialMT-30" transform="translate(55.615234 0)"/>
       <use xlink:href="#ArialMT-30" transform="translate(111.230469 0)"/>
      </g>
     </g>
    </g>
    <g id="xtick_3">
     <g id="line2d_5">
      <path d="M 198.112679 273.407344 
L 198.112679 22.663594 
" clip-path="url(#p747d1c0458)" style="fill: none; stroke: #cccccc; stroke-width: 0.8; stroke-linecap: round"/>
     </g>
     <g id="line2d_6"/>
     <g id="text_3">
      <!-- 800 -->
      <g style="fill: #262626" transform="translate(188.937132 284.780937) scale(0.11 -0.11)">
       <defs>
        <path id="ArialMT-38" d="M 1131 2484 
Q 781 2613 612 2850 
Q 444 3088 444 3419 
Q 444 3919 803 4259 
Q 1163 4600 1759 4600 
Q 2359 4600 2725 4251 
Q 3091 3903 3091 3403 
Q 3091 3084 2923 2848 
Q 2756 2613 2416 2484 
Q 2838 2347 3058 2040 
Q 3278 1734 3278 1309 
Q 3278 722 2862 322 
Q 2447 -78 1769 -78 
Q 1091 -78 675 323 
Q 259 725 259 1325 
Q 259 1772 486 2073 
Q 713 2375 1131 2484 
z
M 1019 3438 
Q 1019 3113 1228 2906 
Q 1438 2700 1772 2700 
Q 2097 2700 2305 2904 
Q 2513 3109 2513 3406 
Q 2513 3716 2298 3927 
Q 2084 4138 1766 4138 
Q 1444 4138 1231 3931 
Q 1019 3725 1019 3438 
z
M 838 1322 
Q 838 1081 952 856 
Q 1066 631 1291 507 
Q 1516 384 1775 384 
Q 2178 384 2440 643 
Q 2703 903 2703 1303 
Q 2703 1709 2433 1975 
Q 2163 2241 1756 2241 
Q 1359 2241 1098 1978 
Q 838 1716 838 1322 
z
" transform="scale(0.015625)"/>
       </defs>
       <use xlink:href="#ArialMT-38"/>
       <use xlink:href="#ArialMT-30" transform="translate(55.615234 0)"/>
       <use xlink:href="#ArialMT-30" transform="translate(111.230469 0)"/>
      </g>
     </g>
    </g>
    <g id="xtick_4">
     <g id="line2d_7">
      <path d="M 276.543393 273.407344 
L 276.543393 22.663594 
" clip-path="url(#p747d1c0458)" style="fill: none; stroke: #cccccc; stroke-width: 0.8; stroke-linecap: round"/>
     </g>
     <g id="line2d_8"/>
     <g id="text_4">
      <!-- 1000 -->
      <g style="fill: #262626" transform="translate(264.30933 284.780937) scale(0.11 -0.11)">
       <defs>
        <path id="ArialMT-31" d="M 2384 0 
L 1822 0 
L 1822 3584 
Q 1619 3391 1289 3197 
Q 959 3003 697 2906 
L 697 3450 
Q 1169 3672 1522 3987 
Q 1875 4303 2022 4600 
L 2384 4600 
L 2384 0 
z
" transform="scale(0.015625)"/>
       </defs>
       <use xlink:href="#ArialMT-31"/>
       <use xlink:href="#ArialMT-30" transform="translate(55.615234 0)"/>
       <use xlink:href="#ArialMT-30" transform="translate(111.230469 0)"/>
       <use xlink:href="#ArialMT-30" transform="translate(166.845703 0)"/>
      </g>
     </g>
    </g>
    <g id="xtick_5">
     <g id="line2d_9">
      <path d="M 354.974107 273.407344 
L 354.974107 22.663594 
" clip-path="url(#p747d1c0458)" style="fill: none; stroke: #cccccc; stroke-width: 0.8; stroke-linecap: round"/>
     </g>
     <g id="line2d_10"/>
     <g id="text_5">
      <!-- 1200 -->
      <g style="fill: #262626" transform="translate(342.740045 284.780937) scale(0.11 -0.11)">
       <defs>
        <path id="ArialMT-32" d="M 3222 541 
L 3222 0 
L 194 0 
Q 188 203 259 391 
Q 375 700 629 1000 
Q 884 1300 1366 1694 
Q 2113 2306 2375 2664 
Q 2638 3022 2638 3341 
Q 2638 3675 2398 3904 
Q 2159 4134 1775 4134 
Q 1369 4134 1125 3890 
Q 881 3647 878 3216 
L 300 3275 
Q 359 3922 746 4261 
Q 1134 4600 1788 4600 
Q 2447 4600 2831 4234 
Q 3216 3869 3216 3328 
Q 3216 3053 3103 2787 
Q 2991 2522 2730 2228 
Q 2469 1934 1863 1422 
Q 1356 997 1212 845 
Q 1069 694 975 541 
L 3222 541 
z
" transform="scale(0.015625)"/>
       </defs>
       <use xlink:href="#ArialMT-31"/>
       <use xlink:href="#ArialMT-32" transform="translate(55.615234 0)"/>
       <use xlink:href="#ArialMT-30" transform="translate(111.230469 0)"/>
       <use xlink:href="#ArialMT-30" transform="translate(166.845703 0)"/>
      </g>
     </g>
    </g>
    <g id="xtick_6">
     <g id="line2d_11">
      <path d="M 433.404821 273.407344 
L 433.404821 22.663594 
" clip-path="url(#p747d1c0458)" style="fill: none; stroke: #cccccc; stroke-width: 0.8; stroke-linecap: round"/>
     </g>
     <g id="line2d_12"/>
     <g id="text_6">
      <!-- 1400 -->
      <g style="fill: #262626" transform="translate(421.170759 284.780937) scale(0.11 -0.11)">
       <use xlink:href="#ArialMT-31"/>
       <use xlink:href="#ArialMT-34" transform="translate(55.615234 0)"/>
       <use xlink:href="#ArialMT-30" transform="translate(111.230469 0)"/>
       <use xlink:href="#ArialMT-30" transform="translate(166.845703 0)"/>
      </g>
     </g>
    </g>
    <g id="xtick_7">
     <g id="line2d_13">
      <path d="M 511.835536 273.407344 
L 511.835536 22.663594 
" clip-path="url(#p747d1c0458)" style="fill: none; stroke: #cccccc; stroke-width: 0.8; stroke-linecap: round"/>
     </g>
     <g id="line2d_14"/>
     <g id="text_7">
      <!-- 1600 -->
      <g style="fill: #262626" transform="translate(499.601473 284.780937) scale(0.11 -0.11)">
       <use xlink:href="#ArialMT-31"/>
       <use xlink:href="#ArialMT-36" transform="translate(55.615234 0)"/>
       <use xlink:href="#ArialMT-30" transform="translate(111.230469 0)"/>
       <use xlink:href="#ArialMT-30" transform="translate(166.845703 0)"/>
      </g>
     </g>
    </g>
    <g id="xtick_8">
     <g id="line2d_15">
      <path d="M 590.26625 273.407344 
L 590.26625 22.663594 
" clip-path="url(#p747d1c0458)" style="fill: none; stroke: #cccccc; stroke-width: 0.8; stroke-linecap: round"/>
     </g>
     <g id="line2d_16"/>
     <g id="text_8">
      <!-- 1800 -->
      <g style="fill: #262626" transform="translate(578.032187 284.780937) scale(0.11 -0.11)">
       <use xlink:href="#ArialMT-31"/>
       <use xlink:href="#ArialMT-38" transform="translate(55.615234 0)"/>
       <use xlink:href="#ArialMT-30" transform="translate(111.230469 0)"/>
       <use xlink:href="#ArialMT-30" transform="translate(166.845703 0)"/>
      </g>
     </g>
    </g>
    <g id="text_9">
     <!-- Raman Shift (cm$^{-1}$) -->
     <g style="fill: #262626" transform="translate(262.65875 301.767187) scale(0.12 -0.12)">
      <defs>
       <path id="ArialMT-52" d="M 503 0 
L 503 4581 
L 2534 4581 
Q 3147 4581 3465 4457 
Q 3784 4334 3975 4021 
Q 4166 3709 4166 3331 
Q 4166 2844 3850 2509 
Q 3534 2175 2875 2084 
Q 3116 1969 3241 1856 
Q 3506 1613 3744 1247 
L 4541 0 
L 3778 0 
L 3172 953 
Q 2906 1366 2734 1584 
Q 2563 1803 2427 1890 
Q 2291 1978 2150 2013 
Q 2047 2034 1813 2034 
L 1109 2034 
L 1109 0 
L 503 0 
z
M 1109 2559 
L 2413 2559 
Q 2828 2559 3062 2645 
Q 3297 2731 3419 2920 
Q 3541 3109 3541 3331 
Q 3541 3656 3305 3865 
Q 3069 4075 2559 4075 
L 1109 4075 
L 1109 2559 
z
" transform="scale(0.015625)"/>
       <path id="ArialMT-61" d="M 2588 409 
Q 2275 144 1986 34 
Q 1697 -75 1366 -75 
Q 819 -75 525 192 
Q 231 459 231 875 
Q 231 1119 342 1320 
Q 453 1522 633 1644 
Q 813 1766 1038 1828 
Q 1203 1872 1538 1913 
Q 2219 1994 2541 2106 
Q 2544 2222 2544 2253 
Q 2544 2597 2384 2738 
Q 2169 2928 1744 2928 
Q 1347 2928 1158 2789 
Q 969 2650 878 2297 
L 328 2372 
Q 403 2725 575 2942 
Q 747 3159 1072 3276 
Q 1397 3394 1825 3394 
Q 2250 3394 2515 3294 
Q 2781 3194 2906 3042 
Q 3031 2891 3081 2659 
Q 3109 2516 3109 2141 
L 3109 1391 
Q 3109 606 3145 398 
Q 3181 191 3288 0 
L 2700 0 
Q 2613 175 2588 409 
z
M 2541 1666 
Q 2234 1541 1622 1453 
Q 1275 1403 1131 1340 
Q 988 1278 909 1158 
Q 831 1038 831 891 
Q 831 666 1001 516 
Q 1172 366 1500 366 
Q 1825 366 2078 508 
Q 2331 650 2450 897 
Q 2541 1088 2541 1459 
L 2541 1666 
z
" transform="scale(0.015625)"/>
       <path id="ArialMT-6d" d="M 422 0 
L 422 3319 
L 925 3319 
L 925 2853 
Q 1081 3097 1340 3245 
Q 1600 3394 1931 3394 
Q 2300 3394 2536 3241 
Q 2772 3088 2869 2813 
Q 3263 3394 3894 3394 
Q 4388 3394 4653 3120 
Q 4919 2847 4919 2278 
L 4919 0 
L 4359 0 
L 4359 2091 
Q 4359 2428 4304 2576 
Q 4250 2725 4106 2815 
Q 3963 2906 3769 2906 
Q 3419 2906 3187 2673 
Q 2956 2441 2956 1928 
L 2956 0 
L 2394 0 
L 2394 2156 
Q 2394 2531 2256 2718 
Q 2119 2906 1806 2906 
Q 1569 2906 1367 2781 
Q 1166 2656 1075 2415 
Q 984 2175 984 1722 
L 984 0 
L 422 0 
z
" transform="scale(0.015625)"/>
       <path id="ArialMT-6e" d="M 422 0 
L 422 3319 
L 928 3319 
L 928 2847 
Q 1294 3394 1984 3394 
Q 2284 3394 2536 3286 
Q 2788 3178 2913 3003 
Q 3038 2828 3088 2588 
Q 3119 2431 3119 2041 
L 3119 0 
L 2556 0 
L 2556 2019 
Q 2556 2363 2490 2533 
Q 2425 2703 2258 2804 
Q 2091 2906 1866 2906 
Q 1506 2906 1245 2678 
Q 984 2450 984 1813 
L 984 0 
L 422 0 
z
" transform="scale(0.015625)"/>
       <path id="ArialMT-20" transform="scale(0.015625)"/>
       <path id="ArialMT-53" d="M 288 1472 
L 859 1522 
Q 900 1178 1048 958 
Q 1197 738 1509 602 
Q 1822 466 2213 466 
Q 2559 466 2825 569 
Q 3091 672 3220 851 
Q 3350 1031 3350 1244 
Q 3350 1459 3225 1620 
Q 3100 1781 2813 1891 
Q 2628 1963 1997 2114 
Q 1366 2266 1113 2400 
Q 784 2572 623 2826 
Q 463 3081 463 3397 
Q 463 3744 659 4045 
Q 856 4347 1234 4503 
Q 1613 4659 2075 4659 
Q 2584 4659 2973 4495 
Q 3363 4331 3572 4012 
Q 3781 3694 3797 3291 
L 3216 3247 
Q 3169 3681 2898 3903 
Q 2628 4125 2100 4125 
Q 1550 4125 1298 3923 
Q 1047 3722 1047 3438 
Q 1047 3191 1225 3031 
Q 1400 2872 2139 2705 
Q 2878 2538 3153 2413 
Q 3553 2228 3743 1945 
Q 3934 1663 3934 1294 
Q 3934 928 3725 604 
Q 3516 281 3123 101 
Q 2731 -78 2241 -78 
Q 1619 -78 1198 103 
Q 778 284 539 648 
Q 300 1013 288 1472 
z
" transform="scale(0.015625)"/>
       <path id="ArialMT-68" d="M 422 0 
L 422 4581 
L 984 4581 
L 984 2938 
Q 1378 3394 1978 3394 
Q 2347 3394 2619 3248 
Q 2891 3103 3008 2847 
Q 3125 2591 3125 2103 
L 3125 0 
L 2563 0 
L 2563 2103 
Q 2563 2525 2380 2717 
Q 2197 2909 1863 2909 
Q 1613 2909 1392 2779 
Q 1172 2650 1078 2428 
Q 984 2206 984 1816 
L 984 0 
L 422 0 
z
" transform="scale(0.015625)"/>
       <path id="ArialMT-69" d="M 425 3934 
L 425 4581 
L 988 4581 
L 988 3934 
L 425 3934 
z
M 425 0 
L 425 3319 
L 988 3319 
L 988 0 
L 425 0 
z
" transform="scale(0.015625)"/>
       <path id="ArialMT-66" d="M 556 0 
L 556 2881 
L 59 2881 
L 59 3319 
L 556 3319 
L 556 3672 
Q 556 4006 616 4169 
Q 697 4388 901 4523 
Q 1106 4659 1475 4659 
Q 1713 4659 2000 4603 
L 1916 4113 
Q 1741 4144 1584 4144 
Q 1328 4144 1222 4034 
Q 1116 3925 1116 3625 
L 1116 3319 
L 1763 3319 
L 1763 2881 
L 1116 2881 
L 1116 0 
L 556 0 
z
" transform="scale(0.015625)"/>
       <path id="ArialMT-74" d="M 1650 503 
L 1731 6 
Q 1494 -44 1306 -44 
Q 1000 -44 831 53 
Q 663 150 594 308 
Q 525 466 525 972 
L 525 2881 
L 113 2881 
L 113 3319 
L 525 3319 
L 525 4141 
L 1084 4478 
L 1084 3319 
L 1650 3319 
L 1650 2881 
L 1084 2881 
L 1084 941 
Q 1084 700 1114 631 
Q 1144 563 1211 522 
Q 1278 481 1403 481 
Q 1497 481 1650 503 
z
" transform="scale(0.015625)"/>
       <path id="ArialMT-28" d="M 1497 -1347 
Q 1031 -759 709 28 
Q 388 816 388 1659 
Q 388 2403 628 3084 
Q 909 3875 1497 4659 
L 1900 4659 
Q 1522 4009 1400 3731 
Q 1209 3300 1100 2831 
Q 966 2247 966 1656 
Q 966 153 1900 -1347 
L 1497 -1347 
z
" transform="scale(0.015625)"/>
       <path id="ArialMT-63" d="M 2588 1216 
L 3141 1144 
Q 3050 572 2676 248 
Q 2303 -75 1759 -75 
Q 1078 -75 664 370 
Q 250 816 250 1647 
Q 250 2184 428 2587 
Q 606 2991 970 3192 
Q 1334 3394 1763 3394 
Q 2303 3394 2647 3120 
Q 2991 2847 3088 2344 
L 2541 2259 
Q 2463 2594 2264 2762 
Q 2066 2931 1784 2931 
Q 1359 2931 1093 2626 
Q 828 2322 828 1663 
Q 828 994 1084 691 
Q 1341 388 1753 388 
Q 2084 388 2306 591 
Q 2528 794 2588 1216 
z
" transform="scale(0.015625)"/>
       <path id="DejaVuSans-2212" d="M 678 2272 
L 4684 2272 
L 4684 1741 
L 678 1741 
L 678 2272 
z
" transform="scale(0.015625)"/>
       <path id="DejaVuSans-31" d="M 794 531 
L 1825 531 
L 1825 4091 
L 703 3866 
L 703 4441 
L 1819 4666 
L 2450 4666 
L 2450 531 
L 3481 531 
L 3481 0 
L 794 0 
L 794 531 
z
" transform="scale(0.015625)"/>
       <path id="ArialMT-29" d="M 791 -1347 
L 388 -1347 
Q 1322 153 1322 1656 
Q 1322 2244 1188 2822 
Q 1081 3291 891 3722 
Q 769 4003 388 4659 
L 791 4659 
Q 1378 3875 1659 3084 
Q 1900 2403 1900 1659 
Q 1900 816 1576 28 
Q 1253 -759 791 -1347 
z
" transform="scale(0.015625)"/>
      </defs>
      <use xlink:href="#ArialMT-52" transform="translate(0 0.684375)"/>
      <use xlink:href="#ArialMT-61" transform="translate(72.216797 0.684375)"/>
      <use xlink:href="#ArialMT-6d" transform="translate(127.832031 0.684375)"/>
      <use xlink:href="#ArialMT-61" transform="translate(211.132812 0.684375)"/>
      <use xlink:href="#ArialMT-6e" transform="translate(266.748047 0.684375)"/>
      <use xlink:href="#ArialMT-20" transform="translate(322.363281 0.684375)"/>
      <use xlink:href="#ArialMT-53" transform="translate(350.146484 0.684375)"/>
      <use xlink:href="#ArialMT-68" transform="translate(416.845703 0.684375)"/>
      <use xlink:href="#ArialMT-69" transform="translate(472.460938 0.684375)"/>
      <use xlink:href="#ArialMT-66" transform="translate(494.677734 0.684375)"/>
      <use xlink:href="#ArialMT-74" transform="translate(522.460938 0.684375)"/>
      <use xlink:href="#ArialMT-20" transform="translate(550.244141 0.684375)"/>
      <use xlink:href="#ArialMT-28" transform="translate(578.027344 0.684375)"/>
      <use xlink:href="#ArialMT-63" transform="translate(611.328125 0.684375)"/>
      <use xlink:href="#ArialMT-6d" transform="translate(661.328125 0.684375)"/>
      <use xlink:href="#DejaVuSans-2212" transform="translate(745.585938 38.965625) scale(0.7)"/>
      <use xlink:href="#DejaVuSans-31" transform="translate(804.238281 38.965625) scale(0.7)"/>
      <use xlink:href="#ArialMT-29" transform="translate(851.508789 0.684375)"/>
     </g>
    </g>
   </g>
   <g id="matplotlib.axis_2">
    <g id="ytick_1">
     <g id="line2d_17">
      <path d="M 41.25125 273.407344 
L 590.26625 273.407344 
" clip-path="url(#p747d1c0458)" style="fill: none; stroke: #cccccc; stroke-width: 0.8; stroke-linecap: round"/>
     </g>
     <g id="line2d_18"/>
     <g id="text_10">
      <!-- 0.0 -->
      <g style="fill: #262626" transform="translate(22.46125 277.344141) scale(0.11 -0.11)">
       <defs>
        <path id="ArialMT-2e" d="M 581 0 
L 581 641 
L 1222 641 
L 1222 0 
L 581 0 
z
" transform="scale(0.015625)"/>
       </defs>
       <use xlink:href="#ArialMT-30"/>
       <use xlink:href="#ArialMT-2e" transform="translate(55.615234 0)"/>
       <use xlink:href="#ArialMT-30" transform="translate(83.398438 0)"/>
      </g>
     </g>
    </g>
    <g id="ytick_2">
     <g id="line2d_19">
      <path d="M 41.25125 225.646629 
L 590.26625 225.646629 
" clip-path="url(#p747d1c0458)" style="fill: none; stroke: #cccccc; stroke-width: 0.8; stroke-linecap: round"/>
     </g>
     <g id="line2d_20"/>
     <g id="text_11">
      <!-- 0.2 -->
      <g style="fill: #262626" transform="translate(22.46125 229.583426) scale(0.11 -0.11)">
       <use xlink:href="#ArialMT-30"/>
       <use xlink:href="#ArialMT-2e" transform="translate(55.615234 0)"/>
       <use xlink:href="#ArialMT-32" transform="translate(83.398438 0)"/>
      </g>
     </g>
    </g>
    <g id="ytick_3">
     <g id="line2d_21">
      <path d="M 41.25125 177.885915 
L 590.26625 177.885915 
" clip-path="url(#p747d1c0458)" style="fill: none; stroke: #cccccc; stroke-width: 0.8; stroke-linecap: round"/>
     </g>
     <g id="line2d_22"/>
     <g id="text_12">
      <!-- 0.4 -->
      <g style="fill: #262626" transform="translate(22.46125 181.822712) scale(0.11 -0.11)">
       <use xlink:href="#ArialMT-30"/>
       <use xlink:href="#ArialMT-2e" transform="translate(55.615234 0)"/>
       <use xlink:href="#ArialMT-34" transform="translate(83.398438 0)"/>
      </g>
     </g>
    </g>
    <g id="ytick_4">
     <g id="line2d_23">
      <path d="M 41.25125 130.125201 
L 590.26625 130.125201 
" clip-path="url(#p747d1c0458)" style="fill: none; stroke: #cccccc; stroke-width: 0.8; stroke-linecap: round"/>
     </g>
     <g id="line2d_24"/>
     <g id="text_13">
      <!-- 0.6 -->
      <g style="fill: #262626" transform="translate(22.46125 134.061998) scale(0.11 -0.11)">
       <use xlink:href="#ArialMT-30"/>
       <use xlink:href="#ArialMT-2e" transform="translate(55.615234 0)"/>
       <use xlink:href="#ArialMT-36" transform="translate(83.398438 0)"/>
      </g>
     </g>
    </g>
    <g id="ytick_5">
     <g id="line2d_25">
      <path d="M 41.25125 82.364487 
L 590.26625 82.364487 
" clip-path="url(#p747d1c0458)" style="fill: none; stroke: #cccccc; stroke-width: 0.8; stroke-linecap: round"/>
     </g>
     <g id="line2d_26"/>
     <g id="text_14">
      <!-- 0.8 -->
      <g style="fill: #262626" transform="translate(22.46125 86.301283) scale(0.11 -0.11)">
       <use xlink:href="#ArialMT-30"/>
       <use xlink:href="#ArialMT-2e" transform="translate(55.615234 0)"/>
       <use xlink:href="#ArialMT-38" transform="translate(83.398438 0)"/>
      </g>
     </g>
    </g>
    <g id="ytick_6">
     <g id="line2d_27">
      <path d="M 41.25125 34.603772 
L 590.26625 34.603772 
" clip-path="url(#p747d1c0458)" style="fill: none; stroke: #cccccc; stroke-width: 0.8; stroke-linecap: round"/>
     </g>
     <g id="line2d_28"/>
     <g id="text_15">
      <!-- 1.0 -->
      <g style="fill: #262626" transform="translate(22.46125 38.540569) scale(0.11 -0.11)">
       <use xlink:href="#ArialMT-31"/>
       <use xlink:href="#ArialMT-2e" transform="translate(55.615234 0)"/>
       <use xlink:href="#ArialMT-30" transform="translate(83.398438 0)"/>
      </g>
     </g>
    </g>
    <g id="text_16">
     <!-- Relative Intensity (a.u.) -->
     <g style="fill: #262626" transform="translate(15.935625 209.391094) rotate(-90) scale(0.12 -0.12)">
      <defs>
       <path id="ArialMT-65" d="M 2694 1069 
L 3275 997 
Q 3138 488 2766 206 
Q 2394 -75 1816 -75 
Q 1088 -75 661 373 
Q 234 822 234 1631 
Q 234 2469 665 2931 
Q 1097 3394 1784 3394 
Q 2450 3394 2872 2941 
Q 3294 2488 3294 1666 
Q 3294 1616 3291 1516 
L 816 1516 
Q 847 969 1125 678 
Q 1403 388 1819 388 
Q 2128 388 2347 550 
Q 2566 713 2694 1069 
z
M 847 1978 
L 2700 1978 
Q 2663 2397 2488 2606 
Q 2219 2931 1791 2931 
Q 1403 2931 1139 2672 
Q 875 2413 847 1978 
z
" transform="scale(0.015625)"/>
       <path id="ArialMT-6c" d="M 409 0 
L 409 4581 
L 972 4581 
L 972 0 
L 409 0 
z
" transform="scale(0.015625)"/>
       <path id="ArialMT-76" d="M 1344 0 
L 81 3319 
L 675 3319 
L 1388 1331 
Q 1503 1009 1600 663 
Q 1675 925 1809 1294 
L 2547 3319 
L 3125 3319 
L 1869 0 
L 1344 0 
z
" transform="scale(0.015625)"/>
       <path id="ArialMT-49" d="M 597 0 
L 597 4581 
L 1203 4581 
L 1203 0 
L 597 0 
z
" transform="scale(0.015625)"/>
       <path id="ArialMT-73" d="M 197 991 
L 753 1078 
Q 800 744 1014 566 
Q 1228 388 1613 388 
Q 2000 388 2187 545 
Q 2375 703 2375 916 
Q 2375 1106 2209 1216 
Q 2094 1291 1634 1406 
Q 1016 1563 777 1677 
Q 538 1791 414 1992 
Q 291 2194 291 2438 
Q 291 2659 392 2848 
Q 494 3038 669 3163 
Q 800 3259 1026 3326 
Q 1253 3394 1513 3394 
Q 1903 3394 2198 3281 
Q 2494 3169 2634 2976 
Q 2775 2784 2828 2463 
L 2278 2388 
Q 2241 2644 2061 2787 
Q 1881 2931 1553 2931 
Q 1166 2931 1000 2803 
Q 834 2675 834 2503 
Q 834 2394 903 2306 
Q 972 2216 1119 2156 
Q 1203 2125 1616 2013 
Q 2213 1853 2448 1751 
Q 2684 1650 2818 1456 
Q 2953 1263 2953 975 
Q 2953 694 2789 445 
Q 2625 197 2315 61 
Q 2006 -75 1616 -75 
Q 969 -75 630 194 
Q 291 463 197 991 
z
" transform="scale(0.015625)"/>
       <path id="ArialMT-79" d="M 397 -1278 
L 334 -750 
Q 519 -800 656 -800 
Q 844 -800 956 -737 
Q 1069 -675 1141 -563 
Q 1194 -478 1313 -144 
Q 1328 -97 1363 -6 
L 103 3319 
L 709 3319 
L 1400 1397 
Q 1534 1031 1641 628 
Q 1738 1016 1872 1384 
L 2581 3319 
L 3144 3319 
L 1881 -56 
Q 1678 -603 1566 -809 
Q 1416 -1088 1222 -1217 
Q 1028 -1347 759 -1347 
Q 597 -1347 397 -1278 
z
" transform="scale(0.015625)"/>
       <path id="ArialMT-75" d="M 2597 0 
L 2597 488 
Q 2209 -75 1544 -75 
Q 1250 -75 995 37 
Q 741 150 617 320 
Q 494 491 444 738 
Q 409 903 409 1263 
L 409 3319 
L 972 3319 
L 972 1478 
Q 972 1038 1006 884 
Q 1059 663 1231 536 
Q 1403 409 1656 409 
Q 1909 409 2131 539 
Q 2353 669 2445 892 
Q 2538 1116 2538 1541 
L 2538 3319 
L 3100 3319 
L 3100 0 
L 2597 0 
z
" transform="scale(0.015625)"/>
      </defs>
      <use xlink:href="#ArialMT-52"/>
      <use xlink:href="#ArialMT-65" transform="translate(72.216797 0)"/>
      <use xlink:href="#ArialMT-6c" transform="translate(127.832031 0)"/>
      <use xlink:href="#ArialMT-61" transform="translate(150.048828 0)"/>
      <use xlink:href="#ArialMT-74" transform="translate(205.664062 0)"/>
      <use xlink:href="#ArialMT-69" transform="translate(233.447266 0)"/>
      <use xlink:href="#ArialMT-76" transform="translate(255.664062 0)"/>
      <use xlink:href="#ArialMT-65" transform="translate(305.664062 0)"/>
      <use xlink:href="#ArialMT-20" transform="translate(361.279297 0)"/>
      <use xlink:href="#ArialMT-49" transform="translate(389.0625 0)"/>
      <use xlink:href="#ArialMT-6e" transform="translate(416.845703 0)"/>
      <use xlink:href="#ArialMT-74" transform="translate(472.460938 0)"/>
      <use xlink:href="#ArialMT-65" transform="translate(500.244141 0)"/>
      <use xlink:href="#ArialMT-6e" transform="translate(555.859375 0)"/>
      <use xlink:href="#ArialMT-73" transform="translate(611.474609 0)"/>
      <use xlink:href="#ArialMT-69" transform="translate(661.474609 0)"/>
      <use xlink:href="#ArialMT-74" transform="translate(683.691406 0)"/>
      <use xlink:href="#ArialMT-79" transform="translate(711.474609 0)"/>
      <use xlink:href="#ArialMT-20" transform="translate(761.474609 0)"/>
      <use xlink:href="#ArialMT-28" transform="translate(789.257812 0)"/>
      <use xlink:href="#ArialMT-61" transform="translate(822.558594 0)"/>
      <use xlink:href="#ArialMT-2e" transform="translate(878.173828 0)"/>
      <use xlink:href="#ArialMT-75" transform="translate(905.957031 0)"/>
      <use xlink:href="#ArialMT-2e" transform="translate(961.572266 0)"/>
      <use xlink:href="#ArialMT-29" transform="translate(989.355469 0)"/>
     </g>
    </g>
   </g>
   <g id="line2d_29">
    <path d="M 41.25125 273.354593 
L 41.643404 273.216783 
L 42.819864 272.284371 
L 43.212018 272.393148 
L 43.996325 273.113691 
L 44.388479 273.306202 
L 45.172786 273.287444 
L 46.349246 272.903056 
L 47.133554 273.170484 
L 47.917861 273.373204 
L 48.702168 273.328795 
L 49.878629 273.160326 
L 51.839396 273.376517 
L 53.408011 273.226771 
L 54.976625 273.391413 
L 57.329546 273.311215 
L 58.506007 273.384879 
L 60.466775 273.242275 
L 61.643236 273.388021 
L 62.427543 273.298229 
L 63.21185 273.11519 
L 63.996157 273.211271 
L 64.780464 273.368122 
L 65.564771 273.294928 
L 66.741232 272.804594 
L 67.133386 272.877659 
L 67.917693 273.259357 
L 68.309846 273.340933 
L 68.702 273.301111 
L 69.094154 273.100228 
L 69.878461 272.320872 
L 70.270614 272.189235 
L 70.662768 272.441523 
L 71.447075 273.180693 
L 71.839229 273.278167 
L 72.231382 273.116126 
L 72.623536 272.606617 
L 73.407843 271.094966 
L 73.799996 271.068361 
L 74.976457 273.083804 
L 75.368611 273.222612 
L 75.760764 272.998638 
L 76.152918 272.386007 
L 76.545071 271.546273 
L 76.937225 271.005697 
L 77.329379 271.215523 
L 78.113686 272.740291 
L 78.505839 273.055785 
L 78.897993 272.69216 
L 79.290146 271.200843 
L 80.074454 264.976052 
L 80.466607 263.590573 
L 80.858761 265.324429 
L 81.643068 271.395354 
L 82.035221 272.397287 
L 82.427375 271.416204 
L 82.819529 267.819345 
L 83.603836 256.019884 
L 83.995989 255.14289 
L 84.388143 259.84067 
L 84.780296 266.278912 
L 85.17245 270.737842 
L 85.564604 272.587901 
L 85.956757 272.806341 
L 86.348911 272.125322 
L 87.133218 270.193563 
L 87.525371 270.361727 
L 88.309679 272.43819 
L 88.701832 273.069205 
L 89.093986 273.262361 
L 89.486139 273.161202 
L 90.6626 272.240875 
L 91.054754 272.409998 
L 91.839061 273.147552 
L 92.231214 273.316929 
L 92.623368 273.336166 
L 93.407675 273.040036 
L 93.799829 272.841076 
L 94.191982 272.78963 
L 95.760596 273.366554 
L 96.544904 273.259203 
L 97.329211 273.003452 
L 97.721364 273.009842 
L 99.289979 273.379367 
L 100.074286 273.261499 
L 100.858593 273.082675 
L 101.6429 273.226262 
L 102.427207 273.377143 
L 103.211514 273.33423 
L 104.387975 273.110279 
L 106.348743 273.369435 
L 107.917357 273.103124 
L 109.485971 273.380465 
L 110.270279 273.248333 
L 111.054586 273.025506 
L 111.838893 273.177645 
L 112.6232 273.364961 
L 113.407507 273.282707 
L 114.583968 272.839243 
L 115.368275 273.128854 
L 116.152582 273.348912 
L 116.544736 273.296591 
L 116.936889 273.095044 
L 117.721196 272.415489 
L 118.11335 272.354559 
L 119.289811 273.228496 
L 119.681964 273.249211 
L 120.074118 272.953745 
L 120.466271 272.19895 
L 121.250579 270.275834 
L 121.642732 270.408356 
L 122.427039 272.399777 
L 122.819193 272.833863 
L 123.211346 272.134494 
L 123.6035 269.267664 
L 124.779961 252.120888 
L 125.172114 255.01704 
L 125.956421 268.539445 
L 126.348575 271.831819 
L 126.740729 272.676258 
L 127.132882 272.077288 
L 127.917189 269.004051 
L 128.309343 268.554068 
L 128.701496 269.624458 
L 129.485804 272.586311 
L 129.877957 273.135473 
L 130.270111 273.172908 
L 130.662264 272.864634 
L 131.446571 271.906034 
L 131.838725 271.914363 
L 133.015186 273.211645 
L 133.407339 273.300013 
L 133.799493 273.177895 
L 134.975954 272.127994 
L 135.368107 272.259455 
L 136.152414 273.072951 
L 136.544568 273.253707 
L 136.936721 273.155087 
L 137.328875 272.662162 
L 138.113182 270.659067 
L 138.505336 270.261328 
L 138.897489 270.860279 
L 139.681796 272.761823 
L 140.07395 272.913504 
L 140.466104 272.030495 
L 140.858257 269.480364 
L 141.642564 261.575299 
L 142.034718 261.187747 
L 142.426871 264.483571 
L 142.819025 268.797397 
L 143.211179 271.709893 
L 143.603332 272.894234 
L 143.995486 273.034716 
L 144.387639 272.624105 
L 145.171946 271.509203 
L 145.5641 271.638813 
L 146.348407 272.863238 
L 146.740561 273.219868 
L 147.132714 273.324507 
L 147.524868 273.262005 
L 148.701329 272.749307 
L 149.093482 272.854187 
L 149.877789 273.267933 
L 150.662096 273.366948 
L 152.622864 273.152331 
L 153.407171 273.354122 
L 154.191479 273.375701 
L 155.760093 273.203919 
L 157.328707 273.392441 
L 160.073782 273.366057 
L 161.250243 273.362499 
L 162.426704 273.233737 
L 164.779625 273.346412 
L 165.956086 273.233133 
L 167.916854 273.382809 
L 169.485468 273.280085 
L 171.054082 273.394914 
L 173.407004 273.341286 
L 174.583464 273.39365 
L 176.936386 273.363038 
L 178.505 273.360396 
L 179.681461 273.296771 
L 181.250075 273.392808 
L 183.602996 273.306835 
L 184.779457 273.390991 
L 187.132379 273.34478 
L 188.308839 273.388895 
L 190.269607 273.320353 
L 191.446068 273.395802 
L 194.191143 273.369416 
L 195.367604 273.356104 
L 196.544064 273.20236 
L 198.504832 273.373544 
L 200.073446 273.137322 
L 201.642061 273.383542 
L 202.426368 273.266318 
L 203.210675 273.073107 
L 203.994982 273.208901 
L 204.779289 273.370645 
L 205.563596 273.293759 
L 206.740057 272.899334 
L 207.524364 273.161581 
L 208.308671 273.356997 
L 208.700825 273.313817 
L 209.485132 272.857492 
L 209.877286 272.587521 
L 210.269439 272.542872 
L 211.838054 273.299639 
L 212.230207 273.118357 
L 212.622361 272.645688 
L 213.406668 271.459791 
L 213.798821 271.55451 
L 214.583129 272.801191 
L 214.975282 273.116379 
L 215.367436 272.915311 
L 215.759589 271.872985 
L 216.93605 265.687212 
L 217.328204 266.780836 
L 218.112511 271.616597 
L 218.504664 272.480306 
L 218.896818 271.527977 
L 219.288971 267.917369 
L 220.073279 254.844784 
L 220.465432 253.080487 
L 220.857586 257.667481 
L 221.641893 270.03413 
L 222.034046 272.288472 
L 222.4262 272.418536 
L 222.818354 271.11417 
L 223.602661 267.143371 
L 223.994814 267.218824 
L 225.171275 272.423412 
L 225.563429 272.022921 
L 225.955582 269.096172 
L 226.347736 262.615987 
L 226.739889 254.177181 
L 227.132043 249.168068 
L 227.524196 251.802541 
L 228.308504 267.326828 
L 228.700657 271.415982 
L 229.092811 272.621385 
L 229.484964 272.182722 
L 230.269271 269.17284 
L 230.661425 268.592452 
L 231.053579 269.535497 
L 231.837886 272.514736 
L 232.230039 273.112403 
L 232.622193 273.179092 
L 233.014346 272.884595 
L 233.798654 271.872327 
L 234.190807 271.832495 
L 235.367268 273.187897 
L 235.759421 273.316957 
L 236.151575 273.264694 
L 237.328036 272.565047 
L 237.720189 272.627691 
L 238.89665 273.322473 
L 239.680957 273.284767 
L 240.857418 272.849899 
L 241.641725 273.132269 
L 242.426032 273.363655 
L 243.210339 273.280411 
L 243.994646 273.003115 
L 244.3868 272.976654 
L 245.955414 273.375028 
L 246.739721 273.250414 
L 247.524029 272.998337 
L 248.308336 273.140032 
L 249.092643 273.35854 
L 249.87695 273.317883 
L 251.053411 272.949835 
L 251.837718 273.163766 
L 252.622025 273.360106 
L 253.406332 273.200028 
L 254.190639 272.693136 
L 254.582793 272.617081 
L 255.3671 273.064656 
L 255.759254 273.268652 
L 256.151407 273.342828 
L 256.543561 273.290306 
L 257.327868 272.788289 
L 257.720021 272.533515 
L 258.112175 272.535015 
L 259.288636 273.277593 
L 259.680789 273.271871 
L 260.072943 273.012052 
L 261.249404 271.1251 
L 261.641557 271.351845 
L 262.425864 272.811186 
L 262.818018 273.176068 
L 263.210171 273.164764 
L 263.602325 272.74955 
L 264.386632 270.975735 
L 264.778786 270.613253 
L 265.170939 271.137001 
L 265.955246 272.872126 
L 266.3474 273.224103 
L 266.739554 273.247845 
L 267.131707 273.025892 
L 267.916014 272.261257 
L 268.308168 272.219218 
L 269.484629 273.230726 
L 269.876782 273.305495 
L 270.268936 273.178895 
L 270.661089 272.822773 
L 271.445396 271.963474 
L 271.83755 272.056878 
L 272.621857 272.986865 
L 273.014011 273.250263 
L 273.406164 273.284516 
L 273.798318 273.096431 
L 274.974779 271.938583 
L 275.366932 272.167905 
L 276.151239 273.086725 
L 276.543393 273.26174 
L 276.935546 273.161512 
L 277.3277 272.715618 
L 278.112007 271.149157 
L 278.504161 270.976143 
L 278.896314 271.556042 
L 279.288468 272.405542 
L 279.680621 272.985344 
L 280.072775 273.070277 
L 280.464929 272.474908 
L 280.857082 270.896442 
L 281.641389 266.714092 
L 282.033543 266.906062 
L 283.210004 272.568851 
L 283.602157 272.761501 
L 283.994311 271.746327 
L 285.170771 264.63263 
L 285.562925 265.717454 
L 286.347232 271.24755 
L 286.739386 272.303942 
L 287.131539 271.223515 
L 287.523693 266.927434 
L 288.308 250.573675 
L 288.700154 247.877892 
L 289.092307 253.220874 
L 289.876614 268.640189 
L 290.268768 270.408635 
L 290.660921 266.091799 
L 291.053075 253.204356 
L 291.837382 215.36469 
L 292.229536 214.859727 
L 293.405996 265.77634 
L 293.79815 270.896256 
L 294.190304 270.823772 
L 294.582457 267.584066 
L 294.974611 262.882239 
L 295.366764 259.866289 
L 295.758918 261.084564 
L 296.543225 269.786269 
L 296.935379 272.161268 
L 297.327532 272.747631 
L 297.719686 272.065673 
L 298.503993 268.452923 
L 298.896146 267.655143 
L 299.2883 268.684302 
L 300.072607 272.245031 
L 300.464761 272.862653 
L 300.856914 272.426933 
L 301.249068 270.691462 
L 302.033375 265.008126 
L 302.425529 264.608766 
L 302.817682 266.887554 
L 303.209836 269.96564 
L 303.601989 271.929704 
L 303.994143 271.935262 
L 304.386296 269.032699 
L 304.77845 261.869447 
L 305.170604 251.61343 
L 305.562757 244.279909 
L 305.954911 245.879719 
L 306.739218 264.70472 
L 307.131371 270.435119 
L 307.523525 272.394579 
L 307.915679 272.1791 
L 309.092139 267.885149 
L 309.484293 268.698887 
L 310.2686 272.186527 
L 310.660754 272.977078 
L 311.052907 273.04476 
L 311.445061 272.519245 
L 312.229368 270.473743 
L 312.621521 270.216059 
L 313.013675 270.95218 
L 313.797982 272.865041 
L 314.190136 273.108134 
L 314.582289 272.754169 
L 314.974443 271.665051 
L 315.75875 268.670355 
L 316.150904 268.757971 
L 317.327364 272.610233 
L 317.719518 272.031829 
L 318.111671 268.989563 
L 318.503825 262.398891 
L 318.895979 253.917074 
L 319.288132 249.001317 
L 319.680286 251.796501 
L 320.464593 267.382813 
L 320.856746 271.314168 
L 321.2489 272.007874 
L 321.641054 270.197021 
L 322.425361 262.052085 
L 322.817514 260.579322 
L 323.209668 263.158781 
L 323.993975 271.006537 
L 324.386129 272.242979 
L 324.778282 271.192219 
L 325.170436 267.379011 
L 325.954743 255.748055 
L 326.346896 255.408297 
L 327.523357 270.975842 
L 327.915511 272.544287 
L 328.307664 272.356258 
L 328.699818 270.94413 
L 329.091971 268.90162 
L 329.484125 267.54947 
L 329.876279 268.020772 
L 330.660586 271.792666 
L 331.052739 272.854955 
L 331.444893 273.151578 
L 331.837046 272.938426 
L 333.013507 271.354774 
L 333.405661 271.704482 
L 334.189968 272.988285 
L 334.582121 273.257614 
L 334.974275 273.262754 
L 335.366429 273.046231 
L 336.150736 272.274686 
L 336.542889 272.208466 
L 338.111504 273.325875 
L 338.503657 273.266989 
L 339.287964 272.728583 
L 339.680118 272.490813 
L 340.072271 272.532097 
L 341.248732 273.301593 
L 341.640886 273.333544 
L 342.033039 273.227563 
L 343.2095 272.507238 
L 343.601654 272.631819 
L 344.385961 273.198835 
L 344.778114 273.314263 
L 345.170268 273.257282 
L 345.562421 272.980265 
L 346.346729 271.954676 
L 346.738882 271.810533 
L 347.131036 272.166105 
L 347.915343 273.135176 
L 348.307496 273.294918 
L 348.69965 273.236218 
L 349.091804 272.965102 
L 349.876111 272.18253 
L 350.268264 272.192675 
L 351.444725 273.244981 
L 351.836879 273.29839 
L 352.229032 273.142378 
L 353.405493 271.926001 
L 353.797646 272.081939 
L 354.581954 273.028652 
L 354.974107 273.265576 
L 355.366261 273.275284 
L 355.758414 273.062449 
L 356.542721 272.151549 
L 356.934875 271.973822 
L 357.327029 272.25015 
L 358.111336 273.135254 
L 358.503489 273.299081 
L 358.895643 273.259388 
L 359.287796 273.01888 
L 360.072104 272.248477 
L 360.464257 272.21383 
L 361.640718 273.225707 
L 362.032871 273.267278 
L 362.425025 273.035085 
L 362.817179 272.448119 
L 363.209332 271.626534 
L 363.601486 271.067414 
L 363.993639 271.233154 
L 364.777946 272.740501 
L 365.1701 273.16782 
L 365.562254 273.254678 
L 365.954407 273.056927 
L 367.130868 271.795188 
L 367.523021 272.055837 
L 368.307329 273.063269 
L 368.699482 273.257502 
L 369.091636 273.171159 
L 369.483789 272.752848 
L 370.268096 271.299681 
L 370.66025 271.153095 
L 371.052404 271.702049 
L 371.444557 272.490562 
L 371.836711 273.023345 
L 372.228864 273.10093 
L 372.621018 272.563038 
L 373.013171 271.148268 
L 373.797479 267.46411 
L 374.189632 267.672486 
L 375.366093 272.711445 
L 375.758246 272.996645 
L 376.1504 272.49172 
L 377.326861 268.714506 
L 377.719014 269.321829 
L 378.503321 272.292017 
L 378.895475 272.940431 
L 379.287629 272.756447 
L 379.679782 271.581561 
L 380.464089 267.075644 
L 380.856243 266.37463 
L 381.248396 267.883132 
L 382.032704 272.133873 
L 382.424857 272.682522 
L 382.817011 271.777121 
L 383.209164 268.963815 
L 383.993471 260.81259 
L 384.385625 260.786112 
L 385.562086 271.459691 
L 385.954239 271.167682 
L 386.346393 266.675863 
L 386.738546 256.3657 
L 387.1307 242.608968 
L 387.522854 234.031066 
L 387.915007 237.804947 
L 388.699314 262.653824 
L 389.091468 267.07494 
L 389.483621 258.617848 
L 389.875775 227.461702 
L 390.660082 100.945797 
L 391.052236 74.476467 
L 391.444389 111.149558 
L 392.228696 235.001508 
L 392.62085 260.975532 
L 393.013004 265.225058 
L 393.405157 255.605056 
L 394.189464 219.8656 
L 394.581618 217.690785 
L 394.973771 232.406211 
L 395.365925 252.054911 
L 395.758079 265.413729 
L 396.150232 270.597775 
L 396.542386 270.14932 
L 396.934539 265.704292 
L 397.326693 259.030255 
L 397.718846 254.323616 
L 398.111 255.490317 
L 398.895307 267.807846 
L 399.287461 271.447509 
L 399.679614 272.462761 
L 400.071768 271.608757 
L 401.248229 265.013919 
L 401.640382 266.297692 
L 402.424689 271.589609 
L 402.816843 272.779866 
L 403.208996 272.915172 
L 403.60115 272.235366 
L 404.385457 269.59214 
L 404.777611 269.284283 
L 405.169764 270.25635 
L 405.954071 272.738335 
L 406.346225 273.129713 
L 406.738379 272.976475 
L 407.130532 272.307176 
L 407.914839 270.461302 
L 408.306993 270.534905 
L 409.483454 273.050083 
L 409.875607 273.204541 
L 410.267761 272.965223 
L 411.444221 271.076007 
L 411.836375 271.356547 
L 412.620682 272.840783 
L 413.012836 273.197748 
L 413.404989 273.211338 
L 413.797143 272.900973 
L 414.58145 271.624469 
L 414.973604 271.406413 
L 415.365757 271.819272 
L 416.150064 273.042294 
L 416.542218 273.242511 
L 416.934371 273.121883 
L 417.326525 272.643413 
L 418.110832 271.200013 
L 418.502986 271.172293 
L 419.679446 273.087503 
L 420.0716 273.179891 
L 420.463754 272.831351 
L 420.855907 271.95138 
L 421.248061 270.750145 
L 421.640214 269.974669 
L 422.032368 270.27137 
L 422.816675 272.458514 
L 423.208829 272.952682 
L 423.600982 272.612518 
L 423.993136 271.001035 
L 424.777443 264.203636 
L 425.169596 262.680144 
L 425.56175 264.566198 
L 426.346057 271.263245 
L 426.738211 272.664016 
L 427.130364 272.755471 
L 427.522518 271.829087 
L 428.306825 268.52932 
L 428.698979 268.278019 
L 429.091132 269.592843 
L 429.483286 271.395351 
L 429.875439 272.610394 
L 430.267593 272.935188 
L 430.659746 272.322888 
L 431.0519 270.590404 
L 431.836207 266.248728 
L 432.228361 266.616069 
L 433.012668 271.241547 
L 433.404821 272.649437 
L 433.796975 273.075195 
L 434.189129 272.829907 
L 435.365589 270.655578 
L 435.757743 271.05207 
L 436.54205 272.788895 
L 436.934204 273.170475 
L 437.326357 273.139463 
L 437.718511 272.695957 
L 438.502818 271.027997 
L 438.894971 270.809084 
L 439.287125 271.400819 
L 440.071432 272.964528 
L 440.463586 273.181124 
L 440.855739 272.948592 
L 441.247893 272.188062 
L 442.0322 270.068296 
L 442.424354 270.117649 
L 443.600814 272.952652 
L 443.992968 273.001431 
L 444.385121 272.291652 
L 444.777275 270.642793 
L 445.169429 268.496353 
L 445.561582 267.234352 
L 445.953736 267.920041 
L 446.738043 271.814378 
L 447.130196 272.538326 
L 447.52235 271.54298 
L 447.914504 267.753652 
L 448.698811 252.902307 
L 449.090964 250.153464 
L 449.483118 254.759219 
L 450.267425 269.091055 
L 450.659579 271.760978 
L 451.051732 271.34765 
L 451.443886 268.110023 
L 452.228193 257.823776 
L 452.620346 257.463186 
L 453.796807 270.958815 
L 454.188961 271.221863 
L 454.581114 267.255163 
L 454.973268 257.59033 
L 455.365421 244.22933 
L 455.757575 235.319371 
L 456.149729 238.246089 
L 456.934036 262.322071 
L 457.326189 266.657354 
L 457.718343 257.093796 
L 458.110496 221.592001 
L 458.894804 70.639106 
L 459.286957 34.603772 
L 459.679111 74.534705 
L 460.463418 224.337587 
L 460.855571 257.19931 
L 461.247725 262.551074 
L 461.639879 249.324055 
L 462.424186 197.906465 
L 462.816339 193.188803 
L 463.208493 213.134614 
L 463.600646 241.353701 
L 463.9928 261.11351 
L 464.384954 268.772174 
L 464.777107 267.285375 
L 465.169261 258.356127 
L 465.953568 234.494716 
L 466.345721 236.106016 
L 467.522182 269.144871 
L 467.914336 271.663322 
L 468.306489 270.612355 
L 469.48295 259.806883 
L 469.875104 261.645098 
L 470.659411 270.279745 
L 471.051564 272.348572 
L 471.443718 272.726205 
L 471.835871 271.89183 
L 472.620179 268.296222 
L 473.012332 267.76782 
L 473.404486 269.006955 
L 474.188793 272.442702 
L 474.580946 273.047218 
L 474.9731 272.962701 
L 475.365254 272.291823 
L 476.149561 270.300132 
L 476.541714 270.314127 
L 477.718175 273.005816 
L 478.110329 273.210445 
L 478.502482 273.024331 
L 479.678943 271.28431 
L 480.071096 271.500558 
L 480.855404 272.859841 
L 481.247557 273.210597 
L 481.639711 273.258227 
L 482.031864 273.043543 
L 482.816171 272.078969 
L 483.208325 271.885196 
L 483.600479 272.173925 
L 484.384786 273.116025 
L 484.776939 273.295975 
L 485.169093 273.269357 
L 485.561246 273.050059 
L 486.345554 272.334434 
L 486.737707 272.298148 
L 487.914168 273.247287 
L 488.306321 273.331577 
L 488.698475 273.26516 
L 489.874936 272.531358 
L 490.267089 272.590298 
L 491.44355 273.315194 
L 491.835704 273.343843 
L 492.227857 273.25546 
L 493.404318 272.698539 
L 493.796471 272.810882 
L 494.580779 273.255961 
L 495.365086 273.344141 
L 496.149393 273.056013 
L 496.541546 272.874113 
L 496.9337 272.834859 
L 498.502314 273.366834 
L 499.286621 273.229055 
L 500.070929 272.935823 
L 500.463082 272.95062 
L 501.639543 273.351011 
L 502.42385 273.32829 
L 503.600311 272.996777 
L 504.384618 273.18553 
L 505.168925 273.371046 
L 505.953232 273.316756 
L 507.129693 273.056161 
L 509.090461 273.369498 
L 510.659075 273.124736 
L 512.227689 273.386532 
L 513.40415 273.208278 
L 514.188457 273.175502 
L 515.364918 273.382273 
L 516.541379 273.287435 
L 517.325686 273.180158 
L 520.070761 273.365743 
L 521.639375 273.382562 
L 523.992296 273.371893 
L 550.658739 273.401342 
L 562.423346 273.394744 
L 567.521343 273.390467 
L 569.874264 273.401025 
L 574.580107 273.330632 
L 575.756568 273.294191 
L 576.933029 273.391148 
L 577.717336 273.301888 
L 578.893796 273.084846 
L 580.462411 273.337694 
L 580.854564 273.18872 
L 582.031025 272.02891 
L 582.423179 272.130037 
L 583.207486 273.0106 
L 583.599639 273.219871 
L 583.991793 273.092006 
L 584.383946 272.44647 
L 585.168254 269.627878 
L 585.560407 268.939229 
L 585.952561 269.672173 
L 586.736868 272.482086 
L 587.129021 273.12005 
L 587.521175 273.288305 
L 587.913329 273.21177 
L 588.697636 272.805099 
L 589.089789 272.765064 
L 590.26625 273.30993 
L 590.26625 273.30993 
" clip-path="url(#p747d1c0458)" style="fill: none; stroke: #000000; stroke-width: 1.6; stroke-linecap: round"/>
   </g>
   <g id="patch_3">
    <path d="M 41.25125 273.407344 
L 41.25125 22.663594 
" style="fill: none; stroke: #cccccc; stroke-linejoin: miter; stroke-linecap: square"/>
   </g>
   <g id="patch_4">
    <path d="M 590.26625 273.407344 
L 590.26625 22.663594 
" style="fill: none; stroke: #cccccc; stroke-linejoin: miter; stroke-linecap: square"/>
   </g>
   <g id="patch_5">
    <path d="M 41.25125 273.407344 
L 590.26625 273.407344 
" style="fill: none; stroke: #cccccc; stroke-linejoin: miter; stroke-linecap: square"/>
   </g>
   <g id="patch_6">
    <path d="M 41.25125 22.663594 
L 590.26625 22.663594 
" style="fill: none; stroke: #cccccc; stroke-linejoin: miter; stroke-linecap: square"/>
   </g>
   <g id="text_17">
    <!-- Scaled Raman Peaks - Myristic Acid -->
    <g style="fill: #262626" transform="translate(211.364687 16.663594) scale(0.13 -0.13)">
     <defs>
      <path id="ArialMT-64" d="M 2575 0 
L 2575 419 
Q 2259 -75 1647 -75 
Q 1250 -75 917 144 
Q 584 363 401 755 
Q 219 1147 219 1656 
Q 219 2153 384 2558 
Q 550 2963 881 3178 
Q 1213 3394 1622 3394 
Q 1922 3394 2156 3267 
Q 2391 3141 2538 2938 
L 2538 4581 
L 3097 4581 
L 3097 0 
L 2575 0 
z
M 797 1656 
Q 797 1019 1065 703 
Q 1334 388 1700 388 
Q 2069 388 2326 689 
Q 2584 991 2584 1609 
Q 2584 2291 2321 2609 
Q 2059 2928 1675 2928 
Q 1300 2928 1048 2622 
Q 797 2316 797 1656 
z
" transform="scale(0.015625)"/>
      <path id="ArialMT-50" d="M 494 0 
L 494 4581 
L 2222 4581 
Q 2678 4581 2919 4538 
Q 3256 4481 3484 4323 
Q 3713 4166 3852 3881 
Q 3991 3597 3991 3256 
Q 3991 2672 3619 2267 
Q 3247 1863 2275 1863 
L 1100 1863 
L 1100 0 
L 494 0 
z
M 1100 2403 
L 2284 2403 
Q 2872 2403 3119 2622 
Q 3366 2841 3366 3238 
Q 3366 3525 3220 3729 
Q 3075 3934 2838 4000 
Q 2684 4041 2272 4041 
L 1100 4041 
L 1100 2403 
z
" transform="scale(0.015625)"/>
      <path id="ArialMT-6b" d="M 425 0 
L 425 4581 
L 988 4581 
L 988 1969 
L 2319 3319 
L 3047 3319 
L 1778 2088 
L 3175 0 
L 2481 0 
L 1384 1697 
L 988 1316 
L 988 0 
L 425 0 
z
" transform="scale(0.015625)"/>
      <path id="ArialMT-2d" d="M 203 1375 
L 203 1941 
L 1931 1941 
L 1931 1375 
L 203 1375 
z
" transform="scale(0.015625)"/>
      <path id="ArialMT-4d" d="M 475 0 
L 475 4581 
L 1388 4581 
L 2472 1338 
Q 2622 884 2691 659 
Q 2769 909 2934 1394 
L 4031 4581 
L 4847 4581 
L 4847 0 
L 4263 0 
L 4263 3834 
L 2931 0 
L 2384 0 
L 1059 3900 
L 1059 0 
L 475 0 
z
" transform="scale(0.015625)"/>
      <path id="ArialMT-72" d="M 416 0 
L 416 3319 
L 922 3319 
L 922 2816 
Q 1116 3169 1280 3281 
Q 1444 3394 1641 3394 
Q 1925 3394 2219 3213 
L 2025 2691 
Q 1819 2813 1613 2813 
Q 1428 2813 1281 2702 
Q 1134 2591 1072 2394 
Q 978 2094 978 1738 
L 978 0 
L 416 0 
z
" transform="scale(0.015625)"/>
      <path id="ArialMT-41" d="M -9 0 
L 1750 4581 
L 2403 4581 
L 4278 0 
L 3588 0 
L 3053 1388 
L 1138 1388 
L 634 0 
L -9 0 
z
M 1313 1881 
L 2866 1881 
L 2388 3150 
Q 2169 3728 2063 4100 
Q 1975 3659 1816 3225 
L 1313 1881 
z
" transform="scale(0.015625)"/>
     </defs>
     <use xlink:href="#ArialMT-53"/>
     <use xlink:href="#ArialMT-63" transform="translate(66.699219 0)"/>
     <use xlink:href="#ArialMT-61" transform="translate(116.699219 0)"/>
     <use xlink:href="#ArialMT-6c" transform="translate(172.314453 0)"/>
     <use xlink:href="#ArialMT-65" transform="translate(194.53125 0)"/>
     <use xlink:href="#ArialMT-64" transform="translate(250.146484 0)"/>
     <use xlink:href="#ArialMT-20" transform="translate(305.761719 0)"/>
     <use xlink:href="#ArialMT-52" transform="translate(333.544922 0)"/>
     <use xlink:href="#ArialMT-61" transform="translate(405.761719 0)"/>
     <use xlink:href="#ArialMT-6d" transform="translate(461.376953 0)"/>
     <use xlink:href="#ArialMT-61" transform="translate(544.677734 0)"/>
     <use xlink:href="#ArialMT-6e" transform="translate(600.292969 0)"/>
     <use xlink:href="#ArialMT-20" transform="translate(655.908203 0)"/>
     <use xlink:href="#ArialMT-50" transform="translate(683.691406 0)"/>
     <use xlink:href="#ArialMT-65" transform="translate(750.390625 0)"/>
     <use xlink:href="#ArialMT-61" transform="translate(806.005859 0)"/>
     <use xlink:href="#ArialMT-6b" transform="translate(861.621094 0)"/>
     <use xlink:href="#ArialMT-73" transform="translate(911.621094 0)"/>
     <use xlink:href="#ArialMT-20" transform="translate(961.621094 0)"/>
     <use xlink:href="#ArialMT-2d" transform="translate(989.404297 0)"/>
     <use xlink:href="#ArialMT-20" transform="translate(1022.705078 0)"/>
     <use xlink:href="#ArialMT-4d" transform="translate(1050.488281 0)"/>
     <use xlink:href="#ArialMT-79" transform="translate(1133.789062 0)"/>
     <use xlink:href="#ArialMT-72" transform="translate(1183.789062 0)"/>
     <use xlink:href="#ArialMT-69" transform="translate(1217.089844 0)"/>
     <use xlink:href="#ArialMT-73" transform="translate(1239.306641 0)"/>
     <use xlink:href="#ArialMT-74" transform="translate(1289.306641 0)"/>
     <use xlink:href="#ArialMT-69" transform="translate(1317.089844 0)"/>
     <use xlink:href="#ArialMT-63" transform="translate(1339.306641 0)"/>
     <use xlink:href="#ArialMT-20" transform="translate(1389.306641 0)"/>
     <use xlink:href="#ArialMT-41" transform="translate(1411.589844 0)"/>
     <use xlink:href="#ArialMT-63" transform="translate(1478.289062 0)"/>
     <use xlink:href="#ArialMT-69" transform="translate(1528.289062 0)"/>
     <use xlink:href="#ArialMT-64" transform="translate(1550.505859 0)"/>
    </g>
   </g>
  </g>
 </g>
 <defs>
  <clipPath id="p747d1c0458">
   <rect x="41.25125" y="22.663594" width="549.015" height="250.74375"/>
  </clipPath>
 </defs>
</svg>
