<?xml version="1.0" encoding="utf-8" standalone="no"?>
<!DOCTYPE svg PUBLIC "-//W3C//DTD SVG 1.1//EN"
  "http://www.w3.org/Graphics/SVG/1.1/DTD/svg11.dtd">
<svg xmlns:xlink="http://www.w3.org/1999/xlink" width="609.700312pt" height="311.663437pt" viewBox="0 0 609.700312 311.663437" xmlns="http://www.w3.org/2000/svg" version="1.1">
 <metadata>
  <rdf:RDF xmlns:dc="http://purl.org/dc/elements/1.1/" xmlns:cc="http://creativecommons.org/ns#" xmlns:rdf="http://www.w3.org/1999/02/22-rdf-syntax-ns#">
   <cc:Work>
    <dc:type rdf:resource="http://purl.org/dc/dcmitype/StillImage"/>
    <dc:date>2026-04-16T21:06:20.642922</dc:date>
    <dc:format>image/svg+xml</dc:format>
    <dc:creator>
     <cc:Agent>
      <dc:title>Matplotlib v3.10.8, https://matplotlib.org/</dc:title>
     </cc:Agent>
    </dc:creator>
   </cc:Work>
  </rdf:RDF>
 </metadata>
 <defs>
  <style type="text/css">*{stroke-linejoin: round; stroke-linecap: butt}</style>
 </defs>
 <g id="figure_1">
  <g id="patch_1">
   <path d="M 0 311.663437 
L 609.700312 311.663437 
L 609.700312 0 
L 0 0 
z
" style="fill: #ffffff"/>
  </g>
  <g id="axes_1">
   <g id="patch_2">
    <path d="M 41.25125 273.463594 
L 590.26625 273.463594 
L 590.26625 22.663594 
L 41.25125 22.663594 
z
" style="fill: #ffffff"/>
   </g>
   <g id="matplotlib.axis_1">
    <g id="xtick_1">
     <g id="line2d_1">
      <path d="M 41.25125 273.463594 
L 41.25125 22.663594 
" clip-path="url(#pcff0f07166)" style="fill: none; stroke: #cccccc; stroke-width: 0.8; stroke-linecap: round"/>
     </g>
     <g id="line2d_2"/>
     <g id="text_1">
      <!-- 400 -->
      <g style="fill: #262626" transform="translate(32.075703 284.837187) scale(0.11 -0.11)">
       <defs>
        <path id="ArialMT-34" d="M 2069 0 
L 2069 1097 
L 81 1097 
L 81 1613 
L 2172 4581 
L 2631 4581 
L 2631 1613 
L 3250 1613 
L 3250 1097 
L 2631 1097 
L 2631 0 
L 2069 0 
z
M 2069 1613 
L 2069 3678 
L 634 1613 
L 2069 1613 
z
" transform="scale(0.015625)"/>
        <path id="ArialMT-30" d="M 266 2259 
Q 266 3072 433 3567 
Q 600 4063 929 4331 
Q 1259 4600 1759 4600 
Q 2128 4600 2406 4451 
Q 2684 4303 2865 4023 
Q 3047 3744 3150 3342 
Q 3253 2941 3253 2259 
Q 3253 1453 3087 958 
Q 2922 463 2592 192 
Q 2263 -78 1759 -78 
Q 1097 -78 719 397 
Q 266 969 266 2259 
z
M 844 2259 
Q 844 1131 1108 757 
Q 1372 384 1759 384 
Q 2147 384 2411 759 
Q 2675 1134 2675 2259 
Q 2675 3391 2411 3762 
Q 2147 4134 1753 4134 
Q 1366 4134 1134 3806 
Q 844 3388 844 2259 
z
" transform="scale(0.015625)"/>
       </defs>
       <use xlink:href="#ArialMT-34"/>
       <use xlink:href="#ArialMT-30" transform="translate(55.615234 0)"/>
       <use xlink:href="#ArialMT-30" transform="translate(111.230469 0)"/>
      </g>
     </g>
    </g>
    <g id="xtick_2">
     <g id="line2d_3">
      <path d="M 119.681964 273.463594 
L 119.681964 22.663594 
" clip-path="url(#pcff0f07166)" style="fill: none; stroke: #cccccc; stroke-width: 0.8; stroke-linecap: round"/>
     </g>
     <g id="line2d_4"/>
     <g id="text_2">
      <!-- 600 -->
      <g style="fill: #262626" transform="translate(110.506417 284.837187) scale(0.11 -0.11)">
       <defs>
        <path id="ArialMT-36" d="M 3184 3459 
L 2625 3416 
Q 2550 3747 2413 3897 
Q 2184 4138 1850 4138 
Q 1581 4138 1378 3988 
Q 1113 3794 959 3422 
Q 806 3050 800 2363 
Q 1003 2672 1297 2822 
Q 1591 2972 1913 2972 
Q 2475 2972 2870 2558 
Q 3266 2144 3266 1488 
Q 3266 1056 3080 686 
Q 2894 316 2569 119 
Q 2244 -78 1831 -78 
Q 1128 -78 684 439 
Q 241 956 241 2144 
Q 241 3472 731 4075 
Q 1159 4600 1884 4600 
Q 2425 4600 2770 4297 
Q 3116 3994 3184 3459 
z
M 888 1484 
Q 888 1194 1011 928 
Q 1134 663 1356 523 
Q 1578 384 1822 384 
Q 2178 384 2434 671 
Q 2691 959 2691 1453 
Q 2691 1928 2437 2201 
Q 2184 2475 1800 2475 
Q 1419 2475 1153 2201 
Q 888 1928 888 1484 
z
" transform="scale(0.015625)"/>
       </defs>
       <use xlink:href="#ArialMT-36"/>
       <use xlink:href="#ArialMT-30" transform="translate(55.615234 0)"/>
       <use xlink:href="#ArialMT-30" transform="translate(111.230469 0)"/>
      </g>
     </g>
    </g>
    <g id="xtick_3">
     <g id="line2d_5">
      <path d="M 198.112679 273.463594 
L 198.112679 22.663594 
" clip-path="url(#pcff0f07166)" style="fill: none; stroke: #cccccc; stroke-width: 0.8; stroke-linecap: round"/>
     </g>
     <g id="line2d_6"/>
     <g id="text_3">
      <!-- 800 -->
      <g style="fill: #262626" transform="translate(188.937132 284.837187) scale(0.11 -0.11)">
       <defs>
        <path id="ArialMT-38" d="M 1131 2484 
Q 781 2613 612 2850 
Q 444 3088 444 3419 
Q 444 3919 803 4259 
Q 1163 4600 1759 4600 
Q 2359 4600 2725 4251 
Q 3091 3903 3091 3403 
Q 3091 3084 2923 2848 
Q 2756 2613 2416 2484 
Q 2838 2347 3058 2040 
Q 3278 1734 3278 1309 
Q 3278 722 2862 322 
Q 2447 -78 1769 -78 
Q 1091 -78 675 323 
Q 259 725 259 1325 
Q 259 1772 486 2073 
Q 713 2375 1131 2484 
z
M 1019 3438 
Q 1019 3113 1228 2906 
Q 1438 2700 1772 2700 
Q 2097 2700 2305 2904 
Q 2513 3109 2513 3406 
Q 2513 3716 2298 3927 
Q 2084 4138 1766 4138 
Q 1444 4138 1231 3931 
Q 1019 3725 1019 3438 
z
M 838 1322 
Q 838 1081 952 856 
Q 1066 631 1291 507 
Q 1516 384 1775 384 
Q 2178 384 2440 643 
Q 2703 903 2703 1303 
Q 2703 1709 2433 1975 
Q 2163 2241 1756 2241 
Q 1359 2241 1098 1978 
Q 838 1716 838 1322 
z
" transform="scale(0.015625)"/>
       </defs>
       <use xlink:href="#ArialMT-38"/>
       <use xlink:href="#ArialMT-30" transform="translate(55.615234 0)"/>
       <use xlink:href="#ArialMT-30" transform="translate(111.230469 0)"/>
      </g>
     </g>
    </g>
    <g id="xtick_4">
     <g id="line2d_7">
      <path d="M 276.543393 273.463594 
L 276.543393 22.663594 
" clip-path="url(#pcff0f07166)" style="fill: none; stroke: #cccccc; stroke-width: 0.8; stroke-linecap: round"/>
     </g>
     <g id="line2d_8"/>
     <g id="text_4">
      <!-- 1000 -->
      <g style="fill: #262626" transform="translate(264.30933 284.837187) scale(0.11 -0.11)">
       <defs>
        <path id="ArialMT-31" d="M 2384 0 
L 1822 0 
L 1822 3584 
Q 1619 3391 1289 3197 
Q 959 3003 697 2906 
L 697 3450 
Q 1169 3672 1522 3987 
Q 1875 4303 2022 4600 
L 2384 4600 
L 2384 0 
z
" transform="scale(0.015625)"/>
       </defs>
       <use xlink:href="#ArialMT-31"/>
       <use xlink:href="#ArialMT-30" transform="translate(55.615234 0)"/>
       <use xlink:href="#ArialMT-30" transform="translate(111.230469 0)"/>
       <use xlink:href="#ArialMT-30" transform="translate(166.845703 0)"/>
      </g>
     </g>
    </g>
    <g id="xtick_5">
     <g id="line2d_9">
      <path d="M 354.974107 273.463594 
L 354.974107 22.663594 
" clip-path="url(#pcff0f07166)" style="fill: none; stroke: #cccccc; stroke-width: 0.8; stroke-linecap: round"/>
     </g>
     <g id="line2d_10"/>
     <g id="text_5">
      <!-- 1200 -->
      <g style="fill: #262626" transform="translate(342.740045 284.837187) scale(0.11 -0.11)">
       <defs>
        <path id="ArialMT-32" d="M 3222 541 
L 3222 0 
L 194 0 
Q 188 203 259 391 
Q 375 700 629 1000 
Q 884 1300 1366 1694 
Q 2113 2306 2375 2664 
Q 2638 3022 2638 3341 
Q 2638 3675 2398 3904 
Q 2159 4134 1775 4134 
Q 1369 4134 1125 3890 
Q 881 3647 878 3216 
L 300 3275 
Q 359 3922 746 4261 
Q 1134 4600 1788 4600 
Q 2447 4600 2831 4234 
Q 3216 3869 3216 3328 
Q 3216 3053 3103 2787 
Q 2991 2522 2730 2228 
Q 2469 1934 1863 1422 
Q 1356 997 1212 845 
Q 1069 694 975 541 
L 3222 541 
z
" transform="scale(0.015625)"/>
       </defs>
       <use xlink:href="#ArialMT-31"/>
       <use xlink:href="#ArialMT-32" transform="translate(55.615234 0)"/>
       <use xlink:href="#ArialMT-30" transform="translate(111.230469 0)"/>
       <use xlink:href="#ArialMT-30" transform="translate(166.845703 0)"/>
      </g>
     </g>
    </g>
    <g id="xtick_6">
     <g id="line2d_11">
      <path d="M 433.404821 273.463594 
L 433.404821 22.663594 
" clip-path="url(#pcff0f07166)" style="fill: none; stroke: #cccccc; stroke-width: 0.8; stroke-linecap: round"/>
     </g>
     <g id="line2d_12"/>
     <g id="text_6">
      <!-- 1400 -->
      <g style="fill: #262626" transform="translate(421.170759 284.837187) scale(0.11 -0.11)">
       <use xlink:href="#ArialMT-31"/>
       <use xlink:href="#ArialMT-34" transform="translate(55.615234 0)"/>
       <use xlink:href="#ArialMT-30" transform="translate(111.230469 0)"/>
       <use xlink:href="#ArialMT-30" transform="translate(166.845703 0)"/>
      </g>
     </g>
    </g>
    <g id="xtick_7">
     <g id="line2d_13">
      <path d="M 511.835536 273.463594 
L 511.835536 22.663594 
" clip-path="url(#pcff0f07166)" style="fill: none; stroke: #cccccc; stroke-width: 0.8; stroke-linecap: round"/>
     </g>
     <g id="line2d_14"/>
     <g id="text_7">
      <!-- 1600 -->
      <g style="fill: #262626" transform="translate(499.601473 284.837187) scale(0.11 -0.11)">
       <use xlink:href="#ArialMT-31"/>
       <use xlink:href="#ArialMT-36" transform="translate(55.615234 0)"/>
       <use xlink:href="#ArialMT-30" transform="translate(111.230469 0)"/>
       <use xlink:href="#ArialMT-30" transform="translate(166.845703 0)"/>
      </g>
     </g>
    </g>
    <g id="xtick_8">
     <g id="line2d_15">
      <path d="M 590.26625 273.463594 
L 590.26625 22.663594 
" clip-path="url(#pcff0f07166)" style="fill: none; stroke: #cccccc; stroke-width: 0.8; stroke-linecap: round"/>
     </g>
     <g id="line2d_16"/>
     <g id="text_8">
      <!-- 1800 -->
      <g style="fill: #262626" transform="translate(578.032187 284.837187) scale(0.11 -0.11)">
       <use xlink:href="#ArialMT-31"/>
       <use xlink:href="#ArialMT-38" transform="translate(55.615234 0)"/>
       <use xlink:href="#ArialMT-30" transform="translate(111.230469 0)"/>
       <use xlink:href="#ArialMT-30" transform="translate(166.845703 0)"/>
      </g>
     </g>
    </g>
    <g id="text_9">
     <!-- Raman Shift (cm$^{-1}$) -->
     <g style="fill: #262626" transform="translate(262.65875 301.823437) scale(0.12 -0.12)">
      <defs>
       <path id="ArialMT-52" d="M 503 0 
L 503 4581 
L 2534 4581 
Q 3147 4581 3465 4457 
Q 3784 4334 3975 4021 
Q 4166 3709 4166 3331 
Q 4166 2844 3850 2509 
Q 3534 2175 2875 2084 
Q 3116 1969 3241 1856 
Q 3506 1613 3744 1247 
L 4541 0 
L 3778 0 
L 3172 953 
Q 2906 1366 2734 1584 
Q 2563 1803 2427 1890 
Q 2291 1978 2150 2013 
Q 2047 2034 1813 2034 
L 1109 2034 
L 1109 0 
L 503 0 
z
M 1109 2559 
L 2413 2559 
Q 2828 2559 3062 2645 
Q 3297 2731 3419 2920 
Q 3541 3109 3541 3331 
Q 3541 3656 3305 3865 
Q 3069 4075 2559 4075 
L 1109 4075 
L 1109 2559 
z
" transform="scale(0.015625)"/>
       <path id="ArialMT-61" d="M 2588 409 
Q 2275 144 1986 34 
Q 1697 -75 1366 -75 
Q 819 -75 525 192 
Q 231 459 231 875 
Q 231 1119 342 1320 
Q 453 1522 633 1644 
Q 813 1766 1038 1828 
Q 1203 1872 1538 1913 
Q 2219 1994 2541 2106 
Q 2544 2222 2544 2253 
Q 2544 2597 2384 2738 
Q 2169 2928 1744 2928 
Q 1347 2928 1158 2789 
Q 969 2650 878 2297 
L 328 2372 
Q 403 2725 575 2942 
Q 747 3159 1072 3276 
Q 1397 3394 1825 3394 
Q 2250 3394 2515 3294 
Q 2781 3194 2906 3042 
Q 3031 2891 3081 2659 
Q 3109 2516 3109 2141 
L 3109 1391 
Q 3109 606 3145 398 
Q 3181 191 3288 0 
L 2700 0 
Q 2613 175 2588 409 
z
M 2541 1666 
Q 2234 1541 1622 1453 
Q 1275 1403 1131 1340 
Q 988 1278 909 1158 
Q 831 1038 831 891 
Q 831 666 1001 516 
Q 1172 366 1500 366 
Q 1825 366 2078 508 
Q 2331 650 2450 897 
Q 2541 1088 2541 1459 
L 2541 1666 
z
" transform="scale(0.015625)"/>
       <path id="ArialMT-6d" d="M 422 0 
L 422 3319 
L 925 3319 
L 925 2853 
Q 1081 3097 1340 3245 
Q 1600 3394 1931 3394 
Q 2300 3394 2536 3241 
Q 2772 3088 2869 2813 
Q 3263 3394 3894 3394 
Q 4388 3394 4653 3120 
Q 4919 2847 4919 2278 
L 4919 0 
L 4359 0 
L 4359 2091 
Q 4359 2428 4304 2576 
Q 4250 2725 4106 2815 
Q 3963 2906 3769 2906 
Q 3419 2906 3187 2673 
Q 2956 2441 2956 1928 
L 2956 0 
L 2394 0 
L 2394 2156 
Q 2394 2531 2256 2718 
Q 2119 2906 1806 2906 
Q 1569 2906 1367 2781 
Q 1166 2656 1075 2415 
Q 984 2175 984 1722 
L 984 0 
L 422 0 
z
" transform="scale(0.015625)"/>
       <path id="ArialMT-6e" d="M 422 0 
L 422 3319 
L 928 3319 
L 928 2847 
Q 1294 3394 1984 3394 
Q 2284 3394 2536 3286 
Q 2788 3178 2913 3003 
Q 3038 2828 3088 2588 
Q 3119 2431 3119 2041 
L 3119 0 
L 2556 0 
L 2556 2019 
Q 2556 2363 2490 2533 
Q 2425 2703 2258 2804 
Q 2091 2906 1866 2906 
Q 1506 2906 1245 2678 
Q 984 2450 984 1813 
L 984 0 
L 422 0 
z
" transform="scale(0.015625)"/>
       <path id="ArialMT-20" transform="scale(0.015625)"/>
       <path id="ArialMT-53" d="M 288 1472 
L 859 1522 
Q 900 1178 1048 958 
Q 1197 738 1509 602 
Q 1822 466 2213 466 
Q 2559 466 2825 569 
Q 3091 672 3220 851 
Q 3350 1031 3350 1244 
Q 3350 1459 3225 1620 
Q 3100 1781 2813 1891 
Q 2628 1963 1997 2114 
Q 1366 2266 1113 2400 
Q 784 2572 623 2826 
Q 463 3081 463 3397 
Q 463 3744 659 4045 
Q 856 4347 1234 4503 
Q 1613 4659 2075 4659 
Q 2584 4659 2973 4495 
Q 3363 4331 3572 4012 
Q 3781 3694 3797 3291 
L 3216 3247 
Q 3169 3681 2898 3903 
Q 2628 4125 2100 4125 
Q 1550 4125 1298 3923 
Q 1047 3722 1047 3438 
Q 1047 3191 1225 3031 
Q 1400 2872 2139 2705 
Q 2878 2538 3153 2413 
Q 3553 2228 3743 1945 
Q 3934 1663 3934 1294 
Q 3934 928 3725 604 
Q 3516 281 3123 101 
Q 2731 -78 2241 -78 
Q 1619 -78 1198 103 
Q 778 284 539 648 
Q 300 1013 288 1472 
z
" transform="scale(0.015625)"/>
       <path id="ArialMT-68" d="M 422 0 
L 422 4581 
L 984 4581 
L 984 2938 
Q 1378 3394 1978 3394 
Q 2347 3394 2619 3248 
Q 2891 3103 3008 2847 
Q 3125 2591 3125 2103 
L 3125 0 
L 2563 0 
L 2563 2103 
Q 2563 2525 2380 2717 
Q 2197 2909 1863 2909 
Q 1613 2909 1392 2779 
Q 1172 2650 1078 2428 
Q 984 2206 984 1816 
L 984 0 
L 422 0 
z
" transform="scale(0.015625)"/>
       <path id="ArialMT-69" d="M 425 3934 
L 425 4581 
L 988 4581 
L 988 3934 
L 425 3934 
z
M 425 0 
L 425 3319 
L 988 3319 
L 988 0 
L 425 0 
z
" transform="scale(0.015625)"/>
       <path id="ArialMT-66" d="M 556 0 
L 556 2881 
L 59 2881 
L 59 3319 
L 556 3319 
L 556 3672 
Q 556 4006 616 4169 
Q 697 4388 901 4523 
Q 1106 4659 1475 4659 
Q 1713 4659 2000 4603 
L 1916 4113 
Q 1741 4144 1584 4144 
Q 1328 4144 1222 4034 
Q 1116 3925 1116 3625 
L 1116 3319 
L 1763 3319 
L 1763 2881 
L 1116 2881 
L 1116 0 
L 556 0 
z
" transform="scale(0.015625)"/>
       <path id="ArialMT-74" d="M 1650 503 
L 1731 6 
Q 1494 -44 1306 -44 
Q 1000 -44 831 53 
Q 663 150 594 308 
Q 525 466 525 972 
L 525 2881 
L 113 2881 
L 113 3319 
L 525 3319 
L 525 4141 
L 1084 4478 
L 1084 3319 
L 1650 3319 
L 1650 2881 
L 1084 2881 
L 1084 941 
Q 1084 700 1114 631 
Q 1144 563 1211 522 
Q 1278 481 1403 481 
Q 1497 481 1650 503 
z
" transform="scale(0.015625)"/>
       <path id="ArialMT-28" d="M 1497 -1347 
Q 1031 -759 709 28 
Q 388 816 388 1659 
Q 388 2403 628 3084 
Q 909 3875 1497 4659 
L 1900 4659 
Q 1522 4009 1400 3731 
Q 1209 3300 1100 2831 
Q 966 2247 966 1656 
Q 966 153 1900 -1347 
L 1497 -1347 
z
" transform="scale(0.015625)"/>
       <path id="ArialMT-63" d="M 2588 1216 
L 3141 1144 
Q 3050 572 2676 248 
Q 2303 -75 1759 -75 
Q 1078 -75 664 370 
Q 250 816 250 1647 
Q 250 2184 428 2587 
Q 606 2991 970 3192 
Q 1334 3394 1763 3394 
Q 2303 3394 2647 3120 
Q 2991 2847 3088 2344 
L 2541 2259 
Q 2463 2594 2264 2762 
Q 2066 2931 1784 2931 
Q 1359 2931 1093 2626 
Q 828 2322 828 1663 
Q 828 994 1084 691 
Q 1341 388 1753 388 
Q 2084 388 2306 591 
Q 2528 794 2588 1216 
z
" transform="scale(0.015625)"/>
       <path id="DejaVuSans-2212" d="M 678 2272 
L 4684 2272 
L 4684 1741 
L 678 1741 
L 678 2272 
z
" transform="scale(0.015625)"/>
       <path id="DejaVuSans-31" d="M 794 531 
L 1825 531 
L 1825 4091 
L 703 3866 
L 703 4441 
L 1819 4666 
L 2450 4666 
L 2450 531 
L 3481 531 
L 3481 0 
L 794 0 
L 794 531 
z
" transform="scale(0.015625)"/>
       <path id="ArialMT-29" d="M 791 -1347 
L 388 -1347 
Q 1322 153 1322 1656 
Q 1322 2244 1188 2822 
Q 1081 3291 891 3722 
Q 769 4003 388 4659 
L 791 4659 
Q 1378 3875 1659 3084 
Q 1900 2403 1900 1659 
Q 1900 816 1576 28 
Q 1253 -759 791 -1347 
z
" transform="scale(0.015625)"/>
      </defs>
      <use xlink:href="#ArialMT-52" transform="translate(0 0.684375)"/>
      <use xlink:href="#ArialMT-61" transform="translate(72.216797 0.684375)"/>
      <use xlink:href="#ArialMT-6d" transform="translate(127.832031 0.684375)"/>
      <use xlink:href="#ArialMT-61" transform="translate(211.132812 0.684375)"/>
      <use xlink:href="#ArialMT-6e" transform="translate(266.748047 0.684375)"/>
      <use xlink:href="#ArialMT-20" transform="translate(322.363281 0.684375)"/>
      <use xlink:href="#ArialMT-53" transform="translate(350.146484 0.684375)"/>
      <use xlink:href="#ArialMT-68" transform="translate(416.845703 0.684375)"/>
      <use xlink:href="#ArialMT-69" transform="translate(472.460938 0.684375)"/>
      <use xlink:href="#ArialMT-66" transform="translate(494.677734 0.684375)"/>
      <use xlink:href="#ArialMT-74" transform="translate(522.460938 0.684375)"/>
      <use xlink:href="#ArialMT-20" transform="translate(550.244141 0.684375)"/>
      <use xlink:href="#ArialMT-28" transform="translate(578.027344 0.684375)"/>
      <use xlink:href="#ArialMT-63" transform="translate(611.328125 0.684375)"/>
      <use xlink:href="#ArialMT-6d" transform="translate(661.328125 0.684375)"/>
      <use xlink:href="#DejaVuSans-2212" transform="translate(745.585938 38.965625) scale(0.7)"/>
      <use xlink:href="#DejaVuSans-31" transform="translate(804.238281 38.965625) scale(0.7)"/>
      <use xlink:href="#ArialMT-29" transform="translate(851.508789 0.684375)"/>
     </g>
    </g>
   </g>
   <g id="matplotlib.axis_2">
    <g id="ytick_1">
     <g id="line2d_17">
      <path d="M 41.25125 273.463594 
L 590.26625 273.463594 
" clip-path="url(#pcff0f07166)" style="fill: none; stroke: #cccccc; stroke-width: 0.8; stroke-linecap: round"/>
     </g>
     <g id="line2d_18"/>
     <g id="text_10">
      <!-- 0.0 -->
      <g style="fill: #262626" transform="translate(22.46125 277.400391) scale(0.11 -0.11)">
       <defs>
        <path id="ArialMT-2e" d="M 581 0 
L 581 641 
L 1222 641 
L 1222 0 
L 581 0 
z
" transform="scale(0.015625)"/>
       </defs>
       <use xlink:href="#ArialMT-30"/>
       <use xlink:href="#ArialMT-2e" transform="translate(55.615234 0)"/>
       <use xlink:href="#ArialMT-30" transform="translate(83.398438 0)"/>
      </g>
     </g>
    </g>
    <g id="ytick_2">
     <g id="line2d_19">
      <path d="M 41.25125 225.692165 
L 590.26625 225.692165 
" clip-path="url(#pcff0f07166)" style="fill: none; stroke: #cccccc; stroke-width: 0.8; stroke-linecap: round"/>
     </g>
     <g id="line2d_20"/>
     <g id="text_11">
      <!-- 0.2 -->
      <g style="fill: #262626" transform="translate(22.46125 229.628962) scale(0.11 -0.11)">
       <use xlink:href="#ArialMT-30"/>
       <use xlink:href="#ArialMT-2e" transform="translate(55.615234 0)"/>
       <use xlink:href="#ArialMT-32" transform="translate(83.398438 0)"/>
      </g>
     </g>
    </g>
    <g id="ytick_3">
     <g id="line2d_21">
      <path d="M 41.25125 177.920737 
L 590.26625 177.920737 
" clip-path="url(#pcff0f07166)" style="fill: none; stroke: #cccccc; stroke-width: 0.8; stroke-linecap: round"/>
     </g>
     <g id="line2d_22"/>
     <g id="text_12">
      <!-- 0.4 -->
      <g style="fill: #262626" transform="translate(22.46125 181.857533) scale(0.11 -0.11)">
       <use xlink:href="#ArialMT-30"/>
       <use xlink:href="#ArialMT-2e" transform="translate(55.615234 0)"/>
       <use xlink:href="#ArialMT-34" transform="translate(83.398438 0)"/>
      </g>
     </g>
    </g>
    <g id="ytick_4">
     <g id="line2d_23">
      <path d="M 41.25125 130.149308 
L 590.26625 130.149308 
" clip-path="url(#pcff0f07166)" style="fill: none; stroke: #cccccc; stroke-width: 0.8; stroke-linecap: round"/>
     </g>
     <g id="line2d_24"/>
     <g id="text_13">
      <!-- 0.6 -->
      <g style="fill: #262626" transform="translate(22.46125 134.086105) scale(0.11 -0.11)">
       <use xlink:href="#ArialMT-30"/>
       <use xlink:href="#ArialMT-2e" transform="translate(55.615234 0)"/>
       <use xlink:href="#ArialMT-36" transform="translate(83.398438 0)"/>
      </g>
     </g>
    </g>
    <g id="ytick_5">
     <g id="line2d_25">
      <path d="M 41.25125 82.377879 
L 590.26625 82.377879 
" clip-path="url(#pcff0f07166)" style="fill: none; stroke: #cccccc; stroke-width: 0.8; stroke-linecap: round"/>
     </g>
     <g id="line2d_26"/>
     <g id="text_14">
      <!-- 0.8 -->
      <g style="fill: #262626" transform="translate(22.46125 86.314676) scale(0.11 -0.11)">
       <use xlink:href="#ArialMT-30"/>
       <use xlink:href="#ArialMT-2e" transform="translate(55.615234 0)"/>
       <use xlink:href="#ArialMT-38" transform="translate(83.398438 0)"/>
      </g>
     </g>
    </g>
    <g id="ytick_6">
     <g id="line2d_27">
      <path d="M 41.25125 34.606451 
L 590.26625 34.606451 
" clip-path="url(#pcff0f07166)" style="fill: none; stroke: #cccccc; stroke-width: 0.8; stroke-linecap: round"/>
     </g>
     <g id="line2d_28"/>
     <g id="text_15">
      <!-- 1.0 -->
      <g style="fill: #262626" transform="translate(22.46125 38.543248) scale(0.11 -0.11)">
       <use xlink:href="#ArialMT-31"/>
       <use xlink:href="#ArialMT-2e" transform="translate(55.615234 0)"/>
       <use xlink:href="#ArialMT-30" transform="translate(83.398438 0)"/>
      </g>
     </g>
    </g>
    <g id="text_16">
     <!-- Relative Intensity (a.u.) -->
     <g style="fill: #262626" transform="translate(15.935625 209.419219) rotate(-90) scale(0.12 -0.12)">
      <defs>
       <path id="ArialMT-65" d="M 2694 1069 
L 3275 997 
Q 3138 488 2766 206 
Q 2394 -75 1816 -75 
Q 1088 -75 661 373 
Q 234 822 234 1631 
Q 234 2469 665 2931 
Q 1097 3394 1784 3394 
Q 2450 3394 2872 2941 
Q 3294 2488 3294 1666 
Q 3294 1616 3291 1516 
L 816 1516 
Q 847 969 1125 678 
Q 1403 388 1819 388 
Q 2128 388 2347 550 
Q 2566 713 2694 1069 
z
M 847 1978 
L 2700 1978 
Q 2663 2397 2488 2606 
Q 2219 2931 1791 2931 
Q 1403 2931 1139 2672 
Q 875 2413 847 1978 
z
" transform="scale(0.015625)"/>
       <path id="ArialMT-6c" d="M 409 0 
L 409 4581 
L 972 4581 
L 972 0 
L 409 0 
z
" transform="scale(0.015625)"/>
       <path id="ArialMT-76" d="M 1344 0 
L 81 3319 
L 675 3319 
L 1388 1331 
Q 1503 1009 1600 663 
Q 1675 925 1809 1294 
L 2547 3319 
L 3125 3319 
L 1869 0 
L 1344 0 
z
" transform="scale(0.015625)"/>
       <path id="ArialMT-49" d="M 597 0 
L 597 4581 
L 1203 4581 
L 1203 0 
L 597 0 
z
" transform="scale(0.015625)"/>
       <path id="ArialMT-73" d="M 197 991 
L 753 1078 
Q 800 744 1014 566 
Q 1228 388 1613 388 
Q 2000 388 2187 545 
Q 2375 703 2375 916 
Q 2375 1106 2209 1216 
Q 2094 1291 1634 1406 
Q 1016 1563 777 1677 
Q 538 1791 414 1992 
Q 291 2194 291 2438 
Q 291 2659 392 2848 
Q 494 3038 669 3163 
Q 800 3259 1026 3326 
Q 1253 3394 1513 3394 
Q 1903 3394 2198 3281 
Q 2494 3169 2634 2976 
Q 2775 2784 2828 2463 
L 2278 2388 
Q 2241 2644 2061 2787 
Q 1881 2931 1553 2931 
Q 1166 2931 1000 2803 
Q 834 2675 834 2503 
Q 834 2394 903 2306 
Q 972 2216 1119 2156 
Q 1203 2125 1616 2013 
Q 2213 1853 2448 1751 
Q 2684 1650 2818 1456 
Q 2953 1263 2953 975 
Q 2953 694 2789 445 
Q 2625 197 2315 61 
Q 2006 -75 1616 -75 
Q 969 -75 630 194 
Q 291 463 197 991 
z
" transform="scale(0.015625)"/>
       <path id="ArialMT-79" d="M 397 -1278 
L 334 -750 
Q 519 -800 656 -800 
Q 844 -800 956 -737 
Q 1069 -675 1141 -563 
Q 1194 -478 1313 -144 
Q 1328 -97 1363 -6 
L 103 3319 
L 709 3319 
L 1400 1397 
Q 1534 1031 1641 628 
Q 1738 1016 1872 1384 
L 2581 3319 
L 3144 3319 
L 1881 -56 
Q 1678 -603 1566 -809 
Q 1416 -1088 1222 -1217 
Q 1028 -1347 759 -1347 
Q 597 -1347 397 -1278 
z
" transform="scale(0.015625)"/>
       <path id="ArialMT-75" d="M 2597 0 
L 2597 488 
Q 2209 -75 1544 -75 
Q 1250 -75 995 37 
Q 741 150 617 320 
Q 494 491 444 738 
Q 409 903 409 1263 
L 409 3319 
L 972 3319 
L 972 1478 
Q 972 1038 1006 884 
Q 1059 663 1231 536 
Q 1403 409 1656 409 
Q 1909 409 2131 539 
Q 2353 669 2445 892 
Q 2538 1116 2538 1541 
L 2538 3319 
L 3100 3319 
L 3100 0 
L 2597 0 
z
" transform="scale(0.015625)"/>
      </defs>
      <use xlink:href="#ArialMT-52"/>
      <use xlink:href="#ArialMT-65" transform="translate(72.216797 0)"/>
      <use xlink:href="#ArialMT-6c" transform="translate(127.832031 0)"/>
      <use xlink:href="#ArialMT-61" transform="translate(150.048828 0)"/>
      <use xlink:href="#ArialMT-74" transform="translate(205.664062 0)"/>
      <use xlink:href="#ArialMT-69" transform="translate(233.447266 0)"/>
      <use xlink:href="#ArialMT-76" transform="translate(255.664062 0)"/>
      <use xlink:href="#ArialMT-65" transform="translate(305.664062 0)"/>
      <use xlink:href="#ArialMT-20" transform="translate(361.279297 0)"/>
      <use xlink:href="#ArialMT-49" transform="translate(389.0625 0)"/>
      <use xlink:href="#ArialMT-6e" transform="translate(416.845703 0)"/>
      <use xlink:href="#ArialMT-74" transform="translate(472.460938 0)"/>
      <use xlink:href="#ArialMT-65" transform="translate(500.244141 0)"/>
      <use xlink:href="#ArialMT-6e" transform="translate(555.859375 0)"/>
      <use xlink:href="#ArialMT-73" transform="translate(611.474609 0)"/>
      <use xlink:href="#ArialMT-69" transform="translate(661.474609 0)"/>
      <use xlink:href="#ArialMT-74" transform="translate(683.691406 0)"/>
      <use xlink:href="#ArialMT-79" transform="translate(711.474609 0)"/>
      <use xlink:href="#ArialMT-20" transform="translate(761.474609 0)"/>
      <use xlink:href="#ArialMT-28" transform="translate(789.257812 0)"/>
      <use xlink:href="#ArialMT-61" transform="translate(822.558594 0)"/>
      <use xlink:href="#ArialMT-2e" transform="translate(878.173828 0)"/>
      <use xlink:href="#ArialMT-75" transform="translate(905.957031 0)"/>
      <use xlink:href="#ArialMT-2e" transform="translate(961.572266 0)"/>
      <use xlink:href="#ArialMT-29" transform="translate(989.355469 0)"/>
     </g>
    </g>
   </g>
   <g id="line2d_29">
    <path d="M 41.25125 270.226997 
L 41.643404 267.482205 
L 42.035557 265.647109 
L 42.427711 266.238102 
L 43.212018 271.08413 
L 43.604171 271.800959 
L 43.996325 270.093519 
L 45.172786 258.085706 
L 45.564939 260.472844 
L 45.957093 265.510302 
L 46.349246 268.832938 
L 46.7414 266.52248 
L 47.133554 254.88478 
L 47.917861 211.914122 
L 48.310014 206.481469 
L 48.702168 221.868642 
L 49.094321 244.975483 
L 49.486475 260.175805 
L 49.878629 260.605056 
L 50.270782 245.026078 
L 51.055089 195.705045 
L 51.447243 196.244507 
L 52.623704 262.173264 
L 53.015857 264.456567 
L 53.408011 255.979823 
L 53.800164 242.469472 
L 54.192318 233.800757 
L 54.584471 237.517867 
L 55.368779 262.721772 
L 55.760932 268.690365 
L 56.153086 267.97768 
L 57.329546 252.063117 
L 57.7217 255.7364 
L 58.113854 262.846288 
L 58.506007 267.560248 
L 58.898161 265.278164 
L 59.290314 252.271509 
L 60.074621 206.010158 
L 60.466775 201.471165 
L 60.858929 219.113033 
L 61.251082 244.325178 
L 61.643236 261.732147 
L 62.035389 267.466289 
L 62.427543 264.433768 
L 63.21185 250.705091 
L 63.604004 251.302088 
L 64.780464 270.550008 
L 65.172618 271.58161 
L 65.564771 270.1918 
L 65.956925 267.825072 
L 66.349079 266.391128 
L 66.741232 267.177343 
L 67.525539 271.652198 
L 67.917693 272.655903 
L 68.309846 272.510451 
L 69.094154 270.370316 
L 69.486307 269.917475 
L 69.878461 270.586364 
L 70.662768 272.741112 
L 71.054921 273.047903 
L 71.447075 272.761968 
L 72.231382 271.40897 
L 72.623536 271.313228 
L 73.799996 273.099367 
L 74.19215 273.169258 
L 74.584304 272.871393 
L 75.368611 271.973394 
L 75.760764 272.040024 
L 76.545071 272.991964 
L 76.937225 273.247388 
L 77.329379 273.213492 
L 78.505839 272.334287 
L 78.897993 272.478918 
L 79.6823 273.184044 
L 80.074454 273.314338 
L 80.466607 273.230287 
L 81.643068 272.595381 
L 82.035221 272.772553 
L 82.819529 273.290498 
L 83.211682 273.343915 
L 83.995989 273.007931 
L 84.388143 272.803631 
L 84.780296 272.786082 
L 85.956757 273.34905 
L 86.348911 273.354252 
L 87.917525 272.934462 
L 89.093986 273.381078 
L 89.878293 273.228852 
L 90.6626 272.982558 
L 91.446907 273.213712 
L 92.231214 273.3972 
L 93.015521 273.226568 
L 93.799829 273.057222 
L 95.368443 273.408425 
L 97.329211 273.250445 
L 98.113518 273.413758 
L 98.897825 273.350253 
L 99.682132 273.19696 
L 100.466439 273.303937 
L 101.250746 273.424914 
L 102.427207 273.264445 
L 103.211514 273.265565 
L 104.387975 273.430253 
L 106.740896 273.377339 
L 107.525204 273.431594 
L 109.485971 273.340256 
L 110.662432 273.438798 
L 112.6232 273.397694 
L 114.191814 273.431405 
L 115.760429 273.434241 
L 117.721196 273.413022 
L 125.172114 273.463594 
L 132.230879 273.394497 
L 133.407339 273.296 
L 134.975954 273.420897 
L 136.544568 273.289848 
L 137.721029 273.431623 
L 140.07395 273.363502 
L 140.858257 273.424475 
L 142.819025 273.286438 
L 143.603332 273.419247 
L 144.387639 273.346635 
L 145.171946 273.18007 
L 145.956254 273.288959 
L 146.740561 273.417164 
L 147.524868 273.301257 
L 148.309175 273.133713 
L 150.269943 273.357764 
L 151.446404 273.085166 
L 153.015018 273.393164 
L 154.583632 273.034889 
L 155.760093 273.386232 
L 156.5444 273.238631 
L 157.328707 272.937829 
L 157.720861 272.983026 
L 158.897321 273.37638 
L 159.289475 273.315074 
L 160.465936 272.823057 
L 161.250243 273.145869 
L 161.642396 273.315457 
L 162.03455 273.352518 
L 162.426704 273.235267 
L 163.211011 272.74188 
L 163.603164 272.686919 
L 165.171779 273.304573 
L 165.563932 273.106103 
L 166.348239 272.505063 
L 166.740393 272.522098 
L 167.916854 273.289535 
L 168.309007 273.211848 
L 169.485468 272.171167 
L 169.877621 272.304871 
L 170.661929 273.108227 
L 171.054082 273.237183 
L 171.446236 273.040542 
L 172.230543 271.950637 
L 172.622696 271.713931 
L 173.01485 272.031485 
L 173.799157 273.066613 
L 174.191311 273.118551 
L 174.583464 272.705627 
L 175.367771 271.137674 
L 175.759925 271.008476 
L 176.152079 271.628135 
L 176.544232 272.471761 
L 176.936386 272.967461 
L 177.328539 272.847239 
L 177.720693 272.02602 
L 178.505 269.73714 
L 178.897154 269.873323 
L 179.681461 272.217335 
L 180.073614 272.720533 
L 180.465768 272.164304 
L 180.857921 270.456823 
L 181.250075 268.204368 
L 181.642229 266.927599 
L 182.034382 267.714713 
L 182.818689 271.667715 
L 183.210843 271.948537 
L 183.602996 270.06015 
L 184.387304 261.462789 
L 184.779457 259.849377 
L 185.171611 262.521864 
L 185.563764 267.08515 
L 185.955918 269.897995 
L 186.348071 268.281194 
L 186.740225 260.210455 
L 187.524532 233.712491 
L 187.916686 232.292393 
L 188.700993 256.117716 
L 189.093146 258.386785 
L 189.4853 236.579044 
L 189.877454 178.579392 
L 190.269607 94.656222 
L 190.661761 34.606451 
L 191.053914 47.79598 
L 191.838221 201.47121 
L 192.230375 245.856116 
L 192.622529 254.663774 
L 193.014682 240.380653 
L 193.406836 217.926026 
L 193.798989 205.874535 
L 194.191143 215.194097 
L 194.97545 257.824269 
L 195.367604 267.335959 
L 195.759757 267.861139 
L 196.544064 257.351967 
L 196.936218 255.553727 
L 197.328371 259.369257 
L 198.112679 270.157286 
L 198.504832 271.700782 
L 198.896986 270.695516 
L 199.681293 265.881426 
L 200.073446 265.76667 
L 201.249907 272.268249 
L 201.642061 272.510148 
L 202.034214 271.588898 
L 202.426368 270.06866 
L 202.818521 269.021964 
L 203.210675 269.347945 
L 203.994982 272.177026 
L 204.387136 272.875234 
L 204.779289 272.762858 
L 205.95575 270.532661 
L 206.347904 270.984665 
L 207.132211 272.794943 
L 207.524364 273.092077 
L 207.916518 272.855343 
L 208.700825 271.547567 
L 209.092979 271.373246 
L 209.485132 271.849579 
L 210.269439 273.073388 
L 210.661593 273.169129 
L 211.053746 272.877223 
L 211.838054 271.868702 
L 212.230207 271.875381 
L 213.406668 273.202476 
L 213.798821 273.17823 
L 214.190975 272.846953 
L 214.975282 272.043115 
L 215.367436 272.172475 
L 216.151743 273.066781 
L 216.543896 273.249084 
L 216.93605 273.126209 
L 218.112511 272.049537 
L 218.504664 272.290281 
L 219.288971 273.142873 
L 219.681125 273.22766 
L 220.073279 272.985127 
L 220.857586 271.969243 
L 221.249739 271.864309 
L 221.641893 272.251479 
L 222.034046 272.801058 
L 222.4262 273.136197 
L 222.818354 273.076377 
L 223.210507 272.562631 
L 223.994814 271.065866 
L 224.386968 271.121008 
L 225.171275 272.608418 
L 225.563429 272.861176 
L 225.955582 272.221576 
L 226.347736 270.488845 
L 226.739889 268.179816 
L 227.132043 266.804655 
L 227.524196 267.523732 
L 228.308504 271.489328 
L 228.700657 271.524132 
L 229.092811 268.745507 
L 229.877118 256.242139 
L 230.269271 253.655414 
L 230.661425 257.344054 
L 231.445732 269.261481 
L 231.837886 270.558873 
L 232.230039 267.83652 
L 233.014346 256.609428 
L 233.4065 255.773552 
L 233.798654 260.321273 
L 234.190807 266.475018 
L 234.582961 270.378288 
L 234.975114 270.770122 
L 235.367268 267.859724 
L 236.151575 259.240576 
L 236.543729 259.839702 
L 237.720189 271.777292 
L 238.112343 272.442893 
L 238.504496 271.765534 
L 238.89665 270.593645 
L 239.288804 269.923881 
L 239.680957 270.369287 
L 240.465264 272.598841 
L 240.857418 273.074947 
L 241.249571 272.99134 
L 242.033879 271.965776 
L 242.426032 271.774736 
L 242.818186 272.11581 
L 243.602493 273.13161 
L 243.994646 273.259218 
L 244.3868 273.100359 
L 245.171107 272.425488 
L 245.563261 272.394979 
L 246.739721 273.284493 
L 247.131875 273.300761 
L 247.916182 272.836964 
L 248.308336 272.632079 
L 248.700489 272.682315 
L 249.87695 273.340513 
L 250.269104 273.30018 
L 251.445564 272.735513 
L 251.837718 272.839212 
L 252.622025 273.291391 
L 253.014179 273.370265 
L 253.798486 273.156193 
L 254.582793 272.934061 
L 256.151407 273.373934 
L 256.935714 273.088851 
L 257.327868 272.929348 
L 257.720021 272.924136 
L 258.896482 273.366463 
L 259.288636 273.343914 
L 260.465096 272.824114 
L 260.85725 272.874209 
L 261.641557 273.275878 
L 262.033711 273.354436 
L 262.425864 273.276986 
L 263.602325 272.639022 
L 263.994479 272.769806 
L 264.778786 273.265969 
L 265.170939 273.306611 
L 265.563093 273.129079 
L 266.3474 272.385201 
L 266.739554 272.293343 
L 267.916014 273.213181 
L 268.308168 273.161436 
L 268.700321 272.749552 
L 269.484629 271.509623 
L 269.876782 271.528056 
L 270.661089 272.748696 
L 271.053243 273.004007 
L 271.445396 272.593283 
L 271.83755 271.377404 
L 272.229704 269.709919 
L 272.621857 268.667139 
L 273.014011 269.123777 
L 273.798318 271.874858 
L 274.190471 271.490943 
L 274.582625 268.184923 
L 275.366932 253.498803 
L 275.759086 250.178801 
L 276.151239 254.252202 
L 276.935546 268.419469 
L 277.3277 270.30279 
L 277.719854 267.724151 
L 278.504161 255.958241 
L 278.896314 254.835198 
L 279.288468 259.439712 
L 279.680621 265.969769 
L 280.072775 270.475826 
L 280.464929 272.016806 
L 280.857082 271.400795 
L 281.641389 268.332432 
L 282.033543 268.480675 
L 282.81785 271.75783 
L 283.210004 272.672645 
L 283.602157 272.544081 
L 283.994311 271.481947 
L 284.386464 269.989887 
L 284.778618 269.112395 
L 285.170771 269.604822 
L 285.955079 272.255487 
L 286.347232 272.501588 
L 286.739386 271.362796 
L 287.523693 265.962037 
L 287.915846 264.882272 
L 288.308 266.505454 
L 288.700154 269.342271 
L 289.092307 270.96111 
L 289.484461 269.258532 
L 289.876614 262.310358 
L 290.660921 239.370667 
L 291.053075 237.870524 
L 291.445229 247.143356 
L 291.837382 259.367231 
L 292.229536 266.329745 
L 292.621689 264.242945 
L 293.013843 251.933785 
L 293.79815 218.822314 
L 294.190304 221.411207 
L 294.974611 256.643054 
L 295.366764 267.249415 
L 295.758918 270.074964 
L 296.151071 268.199763 
L 296.543225 264.676809 
L 296.935379 262.691462 
L 297.327532 264.099682 
L 298.111839 270.89773 
L 298.503993 272.406781 
L 298.896146 272.382919 
L 299.680454 270.20825 
L 300.072607 269.814115 
L 300.464761 270.567523 
L 301.249068 272.76979 
L 301.641221 273.079741 
L 302.033375 272.839418 
L 302.817682 271.7187 
L 303.209836 271.677464 
L 304.386296 273.178821 
L 304.77845 273.233453 
L 305.170604 273.00638 
L 305.954911 272.361945 
L 306.347064 272.434274 
L 307.131371 273.136682 
L 307.523525 273.313963 
L 307.915679 273.286628 
L 309.092139 272.707532 
L 309.484293 272.818802 
L 310.2686 273.287399 
L 310.660754 273.367368 
L 311.445061 273.144989 
L 311.837214 272.970115 
L 312.229368 272.920734 
L 313.797982 273.38964 
L 315.366596 273.064293 
L 316.543057 273.398696 
L 317.327364 273.324875 
L 318.111671 273.13944 
L 318.895979 273.2706 
L 319.680286 273.418088 
L 320.464593 273.328538 
L 321.2489 273.198541 
L 323.209668 273.399411 
L 324.386129 273.247426 
L 326.346896 273.397037 
L 327.523357 273.288463 
L 329.091971 273.43153 
L 330.660586 273.323068 
L 332.2292 273.429963 
L 333.797814 273.352151 
L 334.974275 273.44169 
L 337.327196 273.406312 
L 338.503657 273.421781 
L 339.680118 273.359664 
L 341.640886 273.4157 
L 342.817346 273.371718 
L 344.385961 273.437743 
L 345.954575 273.382758 
L 347.523189 273.432081 
L 349.091804 273.392753 
L 350.660418 273.424628 
L 351.836879 273.371416 
L 353.797646 273.436777 
L 355.758414 273.44966 
L 360.072104 273.412931 
L 361.248564 273.41011 
L 362.817179 273.426064 
L 364.385793 273.408109 
L 365.562254 273.4387 
L 367.130868 273.368702 
L 368.699482 273.424883 
L 370.268096 273.35685 
L 371.444557 273.436026 
L 373.405325 273.34313 
L 374.581786 273.41982 
L 376.1504 273.251187 
L 377.326861 273.422254 
L 378.111168 273.296562 
L 378.895475 273.138278 
L 380.856243 273.324604 
L 381.64055 273.02387 
L 382.032704 272.991668 
L 383.601318 273.34453 
L 384.385625 272.923178 
L 384.777779 272.715688 
L 385.169932 272.730944 
L 386.346393 273.307076 
L 386.738546 273.19049 
L 387.915007 272.023822 
L 388.307161 272.175937 
L 389.091468 273.045739 
L 389.483621 273.097618 
L 389.875775 272.6186 
L 390.660082 270.379704 
L 391.052236 269.90627 
L 391.444389 270.555128 
L 391.836543 271.727159 
L 392.228696 272.40413 
L 392.62085 271.67886 
L 393.013004 268.695619 
L 393.797311 258.645826 
L 394.189464 257.864533 
L 394.581618 261.831197 
L 394.973771 267.174588 
L 395.365925 270.217253 
L 395.758079 269.128807 
L 396.150232 263.200585 
L 396.934539 246.967266 
L 397.326693 248.011875 
L 398.503154 270.383517 
L 398.895307 271.874104 
L 399.287461 271.086641 
L 399.679614 269.484093 
L 400.071768 268.546084 
L 400.463921 269.153352 
L 401.248229 272.262784 
L 401.640382 272.965194 
L 402.032536 272.950434 
L 402.816843 271.892475 
L 403.208996 271.687549 
L 403.60115 272.042457 
L 404.385457 273.118876 
L 404.777611 273.276491 
L 405.169764 273.164517 
L 405.954071 272.616526 
L 406.346225 272.589283 
L 407.522686 273.322341 
L 407.914839 273.353407 
L 409.483454 272.964654 
L 410.659914 273.390947 
L 411.444221 273.290113 
L 412.228529 273.105145 
L 413.012836 273.275503 
L 413.797143 273.418192 
L 416.150064 273.352222 
L 416.934371 273.429685 
L 418.895139 273.331621 
L 420.0716 273.434351 
L 422.032368 273.374979 
L 423.208829 273.435829 
L 424.777443 273.363723 
L 426.346057 273.435787 
L 427.914671 273.389965 
L 429.483286 273.435071 
L 431.0519 273.409592 
L 432.620514 273.434149 
L 434.189129 273.424297 
L 435.757743 273.433307 
L 437.326357 273.435265 
L 439.287125 273.41715 
L 449.090964 273.435644 
L 453.404654 273.458576 
L 460.463418 273.463594 
L 590.26625 273.463594 
L 590.26625 273.463594 
" clip-path="url(#pcff0f07166)" style="fill: none; stroke: #000000; stroke-width: 1.6; stroke-linecap: round"/>
   </g>
   <g id="patch_3">
    <path d="M 41.25125 273.463594 
L 41.25125 22.663594 
" style="fill: none; stroke: #cccccc; stroke-linejoin: miter; stroke-linecap: square"/>
   </g>
   <g id="patch_4">
    <path d="M 590.26625 273.463594 
L 590.26625 22.663594 
" style="fill: none; stroke: #cccccc; stroke-linejoin: miter; stroke-linecap: square"/>
   </g>
   <g id="patch_5">
    <path d="M 41.25125 273.463594 
L 590.26625 273.463594 
" style="fill: none; stroke: #cccccc; stroke-linejoin: miter; stroke-linecap: square"/>
   </g>
   <g id="patch_6">
    <path d="M 41.25125 22.663594 
L 590.26625 22.663594 
" style="fill: none; stroke: #cccccc; stroke-linejoin: miter; stroke-linecap: square"/>
   </g>
   <g id="text_17">
    <!-- Scaled Raman Peaks - Phosphoric acid -->
    <g style="fill: #262626" transform="translate(201.233828 16.663594) scale(0.13 -0.13)">
     <defs>
      <path id="ArialMT-64" d="M 2575 0 
L 2575 419 
Q 2259 -75 1647 -75 
Q 1250 -75 917 144 
Q 584 363 401 755 
Q 219 1147 219 1656 
Q 219 2153 384 2558 
Q 550 2963 881 3178 
Q 1213 3394 1622 3394 
Q 1922 3394 2156 3267 
Q 2391 3141 2538 2938 
L 2538 4581 
L 3097 4581 
L 3097 0 
L 2575 0 
z
M 797 1656 
Q 797 1019 1065 703 
Q 1334 388 1700 388 
Q 2069 388 2326 689 
Q 2584 991 2584 1609 
Q 2584 2291 2321 2609 
Q 2059 2928 1675 2928 
Q 1300 2928 1048 2622 
Q 797 2316 797 1656 
z
" transform="scale(0.015625)"/>
      <path id="ArialMT-50" d="M 494 0 
L 494 4581 
L 2222 4581 
Q 2678 4581 2919 4538 
Q 3256 4481 3484 4323 
Q 3713 4166 3852 3881 
Q 3991 3597 3991 3256 
Q 3991 2672 3619 2267 
Q 3247 1863 2275 1863 
L 1100 1863 
L 1100 0 
L 494 0 
z
M 1100 2403 
L 2284 2403 
Q 2872 2403 3119 2622 
Q 3366 2841 3366 3238 
Q 3366 3525 3220 3729 
Q 3075 3934 2838 4000 
Q 2684 4041 2272 4041 
L 1100 4041 
L 1100 2403 
z
" transform="scale(0.015625)"/>
      <path id="ArialMT-6b" d="M 425 0 
L 425 4581 
L 988 4581 
L 988 1969 
L 2319 3319 
L 3047 3319 
L 1778 2088 
L 3175 0 
L 2481 0 
L 1384 1697 
L 988 1316 
L 988 0 
L 425 0 
z
" transform="scale(0.015625)"/>
      <path id="ArialMT-2d" d="M 203 1375 
L 203 1941 
L 1931 1941 
L 1931 1375 
L 203 1375 
z
" transform="scale(0.015625)"/>
      <path id="ArialMT-6f" d="M 213 1659 
Q 213 2581 725 3025 
Q 1153 3394 1769 3394 
Q 2453 3394 2887 2945 
Q 3322 2497 3322 1706 
Q 3322 1066 3130 698 
Q 2938 331 2570 128 
Q 2203 -75 1769 -75 
Q 1072 -75 642 372 
Q 213 819 213 1659 
z
M 791 1659 
Q 791 1022 1069 705 
Q 1347 388 1769 388 
Q 2188 388 2466 706 
Q 2744 1025 2744 1678 
Q 2744 2294 2464 2611 
Q 2184 2928 1769 2928 
Q 1347 2928 1069 2612 
Q 791 2297 791 1659 
z
" transform="scale(0.015625)"/>
      <path id="ArialMT-70" d="M 422 -1272 
L 422 3319 
L 934 3319 
L 934 2888 
Q 1116 3141 1344 3267 
Q 1572 3394 1897 3394 
Q 2322 3394 2647 3175 
Q 2972 2956 3137 2557 
Q 3303 2159 3303 1684 
Q 3303 1175 3120 767 
Q 2938 359 2589 142 
Q 2241 -75 1856 -75 
Q 1575 -75 1351 44 
Q 1128 163 984 344 
L 984 -1272 
L 422 -1272 
z
M 931 1641 
Q 931 1000 1190 694 
Q 1450 388 1819 388 
Q 2194 388 2461 705 
Q 2728 1022 2728 1688 
Q 2728 2322 2467 2637 
Q 2206 2953 1844 2953 
Q 1484 2953 1207 2617 
Q 931 2281 931 1641 
z
" transform="scale(0.015625)"/>
      <path id="ArialMT-72" d="M 416 0 
L 416 3319 
L 922 3319 
L 922 2816 
Q 1116 3169 1280 3281 
Q 1444 3394 1641 3394 
Q 1925 3394 2219 3213 
L 2025 2691 
Q 1819 2813 1613 2813 
Q 1428 2813 1281 2702 
Q 1134 2591 1072 2394 
Q 978 2094 978 1738 
L 978 0 
L 416 0 
z
" transform="scale(0.015625)"/>
     </defs>
     <use xlink:href="#ArialMT-53"/>
     <use xlink:href="#ArialMT-63" transform="translate(66.699219 0)"/>
     <use xlink:href="#ArialMT-61" transform="translate(116.699219 0)"/>
     <use xlink:href="#ArialMT-6c" transform="translate(172.314453 0)"/>
     <use xlink:href="#ArialMT-65" transform="translate(194.53125 0)"/>
     <use xlink:href="#ArialMT-64" transform="translate(250.146484 0)"/>
     <use xlink:href="#ArialMT-20" transform="translate(305.761719 0)"/>
     <use xlink:href="#ArialMT-52" transform="translate(333.544922 0)"/>
     <use xlink:href="#ArialMT-61" transform="translate(405.761719 0)"/>
     <use xlink:href="#ArialMT-6d" transform="translate(461.376953 0)"/>
     <use xlink:href="#ArialMT-61" transform="translate(544.677734 0)"/>
     <use xlink:href="#ArialMT-6e" transform="translate(600.292969 0)"/>
     <use xlink:href="#ArialMT-20" transform="translate(655.908203 0)"/>
     <use xlink:href="#ArialMT-50" transform="translate(683.691406 0)"/>
     <use xlink:href="#ArialMT-65" transform="translate(750.390625 0)"/>
     <use xlink:href="#ArialMT-61" transform="translate(806.005859 0)"/>
     <use xlink:href="#ArialMT-6b" transform="translate(861.621094 0)"/>
     <use xlink:href="#ArialMT-73" transform="translate(911.621094 0)"/>
     <use xlink:href="#ArialMT-20" transform="translate(961.621094 0)"/>
     <use xlink:href="#ArialMT-2d" transform="translate(989.404297 0)"/>
     <use xlink:href="#ArialMT-20" transform="translate(1022.705078 0)"/>
     <use xlink:href="#ArialMT-50" transform="translate(1050.488281 0)"/>
     <use xlink:href="#ArialMT-68" transform="translate(1117.1875 0)"/>
     <use xlink:href="#ArialMT-6f" transform="translate(1172.802734 0)"/>
     <use xlink:href="#ArialMT-73" transform="translate(1228.417969 0)"/>
     <use xlink:href="#ArialMT-70" transform="translate(1278.417969 0)"/>
     <use xlink:href="#ArialMT-68" transform="translate(1334.033203 0)"/>
     <use xlink:href="#ArialMT-6f" transform="translate(1389.648438 0)"/>
     <use xlink:href="#ArialMT-72" transform="translate(1445.263672 0)"/>
     <use xlink:href="#ArialMT-69" transform="translate(1478.564453 0)"/>
     <use xlink:href="#ArialMT-63" transform="translate(1500.78125 0)"/>
     <use xlink:href="#ArialMT-20" transform="translate(1550.78125 0)"/>
     <use xlink:href="#ArialMT-61" transform="translate(1578.564453 0)"/>
     <use xlink:href="#ArialMT-63" transform="translate(1634.179688 0)"/>
     <use xlink:href="#ArialMT-69" transform="translate(1684.179688 0)"/>
     <use xlink:href="#ArialMT-64" transform="translate(1706.396484 0)"/>
    </g>
   </g>
  </g>
 </g>
 <defs>
  <clipPath id="pcff0f07166">
   <rect x="41.25125" y="22.663594" width="549.015" height="250.8"/>
  </clipPath>
 </defs>
</svg>
