<?xml version="1.0" encoding="utf-8" standalone="no"?>
<!DOCTYPE svg PUBLIC "-//W3C//DTD SVG 1.1//EN"
  "http://www.w3.org/Graphics/SVG/1.1/DTD/svg11.dtd">
<svg xmlns:xlink="http://www.w3.org/1999/xlink" width="638.477344pt" height="506.007187pt" viewBox="0 0 638.477344 506.007187" xmlns="http://www.w3.org/2000/svg" version="1.1">
 <metadata>
  <rdf:RDF xmlns:dc="http://purl.org/dc/elements/1.1/" xmlns:cc="http://creativecommons.org/ns#" xmlns:rdf="http://www.w3.org/1999/02/22-rdf-syntax-ns#">
   <cc:Work>
    <dc:type rdf:resource="http://purl.org/dc/dcmitype/StillImage"/>
    <dc:date>2026-04-16T20:50:17.309194</dc:date>
    <dc:format>image/svg+xml</dc:format>
    <dc:creator>
     <cc:Agent>
      <dc:title>Matplotlib v3.10.8, https://matplotlib.org/</dc:title>
     </cc:Agent>
    </dc:creator>
   </cc:Work>
  </rdf:RDF>
 </metadata>
 <defs>
  <style type="text/css">*{stroke-linejoin: round; stroke-linecap: butt}</style>
 </defs>
 <g id="figure_1">
  <g id="patch_1">
   <path d="M 0 506.007187 
L 638.477344 506.007187 
L 638.477344 0 
L 0 0 
z
" style="fill: #ffffff"/>
  </g>
  <g id="axes_1">
   <g id="patch_2">
    <path d="M 32.078281 467.807344 
L 619.043281 467.807344 
L 619.043281 22.663594 
L 32.078281 22.663594 
z
" style="fill: #ffffff"/>
   </g>
   <g id="matplotlib.axis_1">
    <g id="xtick_1">
     <g id="line2d_1">
      <path d="M 32.078281 467.807344 
L 32.078281 22.663594 
" clip-path="url(#p0b0d0db094)" style="fill: none; stroke: #cccccc; stroke-width: 0.8; stroke-linecap: round"/>
     </g>
     <g id="line2d_2"/>
     <g id="text_1">
      <!-- 400 -->
      <g style="fill: #262626" transform="translate(22.902734 479.180937) scale(0.11 -0.11)">
       <defs>
        <path id="ArialMT-34" d="M 2069 0 
L 2069 1097 
L 81 1097 
L 81 1613 
L 2172 4581 
L 2631 4581 
L 2631 1613 
L 3250 1613 
L 3250 1097 
L 2631 1097 
L 2631 0 
L 2069 0 
z
M 2069 1613 
L 2069 3678 
L 634 1613 
L 2069 1613 
z
" transform="scale(0.015625)"/>
        <path id="ArialMT-30" d="M 266 2259 
Q 266 3072 433 3567 
Q 600 4063 929 4331 
Q 1259 4600 1759 4600 
Q 2128 4600 2406 4451 
Q 2684 4303 2865 4023 
Q 3047 3744 3150 3342 
Q 3253 2941 3253 2259 
Q 3253 1453 3087 958 
Q 2922 463 2592 192 
Q 2263 -78 1759 -78 
Q 1097 -78 719 397 
Q 266 969 266 2259 
z
M 844 2259 
Q 844 1131 1108 757 
Q 1372 384 1759 384 
Q 2147 384 2411 759 
Q 2675 1134 2675 2259 
Q 2675 3391 2411 3762 
Q 2147 4134 1753 4134 
Q 1366 4134 1134 3806 
Q 844 3388 844 2259 
z
" transform="scale(0.015625)"/>
       </defs>
       <use xlink:href="#ArialMT-34"/>
       <use xlink:href="#ArialMT-30" transform="translate(55.615234 0)"/>
       <use xlink:href="#ArialMT-30" transform="translate(111.230469 0)"/>
      </g>
     </g>
    </g>
    <g id="xtick_2">
     <g id="line2d_3">
      <path d="M 115.930424 467.807344 
L 115.930424 22.663594 
" clip-path="url(#p0b0d0db094)" style="fill: none; stroke: #cccccc; stroke-width: 0.8; stroke-linecap: round"/>
     </g>
     <g id="line2d_4"/>
     <g id="text_2">
      <!-- 600 -->
      <g style="fill: #262626" transform="translate(106.754877 479.180937) scale(0.11 -0.11)">
       <defs>
        <path id="ArialMT-36" d="M 3184 3459 
L 2625 3416 
Q 2550 3747 2413 3897 
Q 2184 4138 1850 4138 
Q 1581 4138 1378 3988 
Q 1113 3794 959 3422 
Q 806 3050 800 2363 
Q 1003 2672 1297 2822 
Q 1591 2972 1913 2972 
Q 2475 2972 2870 2558 
Q 3266 2144 3266 1488 
Q 3266 1056 3080 686 
Q 2894 316 2569 119 
Q 2244 -78 1831 -78 
Q 1128 -78 684 439 
Q 241 956 241 2144 
Q 241 3472 731 4075 
Q 1159 4600 1884 4600 
Q 2425 4600 2770 4297 
Q 3116 3994 3184 3459 
z
M 888 1484 
Q 888 1194 1011 928 
Q 1134 663 1356 523 
Q 1578 384 1822 384 
Q 2178 384 2434 671 
Q 2691 959 2691 1453 
Q 2691 1928 2437 2201 
Q 2184 2475 1800 2475 
Q 1419 2475 1153 2201 
Q 888 1928 888 1484 
z
" transform="scale(0.015625)"/>
       </defs>
       <use xlink:href="#ArialMT-36"/>
       <use xlink:href="#ArialMT-30" transform="translate(55.615234 0)"/>
       <use xlink:href="#ArialMT-30" transform="translate(111.230469 0)"/>
      </g>
     </g>
    </g>
    <g id="xtick_3">
     <g id="line2d_5">
      <path d="M 199.782567 467.807344 
L 199.782567 22.663594 
" clip-path="url(#p0b0d0db094)" style="fill: none; stroke: #cccccc; stroke-width: 0.8; stroke-linecap: round"/>
     </g>
     <g id="line2d_6"/>
     <g id="text_3">
      <!-- 800 -->
      <g style="fill: #262626" transform="translate(190.60702 479.180937) scale(0.11 -0.11)">
       <defs>
        <path id="ArialMT-38" d="M 1131 2484 
Q 781 2613 612 2850 
Q 444 3088 444 3419 
Q 444 3919 803 4259 
Q 1163 4600 1759 4600 
Q 2359 4600 2725 4251 
Q 3091 3903 3091 3403 
Q 3091 3084 2923 2848 
Q 2756 2613 2416 2484 
Q 2838 2347 3058 2040 
Q 3278 1734 3278 1309 
Q 3278 722 2862 322 
Q 2447 -78 1769 -78 
Q 1091 -78 675 323 
Q 259 725 259 1325 
Q 259 1772 486 2073 
Q 713 2375 1131 2484 
z
M 1019 3438 
Q 1019 3113 1228 2906 
Q 1438 2700 1772 2700 
Q 2097 2700 2305 2904 
Q 2513 3109 2513 3406 
Q 2513 3716 2298 3927 
Q 2084 4138 1766 4138 
Q 1444 4138 1231 3931 
Q 1019 3725 1019 3438 
z
M 838 1322 
Q 838 1081 952 856 
Q 1066 631 1291 507 
Q 1516 384 1775 384 
Q 2178 384 2440 643 
Q 2703 903 2703 1303 
Q 2703 1709 2433 1975 
Q 2163 2241 1756 2241 
Q 1359 2241 1098 1978 
Q 838 1716 838 1322 
z
" transform="scale(0.015625)"/>
       </defs>
       <use xlink:href="#ArialMT-38"/>
       <use xlink:href="#ArialMT-30" transform="translate(55.615234 0)"/>
       <use xlink:href="#ArialMT-30" transform="translate(111.230469 0)"/>
      </g>
     </g>
    </g>
    <g id="xtick_4">
     <g id="line2d_7">
      <path d="M 283.63471 467.807344 
L 283.63471 22.663594 
" clip-path="url(#p0b0d0db094)" style="fill: none; stroke: #cccccc; stroke-width: 0.8; stroke-linecap: round"/>
     </g>
     <g id="line2d_8"/>
     <g id="text_4">
      <!-- 1000 -->
      <g style="fill: #262626" transform="translate(271.400647 479.180937) scale(0.11 -0.11)">
       <defs>
        <path id="ArialMT-31" d="M 2384 0 
L 1822 0 
L 1822 3584 
Q 1619 3391 1289 3197 
Q 959 3003 697 2906 
L 697 3450 
Q 1169 3672 1522 3987 
Q 1875 4303 2022 4600 
L 2384 4600 
L 2384 0 
z
" transform="scale(0.015625)"/>
       </defs>
       <use xlink:href="#ArialMT-31"/>
       <use xlink:href="#ArialMT-30" transform="translate(55.615234 0)"/>
       <use xlink:href="#ArialMT-30" transform="translate(111.230469 0)"/>
       <use xlink:href="#ArialMT-30" transform="translate(166.845703 0)"/>
      </g>
     </g>
    </g>
    <g id="xtick_5">
     <g id="line2d_9">
      <path d="M 367.486853 467.807344 
L 367.486853 22.663594 
" clip-path="url(#p0b0d0db094)" style="fill: none; stroke: #cccccc; stroke-width: 0.8; stroke-linecap: round"/>
     </g>
     <g id="line2d_10"/>
     <g id="text_5">
      <!-- 1200 -->
      <g style="fill: #262626" transform="translate(355.25279 479.180937) scale(0.11 -0.11)">
       <defs>
        <path id="ArialMT-32" d="M 3222 541 
L 3222 0 
L 194 0 
Q 188 203 259 391 
Q 375 700 629 1000 
Q 884 1300 1366 1694 
Q 2113 2306 2375 2664 
Q 2638 3022 2638 3341 
Q 2638 3675 2398 3904 
Q 2159 4134 1775 4134 
Q 1369 4134 1125 3890 
Q 881 3647 878 3216 
L 300 3275 
Q 359 3922 746 4261 
Q 1134 4600 1788 4600 
Q 2447 4600 2831 4234 
Q 3216 3869 3216 3328 
Q 3216 3053 3103 2787 
Q 2991 2522 2730 2228 
Q 2469 1934 1863 1422 
Q 1356 997 1212 845 
Q 1069 694 975 541 
L 3222 541 
z
" transform="scale(0.015625)"/>
       </defs>
       <use xlink:href="#ArialMT-31"/>
       <use xlink:href="#ArialMT-32" transform="translate(55.615234 0)"/>
       <use xlink:href="#ArialMT-30" transform="translate(111.230469 0)"/>
       <use xlink:href="#ArialMT-30" transform="translate(166.845703 0)"/>
      </g>
     </g>
    </g>
    <g id="xtick_6">
     <g id="line2d_11">
      <path d="M 451.338996 467.807344 
L 451.338996 22.663594 
" clip-path="url(#p0b0d0db094)" style="fill: none; stroke: #cccccc; stroke-width: 0.8; stroke-linecap: round"/>
     </g>
     <g id="line2d_12"/>
     <g id="text_6">
      <!-- 1400 -->
      <g style="fill: #262626" transform="translate(439.104933 479.180937) scale(0.11 -0.11)">
       <use xlink:href="#ArialMT-31"/>
       <use xlink:href="#ArialMT-34" transform="translate(55.615234 0)"/>
       <use xlink:href="#ArialMT-30" transform="translate(111.230469 0)"/>
       <use xlink:href="#ArialMT-30" transform="translate(166.845703 0)"/>
      </g>
     </g>
    </g>
    <g id="xtick_7">
     <g id="line2d_13">
      <path d="M 535.191138 467.807344 
L 535.191138 22.663594 
" clip-path="url(#p0b0d0db094)" style="fill: none; stroke: #cccccc; stroke-width: 0.8; stroke-linecap: round"/>
     </g>
     <g id="line2d_14"/>
     <g id="text_7">
      <!-- 1600 -->
      <g style="fill: #262626" transform="translate(522.957076 479.180937) scale(0.11 -0.11)">
       <use xlink:href="#ArialMT-31"/>
       <use xlink:href="#ArialMT-36" transform="translate(55.615234 0)"/>
       <use xlink:href="#ArialMT-30" transform="translate(111.230469 0)"/>
       <use xlink:href="#ArialMT-30" transform="translate(166.845703 0)"/>
      </g>
     </g>
    </g>
    <g id="xtick_8">
     <g id="line2d_15">
      <path d="M 619.043281 467.807344 
L 619.043281 22.663594 
" clip-path="url(#p0b0d0db094)" style="fill: none; stroke: #cccccc; stroke-width: 0.8; stroke-linecap: round"/>
     </g>
     <g id="line2d_16"/>
     <g id="text_8">
      <!-- 1800 -->
      <g style="fill: #262626" transform="translate(606.809219 479.180937) scale(0.11 -0.11)">
       <use xlink:href="#ArialMT-31"/>
       <use xlink:href="#ArialMT-38" transform="translate(55.615234 0)"/>
       <use xlink:href="#ArialMT-30" transform="translate(111.230469 0)"/>
       <use xlink:href="#ArialMT-30" transform="translate(166.845703 0)"/>
      </g>
     </g>
    </g>
    <g id="text_9">
     <!-- Raman shift (cm$^{-1}$) -->
     <g style="fill: #262626" transform="translate(273.420781 496.167187) scale(0.12 -0.12)">
      <defs>
       <path id="ArialMT-52" d="M 503 0 
L 503 4581 
L 2534 4581 
Q 3147 4581 3465 4457 
Q 3784 4334 3975 4021 
Q 4166 3709 4166 3331 
Q 4166 2844 3850 2509 
Q 3534 2175 2875 2084 
Q 3116 1969 3241 1856 
Q 3506 1613 3744 1247 
L 4541 0 
L 3778 0 
L 3172 953 
Q 2906 1366 2734 1584 
Q 2563 1803 2427 1890 
Q 2291 1978 2150 2013 
Q 2047 2034 1813 2034 
L 1109 2034 
L 1109 0 
L 503 0 
z
M 1109 2559 
L 2413 2559 
Q 2828 2559 3062 2645 
Q 3297 2731 3419 2920 
Q 3541 3109 3541 3331 
Q 3541 3656 3305 3865 
Q 3069 4075 2559 4075 
L 1109 4075 
L 1109 2559 
z
" transform="scale(0.015625)"/>
       <path id="ArialMT-61" d="M 2588 409 
Q 2275 144 1986 34 
Q 1697 -75 1366 -75 
Q 819 -75 525 192 
Q 231 459 231 875 
Q 231 1119 342 1320 
Q 453 1522 633 1644 
Q 813 1766 1038 1828 
Q 1203 1872 1538 1913 
Q 2219 1994 2541 2106 
Q 2544 2222 2544 2253 
Q 2544 2597 2384 2738 
Q 2169 2928 1744 2928 
Q 1347 2928 1158 2789 
Q 969 2650 878 2297 
L 328 2372 
Q 403 2725 575 2942 
Q 747 3159 1072 3276 
Q 1397 3394 1825 3394 
Q 2250 3394 2515 3294 
Q 2781 3194 2906 3042 
Q 3031 2891 3081 2659 
Q 3109 2516 3109 2141 
L 3109 1391 
Q 3109 606 3145 398 
Q 3181 191 3288 0 
L 2700 0 
Q 2613 175 2588 409 
z
M 2541 1666 
Q 2234 1541 1622 1453 
Q 1275 1403 1131 1340 
Q 988 1278 909 1158 
Q 831 1038 831 891 
Q 831 666 1001 516 
Q 1172 366 1500 366 
Q 1825 366 2078 508 
Q 2331 650 2450 897 
Q 2541 1088 2541 1459 
L 2541 1666 
z
" transform="scale(0.015625)"/>
       <path id="ArialMT-6d" d="M 422 0 
L 422 3319 
L 925 3319 
L 925 2853 
Q 1081 3097 1340 3245 
Q 1600 3394 1931 3394 
Q 2300 3394 2536 3241 
Q 2772 3088 2869 2813 
Q 3263 3394 3894 3394 
Q 4388 3394 4653 3120 
Q 4919 2847 4919 2278 
L 4919 0 
L 4359 0 
L 4359 2091 
Q 4359 2428 4304 2576 
Q 4250 2725 4106 2815 
Q 3963 2906 3769 2906 
Q 3419 2906 3187 2673 
Q 2956 2441 2956 1928 
L 2956 0 
L 2394 0 
L 2394 2156 
Q 2394 2531 2256 2718 
Q 2119 2906 1806 2906 
Q 1569 2906 1367 2781 
Q 1166 2656 1075 2415 
Q 984 2175 984 1722 
L 984 0 
L 422 0 
z
" transform="scale(0.015625)"/>
       <path id="ArialMT-6e" d="M 422 0 
L 422 3319 
L 928 3319 
L 928 2847 
Q 1294 3394 1984 3394 
Q 2284 3394 2536 3286 
Q 2788 3178 2913 3003 
Q 3038 2828 3088 2588 
Q 3119 2431 3119 2041 
L 3119 0 
L 2556 0 
L 2556 2019 
Q 2556 2363 2490 2533 
Q 2425 2703 2258 2804 
Q 2091 2906 1866 2906 
Q 1506 2906 1245 2678 
Q 984 2450 984 1813 
L 984 0 
L 422 0 
z
" transform="scale(0.015625)"/>
       <path id="ArialMT-20" transform="scale(0.015625)"/>
       <path id="ArialMT-73" d="M 197 991 
L 753 1078 
Q 800 744 1014 566 
Q 1228 388 1613 388 
Q 2000 388 2187 545 
Q 2375 703 2375 916 
Q 2375 1106 2209 1216 
Q 2094 1291 1634 1406 
Q 1016 1563 777 1677 
Q 538 1791 414 1992 
Q 291 2194 291 2438 
Q 291 2659 392 2848 
Q 494 3038 669 3163 
Q 800 3259 1026 3326 
Q 1253 3394 1513 3394 
Q 1903 3394 2198 3281 
Q 2494 3169 2634 2976 
Q 2775 2784 2828 2463 
L 2278 2388 
Q 2241 2644 2061 2787 
Q 1881 2931 1553 2931 
Q 1166 2931 1000 2803 
Q 834 2675 834 2503 
Q 834 2394 903 2306 
Q 972 2216 1119 2156 
Q 1203 2125 1616 2013 
Q 2213 1853 2448 1751 
Q 2684 1650 2818 1456 
Q 2953 1263 2953 975 
Q 2953 694 2789 445 
Q 2625 197 2315 61 
Q 2006 -75 1616 -75 
Q 969 -75 630 194 
Q 291 463 197 991 
z
" transform="scale(0.015625)"/>
       <path id="ArialMT-68" d="M 422 0 
L 422 4581 
L 984 4581 
L 984 2938 
Q 1378 3394 1978 3394 
Q 2347 3394 2619 3248 
Q 2891 3103 3008 2847 
Q 3125 2591 3125 2103 
L 3125 0 
L 2563 0 
L 2563 2103 
Q 2563 2525 2380 2717 
Q 2197 2909 1863 2909 
Q 1613 2909 1392 2779 
Q 1172 2650 1078 2428 
Q 984 2206 984 1816 
L 984 0 
L 422 0 
z
" transform="scale(0.015625)"/>
       <path id="ArialMT-69" d="M 425 3934 
L 425 4581 
L 988 4581 
L 988 3934 
L 425 3934 
z
M 425 0 
L 425 3319 
L 988 3319 
L 988 0 
L 425 0 
z
" transform="scale(0.015625)"/>
       <path id="ArialMT-66" d="M 556 0 
L 556 2881 
L 59 2881 
L 59 3319 
L 556 3319 
L 556 3672 
Q 556 4006 616 4169 
Q 697 4388 901 4523 
Q 1106 4659 1475 4659 
Q 1713 4659 2000 4603 
L 1916 4113 
Q 1741 4144 1584 4144 
Q 1328 4144 1222 4034 
Q 1116 3925 1116 3625 
L 1116 3319 
L 1763 3319 
L 1763 2881 
L 1116 2881 
L 1116 0 
L 556 0 
z
" transform="scale(0.015625)"/>
       <path id="ArialMT-74" d="M 1650 503 
L 1731 6 
Q 1494 -44 1306 -44 
Q 1000 -44 831 53 
Q 663 150 594 308 
Q 525 466 525 972 
L 525 2881 
L 113 2881 
L 113 3319 
L 525 3319 
L 525 4141 
L 1084 4478 
L 1084 3319 
L 1650 3319 
L 1650 2881 
L 1084 2881 
L 1084 941 
Q 1084 700 1114 631 
Q 1144 563 1211 522 
Q 1278 481 1403 481 
Q 1497 481 1650 503 
z
" transform="scale(0.015625)"/>
       <path id="ArialMT-28" d="M 1497 -1347 
Q 1031 -759 709 28 
Q 388 816 388 1659 
Q 388 2403 628 3084 
Q 909 3875 1497 4659 
L 1900 4659 
Q 1522 4009 1400 3731 
Q 1209 3300 1100 2831 
Q 966 2247 966 1656 
Q 966 153 1900 -1347 
L 1497 -1347 
z
" transform="scale(0.015625)"/>
       <path id="ArialMT-63" d="M 2588 1216 
L 3141 1144 
Q 3050 572 2676 248 
Q 2303 -75 1759 -75 
Q 1078 -75 664 370 
Q 250 816 250 1647 
Q 250 2184 428 2587 
Q 606 2991 970 3192 
Q 1334 3394 1763 3394 
Q 2303 3394 2647 3120 
Q 2991 2847 3088 2344 
L 2541 2259 
Q 2463 2594 2264 2762 
Q 2066 2931 1784 2931 
Q 1359 2931 1093 2626 
Q 828 2322 828 1663 
Q 828 994 1084 691 
Q 1341 388 1753 388 
Q 2084 388 2306 591 
Q 2528 794 2588 1216 
z
" transform="scale(0.015625)"/>
       <path id="DejaVuSans-2212" d="M 678 2272 
L 4684 2272 
L 4684 1741 
L 678 1741 
L 678 2272 
z
" transform="scale(0.015625)"/>
       <path id="DejaVuSans-31" d="M 794 531 
L 1825 531 
L 1825 4091 
L 703 3866 
L 703 4441 
L 1819 4666 
L 2450 4666 
L 2450 531 
L 3481 531 
L 3481 0 
L 794 0 
L 794 531 
z
" transform="scale(0.015625)"/>
       <path id="ArialMT-29" d="M 791 -1347 
L 388 -1347 
Q 1322 153 1322 1656 
Q 1322 2244 1188 2822 
Q 1081 3291 891 3722 
Q 769 4003 388 4659 
L 791 4659 
Q 1378 3875 1659 3084 
Q 1900 2403 1900 1659 
Q 1900 816 1576 28 
Q 1253 -759 791 -1347 
z
" transform="scale(0.015625)"/>
      </defs>
      <use xlink:href="#ArialMT-52" transform="translate(0 0.684375)"/>
      <use xlink:href="#ArialMT-61" transform="translate(72.216797 0.684375)"/>
      <use xlink:href="#ArialMT-6d" transform="translate(127.832031 0.684375)"/>
      <use xlink:href="#ArialMT-61" transform="translate(211.132812 0.684375)"/>
      <use xlink:href="#ArialMT-6e" transform="translate(266.748047 0.684375)"/>
      <use xlink:href="#ArialMT-20" transform="translate(322.363281 0.684375)"/>
      <use xlink:href="#ArialMT-73" transform="translate(350.146484 0.684375)"/>
      <use xlink:href="#ArialMT-68" transform="translate(400.146484 0.684375)"/>
      <use xlink:href="#ArialMT-69" transform="translate(455.761719 0.684375)"/>
      <use xlink:href="#ArialMT-66" transform="translate(477.978516 0.684375)"/>
      <use xlink:href="#ArialMT-74" transform="translate(505.761719 0.684375)"/>
      <use xlink:href="#ArialMT-20" transform="translate(533.544922 0.684375)"/>
      <use xlink:href="#ArialMT-28" transform="translate(561.328125 0.684375)"/>
      <use xlink:href="#ArialMT-63" transform="translate(594.628906 0.684375)"/>
      <use xlink:href="#ArialMT-6d" transform="translate(644.628906 0.684375)"/>
      <use xlink:href="#DejaVuSans-2212" transform="translate(728.886719 38.965625) scale(0.7)"/>
      <use xlink:href="#DejaVuSans-31" transform="translate(787.539062 38.965625) scale(0.7)"/>
      <use xlink:href="#ArialMT-29" transform="translate(834.80957 0.684375)"/>
     </g>
    </g>
   </g>
   <g id="matplotlib.axis_2">
    <g id="ytick_1">
     <g id="line2d_17">
      <path d="M 32.078281 447.605045 
L 619.043281 447.605045 
" clip-path="url(#p0b0d0db094)" style="fill: none; stroke: #cccccc; stroke-width: 0.8; stroke-linecap: round"/>
     </g>
     <g id="line2d_18"/>
     <g id="text_10">
      <!-- 0 -->
      <g style="fill: #262626" transform="translate(22.46125 451.541841) scale(0.11 -0.11)">
       <use xlink:href="#ArialMT-30"/>
      </g>
     </g>
    </g>
    <g id="ytick_2">
     <g id="line2d_19">
      <path d="M 32.078281 377.827865 
L 619.043281 377.827865 
" clip-path="url(#p0b0d0db094)" style="fill: none; stroke: #cccccc; stroke-width: 0.8; stroke-linecap: round"/>
     </g>
     <g id="line2d_20"/>
     <g id="text_11">
      <!-- 1 -->
      <g style="fill: #262626" transform="translate(22.46125 381.764661) scale(0.11 -0.11)">
       <use xlink:href="#ArialMT-31"/>
      </g>
     </g>
    </g>
    <g id="ytick_3">
     <g id="line2d_21">
      <path d="M 32.078281 308.050685 
L 619.043281 308.050685 
" clip-path="url(#p0b0d0db094)" style="fill: none; stroke: #cccccc; stroke-width: 0.8; stroke-linecap: round"/>
     </g>
     <g id="line2d_22"/>
     <g id="text_12">
      <!-- 2 -->
      <g style="fill: #262626" transform="translate(22.46125 311.987481) scale(0.11 -0.11)">
       <use xlink:href="#ArialMT-32"/>
      </g>
     </g>
    </g>
    <g id="ytick_4">
     <g id="line2d_23">
      <path d="M 32.078281 238.273505 
L 619.043281 238.273505 
" clip-path="url(#p0b0d0db094)" style="fill: none; stroke: #cccccc; stroke-width: 0.8; stroke-linecap: round"/>
     </g>
     <g id="line2d_24"/>
     <g id="text_13">
      <!-- 3 -->
      <g style="fill: #262626" transform="translate(22.46125 242.210301) scale(0.11 -0.11)">
       <defs>
        <path id="ArialMT-33" d="M 269 1209 
L 831 1284 
Q 928 806 1161 595 
Q 1394 384 1728 384 
Q 2125 384 2398 659 
Q 2672 934 2672 1341 
Q 2672 1728 2419 1979 
Q 2166 2231 1775 2231 
Q 1616 2231 1378 2169 
L 1441 2663 
Q 1497 2656 1531 2656 
Q 1891 2656 2178 2843 
Q 2466 3031 2466 3422 
Q 2466 3731 2256 3934 
Q 2047 4138 1716 4138 
Q 1388 4138 1169 3931 
Q 950 3725 888 3313 
L 325 3413 
Q 428 3978 793 4289 
Q 1159 4600 1703 4600 
Q 2078 4600 2393 4439 
Q 2709 4278 2876 4000 
Q 3044 3722 3044 3409 
Q 3044 3113 2884 2869 
Q 2725 2625 2413 2481 
Q 2819 2388 3044 2092 
Q 3269 1797 3269 1353 
Q 3269 753 2831 336 
Q 2394 -81 1725 -81 
Q 1122 -81 723 278 
Q 325 638 269 1209 
z
" transform="scale(0.015625)"/>
       </defs>
       <use xlink:href="#ArialMT-33"/>
      </g>
     </g>
    </g>
    <g id="ytick_5">
     <g id="line2d_25">
      <path d="M 32.078281 168.496325 
L 619.043281 168.496325 
" clip-path="url(#p0b0d0db094)" style="fill: none; stroke: #cccccc; stroke-width: 0.8; stroke-linecap: round"/>
     </g>
     <g id="line2d_26"/>
     <g id="text_14">
      <!-- 4 -->
      <g style="fill: #262626" transform="translate(22.46125 172.433121) scale(0.11 -0.11)">
       <use xlink:href="#ArialMT-34"/>
      </g>
     </g>
    </g>
    <g id="ytick_6">
     <g id="line2d_27">
      <path d="M 32.078281 98.719145 
L 619.043281 98.719145 
" clip-path="url(#p0b0d0db094)" style="fill: none; stroke: #cccccc; stroke-width: 0.8; stroke-linecap: round"/>
     </g>
     <g id="line2d_28"/>
     <g id="text_15">
      <!-- 5 -->
      <g style="fill: #262626" transform="translate(22.46125 102.655941) scale(0.11 -0.11)">
       <defs>
        <path id="ArialMT-35" d="M 266 1200 
L 856 1250 
Q 922 819 1161 601 
Q 1400 384 1738 384 
Q 2144 384 2425 690 
Q 2706 997 2706 1503 
Q 2706 1984 2436 2262 
Q 2166 2541 1728 2541 
Q 1456 2541 1237 2417 
Q 1019 2294 894 2097 
L 366 2166 
L 809 4519 
L 3088 4519 
L 3088 3981 
L 1259 3981 
L 1013 2750 
Q 1425 3038 1878 3038 
Q 2478 3038 2890 2622 
Q 3303 2206 3303 1553 
Q 3303 931 2941 478 
Q 2500 -78 1738 -78 
Q 1113 -78 717 272 
Q 322 622 266 1200 
z
" transform="scale(0.015625)"/>
       </defs>
       <use xlink:href="#ArialMT-35"/>
      </g>
     </g>
    </g>
    <g id="ytick_7">
     <g id="line2d_29">
      <path d="M 32.078281 28.941965 
L 619.043281 28.941965 
" clip-path="url(#p0b0d0db094)" style="fill: none; stroke: #cccccc; stroke-width: 0.8; stroke-linecap: round"/>
     </g>
     <g id="line2d_30"/>
     <g id="text_16">
      <!-- 6 -->
      <g style="fill: #262626" transform="translate(22.46125 32.878761) scale(0.11 -0.11)">
       <use xlink:href="#ArialMT-36"/>
      </g>
     </g>
    </g>
    <g id="text_17">
     <!-- Normalized intensity + offset -->
     <g style="fill: #262626" transform="translate(15.935625 320.660156) rotate(-90) scale(0.12 -0.12)">
      <defs>
       <path id="ArialMT-4e" d="M 488 0 
L 488 4581 
L 1109 4581 
L 3516 984 
L 3516 4581 
L 4097 4581 
L 4097 0 
L 3475 0 
L 1069 3600 
L 1069 0 
L 488 0 
z
" transform="scale(0.015625)"/>
       <path id="ArialMT-6f" d="M 213 1659 
Q 213 2581 725 3025 
Q 1153 3394 1769 3394 
Q 2453 3394 2887 2945 
Q 3322 2497 3322 1706 
Q 3322 1066 3130 698 
Q 2938 331 2570 128 
Q 2203 -75 1769 -75 
Q 1072 -75 642 372 
Q 213 819 213 1659 
z
M 791 1659 
Q 791 1022 1069 705 
Q 1347 388 1769 388 
Q 2188 388 2466 706 
Q 2744 1025 2744 1678 
Q 2744 2294 2464 2611 
Q 2184 2928 1769 2928 
Q 1347 2928 1069 2612 
Q 791 2297 791 1659 
z
" transform="scale(0.015625)"/>
       <path id="ArialMT-72" d="M 416 0 
L 416 3319 
L 922 3319 
L 922 2816 
Q 1116 3169 1280 3281 
Q 1444 3394 1641 3394 
Q 1925 3394 2219 3213 
L 2025 2691 
Q 1819 2813 1613 2813 
Q 1428 2813 1281 2702 
Q 1134 2591 1072 2394 
Q 978 2094 978 1738 
L 978 0 
L 416 0 
z
" transform="scale(0.015625)"/>
       <path id="ArialMT-6c" d="M 409 0 
L 409 4581 
L 972 4581 
L 972 0 
L 409 0 
z
" transform="scale(0.015625)"/>
       <path id="ArialMT-7a" d="M 125 0 
L 125 456 
L 2238 2881 
Q 1878 2863 1603 2863 
L 250 2863 
L 250 3319 
L 2963 3319 
L 2963 2947 
L 1166 841 
L 819 456 
Q 1197 484 1528 484 
L 3063 484 
L 3063 0 
L 125 0 
z
" transform="scale(0.015625)"/>
       <path id="ArialMT-65" d="M 2694 1069 
L 3275 997 
Q 3138 488 2766 206 
Q 2394 -75 1816 -75 
Q 1088 -75 661 373 
Q 234 822 234 1631 
Q 234 2469 665 2931 
Q 1097 3394 1784 3394 
Q 2450 3394 2872 2941 
Q 3294 2488 3294 1666 
Q 3294 1616 3291 1516 
L 816 1516 
Q 847 969 1125 678 
Q 1403 388 1819 388 
Q 2128 388 2347 550 
Q 2566 713 2694 1069 
z
M 847 1978 
L 2700 1978 
Q 2663 2397 2488 2606 
Q 2219 2931 1791 2931 
Q 1403 2931 1139 2672 
Q 875 2413 847 1978 
z
" transform="scale(0.015625)"/>
       <path id="ArialMT-64" d="M 2575 0 
L 2575 419 
Q 2259 -75 1647 -75 
Q 1250 -75 917 144 
Q 584 363 401 755 
Q 219 1147 219 1656 
Q 219 2153 384 2558 
Q 550 2963 881 3178 
Q 1213 3394 1622 3394 
Q 1922 3394 2156 3267 
Q 2391 3141 2538 2938 
L 2538 4581 
L 3097 4581 
L 3097 0 
L 2575 0 
z
M 797 1656 
Q 797 1019 1065 703 
Q 1334 388 1700 388 
Q 2069 388 2326 689 
Q 2584 991 2584 1609 
Q 2584 2291 2321 2609 
Q 2059 2928 1675 2928 
Q 1300 2928 1048 2622 
Q 797 2316 797 1656 
z
" transform="scale(0.015625)"/>
       <path id="ArialMT-79" d="M 397 -1278 
L 334 -750 
Q 519 -800 656 -800 
Q 844 -800 956 -737 
Q 1069 -675 1141 -563 
Q 1194 -478 1313 -144 
Q 1328 -97 1363 -6 
L 103 3319 
L 709 3319 
L 1400 1397 
Q 1534 1031 1641 628 
Q 1738 1016 1872 1384 
L 2581 3319 
L 3144 3319 
L 1881 -56 
Q 1678 -603 1566 -809 
Q 1416 -1088 1222 -1217 
Q 1028 -1347 759 -1347 
Q 597 -1347 397 -1278 
z
" transform="scale(0.015625)"/>
       <path id="ArialMT-2b" d="M 1603 741 
L 1603 1997 
L 356 1997 
L 356 2522 
L 1603 2522 
L 1603 3769 
L 2134 3769 
L 2134 2522 
L 3381 2522 
L 3381 1997 
L 2134 1997 
L 2134 741 
L 1603 741 
z
" transform="scale(0.015625)"/>
      </defs>
      <use xlink:href="#ArialMT-4e"/>
      <use xlink:href="#ArialMT-6f" transform="translate(72.216797 0)"/>
      <use xlink:href="#ArialMT-72" transform="translate(127.832031 0)"/>
      <use xlink:href="#ArialMT-6d" transform="translate(161.132812 0)"/>
      <use xlink:href="#ArialMT-61" transform="translate(244.433594 0)"/>
      <use xlink:href="#ArialMT-6c" transform="translate(300.048828 0)"/>
      <use xlink:href="#ArialMT-69" transform="translate(322.265625 0)"/>
      <use xlink:href="#ArialMT-7a" transform="translate(344.482422 0)"/>
      <use xlink:href="#ArialMT-65" transform="translate(394.482422 0)"/>
      <use xlink:href="#ArialMT-64" transform="translate(450.097656 0)"/>
      <use xlink:href="#ArialMT-20" transform="translate(505.712891 0)"/>
      <use xlink:href="#ArialMT-69" transform="translate(533.496094 0)"/>
      <use xlink:href="#ArialMT-6e" transform="translate(555.712891 0)"/>
      <use xlink:href="#ArialMT-74" transform="translate(611.328125 0)"/>
      <use xlink:href="#ArialMT-65" transform="translate(639.111328 0)"/>
      <use xlink:href="#ArialMT-6e" transform="translate(694.726562 0)"/>
      <use xlink:href="#ArialMT-73" transform="translate(750.341797 0)"/>
      <use xlink:href="#ArialMT-69" transform="translate(800.341797 0)"/>
      <use xlink:href="#ArialMT-74" transform="translate(822.558594 0)"/>
      <use xlink:href="#ArialMT-79" transform="translate(850.341797 0)"/>
      <use xlink:href="#ArialMT-20" transform="translate(900.341797 0)"/>
      <use xlink:href="#ArialMT-2b" transform="translate(928.125 0)"/>
      <use xlink:href="#ArialMT-20" transform="translate(986.523438 0)"/>
      <use xlink:href="#ArialMT-6f" transform="translate(1014.306641 0)"/>
      <use xlink:href="#ArialMT-66" transform="translate(1069.921875 0)"/>
      <use xlink:href="#ArialMT-66" transform="translate(1095.955078 0)"/>
      <use xlink:href="#ArialMT-73" transform="translate(1123.738281 0)"/>
      <use xlink:href="#ArialMT-65" transform="translate(1173.738281 0)"/>
      <use xlink:href="#ArialMT-74" transform="translate(1229.353516 0)"/>
     </g>
    </g>
   </g>
   <g id="line2d_31">
    <path d="M 32.078281 446.508215 
L 33.336063 446.027792 
L 34.174585 445.881663 
L 35.432367 445.940736 
L 38.367192 446.295472 
L 39.624974 446.23652 
L 40.882756 445.949572 
L 42.140538 445.371839 
L 45.075363 443.741151 
L 46.333146 443.498365 
L 47.590928 443.522483 
L 48.429449 443.716634 
L 49.687231 444.320342 
L 51.783535 445.469427 
L 52.622056 445.715155 
L 53.460578 445.800619 
L 54.299099 445.731868 
L 55.137621 445.506218 
L 55.976142 445.100467 
L 56.814663 444.47175 
L 57.653185 443.570985 
L 58.491706 442.345873 
L 59.330228 440.728139 
L 60.168749 438.673842 
L 61.845792 434.115115 
L 62.265053 433.285378 
L 62.684313 432.744431 
L 63.103574 432.542802 
L 63.522835 432.692755 
L 63.942096 433.165683 
L 64.780617 434.806186 
L 66.45766 438.581512 
L 67.296181 439.922434 
L 68.134703 440.821066 
L 68.973224 441.376792 
L 70.231006 441.846782 
L 73.585092 442.832646 
L 74.423613 443.290591 
L 76.100656 444.58465 
L 77.358438 445.459843 
L 78.616221 445.992602 
L 79.874003 446.214324 
L 81.131785 446.191049 
L 82.389567 445.914949 
L 83.228088 445.535387 
L 84.06661 444.925906 
L 84.905131 444.007686 
L 85.743653 442.743991 
L 87.420696 439.871093 
L 87.839956 439.374115 
L 88.259217 439.078827 
L 88.678478 439.018231 
L 89.097738 439.199088 
L 89.516999 439.600427 
L 90.355521 440.871233 
L 92.032563 443.648518 
L 92.871085 444.558202 
L 93.709606 445.071729 
L 94.548128 445.228942 
L 95.386649 445.048609 
L 96.225171 444.530757 
L 97.063692 443.718307 
L 98.740735 441.983557 
L 99.159996 441.74298 
L 99.579256 441.640134 
L 99.998517 441.682103 
L 100.837038 442.147253 
L 102.094821 443.350696 
L 103.771863 444.865149 
L 105.029646 445.707388 
L 106.287428 446.302015 
L 107.54521 446.668345 
L 109.222253 446.916389 
L 111.737817 447.038835 
L 114.672642 446.98766 
L 116.768946 446.778293 
L 118.026728 446.498266 
L 119.28451 445.981268 
L 120.123031 445.414279 
L 120.961553 444.578966 
L 121.800074 443.40112 
L 124.315638 439.09983 
L 124.734899 438.783196 
L 125.15416 438.715057 
L 125.573421 438.903412 
L 125.992681 439.327005 
L 126.831203 440.678278 
L 128.508246 443.66914 
L 129.346767 444.678542 
L 130.185288 445.295649 
L 131.02381 445.587518 
L 131.862331 445.608272 
L 132.700853 445.386839 
L 133.958635 444.692114 
L 135.635678 443.683204 
L 136.474199 443.44342 
L 137.312721 443.423091 
L 138.570503 443.665968 
L 139.828285 444.154135 
L 141.505328 445.158261 
L 142.76311 445.877486 
L 144.020892 446.322782 
L 145.278674 446.48181 
L 146.536456 446.388934 
L 147.794238 446.045781 
L 151.986846 444.444916 
L 153.244628 444.282558 
L 154.083149 444.34537 
L 154.921671 444.598582 
L 156.598713 445.468511 
L 157.856496 446.012908 
L 159.114278 446.237211 
L 159.952799 446.199223 
L 160.791321 446.005514 
L 161.629842 445.637657 
L 162.887624 444.748883 
L 164.983928 443.025358 
L 165.822449 442.584554 
L 166.660971 442.3265 
L 167.499492 442.229493 
L 168.338013 442.335414 
L 169.176535 442.722565 
L 170.015056 443.394956 
L 172.530621 445.691836 
L 173.369142 446.157357 
L 174.626924 446.572263 
L 176.303967 446.823542 
L 178.819531 446.94518 
L 182.592878 446.874911 
L 185.527703 446.597529 
L 187.204746 446.234754 
L 188.462528 445.722734 
L 189.301049 445.147121 
L 190.139571 444.264279 
L 190.978092 442.962093 
L 191.816613 441.208221 
L 193.493656 437.288679 
L 194.332178 436.004316 
L 194.751438 435.673751 
L 195.170699 435.54907 
L 195.58996 435.603343 
L 196.428481 436.103389 
L 197.267003 436.940554 
L 198.105524 438.048549 
L 199.363306 440.189025 
L 201.040349 443.075956 
L 201.878871 444.103245 
L 202.717392 444.796402 
L 203.555913 445.218933 
L 204.394435 445.44285 
L 205.652217 445.515884 
L 206.909999 445.314134 
L 207.748521 444.989708 
L 208.587042 444.457427 
L 209.425563 443.656663 
L 210.264085 442.546364 
L 211.521867 440.370696 
L 213.19891 436.909608 
L 214.875953 433.314872 
L 215.295213 432.649026 
L 215.714474 432.204364 
L 216.133735 432.033793 
L 216.552996 432.161214 
L 216.972256 432.572727 
L 217.810778 434.006998 
L 218.649299 435.623102 
L 219.06856 436.248942 
L 219.487821 436.647452 
L 219.907081 436.769412 
L 220.326342 436.592661 
L 220.745603 436.121989 
L 221.584124 434.44282 
L 223.680428 429.062669 
L 224.518949 427.550765 
L 225.357471 426.539688 
L 225.776731 426.24912 
L 226.195992 426.155326 
L 226.615253 426.316606 
L 227.034513 426.788044 
L 227.453774 427.603 
L 228.292296 430.209947 
L 230.80786 439.952664 
L 231.646381 441.942781 
L 232.484903 443.170816 
L 233.323424 443.811592 
L 234.161946 444.001067 
L 235.000467 443.82307 
L 235.838988 443.352507 
L 238.354553 441.577815 
L 239.193074 441.301113 
L 240.031596 441.206477 
L 240.870117 441.286916 
L 241.708638 441.610638 
L 242.54716 442.238874 
L 244.224203 444.054397 
L 245.481985 445.226633 
L 246.320506 445.756015 
L 247.578288 446.238949 
L 249.255331 446.540771 
L 251.770896 446.688463 
L 254.705721 446.622546 
L 256.802024 446.367153 
L 258.059806 446.020977 
L 258.898328 445.620326 
L 259.736849 445.006328 
L 260.575371 444.119849 
L 261.833153 442.345812 
L 263.090935 440.651569 
L 263.929456 440.011683 
L 264.767978 439.868996 
L 265.606499 440.097699 
L 266.864281 440.822554 
L 268.122063 441.896815 
L 270.218367 443.867298 
L 271.056888 444.320998 
L 271.89541 444.476978 
L 272.733931 444.347574 
L 273.572453 443.961841 
L 274.410974 443.333627 
L 275.249496 442.448267 
L 276.507278 440.635991 
L 279.861363 435.15603 
L 280.699885 434.155025 
L 281.119146 433.870426 
L 281.538406 433.801413 
L 281.957667 433.987821 
L 282.376928 434.444182 
L 283.215449 436.068705 
L 285.311753 441.222128 
L 286.150274 442.563741 
L 286.988796 443.323931 
L 287.408056 443.506509 
L 287.827317 443.567448 
L 288.246578 443.510417 
L 289.085099 443.043312 
L 289.923621 442.106391 
L 290.762142 440.76791 
L 292.439185 437.835383 
L 293.277706 436.791953 
L 294.116228 436.143106 
L 294.954749 435.804877 
L 295.793271 435.77374 
L 296.212531 435.907695 
L 297.051053 436.524893 
L 299.147356 438.839478 
L 299.566617 439.029441 
L 299.985878 439.021356 
L 300.405138 438.7949 
L 300.824399 438.347511 
L 301.662921 436.875361 
L 303.759224 432.335889 
L 304.597746 431.240816 
L 305.436267 430.641378 
L 306.274788 430.404835 
L 306.694049 430.427033 
L 307.11331 430.566725 
L 307.532571 430.840789 
L 308.371092 431.789057 
L 310.886656 435.455043 
L 311.725178 436.15035 
L 312.563699 436.443204 
L 312.98296 436.42209 
L 313.402221 436.279604 
L 314.240742 435.609785 
L 315.079263 434.414864 
L 316.337046 431.838596 
L 317.175567 430.162148 
L 317.594828 429.600922 
L 318.014088 429.354324 
L 318.433349 429.49255 
L 318.85261 430.044302 
L 319.271871 430.989018 
L 320.110392 433.755487 
L 321.787435 439.831292 
L 322.625956 441.983109 
L 323.464478 443.428353 
L 324.302999 444.342129 
L 325.141521 444.903695 
L 326.399303 445.358826 
L 327.657085 445.537696 
L 328.914867 445.499771 
L 330.172649 445.215161 
L 331.011171 444.809793 
L 331.849692 444.119177 
L 332.688213 443.009962 
L 333.526735 441.36747 
L 334.784517 438.0521 
L 335.623038 435.847342 
L 336.46156 434.332852 
L 336.880821 433.965028 
L 337.300081 433.867078 
L 337.719342 434.006153 
L 338.557863 434.758898 
L 340.234906 436.517986 
L 341.073428 437.03691 
L 341.911949 437.298271 
L 343.169731 437.543149 
L 344.008253 437.961642 
L 344.846774 438.771823 
L 346.104556 440.495673 
L 347.362338 442.169291 
L 348.620121 443.429572 
L 349.458642 444.019638 
L 350.297163 444.376958 
L 351.135685 444.461318 
L 351.974206 444.260827 
L 352.812728 443.82251 
L 354.909031 442.580688 
L 355.747553 442.347203 
L 358.263117 441.860084 
L 359.101638 441.442909 
L 361.197942 440.079883 
L 361.617203 439.962509 
L 362.036463 439.97618 
L 362.455724 440.139601 
L 363.294246 440.900817 
L 364.552028 442.675184 
L 365.80981 444.315435 
L 366.648331 445.086451 
L 367.486853 445.61482 
L 368.744635 446.081147 
L 370.002417 446.298557 
L 371.67946 446.345842 
L 373.356503 446.138679 
L 374.614285 445.728582 
L 375.452806 445.232302 
L 376.291328 444.45419 
L 377.129849 443.303858 
L 378.387631 440.92284 
L 379.645413 438.602236 
L 380.064674 438.107187 
L 380.483935 437.826761 
L 380.903196 437.773268 
L 381.322456 437.932165 
L 382.160978 438.722822 
L 384.257281 441.187313 
L 385.095803 441.823483 
L 386.353585 442.407382 
L 388.869149 443.361355 
L 390.126931 443.810794 
L 390.965453 443.81349 
L 391.803974 443.441364 
L 392.642496 442.69612 
L 394.738799 440.495613 
L 395.577321 440.154746 
L 396.415842 440.216637 
L 398.092885 440.839193 
L 400.189188 441.519418 
L 402.285492 442.168567 
L 403.543274 442.933483 
L 405.220317 444.055639 
L 406.058838 444.368063 
L 406.89736 444.425226 
L 407.735881 444.212387 
L 408.574403 443.718045 
L 409.412924 442.911369 
L 410.251446 441.745648 
L 411.089967 440.217267 
L 414.024792 434.305802 
L 415.282574 432.455602 
L 416.121096 431.726122 
L 416.540356 431.638084 
L 416.959617 431.783818 
L 417.378878 432.171571 
L 418.217399 433.542895 
L 419.475181 435.941861 
L 419.894442 436.475981 
L 420.313703 436.758864 
L 420.732963 436.750145 
L 421.152224 436.431713 
L 421.571485 435.806324 
L 422.410006 433.732804 
L 423.248528 430.827276 
L 424.50631 425.505071 
L 427.021874 413.636536 
L 427.441135 412.337467 
L 427.860396 411.514621 
L 428.279656 411.203292 
L 428.698917 411.376225 
L 429.118178 411.952653 
L 429.956699 413.866279 
L 433.730046 423.822301 
L 435.826349 428.995651 
L 437.503392 433.599155 
L 438.341913 435.328297 
L 439.180435 436.362548 
L 439.599696 436.625546 
L 440.438217 436.766707 
L 441.695999 436.695578 
L 442.11526 436.813131 
L 442.534521 437.075859 
L 443.373042 438.082921 
L 444.630824 440.394362 
L 445.888606 442.557194 
L 446.727128 443.523565 
L 447.565649 444.078236 
L 448.404171 444.262464 
L 449.242692 444.100215 
L 450.081213 443.597532 
L 450.919735 442.795383 
L 452.596778 441.06085 
L 453.016038 440.831441 
L 453.435299 440.754241 
L 453.85456 440.840029 
L 454.693081 441.444752 
L 456.789385 443.673801 
L 457.627906 444.14728 
L 458.466428 444.263001 
L 459.304949 444.074665 
L 460.143471 443.650811 
L 461.401253 442.673271 
L 463.078296 441.128566 
L 463.916817 440.727199 
L 464.336078 440.738874 
L 464.755338 440.914129 
L 465.59386 441.71226 
L 468.528685 445.467822 
L 469.367206 446.050335 
L 470.624988 446.564719 
L 472.302031 446.900108 
L 474.817596 447.132989 
L 480.267985 447.337547 
L 490.330242 447.471869 
L 508.358453 447.572932 
L 525.548142 447.479861 
L 544.414874 447.286412 
L 551.542306 447.014952 
L 554.896392 446.688962 
L 556.573435 446.34958 
L 557.831217 445.871683 
L 558.669738 445.351312 
L 559.50826 444.600926 
L 560.766042 443.041649 
L 562.023824 441.428839 
L 562.862346 440.765697 
L 563.281606 440.623858 
L 564.120128 440.688437 
L 565.37791 441.265564 
L 566.635692 441.853676 
L 567.474213 442.10249 
L 568.312735 442.159045 
L 569.151256 441.919142 
L 569.989778 441.239924 
L 570.409038 440.673819 
L 570.828299 439.910453 
L 571.24756 438.903257 
L 571.666821 437.593501 
L 572.086081 435.908033 
L 572.924603 431.041767 
L 573.763124 423.501915 
L 574.601646 412.812816 
L 576.697949 382.381275 
L 577.11721 379.143601 
L 577.536471 377.827865 
L 577.955731 378.539915 
L 578.374992 381.156341 
L 578.794253 385.35299 
L 580.052035 402.695406 
L 581.309817 418.779347 
L 582.148338 426.60583 
L 582.98686 432.357755 
L 583.825381 436.506965 
L 584.663903 439.428598 
L 585.502424 441.445878 
L 586.340946 442.839709 
L 587.179467 443.814269 
L 588.017988 444.505516 
L 589.275771 445.219836 
L 590.952813 445.842624 
L 593.049117 446.315821 
L 595.564681 446.66867 
L 599.757288 446.998186 
L 606.046199 447.241325 
L 619.043281 447.495916 
L 619.043281 447.495916 
" clip-path="url(#p0b0d0db094)" style="fill: none; stroke: #1f77b4; stroke-width: 1.8; stroke-linecap: round"/>
   </g>
   <g id="line2d_32">
    <path d="M 32.078281 310.383217 
L 32.916803 299.943264 
L 33.336063 296.659755 
L 33.755324 294.747438 
L 34.174585 294.095249 
L 34.593846 294.500191 
L 35.013106 295.718728 
L 35.851628 299.681344 
L 40.463496 325.418728 
L 41.302017 328.199301 
L 41.721278 328.797717 
L 42.140538 328.694359 
L 42.559799 327.803523 
L 42.97906 326.103632 
L 43.817581 320.603275 
L 45.494624 307.62843 
L 45.913885 305.614535 
L 46.333146 304.487883 
L 46.752406 304.28764 
L 47.171667 304.965912 
L 47.590928 306.416549 
L 48.429449 311.119182 
L 49.267971 317.482217 
L 52.202796 342.192786 
L 53.041317 346.872877 
L 53.879838 349.907159 
L 54.299099 350.864206 
L 54.71836 351.489252 
L 55.137621 351.810978 
L 55.556881 351.853874 
L 55.976142 351.638635 
L 56.395403 351.183639 
L 57.233924 349.626222 
L 58.072446 347.335303 
L 59.330228 342.934611 
L 60.58801 338.403858 
L 61.007271 337.235726 
L 61.426531 336.416249 
L 61.845792 336.038472 
L 62.265053 336.158732 
L 62.684313 336.780633 
L 63.103574 337.848519 
L 63.942096 340.84583 
L 64.780617 343.951275 
L 65.199878 345.176084 
L 65.619138 346.043804 
L 66.038399 346.498912 
L 66.45766 346.521445 
L 66.876921 346.119201 
L 67.296181 345.318604 
L 68.134703 342.677273 
L 68.973224 338.9765 
L 70.650267 331.172477 
L 71.069528 329.970846 
L 71.488788 329.394687 
L 71.908049 329.55393 
L 72.32731 330.487791 
L 72.746571 332.153326 
L 73.585092 337.141767 
L 75.262135 348.481307 
L 76.100656 352.658153 
L 76.939178 355.514125 
L 77.777699 357.323788 
L 78.616221 358.410695 
L 79.454742 359.011648 
L 80.293263 359.254094 
L 81.131785 359.174203 
L 81.970306 358.730384 
L 82.808828 357.798976 
L 83.647349 356.175542 
L 84.485871 353.634373 
L 85.324392 350.104632 
L 87.001435 342.06696 
L 87.420696 340.62698 
L 87.839956 339.70614 
L 88.259217 339.391549 
L 88.678478 339.706903 
L 89.097738 340.609215 
L 89.93626 343.738718 
L 92.032563 353.13395 
L 92.871085 355.883404 
L 93.709606 357.918286 
L 94.548128 359.366177 
L 95.386649 360.366791 
L 96.225171 361.045127 
L 97.482953 361.669196 
L 98.740735 362.009695 
L 100.417778 362.181397 
L 101.67556 362.088335 
L 102.514081 361.869314 
L 103.352603 361.46316 
L 104.191124 360.818416 
L 105.448906 359.441258 
L 106.706688 358.07493 
L 107.54521 357.61648 
L 107.964471 357.594923 
L 108.383731 357.71351 
L 109.222253 358.295164 
L 112.576338 361.46665 
L 113.834121 362.156688 
L 115.091903 362.536847 
L 116.349685 362.667201 
L 117.607467 362.581558 
L 118.865249 362.237926 
L 119.703771 361.806146 
L 120.542292 361.168192 
L 121.800074 359.867323 
L 123.057856 358.559101 
L 123.896378 358.016641 
L 124.734899 357.874616 
L 125.573421 358.101942 
L 126.411942 358.599829 
L 127.669724 359.665487 
L 130.185288 361.948854 
L 131.443071 362.665965 
L 132.700853 363.076775 
L 134.377896 363.360075 
L 137.312721 363.582784 
L 142.76311 363.721326 
L 159.533538 363.836357 
L 198.105524 363.757638 
L 210.683346 363.559504 
L 215.295213 363.307398 
L 217.810778 362.972463 
L 219.06856 362.64742 
L 220.326342 362.090403 
L 221.164863 361.5252 
L 222.422646 360.347634 
L 224.518949 357.889737 
L 226.615253 355.23509 
L 228.292296 352.759901 
L 229.969338 350.303566 
L 230.80786 349.498067 
L 231.227121 349.27989 
L 231.646381 349.197033 
L 232.065642 349.249933 
L 232.484903 349.436199 
L 233.323424 350.20505 
L 234.161946 351.509298 
L 235.000467 353.300826 
L 237.096771 358.314865 
L 237.935292 359.813638 
L 238.773813 360.881396 
L 239.612335 361.596829 
L 240.450856 362.066192 
L 241.708638 362.492832 
L 243.385681 362.78646 
L 245.481985 362.923412 
L 247.578288 362.878396 
L 249.255331 362.668214 
L 250.513113 362.306438 
L 251.351635 361.876502 
L 252.190156 361.193233 
L 253.028678 360.15182 
L 253.867199 358.697191 
L 255.963503 354.47454 
L 256.382763 353.946168 
L 256.802024 353.643481 
L 257.221285 353.584527 
L 257.640546 353.761967 
L 258.059806 354.145885 
L 258.898328 355.344438 
L 260.994631 358.795545 
L 261.833153 359.854005 
L 262.671674 360.631044 
L 263.510196 361.118968 
L 264.348717 361.355443 
L 265.606499 361.431269 
L 267.283542 361.526187 
L 268.960585 361.880296 
L 273.153192 362.932525 
L 275.249496 363.145091 
L 278.184321 363.177499 
L 281.119146 363.019838 
L 283.215449 362.694074 
L 284.892492 362.169197 
L 286.150274 361.541694 
L 287.408056 360.684325 
L 291.181403 357.786353 
L 292.019924 357.385496 
L 292.858446 357.183567 
L 294.954749 356.91145 
L 295.793271 356.407803 
L 296.631792 355.514915 
L 299.566617 351.5871 
L 300.405138 351.001421 
L 301.24366 350.760801 
L 302.082181 350.879001 
L 302.920703 351.348692 
L 304.178485 352.472709 
L 305.436267 353.56055 
L 306.274788 353.98784 
L 306.694049 354.049402 
L 307.11331 353.97655 
L 307.532571 353.743336 
L 307.951831 353.326839 
L 308.371092 352.712138 
L 309.209613 350.903017 
L 311.305917 345.418267 
L 311.725178 344.832354 
L 312.144438 344.577647 
L 312.563699 344.660142 
L 312.98296 345.046365 
L 313.821481 346.451153 
L 315.079263 348.900465 
L 315.917785 350.067447 
L 316.756306 350.683286 
L 317.594828 350.828768 
L 318.433349 350.66772 
L 320.110392 350.132381 
L 320.948913 350.160486 
L 321.368174 350.34266 
L 322.206696 351.093187 
L 324.302999 353.702677 
L 324.72226 353.921945 
L 325.141521 353.943446 
L 325.560781 353.760245 
L 325.980042 353.385412 
L 326.818563 352.191618 
L 331.849692 343.625619 
L 332.688213 342.41001 
L 333.107474 341.968454 
L 333.526735 341.717899 
L 333.945996 341.723347 
L 334.365256 342.039592 
L 334.784517 342.69765 
L 335.203778 343.694153 
L 336.042299 346.501222 
L 337.719342 352.776622 
L 338.557863 354.961125 
L 339.396385 356.238327 
L 339.815646 356.580368 
L 340.234906 356.76308 
L 341.073428 356.768061 
L 341.911949 356.469826 
L 343.169731 355.909419 
L 344.008253 355.784466 
L 344.846774 356.043462 
L 345.685296 356.650173 
L 346.943078 357.698278 
L 347.781599 358.074088 
L 348.20086 358.083448 
L 348.620121 357.95065 
L 349.039381 357.662884 
L 349.458642 357.209133 
L 350.297163 355.767457 
L 351.135685 353.597233 
L 352.393467 349.334287 
L 353.651249 345.257689 
L 354.489771 343.508434 
L 354.909031 343.004851 
L 355.328292 342.727941 
L 355.747553 342.643273 
L 356.166813 342.712855 
L 357.005335 343.187302 
L 357.843856 343.975008 
L 359.101638 345.597382 
L 359.94016 346.991593 
L 360.778681 348.706873 
L 363.294246 354.495873 
L 364.132767 355.614672 
L 364.552028 355.907394 
L 364.971288 356.03177 
L 365.390549 356.00841 
L 366.229071 355.625645 
L 367.486853 354.571063 
L 368.744635 353.212366 
L 370.421678 350.999512 
L 371.67946 349.31817 
L 372.517981 348.600297 
L 372.937242 348.499903 
L 373.356503 348.627498 
L 373.775763 349.004411 
L 374.195024 349.627423 
L 375.033546 351.473484 
L 377.129849 356.863268 
L 377.968371 358.446187 
L 378.806892 359.599129 
L 379.645413 360.395467 
L 380.483935 360.916695 
L 381.322456 361.229918 
L 382.580238 361.406519 
L 383.838021 361.280855 
L 384.676542 361.001987 
L 385.515063 360.5107 
L 386.353585 359.753771 
L 387.192106 358.72274 
L 389.28841 355.809838 
L 390.126931 355.01685 
L 391.803974 353.781155 
L 392.642496 352.609845 
L 393.481017 350.671055 
L 394.738799 346.650237 
L 395.577321 344.063981 
L 396.415842 342.326088 
L 396.835103 341.882888 
L 397.254363 341.716366 
L 397.673624 341.787733 
L 398.092885 342.044425 
L 398.931406 342.902542 
L 401.446971 346.173424 
L 402.704753 348.057613 
L 403.962535 350.409298 
L 406.058838 354.429601 
L 406.89736 355.625115 
L 407.735881 356.437226 
L 408.574403 356.780072 
L 408.993663 356.75787 
L 409.832185 356.351296 
L 411.928488 354.716898 
L 412.347749 354.655193 
L 412.76701 354.763446 
L 413.186271 355.041975 
L 414.024792 356.012144 
L 416.121096 358.89933 
L 416.959617 359.611412 
L 417.798138 359.993557 
L 418.63666 360.091256 
L 419.475181 359.948058 
L 420.313703 359.590068 
L 421.152224 359.028105 
L 421.990746 358.254419 
L 422.829267 357.229199 
L 423.667788 355.876394 
L 424.50631 354.095627 
L 425.344831 351.776047 
L 426.183353 348.824856 
L 427.441135 343.219186 
L 429.118178 334.192146 
L 431.633742 320.102135 
L 432.472263 316.58019 
L 433.310785 314.161223 
L 433.730046 313.435873 
L 434.149306 313.090237 
L 434.568567 313.176814 
L 434.987828 313.740797 
L 435.407088 314.802756 
L 436.24561 318.308528 
L 437.503392 325.721201 
L 439.180435 335.770057 
L 440.438217 342.030863 
L 441.695999 347.056693 
L 442.953781 350.994673 
L 443.792303 352.982557 
L 444.630824 354.330113 
L 445.050085 354.728957 
L 445.469346 354.93265 
L 445.888606 354.936333 
L 446.307867 354.737069 
L 446.727128 354.332944 
L 447.146388 353.723214 
L 447.98491 351.90254 
L 448.823431 349.407024 
L 450.081213 345.39889 
L 450.500474 344.38033 
L 450.919735 343.697272 
L 451.338996 343.425589 
L 451.758256 343.599462 
L 452.177517 344.204437 
L 453.016038 346.432188 
L 455.112342 353.263858 
L 455.950863 355.15175 
L 456.789385 356.504222 
L 458.047167 357.982527 
L 459.72421 359.62466 
L 460.981992 360.579863 
L 461.820513 360.985362 
L 462.659035 361.181305 
L 463.497556 361.165018 
L 464.336078 360.937009 
L 465.174599 360.508739 
L 466.432381 359.589873 
L 468.528685 357.989447 
L 469.367206 357.558018 
L 470.205728 357.392305 
L 471.044249 357.593826 
L 471.882771 358.167995 
L 474.398335 360.456221 
L 475.236856 360.850565 
L 476.075378 360.967528 
L 476.913899 360.806948 
L 477.752421 360.332182 
L 478.590942 359.436834 
L 479.429463 357.941385 
L 480.267985 355.649689 
L 481.106506 352.506559 
L 482.783549 345.369976 
L 483.20281 344.040761 
L 483.622071 343.120479 
L 484.041331 342.67227 
L 484.460592 342.710517 
L 484.879853 343.201535 
L 485.299113 344.073777 
L 486.137635 346.585833 
L 488.653199 355.065239 
L 489.491721 357.278938 
L 490.330242 359.013768 
L 491.168763 360.281608 
L 492.007285 361.163328 
L 492.845806 361.764628 
L 494.103588 362.339392 
L 495.780631 362.787394 
L 498.296196 363.156007 
L 502.069542 363.429019 
L 508.358453 363.611418 
L 521.355535 363.729113 
L 535.610399 363.654273 
L 541.480049 363.445296 
L 544.414874 363.132984 
L 546.091917 362.730652 
L 547.349699 362.152612 
L 548.188221 361.532 
L 549.026742 360.652735 
L 549.865263 359.488665 
L 551.123046 357.296212 
L 553.63861 352.700518 
L 554.057871 352.217617 
L 554.477131 351.93229 
L 554.896392 351.885966 
L 555.315653 352.102932 
L 555.734913 352.583265 
L 556.573435 354.20403 
L 558.669738 359.241838 
L 559.50826 360.658851 
L 560.346781 361.624661 
L 561.185303 362.251506 
L 562.443085 362.804472 
L 564.120128 363.185489 
L 566.635692 363.457484 
L 570.828299 363.648589 
L 579.632774 363.779048 
L 604.369156 363.848721 
L 619.043281 363.866639 
L 619.043281 363.866639 
" clip-path="url(#p0b0d0db094)" style="fill: none; stroke: #ff7f0e; stroke-width: 1.8; stroke-linecap: round"/>
   </g>
   <g id="line2d_33">
    <path d="M 32.078281 259.087955 
L 32.497542 257.313593 
L 32.916803 256.222308 
L 33.336063 255.888042 
L 33.755324 256.299851 
L 34.174585 257.367138 
L 35.013106 260.834241 
L 36.270888 266.754438 
L 37.10941 269.805883 
L 37.947931 271.830869 
L 38.786453 272.966628 
L 39.205713 273.265304 
L 39.624974 273.411706 
L 40.044235 273.417835 
L 40.463496 273.288206 
L 40.882756 273.019826 
L 41.302017 272.602219 
L 41.721278 272.017215 
L 42.559799 270.23061 
L 43.398321 267.337911 
L 44.236842 262.861084 
L 45.075363 256.212864 
L 45.913885 246.944445 
L 48.429449 213.737013 
L 48.84871 211.134115 
L 49.267971 210.362633 
L 49.687231 211.513782 
L 50.106492 214.473571 
L 50.945013 224.50172 
L 52.622056 248.679077 
L 53.460578 257.895573 
L 54.299099 264.43384 
L 55.137621 268.82089 
L 55.976142 271.698669 
L 56.814663 273.577977 
L 57.653185 274.802834 
L 58.491706 275.582972 
L 59.330228 276.034257 
L 60.168749 276.202925 
L 61.007271 276.081076 
L 61.845792 275.637945 
L 62.684313 274.879991 
L 64.361356 273.037287 
L 65.199878 272.544077 
L 65.619138 272.522268 
L 66.038399 272.661916 
L 66.876921 273.359061 
L 70.231006 277.219904 
L 71.488788 278.035173 
L 72.746571 278.53058 
L 74.423613 278.878335 
L 76.519917 279.059784 
L 79.454742 279.088562 
L 81.970306 278.923073 
L 83.647349 278.637116 
L 84.905131 278.224263 
L 85.743653 277.766373 
L 86.582174 277.058663 
L 87.420696 275.983981 
L 88.259217 274.451636 
L 89.516999 271.434048 
L 90.774781 268.541565 
L 91.194042 267.867835 
L 91.613303 267.406442 
L 92.032563 267.168763 
L 92.451824 267.146801 
L 92.871085 267.318665 
L 93.709606 268.130126 
L 94.548128 269.395567 
L 96.225171 272.633756 
L 97.482953 274.908736 
L 98.321474 276.0224 
L 99.159996 276.760317 
L 99.998517 277.16712 
L 100.837038 277.301718 
L 101.67556 277.193675 
L 102.514081 276.824589 
L 103.352603 276.129669 
L 104.191124 275.021229 
L 105.029646 273.441074 
L 106.287428 270.302804 
L 108.383731 264.607724 
L 109.222253 262.873814 
L 109.641513 262.297795 
L 110.060774 261.994224 
L 110.480035 262.01551 
L 110.899296 262.394325 
L 111.318556 263.133032 
L 112.157078 265.52542 
L 114.253381 272.927068 
L 115.091903 275.035171 
L 115.930424 276.481046 
L 116.768946 277.423105 
L 117.607467 278.033231 
L 118.865249 278.591825 
L 120.542292 279.000502 
L 123.057856 279.302983 
L 126.831203 279.469697 
L 131.443071 279.435961 
L 134.797156 279.218681 
L 136.89346 278.895992 
L 138.151242 278.546102 
L 139.409024 277.957272 
L 140.247546 277.341094 
L 141.086067 276.447725 
L 141.924588 275.162514 
L 142.76311 273.354025 
L 143.601631 270.921515 
L 144.859413 266.232449 
L 146.536456 259.757004 
L 147.374978 257.298928 
L 148.213499 255.743488 
L 148.63276 255.403714 
L 149.052021 255.419289 
L 149.471281 255.831238 
L 149.890542 256.65981 
L 150.309803 257.892735 
L 151.148324 261.336026 
L 153.244628 270.952293 
L 154.083149 273.624707 
L 154.921671 275.478491 
L 155.760192 276.710584 
L 156.598713 277.523136 
L 157.437235 278.06752 
L 158.695017 278.584851 
L 160.37206 278.973649 
L 162.887624 279.260995 
L 166.24171 279.394382 
L 169.595796 279.335083 
L 172.11136 279.0815 
L 173.369142 278.787401 
L 174.626924 278.235126 
L 175.465446 277.637194 
L 176.303967 276.816094 
L 177.98101 274.706141 
L 179.238792 273.218414 
L 180.077313 272.495599 
L 180.915835 272.092752 
L 181.335096 272.046062 
L 181.754356 272.121947 
L 182.173617 272.329635 
L 183.012138 273.128515 
L 184.269921 274.949469 
L 185.527703 276.726777 
L 186.366224 277.595139 
L 187.204746 278.189909 
L 188.462528 278.707636 
L 190.139571 279.020847 
L 192.655135 279.164562 
L 196.009221 279.103805 
L 199.363306 278.825089 
L 201.878871 278.396624 
L 203.555913 277.908283 
L 204.813696 277.338122 
L 205.652217 276.793577 
L 206.490738 276.039173 
L 207.32926 274.974824 
L 208.167781 273.467958 
L 209.006303 271.357377 
L 209.844824 268.466253 
L 210.683346 264.607829 
L 211.521867 259.605624 
L 212.360388 253.40584 
L 214.037431 238.710365 
L 215.295213 228.129146 
L 216.133735 222.582571 
L 216.552996 220.624895 
L 216.972256 219.42595 
L 217.391517 219.143081 
L 217.810778 219.889917 
L 218.230038 221.702788 
L 218.649299 224.52067 
L 219.487821 232.469211 
L 221.584124 254.65742 
L 222.422646 261.218818 
L 223.261167 266.146532 
L 224.099688 269.698268 
L 224.93821 272.16486 
L 225.776731 273.817855 
L 226.615253 274.880378 
L 227.453774 275.508408 
L 228.292296 275.786275 
L 229.130817 275.728455 
L 229.969338 275.296085 
L 230.80786 274.447391 
L 231.646381 273.227327 
L 232.904163 271.239834 
L 233.742685 270.408332 
L 234.161946 270.278817 
L 234.581206 270.363379 
L 235.000467 270.650729 
L 235.838988 271.693817 
L 238.354553 275.459407 
L 239.193074 276.29252 
L 240.031596 276.867931 
L 240.870117 277.209658 
L 241.708638 277.336814 
L 242.54716 277.253794 
L 243.385681 276.947539 
L 244.224203 276.394889 
L 245.062724 275.579368 
L 245.901246 274.507325 
L 247.159028 272.501046 
L 248.836071 269.717336 
L 249.255331 269.229203 
L 249.674592 268.920799 
L 250.093853 268.832127 
L 250.513113 268.984893 
L 250.932374 269.376735 
L 251.770896 270.746654 
L 253.867199 274.953558 
L 254.705721 276.081202 
L 255.544242 276.804265 
L 256.382763 277.219302 
L 257.221285 277.422677 
L 258.479067 277.461709 
L 259.736849 277.251579 
L 260.994631 276.771857 
L 261.833153 276.236444 
L 262.671674 275.431802 
L 263.510196 274.205958 
L 264.348717 272.306124 
L 265.187238 269.364189 
L 266.02576 264.970965 
L 266.864281 258.937238 
L 268.960585 242.065503 
L 269.379846 240.143293 
L 269.799106 239.19597 
L 270.218367 239.283774 
L 270.637628 240.354829 
L 271.056888 242.2572 
L 271.89541 247.639896 
L 273.153192 256.199409 
L 273.991713 260.526304 
L 274.830235 263.385582 
L 275.249496 264.307742 
L 275.668756 264.934635 
L 276.088017 265.303128 
L 276.507278 265.453135 
L 276.926538 265.429158 
L 277.76506 265.070208 
L 278.603581 264.706223 
L 279.022842 264.674756 
L 279.442103 264.802508 
L 279.861363 265.104955 
L 280.699885 266.153106 
L 281.957667 267.962185 
L 282.376928 268.352384 
L 282.796188 268.551616 
L 283.215449 268.542156 
L 283.63471 268.331262 
L 284.473231 267.441207 
L 286.150274 265.217342 
L 287.408056 264.057125 
L 288.246578 263.255539 
L 289.085099 262.044006 
L 289.923621 260.168873 
L 290.762142 257.528647 
L 291.600663 254.174598 
L 292.858446 248.112458 
L 294.954749 237.348578 
L 295.793271 234.179889 
L 296.631792 232.175805 
L 297.470313 231.140878 
L 298.308835 230.726023 
L 299.147356 230.737372 
L 299.566617 230.900811 
L 299.985878 231.191066 
L 300.405138 231.640562 
L 300.824399 232.296977 
L 301.24366 233.220472 
L 301.662921 234.473597 
L 302.501442 238.129081 
L 303.339963 243.180965 
L 305.017006 253.928422 
L 305.855528 257.65415 
L 306.694049 259.844452 
L 307.532571 260.914918 
L 308.790353 261.758707 
L 310.048135 262.443991 
L 310.467396 262.462739 
L 310.886656 262.241543 
L 311.305917 261.701443 
L 311.725178 260.787954 
L 312.563699 257.833953 
L 314.240742 250.334151 
L 314.660003 249.177537 
L 315.079263 248.655228 
L 315.498524 248.845314 
L 315.917785 249.742441 
L 316.337046 251.261519 
L 317.175567 255.548166 
L 318.433349 262.515955 
L 319.271871 266.128394 
L 320.110392 268.532376 
L 320.529653 269.284086 
L 320.948913 269.749375 
L 321.368174 269.938743 
L 321.787435 269.861614 
L 322.206696 269.526864 
L 322.625956 268.943659 
L 323.464478 267.073234 
L 324.302999 264.347436 
L 325.560781 259.050972 
L 326.818563 253.839077 
L 327.237824 252.673275 
L 327.657085 252.023358 
L 328.076346 251.988463 
L 328.495606 252.610767 
L 328.914867 253.864051 
L 329.753388 257.843033 
L 331.430431 267.298376 
L 332.268953 270.880153 
L 333.107474 273.376626 
L 333.945996 275.008701 
L 334.784517 276.056563 
L 335.623038 276.739554 
L 336.880821 277.366561 
L 338.138603 277.71911 
L 339.815646 277.94183 
L 341.492688 277.944421 
L 342.750471 277.776597 
L 344.008253 277.387518 
L 345.266035 276.725629 
L 349.039381 274.140351 
L 349.877903 273.417933 
L 350.716424 272.452967 
L 351.974206 270.527536 
L 353.231988 268.546712 
L 354.07051 267.654151 
L 354.909031 267.205965 
L 355.747553 266.898248 
L 356.166813 266.623717 
L 356.586074 266.167019 
L 357.005335 265.464215 
L 357.424596 264.472658 
L 358.263117 261.598152 
L 359.520899 255.755789 
L 360.778681 250.023876 
L 361.617203 247.084837 
L 362.455724 245.050035 
L 362.874985 244.406767 
L 363.294246 244.038939 
L 363.713506 243.961999 
L 364.132767 244.177166 
L 364.552028 244.665059 
L 365.390549 246.2844 
L 367.067592 250.613101 
L 369.163896 255.829859 
L 372.098721 262.611683 
L 372.937242 264.039053 
L 373.356503 264.507488 
L 373.775763 264.776349 
L 374.195024 264.826684 
L 374.614285 264.644621 
L 375.033546 264.219925 
L 375.452806 263.545288 
L 376.291328 261.437284 
L 377.129849 258.394699 
L 378.806892 251.405466 
L 379.226153 250.160721 
L 379.645413 249.393307 
L 380.064674 249.197093 
L 380.483935 249.60897 
L 380.903196 250.601941 
L 381.741717 253.952745 
L 384.257281 266.139471 
L 385.095803 269.045359 
L 385.934324 271.174745 
L 386.772846 272.556385 
L 387.192106 272.979289 
L 387.611367 273.228989 
L 388.030628 273.307159 
L 388.449888 273.213332 
L 388.869149 272.945984 
L 389.28841 272.504979 
L 390.126931 271.131215 
L 392.642496 265.843515 
L 393.061756 265.419067 
L 393.481017 265.236479 
L 393.900278 265.284336 
L 394.319538 265.526532 
L 395.15806 266.375892 
L 396.415842 267.718144 
L 396.835103 268.004188 
L 397.254363 268.154569 
L 397.673624 268.141471 
L 398.092885 267.938548 
L 398.512146 267.52178 
L 398.931406 266.872322 
L 399.769928 264.854075 
L 400.608449 262.024908 
L 401.866231 257.424363 
L 402.704753 255.171571 
L 403.124013 254.474158 
L 403.543274 254.066069 
L 403.962535 253.906268 
L 404.801056 254.066382 
L 406.058838 254.503501 
L 406.89736 254.442095 
L 407.735881 254.03985 
L 409.412924 253.038476 
L 409.832185 252.941213 
L 410.251446 252.958814 
L 410.670706 253.114473 
L 411.089967 253.435065 
L 411.509228 253.952174 
L 411.928488 254.698235 
L 412.76701 256.958657 
L 413.605531 260.155983 
L 415.701835 268.769824 
L 416.540356 271.069968 
L 417.378878 272.478169 
L 417.798138 272.885262 
L 418.217399 273.121406 
L 418.63666 273.206156 
L 419.055921 273.157522 
L 419.894442 272.728064 
L 420.732963 271.971787 
L 421.990746 270.501438 
L 422.829267 269.328133 
L 423.667788 267.783175 
L 424.50631 265.49643 
L 425.344831 262.116257 
L 426.183353 257.600595 
L 427.860396 248.0017 
L 428.279656 246.368907 
L 428.698917 245.293297 
L 429.118178 244.792913 
L 429.537438 244.800588 
L 429.956699 245.171095 
L 430.795221 246.170195 
L 431.214481 246.356928 
L 431.633742 246.090139 
L 432.053003 245.265352 
L 432.472263 243.86343 
L 433.310785 239.702882 
L 434.149306 235.088433 
L 434.568567 233.245742 
L 434.987828 232.012594 
L 435.407088 231.526862 
L 435.826349 231.833028 
L 436.24561 232.884502 
L 436.664871 234.563796 
L 437.503392 239.168454 
L 439.599696 251.787803 
L 440.438217 255.630177 
L 441.276738 258.220165 
L 441.695999 258.999514 
L 442.11526 259.454212 
L 442.534521 259.631443 
L 442.953781 259.603892 
L 444.211563 259.271257 
L 444.630824 259.40991 
L 445.050085 259.795911 
L 445.469346 260.452838 
L 446.307867 262.484403 
L 448.404171 268.685305 
L 449.242692 270.476949 
L 450.081213 271.666868 
L 450.919735 272.287246 
L 451.338996 272.403112 
L 452.177517 272.300449 
L 453.016038 271.856526 
L 455.531603 270.123782 
L 456.370124 269.872988 
L 457.208646 269.9777 
L 458.047167 270.5515 
L 458.885688 271.596377 
L 461.401253 275.350195 
L 462.239774 276.070722 
L 463.078296 276.413053 
L 463.916817 276.392213 
L 464.755338 275.986996 
L 465.59386 275.10403 
L 466.432381 273.575001 
L 467.270903 271.215548 
L 468.109424 267.991103 
L 469.786467 260.885122 
L 470.205728 259.679175 
L 470.624988 258.956065 
L 471.044249 258.785225 
L 471.46351 259.177911 
L 471.882771 260.086 
L 472.721292 263.029898 
L 474.817596 271.415813 
L 475.656117 273.780959 
L 476.494638 275.501548 
L 477.33316 276.71103 
L 478.171681 277.54399 
L 479.010203 278.113716 
L 480.267985 278.656696 
L 481.945028 279.06957 
L 484.460592 279.400248 
L 488.653199 279.667957 
L 496.619153 279.895457 
L 515.485885 280.085087 
L 570.828299 280.139813 
L 619.043281 280.139813 
L 619.043281 280.139813 
" clip-path="url(#p0b0d0db094)" style="fill: none; stroke: #2ca02c; stroke-width: 1.8; stroke-linecap: round"/>
   </g>
   <g id="line2d_34">
    <path d="M 32.078281 196.191612 
L 34.593846 196.076155 
L 52.202796 196.318778 
L 58.910967 196.176045 
L 63.103574 195.894356 
L 69.811746 195.183847 
L 71.069528 194.673758 
L 72.32731 193.84991 
L 76.100656 190.998298 
L 76.939178 190.677446 
L 77.358438 190.669269 
L 77.777699 190.785084 
L 78.616221 191.381004 
L 79.874003 192.833189 
L 81.131785 194.207989 
L 81.970306 194.854913 
L 83.228088 195.45557 
L 84.485871 195.776777 
L 86.582174 196.032504 
L 90.355521 196.202113 
L 98.321474 196.288357 
L 109.222253 196.206185 
L 112.995599 196.015928 
L 114.672642 195.78225 
L 115.930424 195.419337 
L 116.768946 194.998762 
L 117.607467 194.354898 
L 118.445988 193.441824 
L 120.542292 190.784193 
L 120.961553 190.484468 
L 121.380813 190.348623 
L 121.800074 190.388223 
L 122.219335 190.594936 
L 123.057856 191.392247 
L 125.15416 193.822048 
L 125.992681 194.498015 
L 127.250463 195.174247 
L 128.508246 195.561918 
L 130.185288 195.7913 
L 131.862331 195.804646 
L 133.539374 195.609373 
L 134.797156 195.276095 
L 136.054938 194.712832 
L 137.731981 193.592334 
L 138.570503 193.071023 
L 139.409024 192.814489 
L 140.247546 192.94713 
L 141.086067 193.433312 
L 143.601631 195.258496 
L 144.859413 195.742167 
L 146.536456 196.044873 
L 149.052021 196.215781 
L 154.921671 196.324113 
L 175.884706 196.36019 
L 204.813696 196.276095 
L 211.521867 196.094542 
L 214.456692 195.804692 
L 216.133735 195.399534 
L 217.391517 194.856985 
L 218.649299 194.061357 
L 219.907081 193.037127 
L 222.841906 190.340707 
L 223.261167 190.188012 
L 223.680428 190.166163 
L 224.518949 190.499746 
L 226.615253 191.935205 
L 227.034513 191.991083 
L 227.453774 191.909701 
L 228.292296 191.356525 
L 229.969338 189.655941 
L 230.388599 189.411443 
L 230.80786 189.332814 
L 231.227121 189.438613 
L 231.646381 189.724289 
L 232.484903 190.715923 
L 234.581206 193.620305 
L 235.419728 194.398011 
L 236.258249 194.939865 
L 237.516031 195.447821 
L 239.193074 195.802222 
L 241.708638 196.040729 
L 246.320506 196.198276 
L 254.705721 196.234947 
L 262.252413 196.058249 
L 265.187238 195.832781 
L 268.960585 195.471389 
L 271.056888 195.462477 
L 273.991713 195.771672 
L 276.088017 195.876206 
L 281.538406 195.799017 
L 284.053971 195.57206 
L 285.731013 195.213094 
L 287.408056 194.617773 
L 289.923621 193.685439 
L 291.600663 193.040717 
L 292.439185 192.496313 
L 293.277706 191.686978 
L 294.116228 190.546268 
L 294.954749 189.063929 
L 296.212531 186.304226 
L 297.470313 183.001056 
L 298.728096 179.625593 
L 299.147356 178.773703 
L 299.566617 178.214499 
L 299.985878 178.029084 
L 300.405138 178.264446 
L 300.824399 178.921309 
L 301.662921 181.269111 
L 303.759224 188.498348 
L 304.597746 190.500028 
L 305.436267 191.888884 
L 306.274788 192.794684 
L 307.11331 193.320808 
L 307.951831 193.534265 
L 308.790353 193.474713 
L 309.628874 193.157518 
L 310.467396 192.574675 
L 311.305917 191.702461 
L 312.563699 189.906228 
L 313.402221 188.669995 
L 314.240742 187.862118 
L 314.660003 187.744742 
L 315.079263 187.85439 
L 315.498524 188.186861 
L 316.337046 189.381527 
L 318.433349 192.930018 
L 319.271871 193.831419 
L 320.110392 194.398888 
L 320.948913 194.72023 
L 322.206696 194.891542 
L 323.464478 194.766236 
L 324.302999 194.484302 
L 325.141521 193.97546 
L 325.980042 193.172364 
L 326.818563 192.064014 
L 328.495606 189.629364 
L 329.334128 188.935923 
L 329.753388 188.821066 
L 330.172649 188.85551 
L 331.011171 189.254548 
L 332.688213 190.287817 
L 333.526735 190.50624 
L 334.365256 190.480999 
L 336.042299 190.248515 
L 336.880821 190.454916 
L 337.719342 191.023358 
L 341.492688 194.399793 
L 342.750471 195.022454 
L 344.008253 195.425438 
L 345.685296 195.728739 
L 348.20086 195.931891 
L 352.812728 196.045508 
L 356.586074 195.939394 
L 359.94016 195.852514 
L 366.229071 195.849166 
L 374.614285 195.756487 
L 377.54911 195.611299 
L 382.160978 195.628311 
L 383.838021 195.395066 
L 385.515063 194.958255 
L 387.611367 194.402577 
L 388.869149 194.328069 
L 391.803974 194.335774 
L 393.061756 194.125952 
L 394.738799 193.581587 
L 395.996581 192.951781 
L 396.835103 192.347262 
L 397.673624 191.511126 
L 398.512146 190.338647 
L 399.350667 188.652408 
L 400.189188 186.180529 
L 401.02771 182.552255 
L 401.866231 177.282282 
L 402.704753 169.889801 
L 403.962535 155.249902 
L 404.801056 145.593887 
L 405.220317 141.890981 
L 405.639578 139.423551 
L 406.058838 138.426814 
L 406.478099 138.973844 
L 406.89736 140.962818 
L 407.735881 148.159274 
L 409.832185 169.532627 
L 410.670706 175.755275 
L 411.509228 180.541126 
L 412.347749 184.156912 
L 413.186271 186.836939 
L 414.024792 188.824724 
L 414.863313 190.330977 
L 415.701835 191.48501 
L 416.540356 192.365632 
L 417.798138 193.333504 
L 419.055921 194.031017 
L 420.313703 194.514325 
L 421.990746 194.916015 
L 424.50631 195.231862 
L 428.698917 195.523297 
L 432.472263 195.587312 
L 435.407088 195.441796 
L 437.503392 195.134526 
L 438.761174 194.743147 
L 440.018956 194.133533 
L 441.695999 193.261605 
L 442.534521 193.064056 
L 443.373042 193.118834 
L 445.050085 193.652697 
L 446.307867 193.959069 
L 447.565649 194.016219 
L 449.661953 193.983977 
L 450.919735 194.257682 
L 453.85456 195.160017 
L 455.531603 195.336627 
L 457.627906 195.311379 
L 460.143471 195.055435 
L 461.820513 194.681185 
L 463.078296 194.149193 
L 463.916817 193.579691 
L 464.755338 192.775894 
L 466.013121 191.15277 
L 467.270903 189.529681 
L 468.109424 188.871596 
L 468.947946 188.665077 
L 470.624988 188.738162 
L 471.044249 188.619043 
L 471.46351 188.36802 
L 471.882771 187.94908 
L 472.302031 187.323251 
L 472.721292 186.445123 
L 473.140553 185.259538 
L 473.559813 183.698685 
L 473.979074 181.680491 
L 474.817596 175.88922 
L 475.656117 167.190868 
L 476.494638 155.588551 
L 477.752421 136.783002 
L 478.171681 131.866012 
L 478.590942 128.383824 
L 479.010203 126.630017 
L 479.429463 126.703844 
L 479.848724 128.495448 
L 480.267985 131.71513 
L 481.106506 140.783464 
L 482.364288 155.237485 
L 483.20281 163.07975 
L 484.041331 169.252236 
L 484.879853 174.049678 
L 485.718374 177.814796 
L 486.976156 182.334159 
L 488.233938 186.15007 
L 489.491721 189.160948 
L 490.330242 190.65395 
L 491.168763 191.812149 
L 492.007285 192.710987 
L 493.265067 193.674186 
L 494.522849 194.308507 
L 496.199892 194.850918 
L 498.296196 195.25218 
L 501.231021 195.583879 
L 505.842888 195.870324 
L 512.970321 196.085763 
L 525.548142 196.24217 
L 566.635692 196.404557 
L 605.207678 196.296295 
L 608.142503 196.09517 
L 610.658067 195.686915 
L 613.592892 195.116878 
L 614.850674 195.215532 
L 616.946978 195.790073 
L 618.624021 196.140216 
L 619.043281 196.196546 
L 619.043281 196.196546 
" clip-path="url(#p0b0d0db094)" style="fill: none; stroke: #d62728; stroke-width: 1.8; stroke-linecap: round"/>
   </g>
   <g id="line2d_35">
    <path d="M 32.078281 110.279589 
L 33.336063 108.956151 
L 34.174585 107.829539 
L 35.013106 106.282905 
L 35.851628 104.06626 
L 36.690149 101.010928 
L 37.947931 95.134949 
L 39.205713 89.213543 
L 40.044235 86.157259 
L 40.882756 84.120008 
L 41.302017 83.512258 
L 41.721278 83.197211 
L 42.140538 83.193701 
L 42.559799 83.516701 
L 42.97906 84.167331 
L 43.817581 86.343725 
L 45.075363 90.8732 
L 46.333146 95.260491 
L 47.171667 97.441733 
L 47.590928 98.190388 
L 48.010188 98.656544 
L 48.429449 98.803275 
L 48.84871 98.605725 
L 49.267971 98.060377 
L 49.687231 97.193732 
L 50.525753 94.782769 
L 51.364274 92.268815 
L 51.783535 91.332513 
L 52.202796 90.779919 
L 52.622056 90.6898 
L 53.041317 91.086382 
L 53.460578 91.938121 
L 54.299099 94.666861 
L 56.395403 102.717508 
L 57.233924 105.178871 
L 58.072446 107.075056 
L 58.910967 108.475275 
L 59.749488 109.473525 
L 60.58801 110.170405 
L 61.845792 110.842465 
L 63.522835 111.357502 
L 65.619138 111.721164 
L 68.973224 112.035754 
L 74.423613 112.28367 
L 84.06661 112.464298 
L 110.060774 112.641588 
L 129.346767 112.626795 
L 140.666806 112.566796 
L 161.210581 112.376189 
L 169.595796 112.106527 
L 174.207663 111.768427 
L 177.142488 111.367317 
L 179.238792 110.889153 
L 180.915835 110.278128 
L 182.173617 109.572762 
L 183.012138 108.901182 
L 183.85066 107.966463 
L 184.689181 106.618518 
L 185.527703 104.604064 
L 186.366224 101.503475 
L 187.204746 96.693267 
L 188.043267 89.436317 
L 188.881788 79.27997 
L 190.978092 49.166813 
L 191.397353 45.341444 
L 191.816613 43.192346 
L 192.235874 42.897401 
L 192.655135 44.438755 
L 193.074396 47.611373 
L 193.912917 57.383051 
L 195.58996 79.687928 
L 196.428481 88.473256 
L 197.267003 95.158657 
L 198.105524 100.023351 
L 198.944046 103.44109 
L 199.782567 105.784738 
L 200.621088 107.380043 
L 201.45961 108.47814 
L 202.298131 109.255589 
L 203.555913 110.05661 
L 204.813696 110.592119 
L 206.490738 111.071733 
L 209.006303 111.513008 
L 212.360388 111.83853 
L 216.972256 112.044757 
L 222.003385 112.051995 
L 224.93821 111.89033 
L 226.615253 111.63142 
L 227.873035 111.255271 
L 229.130817 110.62718 
L 230.388599 109.66193 
L 231.646381 108.329143 
L 233.742685 105.992576 
L 234.581206 105.435109 
L 235.419728 105.181475 
L 236.258249 105.166671 
L 237.516031 105.442615 
L 238.773813 105.984536 
L 240.031596 106.785 
L 241.289378 107.904635 
L 243.804942 110.413504 
L 245.062724 111.212316 
L 246.320506 111.670365 
L 247.997549 111.983333 
L 250.513113 112.196716 
L 255.544242 112.35437 
L 264.767978 112.423855 
L 271.476149 112.243173 
L 274.410974 111.995133 
L 276.088017 111.683378 
L 277.345799 111.234366 
L 278.184321 110.735285 
L 279.022842 109.994769 
L 279.861363 108.970435 
L 282.376928 105.310853 
L 283.215449 104.651314 
L 283.63471 104.509215 
L 284.473231 104.571765 
L 285.311753 105.021064 
L 286.150274 105.779368 
L 287.408056 107.303016 
L 288.665838 108.842351 
L 289.50436 109.626543 
L 290.342881 110.141464 
L 291.181403 110.39817 
L 292.019924 110.425866 
L 292.858446 110.233192 
L 293.696967 109.788866 
L 294.535488 109.018972 
L 295.37401 107.824509 
L 296.212531 106.133178 
L 297.470313 102.781732 
L 299.566617 96.943104 
L 300.405138 95.269197 
L 300.824399 94.71192 
L 301.24366 94.403572 
L 301.662921 94.390976 
L 302.082181 94.708784 
L 302.501442 95.368445 
L 303.339963 97.604421 
L 305.855528 106.2555 
L 306.694049 108.173036 
L 307.532571 109.483848 
L 308.371092 110.348407 
L 309.209613 110.918043 
L 310.467396 111.44658 
L 312.144438 111.836091 
L 314.660003 112.135501 
L 318.85261 112.362078 
L 326.818563 112.522506 
L 345.266035 112.616381 
L 393.481017 112.52706 
L 399.350667 112.33048 
L 401.866231 112.088282 
L 403.543274 111.73408 
L 404.801056 111.215889 
L 405.639578 110.660942 
L 406.478099 109.889325 
L 407.735881 108.35126 
L 410.251446 105.018412 
L 411.089967 104.273123 
L 411.509228 104.066545 
L 411.928488 104.006804 
L 412.347749 104.114061 
L 412.76701 104.396087 
L 413.605531 105.434142 
L 416.540356 110.124267 
L 417.378878 110.888667 
L 418.217399 111.391198 
L 419.475181 111.835043 
L 421.152224 112.138288 
L 424.087049 112.375059 
L 429.537438 112.533125 
L 442.534521 112.627519 
L 494.522849 112.674581 
L 619.043281 112.674581 
L 619.043281 112.674581 
" clip-path="url(#p0b0d0db094)" style="fill: none; stroke: #9467bd; stroke-width: 1.8; stroke-linecap: round"/>
   </g>
   <g id="patch_3">
    <path d="M 32.078281 467.807344 
L 32.078281 22.663594 
" style="fill: none; stroke: #cccccc; stroke-linejoin: miter; stroke-linecap: square"/>
   </g>
   <g id="patch_4">
    <path d="M 619.043281 467.807344 
L 619.043281 22.663594 
" style="fill: none; stroke: #cccccc; stroke-linejoin: miter; stroke-linecap: square"/>
   </g>
   <g id="patch_5">
    <path d="M 32.078281 467.807344 
L 619.043281 467.807344 
" style="fill: none; stroke: #cccccc; stroke-linejoin: miter; stroke-linecap: square"/>
   </g>
   <g id="patch_6">
    <path d="M 32.078281 22.663594 
L 619.043281 22.663594 
" style="fill: none; stroke: #cccccc; stroke-linejoin: miter; stroke-linecap: square"/>
   </g>
   <g id="text_18">
    <!-- Stacked Gaussian-Broadened Raman Spectra -->
    <g style="fill: #262626" transform="translate(191.881172 16.663594) scale(0.13 -0.13)">
     <defs>
      <path id="ArialMT-53" d="M 288 1472 
L 859 1522 
Q 900 1178 1048 958 
Q 1197 738 1509 602 
Q 1822 466 2213 466 
Q 2559 466 2825 569 
Q 3091 672 3220 851 
Q 3350 1031 3350 1244 
Q 3350 1459 3225 1620 
Q 3100 1781 2813 1891 
Q 2628 1963 1997 2114 
Q 1366 2266 1113 2400 
Q 784 2572 623 2826 
Q 463 3081 463 3397 
Q 463 3744 659 4045 
Q 856 4347 1234 4503 
Q 1613 4659 2075 4659 
Q 2584 4659 2973 4495 
Q 3363 4331 3572 4012 
Q 3781 3694 3797 3291 
L 3216 3247 
Q 3169 3681 2898 3903 
Q 2628 4125 2100 4125 
Q 1550 4125 1298 3923 
Q 1047 3722 1047 3438 
Q 1047 3191 1225 3031 
Q 1400 2872 2139 2705 
Q 2878 2538 3153 2413 
Q 3553 2228 3743 1945 
Q 3934 1663 3934 1294 
Q 3934 928 3725 604 
Q 3516 281 3123 101 
Q 2731 -78 2241 -78 
Q 1619 -78 1198 103 
Q 778 284 539 648 
Q 300 1013 288 1472 
z
" transform="scale(0.015625)"/>
      <path id="ArialMT-6b" d="M 425 0 
L 425 4581 
L 988 4581 
L 988 1969 
L 2319 3319 
L 3047 3319 
L 1778 2088 
L 3175 0 
L 2481 0 
L 1384 1697 
L 988 1316 
L 988 0 
L 425 0 
z
" transform="scale(0.015625)"/>
      <path id="ArialMT-47" d="M 2638 1797 
L 2638 2334 
L 4578 2338 
L 4578 638 
Q 4131 281 3656 101 
Q 3181 -78 2681 -78 
Q 2006 -78 1454 211 
Q 903 500 622 1047 
Q 341 1594 341 2269 
Q 341 2938 620 3517 
Q 900 4097 1425 4378 
Q 1950 4659 2634 4659 
Q 3131 4659 3532 4498 
Q 3934 4338 4162 4050 
Q 4391 3763 4509 3300 
L 3963 3150 
Q 3859 3500 3706 3700 
Q 3553 3900 3268 4020 
Q 2984 4141 2638 4141 
Q 2222 4141 1919 4014 
Q 1616 3888 1430 3681 
Q 1244 3475 1141 3228 
Q 966 2803 966 2306 
Q 966 1694 1177 1281 
Q 1388 869 1791 669 
Q 2194 469 2647 469 
Q 3041 469 3416 620 
Q 3791 772 3984 944 
L 3984 1797 
L 2638 1797 
z
" transform="scale(0.015625)"/>
      <path id="ArialMT-75" d="M 2597 0 
L 2597 488 
Q 2209 -75 1544 -75 
Q 1250 -75 995 37 
Q 741 150 617 320 
Q 494 491 444 738 
Q 409 903 409 1263 
L 409 3319 
L 972 3319 
L 972 1478 
Q 972 1038 1006 884 
Q 1059 663 1231 536 
Q 1403 409 1656 409 
Q 1909 409 2131 539 
Q 2353 669 2445 892 
Q 2538 1116 2538 1541 
L 2538 3319 
L 3100 3319 
L 3100 0 
L 2597 0 
z
" transform="scale(0.015625)"/>
      <path id="ArialMT-2d" d="M 203 1375 
L 203 1941 
L 1931 1941 
L 1931 1375 
L 203 1375 
z
" transform="scale(0.015625)"/>
      <path id="ArialMT-42" d="M 469 0 
L 469 4581 
L 2188 4581 
Q 2713 4581 3030 4442 
Q 3347 4303 3526 4014 
Q 3706 3725 3706 3409 
Q 3706 3116 3547 2856 
Q 3388 2597 3066 2438 
Q 3481 2316 3704 2022 
Q 3928 1728 3928 1328 
Q 3928 1006 3792 729 
Q 3656 453 3456 303 
Q 3256 153 2954 76 
Q 2653 0 2216 0 
L 469 0 
z
M 1075 2656 
L 2066 2656 
Q 2469 2656 2644 2709 
Q 2875 2778 2992 2937 
Q 3109 3097 3109 3338 
Q 3109 3566 3000 3739 
Q 2891 3913 2687 3977 
Q 2484 4041 1991 4041 
L 1075 4041 
L 1075 2656 
z
M 1075 541 
L 2216 541 
Q 2509 541 2628 563 
Q 2838 600 2978 687 
Q 3119 775 3209 942 
Q 3300 1109 3300 1328 
Q 3300 1584 3169 1773 
Q 3038 1963 2805 2039 
Q 2572 2116 2134 2116 
L 1075 2116 
L 1075 541 
z
" transform="scale(0.015625)"/>
      <path id="ArialMT-70" d="M 422 -1272 
L 422 3319 
L 934 3319 
L 934 2888 
Q 1116 3141 1344 3267 
Q 1572 3394 1897 3394 
Q 2322 3394 2647 3175 
Q 2972 2956 3137 2557 
Q 3303 2159 3303 1684 
Q 3303 1175 3120 767 
Q 2938 359 2589 142 
Q 2241 -75 1856 -75 
Q 1575 -75 1351 44 
Q 1128 163 984 344 
L 984 -1272 
L 422 -1272 
z
M 931 1641 
Q 931 1000 1190 694 
Q 1450 388 1819 388 
Q 2194 388 2461 705 
Q 2728 1022 2728 1688 
Q 2728 2322 2467 2637 
Q 2206 2953 1844 2953 
Q 1484 2953 1207 2617 
Q 931 2281 931 1641 
z
" transform="scale(0.015625)"/>
     </defs>
     <use xlink:href="#ArialMT-53"/>
     <use xlink:href="#ArialMT-74" transform="translate(66.699219 0)"/>
     <use xlink:href="#ArialMT-61" transform="translate(94.482422 0)"/>
     <use xlink:href="#ArialMT-63" transform="translate(150.097656 0)"/>
     <use xlink:href="#ArialMT-6b" transform="translate(200.097656 0)"/>
     <use xlink:href="#ArialMT-65" transform="translate(250.097656 0)"/>
     <use xlink:href="#ArialMT-64" transform="translate(305.712891 0)"/>
     <use xlink:href="#ArialMT-20" transform="translate(361.328125 0)"/>
     <use xlink:href="#ArialMT-47" transform="translate(389.111328 0)"/>
     <use xlink:href="#ArialMT-61" transform="translate(466.894531 0)"/>
     <use xlink:href="#ArialMT-75" transform="translate(522.509766 0)"/>
     <use xlink:href="#ArialMT-73" transform="translate(578.125 0)"/>
     <use xlink:href="#ArialMT-73" transform="translate(628.125 0)"/>
     <use xlink:href="#ArialMT-69" transform="translate(678.125 0)"/>
     <use xlink:href="#ArialMT-61" transform="translate(700.341797 0)"/>
     <use xlink:href="#ArialMT-6e" transform="translate(755.957031 0)"/>
     <use xlink:href="#ArialMT-2d" transform="translate(811.572266 0)"/>
     <use xlink:href="#ArialMT-42" transform="translate(844.873047 0)"/>
     <use xlink:href="#ArialMT-72" transform="translate(911.572266 0)"/>
     <use xlink:href="#ArialMT-6f" transform="translate(944.873047 0)"/>
     <use xlink:href="#ArialMT-61" transform="translate(1000.488281 0)"/>
     <use xlink:href="#ArialMT-64" transform="translate(1056.103516 0)"/>
     <use xlink:href="#ArialMT-65" transform="translate(1111.71875 0)"/>
     <use xlink:href="#ArialMT-6e" transform="translate(1167.333984 0)"/>
     <use xlink:href="#ArialMT-65" transform="translate(1222.949219 0)"/>
     <use xlink:href="#ArialMT-64" transform="translate(1278.564453 0)"/>
     <use xlink:href="#ArialMT-20" transform="translate(1334.179688 0)"/>
     <use xlink:href="#ArialMT-52" transform="translate(1361.962891 0)"/>
     <use xlink:href="#ArialMT-61" transform="translate(1434.179688 0)"/>
     <use xlink:href="#ArialMT-6d" transform="translate(1489.794922 0)"/>
     <use xlink:href="#ArialMT-61" transform="translate(1573.095703 0)"/>
     <use xlink:href="#ArialMT-6e" transform="translate(1628.710938 0)"/>
     <use xlink:href="#ArialMT-20" transform="translate(1684.326172 0)"/>
     <use xlink:href="#ArialMT-53" transform="translate(1712.109375 0)"/>
     <use xlink:href="#ArialMT-70" transform="translate(1778.808594 0)"/>
     <use xlink:href="#ArialMT-65" transform="translate(1834.423828 0)"/>
     <use xlink:href="#ArialMT-63" transform="translate(1890.039062 0)"/>
     <use xlink:href="#ArialMT-74" transform="translate(1940.039062 0)"/>
     <use xlink:href="#ArialMT-72" transform="translate(1967.822266 0)"/>
     <use xlink:href="#ArialMT-61" transform="translate(2001.123047 0)"/>
    </g>
   </g>
   <g id="legend_1">
    <g id="patch_7">
     <path d="M 440.893906 94.164375 
L 612.743281 94.164375 
Q 614.543281 94.164375 614.543281 92.364375 
L 614.543281 28.963594 
Q 614.543281 27.163594 612.743281 27.163594 
L 440.893906 27.163594 
Q 439.093906 27.163594 439.093906 28.963594 
L 439.093906 92.364375 
Q 439.093906 94.164375 440.893906 94.164375 
z
" style="fill: #ffffff; opacity: 0.8; stroke: #cccccc; stroke-linejoin: miter"/>
    </g>
    <g id="line2d_36">
     <path d="M 442.693906 34.170937 
L 451.693906 34.170937 
L 460.693906 34.170937 
" style="fill: none; stroke: #1f77b4; stroke-width: 1.8; stroke-linecap: round"/>
    </g>
    <g id="text_19">
     <!-- 3-Deoxy-D-Manno-Octulosonic Acid -->
     <g style="fill: #262626" transform="translate(467.893906 37.320937) scale(0.09 -0.09)">
      <defs>
       <path id="ArialMT-44" d="M 494 0 
L 494 4581 
L 2072 4581 
Q 2606 4581 2888 4516 
Q 3281 4425 3559 4188 
Q 3922 3881 4101 3404 
Q 4281 2928 4281 2316 
Q 4281 1794 4159 1391 
Q 4038 988 3847 723 
Q 3656 459 3429 307 
Q 3203 156 2883 78 
Q 2563 0 2147 0 
L 494 0 
z
M 1100 541 
L 2078 541 
Q 2531 541 2789 625 
Q 3047 709 3200 863 
Q 3416 1078 3536 1442 
Q 3656 1806 3656 2325 
Q 3656 3044 3420 3430 
Q 3184 3816 2847 3947 
Q 2603 4041 2063 4041 
L 1100 4041 
L 1100 541 
z
" transform="scale(0.015625)"/>
       <path id="ArialMT-78" d="M 47 0 
L 1259 1725 
L 138 3319 
L 841 3319 
L 1350 2541 
Q 1494 2319 1581 2169 
Q 1719 2375 1834 2534 
L 2394 3319 
L 3066 3319 
L 1919 1756 
L 3153 0 
L 2463 0 
L 1781 1031 
L 1600 1309 
L 728 0 
L 47 0 
z
" transform="scale(0.015625)"/>
       <path id="ArialMT-4d" d="M 475 0 
L 475 4581 
L 1388 4581 
L 2472 1338 
Q 2622 884 2691 659 
Q 2769 909 2934 1394 
L 4031 4581 
L 4847 4581 
L 4847 0 
L 4263 0 
L 4263 3834 
L 2931 0 
L 2384 0 
L 1059 3900 
L 1059 0 
L 475 0 
z
" transform="scale(0.015625)"/>
       <path id="ArialMT-4f" d="M 309 2231 
Q 309 3372 921 4017 
Q 1534 4663 2503 4663 
Q 3138 4663 3647 4359 
Q 4156 4056 4423 3514 
Q 4691 2972 4691 2284 
Q 4691 1588 4409 1038 
Q 4128 488 3612 205 
Q 3097 -78 2500 -78 
Q 1853 -78 1343 234 
Q 834 547 571 1087 
Q 309 1628 309 2231 
z
M 934 2222 
Q 934 1394 1379 917 
Q 1825 441 2497 441 
Q 3181 441 3623 922 
Q 4066 1403 4066 2288 
Q 4066 2847 3877 3264 
Q 3688 3681 3323 3911 
Q 2959 4141 2506 4141 
Q 1863 4141 1398 3698 
Q 934 3256 934 2222 
z
" transform="scale(0.015625)"/>
       <path id="ArialMT-41" d="M -9 0 
L 1750 4581 
L 2403 4581 
L 4278 0 
L 3588 0 
L 3053 1388 
L 1138 1388 
L 634 0 
L -9 0 
z
M 1313 1881 
L 2866 1881 
L 2388 3150 
Q 2169 3728 2063 4100 
Q 1975 3659 1816 3225 
L 1313 1881 
z
" transform="scale(0.015625)"/>
      </defs>
      <use xlink:href="#ArialMT-33"/>
      <use xlink:href="#ArialMT-2d" transform="translate(55.615234 0)"/>
      <use xlink:href="#ArialMT-44" transform="translate(88.916016 0)"/>
      <use xlink:href="#ArialMT-65" transform="translate(161.132812 0)"/>
      <use xlink:href="#ArialMT-6f" transform="translate(216.748047 0)"/>
      <use xlink:href="#ArialMT-78" transform="translate(272.363281 0)"/>
      <use xlink:href="#ArialMT-79" transform="translate(322.363281 0)"/>
      <use xlink:href="#ArialMT-2d" transform="translate(372.363281 0)"/>
      <use xlink:href="#ArialMT-44" transform="translate(405.664062 0)"/>
      <use xlink:href="#ArialMT-2d" transform="translate(477.880859 0)"/>
      <use xlink:href="#ArialMT-4d" transform="translate(511.181641 0)"/>
      <use xlink:href="#ArialMT-61" transform="translate(594.482422 0)"/>
      <use xlink:href="#ArialMT-6e" transform="translate(650.097656 0)"/>
      <use xlink:href="#ArialMT-6e" transform="translate(705.712891 0)"/>
      <use xlink:href="#ArialMT-6f" transform="translate(761.328125 0)"/>
      <use xlink:href="#ArialMT-2d" transform="translate(816.943359 0)"/>
      <use xlink:href="#ArialMT-4f" transform="translate(850.244141 0)"/>
      <use xlink:href="#ArialMT-63" transform="translate(928.027344 0)"/>
      <use xlink:href="#ArialMT-74" transform="translate(978.027344 0)"/>
      <use xlink:href="#ArialMT-75" transform="translate(1005.810547 0)"/>
      <use xlink:href="#ArialMT-6c" transform="translate(1061.425781 0)"/>
      <use xlink:href="#ArialMT-6f" transform="translate(1083.642578 0)"/>
      <use xlink:href="#ArialMT-73" transform="translate(1139.257812 0)"/>
      <use xlink:href="#ArialMT-6f" transform="translate(1189.257812 0)"/>
      <use xlink:href="#ArialMT-6e" transform="translate(1244.873047 0)"/>
      <use xlink:href="#ArialMT-69" transform="translate(1300.488281 0)"/>
      <use xlink:href="#ArialMT-63" transform="translate(1322.705078 0)"/>
      <use xlink:href="#ArialMT-20" transform="translate(1372.705078 0)"/>
      <use xlink:href="#ArialMT-41" transform="translate(1394.988281 0)"/>
      <use xlink:href="#ArialMT-63" transform="translate(1461.6875 0)"/>
      <use xlink:href="#ArialMT-69" transform="translate(1511.6875 0)"/>
      <use xlink:href="#ArialMT-64" transform="translate(1533.904297 0)"/>
     </g>
    </g>
    <g id="line2d_37">
     <path d="M 442.693906 47.007187 
L 451.693906 47.007187 
L 460.693906 47.007187 
" style="fill: none; stroke: #ff7f0e; stroke-width: 1.8; stroke-linecap: round"/>
    </g>
    <g id="text_20">
     <!-- D-glucosamine -->
     <g style="fill: #262626" transform="translate(467.893906 50.157187) scale(0.09 -0.09)">
      <defs>
       <path id="ArialMT-67" d="M 319 -275 
L 866 -356 
Q 900 -609 1056 -725 
Q 1266 -881 1628 -881 
Q 2019 -881 2231 -725 
Q 2444 -569 2519 -288 
Q 2563 -116 2559 434 
Q 2191 0 1641 0 
Q 956 0 581 494 
Q 206 988 206 1678 
Q 206 2153 378 2554 
Q 550 2956 876 3175 
Q 1203 3394 1644 3394 
Q 2231 3394 2613 2919 
L 2613 3319 
L 3131 3319 
L 3131 450 
Q 3131 -325 2973 -648 
Q 2816 -972 2473 -1159 
Q 2131 -1347 1631 -1347 
Q 1038 -1347 672 -1080 
Q 306 -813 319 -275 
z
M 784 1719 
Q 784 1066 1043 766 
Q 1303 466 1694 466 
Q 2081 466 2343 764 
Q 2606 1063 2606 1700 
Q 2606 2309 2336 2618 
Q 2066 2928 1684 2928 
Q 1309 2928 1046 2623 
Q 784 2319 784 1719 
z
" transform="scale(0.015625)"/>
      </defs>
      <use xlink:href="#ArialMT-44"/>
      <use xlink:href="#ArialMT-2d" transform="translate(72.216797 0)"/>
      <use xlink:href="#ArialMT-67" transform="translate(105.517578 0)"/>
      <use xlink:href="#ArialMT-6c" transform="translate(161.132812 0)"/>
      <use xlink:href="#ArialMT-75" transform="translate(183.349609 0)"/>
      <use xlink:href="#ArialMT-63" transform="translate(238.964844 0)"/>
      <use xlink:href="#ArialMT-6f" transform="translate(288.964844 0)"/>
      <use xlink:href="#ArialMT-73" transform="translate(344.580078 0)"/>
      <use xlink:href="#ArialMT-61" transform="translate(394.580078 0)"/>
      <use xlink:href="#ArialMT-6d" transform="translate(450.195312 0)"/>
      <use xlink:href="#ArialMT-69" transform="translate(533.496094 0)"/>
      <use xlink:href="#ArialMT-6e" transform="translate(555.712891 0)"/>
      <use xlink:href="#ArialMT-65" transform="translate(611.328125 0)"/>
     </g>
    </g>
    <g id="line2d_38">
     <path d="M 442.693906 59.953125 
L 451.693906 59.953125 
L 460.693906 59.953125 
" style="fill: none; stroke: #2ca02c; stroke-width: 1.8; stroke-linecap: round"/>
    </g>
    <g id="text_21">
     <!-- L-Glycero-D-Manno-Heptose -->
     <g style="fill: #262626" transform="translate(467.893906 63.103125) scale(0.09 -0.09)">
      <defs>
       <path id="ArialMT-4c" d="M 469 0 
L 469 4581 
L 1075 4581 
L 1075 541 
L 3331 541 
L 3331 0 
L 469 0 
z
" transform="scale(0.015625)"/>
       <path id="ArialMT-48" d="M 513 0 
L 513 4581 
L 1119 4581 
L 1119 2700 
L 3500 2700 
L 3500 4581 
L 4106 4581 
L 4106 0 
L 3500 0 
L 3500 2159 
L 1119 2159 
L 1119 0 
L 513 0 
z
" transform="scale(0.015625)"/>
      </defs>
      <use xlink:href="#ArialMT-4c"/>
      <use xlink:href="#ArialMT-2d" transform="translate(55.615234 0)"/>
      <use xlink:href="#ArialMT-47" transform="translate(88.916016 0)"/>
      <use xlink:href="#ArialMT-6c" transform="translate(166.699219 0)"/>
      <use xlink:href="#ArialMT-79" transform="translate(188.916016 0)"/>
      <use xlink:href="#ArialMT-63" transform="translate(238.916016 0)"/>
      <use xlink:href="#ArialMT-65" transform="translate(288.916016 0)"/>
      <use xlink:href="#ArialMT-72" transform="translate(344.53125 0)"/>
      <use xlink:href="#ArialMT-6f" transform="translate(377.832031 0)"/>
      <use xlink:href="#ArialMT-2d" transform="translate(433.447266 0)"/>
      <use xlink:href="#ArialMT-44" transform="translate(466.748047 0)"/>
      <use xlink:href="#ArialMT-2d" transform="translate(538.964844 0)"/>
      <use xlink:href="#ArialMT-4d" transform="translate(572.265625 0)"/>
      <use xlink:href="#ArialMT-61" transform="translate(655.566406 0)"/>
      <use xlink:href="#ArialMT-6e" transform="translate(711.181641 0)"/>
      <use xlink:href="#ArialMT-6e" transform="translate(766.796875 0)"/>
      <use xlink:href="#ArialMT-6f" transform="translate(822.412109 0)"/>
      <use xlink:href="#ArialMT-2d" transform="translate(878.027344 0)"/>
      <use xlink:href="#ArialMT-48" transform="translate(911.328125 0)"/>
      <use xlink:href="#ArialMT-65" transform="translate(983.544922 0)"/>
      <use xlink:href="#ArialMT-70" transform="translate(1039.160156 0)"/>
      <use xlink:href="#ArialMT-74" transform="translate(1094.775391 0)"/>
      <use xlink:href="#ArialMT-6f" transform="translate(1122.558594 0)"/>
      <use xlink:href="#ArialMT-73" transform="translate(1178.173828 0)"/>
      <use xlink:href="#ArialMT-65" transform="translate(1228.173828 0)"/>
     </g>
    </g>
    <g id="line2d_39">
     <path d="M 442.693906 72.789375 
L 451.693906 72.789375 
L 460.693906 72.789375 
" style="fill: none; stroke: #d62728; stroke-width: 1.8; stroke-linecap: round"/>
    </g>
    <g id="text_22">
     <!-- Myristic Acid -->
     <g style="fill: #262626" transform="translate(467.893906 75.939375) scale(0.09 -0.09)">
      <use xlink:href="#ArialMT-4d"/>
      <use xlink:href="#ArialMT-79" transform="translate(83.300781 0)"/>
      <use xlink:href="#ArialMT-72" transform="translate(133.300781 0)"/>
      <use xlink:href="#ArialMT-69" transform="translate(166.601562 0)"/>
      <use xlink:href="#ArialMT-73" transform="translate(188.818359 0)"/>
      <use xlink:href="#ArialMT-74" transform="translate(238.818359 0)"/>
      <use xlink:href="#ArialMT-69" transform="translate(266.601562 0)"/>
      <use xlink:href="#ArialMT-63" transform="translate(288.818359 0)"/>
      <use xlink:href="#ArialMT-20" transform="translate(338.818359 0)"/>
      <use xlink:href="#ArialMT-41" transform="translate(361.101562 0)"/>
      <use xlink:href="#ArialMT-63" transform="translate(427.800781 0)"/>
      <use xlink:href="#ArialMT-69" transform="translate(477.800781 0)"/>
      <use xlink:href="#ArialMT-64" transform="translate(500.017578 0)"/>
     </g>
    </g>
    <g id="line2d_40">
     <path d="M 442.693906 85.625625 
L 451.693906 85.625625 
L 460.693906 85.625625 
" style="fill: none; stroke: #9467bd; stroke-width: 1.8; stroke-linecap: round"/>
    </g>
    <g id="text_23">
     <!-- Phosphoric acid -->
     <g style="fill: #262626" transform="translate(467.893906 88.775625) scale(0.09 -0.09)">
      <defs>
       <path id="ArialMT-50" d="M 494 0 
L 494 4581 
L 2222 4581 
Q 2678 4581 2919 4538 
Q 3256 4481 3484 4323 
Q 3713 4166 3852 3881 
Q 3991 3597 3991 3256 
Q 3991 2672 3619 2267 
Q 3247 1863 2275 1863 
L 1100 1863 
L 1100 0 
L 494 0 
z
M 1100 2403 
L 2284 2403 
Q 2872 2403 3119 2622 
Q 3366 2841 3366 3238 
Q 3366 3525 3220 3729 
Q 3075 3934 2838 4000 
Q 2684 4041 2272 4041 
L 1100 4041 
L 1100 2403 
z
" transform="scale(0.015625)"/>
      </defs>
      <use xlink:href="#ArialMT-50"/>
      <use xlink:href="#ArialMT-68" transform="translate(66.699219 0)"/>
      <use xlink:href="#ArialMT-6f" transform="translate(122.314453 0)"/>
      <use xlink:href="#ArialMT-73" transform="translate(177.929688 0)"/>
      <use xlink:href="#ArialMT-70" transform="translate(227.929688 0)"/>
      <use xlink:href="#ArialMT-68" transform="translate(283.544922 0)"/>
      <use xlink:href="#ArialMT-6f" transform="translate(339.160156 0)"/>
      <use xlink:href="#ArialMT-72" transform="translate(394.775391 0)"/>
      <use xlink:href="#ArialMT-69" transform="translate(428.076172 0)"/>
      <use xlink:href="#ArialMT-63" transform="translate(450.292969 0)"/>
      <use xlink:href="#ArialMT-20" transform="translate(500.292969 0)"/>
      <use xlink:href="#ArialMT-61" transform="translate(528.076172 0)"/>
      <use xlink:href="#ArialMT-63" transform="translate(583.691406 0)"/>
      <use xlink:href="#ArialMT-69" transform="translate(633.691406 0)"/>
      <use xlink:href="#ArialMT-64" transform="translate(655.908203 0)"/>
     </g>
    </g>
   </g>
  </g>
 </g>
 <defs>
  <clipPath id="p0b0d0db094">
   <rect x="32.078281" y="22.663594" width="586.965" height="445.14375"/>
  </clipPath>
 </defs>
</svg>
